<!-- Generated by IcoMoon.io -->
<svg version="1.1" xmlns="http://www.w3.org/2000/svg" width="31" height="32" viewBox="0 0 31 32">
<title>paw</title>
<path d="M9.35 31.926c4.077 0.456 3.151-1.331 7.067-1.509 4.013-0.18 6.171 3.175 8.818 0.377 1.804-1.907-3.945-12.182-9.1-11.528-2.542 0.322-3.258 0.271-5.927 3.117-0.546 0.583-2.663 3.965-2.849 6.258-0.028 0.151-0.044 0.326-0.044 0.504 0 1.296 0.845 2.395 2.014 2.776l0.021 0.006z"></path>
<path d="M14.892 9.589c0.555 2.587-0.574 5.371-2.496 5.757s-3.922-1.566-4.464-4.359 0.547-5.428 2.493-5.661c1.845-0.219 3.837 1.313 4.468 4.263z"></path>
<path d="M23.717 11.518c-0.705 2.825-3.038 4.268-4.942 3.651s-2.3-3.783-1.955-5.888c0.471-2.875 3.191-4.711 5.029-3.908 1.658 0.725 2.538 3.458 1.868 6.145z"></path>
<path d="M23.469 21.764c2.108 1.627 3.869 0.242 5.4-1.876 0.349-0.483 1.618-3.507 0.154-5.504-1.099-1.498-3.445-1.283-4.694 0.087-3.048 3.342-1.4 6.875-0.859 7.293z"></path>
<path d="M8.538 16.496c1.39 2.273 1.256 4.91-0.299 5.891s-3.943-0.065-5.333-2.337c-0.404-0.661-1.7-4.657 0.496-5.769 2.588-1.312 4.478 1.14 5.136 2.215z"></path>
<path d="M0.695 10.343c0.378-0.218 1.122 0.376 1.667 1.334s0.681 1.912 0.304 2.133-1.123-0.377-1.667-1.334-0.682-1.915-0.304-2.133z"></path>
<path d="M28.456 10.66c0.485-1.024 1.187-1.702 1.568-1.518s0.291 1.173-0.188 2.193-1.191 1.7-1.572 1.517-0.295-1.165 0.191-2.191z"></path>
<path d="M21.562 2.15c0.383-1.19 1.026-2.046 1.435-1.91s0.431 1.211 0.049 2.401-1.025 2.044-1.435 1.91-0.431-1.211-0.049-2.401z"></path>
<path d="M7.625 0.945c0.402-0.158 1.092 0.655 1.544 1.821s0.492 2.24 0.091 2.4-1.092-0.655-1.543-1.82-0.493-2.243-0.091-2.401z"></path>
</svg>
