<!-- Generated by IcoMoon.io -->
<svg version="1.1" xmlns="http://www.w3.org/2000/svg" width="32" height="32" viewBox="0 0 32 32">
<title>security</title>
<path d="M28.747 3.826l-12.521-3.754c-0.175-0.053-0.363-0.053-0.539 0l-12.521 3.757c-0.395 0.119-0.667 0.482-0.667 0.896v13.774c0 1.791 0.726 3.626 2.154 5.451 1.093 1.393 2.605 2.793 4.493 4.161 3.172 2.295 6.294 3.704 6.425 3.764 0.122 0.053 0.251 0.081 0.382 0.081s0.26-0.028 0.382-0.081c0.131-0.059 3.253-1.468 6.425-3.764 1.888-1.365 3.4-2.768 4.49-4.161 1.431-1.825 2.154-3.66 2.154-5.451v-13.777c0.006-0.413-0.263-0.777-0.658-0.896zM27.541 18.495c0 3.169-3.181 6.143-5.849 8.078-2.392 1.735-4.819 2.965-5.736 3.41-0.917-0.442-3.344-1.672-5.736-3.41-2.668-1.935-5.849-4.91-5.849-8.078v-13.079l11.585-3.476 11.585 3.476v13.079z"></path>
<path d="M13.799 16.135c-0.063-0.135-0.222-0.191-0.357-0.128s-0.191 0.222-0.128 0.357c0.047 0.1 0.072 0.207 0.072 0.316v0.576c0 0.407-0.332 0.739-0.739 0.739s-0.739-0.332-0.739-0.739v-0.576c0-0.407 0.332-0.739 0.739-0.739 0.147 0 0.269-0.119 0.269-0.269 0-0.147-0.119-0.269-0.269-0.269-0.704 0-1.274 0.573-1.274 1.274v0.576c0 0.704 0.573 1.274 1.274 1.274s1.274-0.573 1.274-1.274v-0.576c0.003-0.185-0.041-0.369-0.122-0.542z"></path>
<path d="M20.418 16.135c-0.063-0.135-0.222-0.191-0.357-0.128s-0.191 0.222-0.128 0.357c0.047 0.1 0.072 0.207 0.072 0.316v0.576c0 0.407-0.332 0.739-0.739 0.739s-0.739-0.332-0.739-0.739v-0.576c0-0.407 0.332-0.739 0.739-0.739 0.147 0 0.269-0.119 0.269-0.269 0-0.147-0.119-0.269-0.269-0.269-0.704 0-1.274 0.573-1.274 1.274v0.576c0 0.704 0.573 1.274 1.274 1.274 0.704 0 1.274-0.573 1.274-1.274v-0.576c0-0.185-0.041-0.369-0.122-0.542z"></path>
<path d="M18.746 21.382c-0.1-0.11-0.269-0.119-0.379-0.022-0.269 0.241-0.614 0.373-0.971 0.373-0.294 0-0.579-0.088-0.82-0.254-0.369-0.254-0.867-0.254-1.237 0-0.241 0.166-0.526 0.254-0.82 0.254-0.357 0-0.704-0.131-0.971-0.373-0.11-0.1-0.279-0.091-0.379 0.022-0.1 0.11-0.091 0.279 0.022 0.379 0.366 0.329 0.839 0.51 1.331 0.51 0.006 0 0.013 0 0.019 0v0.307c0 0.783 0.636 1.418 1.418 1.418s1.418-0.636 1.418-1.418v-0.307c0.006 0 0.013 0 0.019 0 0.492 0 0.961-0.182 1.331-0.51 0.11-0.097 0.119-0.266 0.019-0.379zM16.839 22.578c0 0.485-0.395 0.883-0.883 0.883-0.485 0-0.883-0.395-0.883-0.883v-0.385c0.2-0.059 0.391-0.147 0.567-0.266 0.016-0.009 0.031-0.019 0.047-0.028v0.395c0 0.147 0.119 0.269 0.269 0.269 0.147 0 0.269-0.119 0.269-0.269v-0.395c0.016 0.009 0.031 0.019 0.047 0.028 0.175 0.119 0.366 0.21 0.567 0.266v0.385z"></path>
<path d="M17.127 19.112c-0.1-0.21-0.307-0.338-0.535-0.338h-1.271c-0.232 0-0.438 0.128-0.535 0.338-0.1 0.21-0.072 0.451 0.075 0.629l0.636 0.786c0.113 0.141 0.282 0.222 0.463 0.222s0.348-0.081 0.463-0.222l0.636-0.786c0.141-0.178 0.169-0.42 0.069-0.629zM16.636 19.404l-0.636 0.786c-0.016 0.019-0.031 0.022-0.044 0.022s-0.031-0.003-0.044-0.022l-0.636-0.786c-0.016-0.019-0.019-0.041-0.006-0.063 0.009-0.022 0.028-0.034 0.053-0.034h1.271c0.025 0 0.041 0.013 0.053 0.034 0.006 0.025 0.003 0.044-0.013 0.063z"></path>
<path d="M24.369 19.732c-0.147-0.041-0.304-0.075-0.47-0.106 0.25-0.755 0.379-1.553 0.379-2.367 0-1.008-0.197-1.985-0.576-2.893v-6.688c0-0.329-0.185-0.62-0.482-0.761s-0.639-0.1-0.895 0.106l-3.482 2.831c-0.914-0.319-1.888-0.488-2.89-0.488s-1.979 0.166-2.89 0.488l-3.482-2.831c-0.254-0.207-0.598-0.247-0.896-0.106s-0.482 0.432-0.482 0.761v6.685c-0.379 0.908-0.576 1.888-0.576 2.893 0 0.814 0.128 1.613 0.379 2.367-0.163 0.031-0.319 0.069-0.47 0.106-0.144 0.038-0.229 0.185-0.191 0.329 0.031 0.119 0.141 0.197 0.26 0.197 0.022 0 0.047-0.003 0.069-0.009 0.16-0.044 0.335-0.081 0.517-0.116 0.182 0.438 0.404 0.861 0.664 1.262-0.279 0.116-0.548 0.238-0.802 0.369-0.131 0.069-0.182 0.232-0.113 0.363 0.047 0.091 0.141 0.144 0.238 0.144 0.041 0 0.085-0.009 0.122-0.031 0.272-0.141 0.567-0.272 0.87-0.395 0.266 0.351 0.564 0.686 0.892 0.996 1.572 1.487 3.66 2.308 5.88 2.308s4.308-0.82 5.88-2.308c0.329-0.313 0.626-0.645 0.892-0.996 0.304 0.122 0.598 0.254 0.87 0.395 0.041 0.022 0.081 0.031 0.122 0.031 0.097 0 0.191-0.053 0.238-0.144 0.069-0.131 0.016-0.294-0.113-0.363-0.254-0.131-0.523-0.254-0.802-0.369 0.263-0.401 0.485-0.823 0.664-1.262 0.182 0.034 0.357 0.072 0.517 0.116 0.022 0.006 0.047 0.009 0.069 0.009 0.119 0 0.225-0.078 0.26-0.197 0.056-0.141-0.028-0.288-0.172-0.326zM22.669 7.44c0.094-0.075 0.216-0.091 0.326-0.038s0.175 0.153 0.175 0.276l-0.52 0.586c-0.097 0.11-0.088 0.282 0.022 0.379 0.050 0.044 0.116 0.069 0.178 0.069 0.075 0 0.147-0.031 0.2-0.091l0.116-0.132v4.828c-0.363-0.592-0.808-1.143-1.331-1.638-0.272-0.26-0.56-0.495-0.864-0.714l1.318-1.484c0.097-0.11 0.088-0.282-0.022-0.379s-0.282-0.088-0.379 0.022l-1.365 1.54c-0.354-0.219-0.72-0.413-1.102-0.579l3.247-2.646zM8.921 7.399c0.11-0.053 0.232-0.038 0.326 0.038l3.247 2.64c-0.382 0.166-0.751 0.36-1.102 0.579l-2.646-2.981c0-0.122 0.066-0.222 0.175-0.276zM8.745 8.482l2.195 2.474c-0.301 0.216-0.592 0.454-0.864 0.714-0.523 0.495-0.971 1.046-1.331 1.638 0 0.003 0-4.825 0-4.825zM23.361 19.535c-1.644-0.232-3.626-0.175-3.726-0.172-0.147 0.003-0.266 0.128-0.26 0.276 0.003 0.147 0.128 0.263 0.276 0.26 0.025 0 1.926-0.053 3.51 0.15-0.175 0.401-0.385 0.783-0.629 1.146-1.581-0.586-3.234-0.911-3.322-0.927-0.144-0.028-0.285 0.066-0.316 0.213s0.066 0.285 0.213 0.316c0.022 0.003 1.581 0.313 3.097 0.855-1.422 1.8-3.692 2.965-6.247 2.965s-4.825-1.168-6.247-2.965c1.512-0.542 3.075-0.849 3.097-0.855 0.144-0.028 0.241-0.169 0.213-0.316-0.028-0.144-0.169-0.241-0.313-0.213-0.088 0.019-1.741 0.344-3.322 0.927-0.244-0.36-0.454-0.745-0.629-1.146 1.584-0.204 3.485-0.15 3.51-0.15 0.147 0.006 0.272-0.113 0.276-0.26s-0.113-0.272-0.26-0.276c-0.1-0.003-2.085-0.059-3.726 0.172-0.247-0.717-0.382-1.484-0.382-2.276 0-4.055 3.494-7.355 7.787-7.355s7.787 3.3 7.787 7.355c-0.003 0.792-0.138 1.559-0.385 2.276z"></path>
</svg>
