<!-- Generated by IcoMoon.io -->
<svg version="1.1" xmlns="http://www.w3.org/2000/svg" width="32" height="32" viewBox="0 0 32 32">
<title>standard</title>
<path d="M16.219 13.454c-0.063-0.132-0.219-0.188-0.351-0.125s-0.188 0.219-0.125 0.351c0.047 0.097 0.069 0.2 0.069 0.31v0.564c0 0.398-0.326 0.723-0.723 0.723s-0.723-0.326-0.723-0.723v-0.564c0-0.398 0.326-0.723 0.723-0.723 0.144 0 0.263-0.119 0.263-0.263s-0.119-0.263-0.263-0.263c-0.689 0-1.246 0.56-1.246 1.246v0.564c0 0.689 0.56 1.246 1.246 1.246 0.689 0 1.246-0.56 1.246-1.246v-0.564c0.003-0.185-0.038-0.363-0.116-0.532z"></path>
<path d="M22.691 13.454c-0.063-0.132-0.219-0.188-0.351-0.125s-0.188 0.219-0.125 0.351c0.047 0.097 0.069 0.2 0.069 0.31v0.564c0 0.398-0.326 0.723-0.723 0.723s-0.723-0.326-0.723-0.723v-0.564c0-0.398 0.326-0.723 0.723-0.723 0.144 0 0.263-0.119 0.263-0.263s-0.119-0.263-0.263-0.263c-0.689 0-1.246 0.56-1.246 1.246v0.564c0 0.689 0.56 1.246 1.246 1.246 0.689 0 1.246-0.56 1.246-1.246v-0.564c0.006-0.185-0.034-0.363-0.116-0.532z"></path>
<path d="M21.057 18.589c-0.097-0.106-0.263-0.116-0.369-0.019-0.263 0.235-0.601 0.366-0.952 0.366-0.288 0-0.567-0.085-0.802-0.247-0.363-0.247-0.849-0.247-1.209 0-0.238 0.163-0.514 0.247-0.802 0.247-0.351 0-0.689-0.128-0.952-0.366-0.106-0.097-0.272-0.088-0.369 0.019s-0.088 0.272 0.019 0.369c0.36 0.323 0.82 0.501 1.303 0.501 0.006 0 0.013 0 0.019 0v0.301c0 0.764 0.623 1.387 1.387 1.387s1.387-0.623 1.387-1.387v-0.301c0.006 0 0.013 0 0.019 0 0.479 0 0.942-0.178 1.303-0.501 0.106-0.097 0.116-0.263 0.019-0.369zM19.191 19.76c0 0.476-0.388 0.864-0.864 0.864s-0.864-0.388-0.864-0.864v-0.379c0.197-0.056 0.382-0.144 0.554-0.263 0.016-0.009 0.031-0.019 0.047-0.028v0.385c0 0.144 0.119 0.263 0.263 0.263s0.263-0.119 0.263-0.263v-0.385c0.016 0.009 0.031 0.019 0.047 0.028 0.172 0.116 0.357 0.204 0.554 0.263v0.379z"></path>
<path d="M19.476 16.366c-0.097-0.204-0.297-0.332-0.526-0.332h-1.243c-0.225 0-0.429 0.128-0.526 0.332s-0.069 0.442 0.072 0.617l0.623 0.77c0.11 0.138 0.276 0.216 0.451 0.216s0.341-0.078 0.451-0.216l0.623-0.77c0.144-0.175 0.172-0.41 0.075-0.617zM18.993 16.654l-0.623 0.77c-0.013 0.019-0.031 0.022-0.044 0.022s-0.031-0.003-0.044-0.022l-0.623-0.77c-0.016-0.019-0.016-0.038-0.006-0.059s0.028-0.031 0.050-0.031h1.243c0.025 0 0.041 0.009 0.050 0.031 0.016 0.019 0.013 0.041-0.003 0.059z"></path>
<path d="M26.558 16.974c-0.144-0.038-0.297-0.072-0.457-0.103 0.244-0.739 0.373-1.519 0.373-2.317 0-0.986-0.194-1.941-0.564-2.831v-6.541c0-0.322-0.182-0.607-0.47-0.745-0.291-0.138-0.626-0.097-0.877 0.103l-3.407 2.768c-0.892-0.313-1.847-0.476-2.827-0.476s-1.935 0.163-2.827 0.476l-3.41-2.768c-0.251-0.204-0.586-0.244-0.877-0.103-0.291 0.138-0.47 0.423-0.47 0.745v6.541c-0.369 0.889-0.564 1.847-0.564 2.831 0 0.798 0.128 1.575 0.373 2.317-0.16 0.031-0.313 0.066-0.457 0.103-0.141 0.038-0.222 0.182-0.185 0.323 0.031 0.116 0.138 0.194 0.254 0.194 0.022 0 0.047-0.003 0.069-0.009 0.157-0.044 0.329-0.078 0.507-0.113 0.175 0.429 0.395 0.842 0.651 1.234-0.272 0.113-0.535 0.235-0.783 0.363-0.128 0.066-0.178 0.225-0.113 0.354 0.047 0.091 0.138 0.141 0.232 0.141 0.041 0 0.081-0.009 0.122-0.028 0.266-0.138 0.554-0.266 0.852-0.388 0.26 0.344 0.551 0.67 0.874 0.974 1.537 1.456 3.582 2.258 5.752 2.258s4.214-0.802 5.752-2.258c0.323-0.304 0.614-0.633 0.874-0.974 0.297 0.119 0.586 0.25 0.852 0.388 0.038 0.019 0.081 0.028 0.122 0.028 0.094 0 0.188-0.050 0.232-0.141 0.066-0.128 0.016-0.288-0.113-0.354-0.247-0.128-0.51-0.25-0.783-0.363 0.257-0.395 0.473-0.805 0.651-1.234 0.178 0.031 0.351 0.069 0.507 0.113 0.022 0.006 0.047 0.009 0.069 0.009 0.116 0 0.222-0.078 0.254-0.194 0.034-0.141-0.047-0.285-0.188-0.323zM24.892 4.947c0.091-0.075 0.21-0.088 0.319-0.038 0.106 0.050 0.169 0.15 0.172 0.269l-0.507 0.573c-0.097 0.11-0.088 0.276 0.022 0.369 0.050 0.044 0.113 0.066 0.175 0.066 0.072 0 0.144-0.031 0.197-0.088l0.116-0.128v4.722c-0.354-0.579-0.789-1.118-1.303-1.603-0.266-0.254-0.551-0.485-0.845-0.698l1.29-1.453c0.097-0.11 0.088-0.276-0.022-0.369-0.11-0.097-0.276-0.088-0.369 0.022l-1.343 1.503c-0.344-0.216-0.704-0.404-1.080-0.567l3.178-2.58zM11.444 4.91c0.106-0.050 0.225-0.038 0.319 0.038l3.175 2.58c-0.373 0.163-0.733 0.351-1.080 0.567l-2.586-2.915c0-0.119 0.066-0.219 0.172-0.269zM11.272 5.968l2.148 2.42c-0.294 0.213-0.579 0.445-0.845 0.698-0.514 0.485-0.949 1.024-1.303 1.603v-4.722zM25.572 16.78c-1.606-0.225-3.548-0.172-3.645-0.169-0.144 0.003-0.26 0.125-0.254 0.269s0.125 0.26 0.269 0.254c0.022 0 1.885-0.053 3.435 0.147-0.172 0.391-0.376 0.767-0.617 1.121-1.547-0.573-3.162-0.892-3.25-0.908-0.141-0.028-0.279 0.066-0.307 0.207s0.066 0.279 0.207 0.307c0.019 0.003 1.547 0.304 3.028 0.836-1.39 1.76-3.61 2.903-6.109 2.903s-4.719-1.143-6.109-2.903c1.481-0.529 3.009-0.83 3.028-0.836 0.141-0.028 0.235-0.166 0.207-0.307s-0.166-0.235-0.307-0.207c-0.088 0.016-1.703 0.335-3.25 0.908-0.238-0.354-0.445-0.73-0.617-1.121 1.55-0.2 3.41-0.147 3.435-0.147 0.144 0.006 0.266-0.11 0.269-0.254s-0.11-0.266-0.254-0.269c-0.1-0.003-2.038-0.056-3.645 0.169-0.241-0.701-0.376-1.45-0.376-2.229 0-3.967 3.416-7.195 7.618-7.195s7.618 3.228 7.618 7.198c0 0.777-0.135 1.525-0.376 2.226z"></path>
<path d="M7.796 16.946c-4.164 0-7.537 3.375-7.537 7.537s3.372 7.537 7.537 7.537 7.537-3.372 7.537-7.537-3.375-7.537-7.537-7.537zM11.56 30.278l-3.764-1.979-3.767 1.979 0.72-4.193-3.047-2.971 4.211-0.611 1.882-3.817 1.882 3.817 4.211 0.611-3.047 2.971 0.717 4.193z"></path>
<path d="M27.732 3.914c-2.511-2.511-5.855-3.895-9.406-3.895-3.554 0-6.888 1.381-9.4 3.892s-3.895 5.855-3.895 9.403c0 1.625 0.291 3.203 0.845 4.681 0.204-0.063 0.413-0.116 0.623-0.16-0.539-1.406-0.836-2.928-0.836-4.521 0-6.982 5.68-12.662 12.662-12.662s12.662 5.68 12.662 12.662-5.68 12.662-12.662 12.662c-1.459 0-2.859-0.247-4.164-0.704-0.038 0.213-0.085 0.423-0.141 0.626 1.368 0.467 2.818 0.711 4.305 0.711 3.551 0 6.888-1.381 9.4-3.892s3.898-5.849 3.898-9.403-1.381-6.888-3.892-9.4z"></path>
</svg>
