<!-- Generated by IcoMoon.io -->
<svg version="1.1" xmlns="http://www.w3.org/2000/svg" width="32" height="32" viewBox="0 0 32 32">
<title>versalify</title>
<path d="M14.256 16.651c-0.047-0.097-0.163-0.138-0.26-0.091s-0.138 0.163-0.091 0.26c0.034 0.072 0.050 0.15 0.050 0.229v0.416c0 0.294-0.241 0.535-0.535 0.535s-0.535-0.241-0.535-0.535v-0.416c0-0.294 0.241-0.535 0.535-0.535 0.106 0 0.194-0.088 0.194-0.194s-0.088-0.194-0.194-0.194c-0.51 0-0.927 0.416-0.927 0.927v0.416c0 0.51 0.416 0.927 0.927 0.927s0.927-0.416 0.927-0.927v-0.416c-0.003-0.144-0.034-0.279-0.091-0.401z"></path>
<path d="M19.056 16.651c-0.047-0.097-0.163-0.138-0.26-0.091s-0.138 0.163-0.091 0.26c0.034 0.072 0.050 0.15 0.050 0.229v0.416c0 0.294-0.241 0.535-0.535 0.535s-0.535-0.241-0.535-0.535v-0.416c0-0.294 0.241-0.535 0.535-0.535 0.106 0 0.194-0.088 0.194-0.194s-0.088-0.194-0.194-0.194c-0.51 0-0.927 0.416-0.927 0.927v0.416c0 0.51 0.416 0.927 0.927 0.927s0.927-0.416 0.927-0.927v-0.416c0-0.144-0.031-0.279-0.091-0.401z"></path>
<path d="M17.844 20.459c-0.072-0.081-0.194-0.088-0.276-0.016-0.194 0.175-0.445 0.272-0.704 0.272-0.213 0-0.42-0.063-0.595-0.185-0.269-0.185-0.629-0.185-0.899 0-0.175 0.119-0.382 0.185-0.595 0.185-0.26 0-0.51-0.097-0.704-0.272-0.081-0.072-0.204-0.066-0.276 0.016s-0.066 0.204 0.016 0.276c0.266 0.238 0.611 0.369 0.964 0.369 0.006 0 0.009 0 0.013 0v0.222c0 0.567 0.463 1.030 1.030 1.030s1.030-0.463 1.030-1.030v-0.222c0.006 0 0.009 0 0.013 0 0.357 0 0.698-0.131 0.964-0.369 0.085-0.072 0.091-0.194 0.019-0.276zM16.46 21.326c0 0.354-0.288 0.642-0.642 0.642s-0.642-0.288-0.642-0.642v-0.279c0.147-0.041 0.285-0.106 0.41-0.194 0.013-0.006 0.022-0.016 0.034-0.022v0.285c0 0.106 0.088 0.194 0.194 0.194s0.194-0.088 0.194-0.194v-0.285c0.013 0.006 0.022 0.013 0.034 0.022 0.128 0.088 0.266 0.153 0.41 0.194v0.279h0.006z"></path>
<path d="M16.67 18.812c-0.072-0.15-0.222-0.244-0.388-0.244h-0.924c-0.169 0-0.316 0.094-0.388 0.244s-0.053 0.326 0.053 0.457l0.46 0.57c0.081 0.103 0.204 0.16 0.335 0.16s0.254-0.059 0.335-0.16l0.46-0.57c0.106-0.131 0.128-0.307 0.056-0.457zM16.313 19.025l-0.46 0.57c-0.009 0.013-0.025 0.016-0.031 0.016s-0.022-0.003-0.031-0.016l-0.46-0.57c-0.013-0.013-0.013-0.028-0.006-0.044s0.022-0.025 0.038-0.025h0.921c0.019 0 0.031 0.009 0.038 0.025 0.006 0.013 0.006 0.028-0.006 0.044z"></path>
<path d="M21.924 19.259c-0.106-0.028-0.222-0.053-0.341-0.078 0.182-0.548 0.276-1.127 0.276-1.719 0-0.73-0.144-1.44-0.416-2.101v-4.853c0-0.238-0.135-0.451-0.351-0.554s-0.463-0.072-0.648 0.078l-2.527 2.054c-0.664-0.232-1.371-0.354-2.098-0.354s-1.434 0.122-2.098 0.354l-2.527-2.054c-0.185-0.15-0.435-0.182-0.648-0.078-0.216 0.103-0.351 0.313-0.351 0.554v4.853c-0.272 0.661-0.416 1.368-0.416 2.101 0 0.592 0.094 1.168 0.276 1.719-0.119 0.022-0.232 0.050-0.341 0.078-0.103 0.028-0.166 0.135-0.138 0.238 0.022 0.088 0.103 0.144 0.188 0.144 0.016 0 0.034-0.003 0.050-0.006 0.116-0.031 0.244-0.059 0.376-0.085 0.132 0.316 0.291 0.623 0.482 0.914-0.2 0.085-0.398 0.172-0.582 0.269-0.094 0.050-0.132 0.166-0.081 0.263 0.034 0.066 0.103 0.106 0.172 0.106 0.031 0 0.059-0.006 0.091-0.022 0.197-0.103 0.41-0.197 0.633-0.288 0.194 0.254 0.41 0.498 0.648 0.723 1.14 1.080 2.655 1.675 4.268 1.675s3.128-0.595 4.268-1.675c0.238-0.225 0.454-0.467 0.648-0.723 0.222 0.088 0.435 0.185 0.633 0.288 0.028 0.016 0.059 0.022 0.091 0.022 0.069 0 0.138-0.038 0.172-0.106 0.050-0.094 0.013-0.213-0.081-0.263-0.185-0.094-0.379-0.185-0.582-0.269 0.191-0.291 0.351-0.598 0.482-0.914 0.131 0.025 0.26 0.053 0.376 0.085 0.016 0.003 0.034 0.006 0.050 0.006 0.085 0 0.166-0.056 0.188-0.144 0.028-0.103-0.034-0.21-0.138-0.238zM20.69 10.339c0.069-0.056 0.157-0.066 0.235-0.028s0.125 0.113 0.128 0.2l-0.376 0.423c-0.072 0.081-0.063 0.204 0.016 0.276 0.038 0.034 0.085 0.050 0.128 0.050 0.053 0 0.106-0.022 0.147-0.066l0.085-0.097v3.504c-0.263-0.429-0.586-0.83-0.968-1.19-0.197-0.188-0.407-0.36-0.626-0.517l0.955-1.077c0.072-0.081 0.063-0.204-0.016-0.276-0.081-0.072-0.204-0.063-0.276 0.016l-0.989 1.118c-0.257-0.16-0.523-0.301-0.802-0.42l2.358-1.916zM10.712 10.311c0.078-0.038 0.169-0.028 0.235 0.028l2.358 1.913c-0.276 0.119-0.545 0.26-0.802 0.42l-1.919-2.164c0.003-0.085 0.050-0.16 0.128-0.197zM10.586 11.097l1.594 1.797c-0.219 0.157-0.429 0.329-0.626 0.517-0.382 0.36-0.704 0.761-0.967 1.19v-3.504zM21.195 19.119c-1.193-0.169-2.63-0.128-2.705-0.125-0.106 0.003-0.191 0.094-0.188 0.2s0.094 0.191 0.2 0.188c0.016 0 1.396-0.041 2.549 0.11-0.125 0.291-0.279 0.57-0.457 0.83-1.149-0.426-2.348-0.661-2.411-0.673-0.106-0.022-0.207 0.047-0.229 0.153s0.047 0.207 0.153 0.229c0.016 0.003 1.149 0.225 2.248 0.62-1.030 1.306-2.68 2.154-4.534 2.154s-3.501-0.849-4.531-2.154c1.099-0.391 2.232-0.617 2.248-0.62 0.106-0.022 0.175-0.122 0.153-0.229s-0.122-0.175-0.229-0.153c-0.066 0.013-1.262 0.25-2.411 0.673-0.175-0.263-0.329-0.542-0.457-0.83 1.149-0.147 2.53-0.11 2.549-0.11 0.106 0.003 0.197-0.081 0.2-0.188s-0.081-0.197-0.188-0.2c-0.072-0.003-1.512-0.044-2.705 0.125-0.178-0.52-0.279-1.077-0.279-1.653 0-2.943 2.536-5.339 5.652-5.339s5.652 2.395 5.652 5.339c-0.006 0.576-0.103 1.13-0.282 1.653z"></path>
<path d="M16 25.863c-2.633 0-5.113-1.027-6.976-2.89s-2.887-4.34-2.887-6.973 1.027-5.113 2.89-6.976 4.337-2.887 6.973-2.887c2.633 0 5.113 1.027 6.976 2.89s2.887 4.337 2.887 6.973-1.027 5.113-2.89 6.976-4.34 2.887-6.973 2.887zM16 6.607c-5.179 0-9.393 4.214-9.393 9.393s4.214 9.393 9.393 9.393 9.393-4.214 9.393-9.393-4.214-9.393-9.393-9.393z"></path>
<path d="M17.478 2.135h-3.319c-0.213 0-0.319-0.257-0.169-0.407l1.659-1.659c0.094-0.094 0.244-0.094 0.338 0l1.66 1.659c0.15 0.15 0.044 0.407-0.169 0.407z"></path>
<path d="M15.941 1.879h-0.244c-0.132 0-0.238 0.106-0.238 0.238v4.881c0 0.131 0.106 0.238 0.238 0.238h0.244c0.131 0 0.238-0.106 0.238-0.238v-4.881c0-0.131-0.106-0.238-0.238-0.238z"></path>
<path d="M17.478 29.861h-3.319c-0.213 0-0.319 0.257-0.169 0.407l1.659 1.66c0.094 0.094 0.244 0.094 0.338 0l1.66-1.66c0.15-0.15 0.044-0.407-0.169-0.407z"></path>
<path d="M15.941 30.118h-0.244c-0.132 0-0.238-0.106-0.238-0.238v-4.881c0-0.131 0.106-0.238 0.238-0.238h0.244c0.131 0 0.238 0.106 0.238 0.238v4.881c0 0.131-0.106 0.238-0.238 0.238z"></path>
<path d="M29.861 17.844v-3.319c0-0.213 0.257-0.319 0.407-0.169l1.66 1.659c0.094 0.094 0.094 0.244 0 0.338l-1.66 1.66c-0.15 0.15-0.407 0.044-0.407-0.169z"></path>
<path d="M30.118 16.307v-0.244c0-0.132-0.106-0.238-0.238-0.238h-4.881c-0.131 0-0.238 0.106-0.238 0.238v0.244c0 0.131 0.106 0.238 0.238 0.238h4.881c0.131 0 0.238-0.106 0.238-0.238z"></path>
<path d="M2.135 17.844v-3.319c0-0.213-0.257-0.319-0.407-0.169l-1.659 1.659c-0.094 0.094-0.094 0.244 0 0.338l1.659 1.66c0.15 0.15 0.407 0.044 0.407-0.169z"></path>
<path d="M1.879 16.307v-0.244c0-0.132 0.106-0.238 0.238-0.238h4.881c0.131 0 0.238 0.106 0.238 0.238v0.244c0 0.131-0.106 0.238-0.238 0.238h-4.881c-0.131 0-0.238-0.106-0.238-0.238z"></path>
<path d="M26.436 6.917l-2.348-2.348c-0.15-0.15-0.044-0.407 0.169-0.407h2.348c0.131 0 0.238 0.106 0.238 0.238v2.348c0 0.213-0.257 0.319-0.407 0.169z"></path>
<path d="M25.528 5.649l-0.172-0.172c-0.094-0.094-0.244-0.094-0.338 0l-3.447 3.451c-0.094 0.094-0.094 0.244 0 0.338l0.172 0.172c0.094 0.094 0.244 0.094 0.338 0l3.451-3.45c0.091-0.094 0.091-0.244-0.003-0.338z"></path>
<path d="M6.829 26.524l-2.348-2.348c-0.15-0.15-0.407-0.044-0.407 0.169v2.348c0 0.131 0.106 0.238 0.238 0.238h2.348c0.213 0 0.319-0.257 0.169-0.407z"></path>
<path d="M5.561 25.616l-0.172-0.172c-0.094-0.094-0.094-0.244 0-0.338l3.45-3.451c0.094-0.094 0.244-0.094 0.338 0l0.172 0.172c0.094 0.094 0.094 0.244 0 0.338l-3.45 3.451c-0.094 0.094-0.244 0.094-0.338 0z"></path>
<path d="M7.549 4.85l-2.348 2.348c-0.15 0.15-0.407 0.044-0.407-0.169v-2.348c0-0.131 0.106-0.238 0.238-0.238h2.348c0.213 0 0.319 0.257 0.169 0.407z"></path>
<path d="M6.281 5.755l-0.172 0.172c-0.094 0.094-0.094 0.244 0 0.338l3.451 3.451c0.094 0.094 0.244 0.094 0.338 0l0.172-0.172c0.094-0.094 0.094-0.244 0-0.338l-3.45-3.45c-0.094-0.094-0.244-0.094-0.338 0z"></path>
<path d="M27.156 24.454l-2.348 2.348c-0.15 0.15-0.044 0.407 0.169 0.407h2.348c0.131 0 0.238-0.106 0.238-0.238v-2.348c0-0.213-0.257-0.319-0.407-0.169z"></path>
<path d="M26.251 25.725l-0.172 0.172c-0.094 0.094-0.244 0.094-0.338 0l-3.45-3.454c-0.094-0.094-0.094-0.244 0-0.338l0.172-0.172c0.094-0.094 0.244-0.094 0.338 0l3.451 3.451c0.091 0.094 0.091 0.247 0 0.341z"></path>
</svg>
