<?xml version="1.0" encoding="utf-8"?>
<!-- Generator: Adobe Illustrator 23.0.2, SVG Export Plug-In . SVG Version: 6.00 Build 0)  -->
<svg version="1.1" id="Layer_1" xmlns="http://www.w3.org/2000/svg" xmlns:xlink="http://www.w3.org/1999/xlink" x="0px" y="0px"
	 viewBox="0 0 308.48 222.81" style="enable-background:new 0 0 308.48 222.81;" xml:space="preserve">
<style type="text/css">
	.st0{fill-rule:evenodd;clip-rule:evenodd;fill:#0E0F0F;}
</style>
<g>
	<g transform="matrix(1,0,0,1,3.57118,-6.07261)">
		<path class="st0" d="M159.95,6.07l0.95,0.01l0.95,0.01l0.95,0.01l0.95,0.02l0.95,0.02l0.95,0.02l0.95,0.03l0.95,0.03l0.95,0.03
			l0.95,0.04l0.95,0.04l0.95,0.04l0.95,0.05l0.95,0.05l0.94,0.05l0.94,0.06l0.94,0.06l0.94,0.06l0.94,0.07l0.94,0.07l0.94,0.07
			L180.79,7l0.94,0.08l0.94,0.09l0.94,0.09l0.94,0.09l0.93,0.09l0.93,0.1l0.93,0.1l0.93,0.1l0.93,0.11l0.93,0.11l0.93,0.11
			l0.93,0.11l0.92,0.12l0.92,0.12l0.92,0.13l0.92,0.13l0.92,0.13l1.6,0.23l1.6,0.24l1.61,0.24l1.62,0.25l1.62,0.25l0.81,0.13
			l0.82,0.13l0.82,0.13l0.82,0.14l0.82,0.14l0.82,0.14l0.82,0.14l0.82,0.15l0.82,0.15l0.82,0.15l0.82,0.15l0.82,0.16l0.82,0.16
			l0.82,0.16l0.82,0.17l0.82,0.17l0.82,0.17l0.82,0.18l0.82,0.18l0.82,0.19l0.82,0.19l0.82,0.19l0.82,0.2l0.82,0.2l0.81,0.21
			l0.82,0.21l0.81,0.22l0.81,0.22l0.81,0.23l0.81,0.23l0.81,0.24l0.81,0.24l0.8,0.25l0.8,0.25l0.8,0.26l0.8,0.26l0.8,0.27l0.79,0.28
			l0.79,0.28l0.79,0.29l0.78,0.3l0.4,0.15l0.39,0.15l0.39,0.15l0.39,0.16l0.39,0.16l0.39,0.16l0.39,0.16l0.39,0.16l0.39,0.17
			l0.38,0.17l0.39,0.17l0.38,0.17l0.38,0.17l0.38,0.17l0.38,0.17l0.06,0.03l0.32,0.15l0.38,0.18l0.38,0.18l0.38,0.18l0.38,0.19
			l0.38,0.19l0.38,0.19l0.37,0.19l0.37,0.19l0.37,0.19l0.37,0.2l0.82,0.44l0.82,0.44l0.82,0.45l0.82,0.45l0.83,0.46l0.82,0.47
			l0.83,0.47l0.83,0.48l0.83,0.49l0.83,0.49l0.83,0.5l0.83,0.5l0.83,0.51l0.83,0.51l0.83,0.52l0.83,0.52l0.82,0.53l0.82,0.54
			l0.82,0.54l0.82,0.55l0.82,0.55l0.81,0.56l0.81,0.56l0.81,0.57l0.81,0.57l0.8,0.58l0.8,0.58l0.8,0.59l0.79,0.59l0.79,0.6l0.78,0.6
			l0.78,0.61l0.77,0.61l0.77,0.62l0.76,0.62l0.38,0.32l0.38,0.32l0.38,0.32l0.38,0.32l0.37,0.32l0.37,0.32l0.37,0.32l0.37,0.32
			l0.37,0.32l0.37,0.32l0.37,0.33l0.36,0.33l0.36,0.33l0.36,0.33l0.36,0.33l0.36,0.33l0.36,0.33l0.35,0.34l0.35,0.34l0.35,0.34
			l0.35,0.34l0.35,0.34l0.34,0.34l0.34,0.34l0.34,0.34l0.34,0.34l0.34,0.35l0.34,0.35l0.33,0.35l0.33,0.35l0.33,0.35l0.33,0.35
			l0.32,0.35l0.32,0.36l0.32,0.36l0.32,0.36l0.31,0.36l0.31,0.36l0.31,0.36l0.31,0.36l0.31,0.36l0.3,0.36l0.3,0.36l0.3,0.37
			l0.3,0.37l0.29,0.37l0.29,0.37l0.29,0.37l0.29,0.37l0.28,0.38l0.28,0.37l0.28,0.38l0.28,0.38l0.27,0.38l0.27,0.38l0.27,0.38
			l0.26,0.38l0.26,0.38l0.32,0.48l0.31,0.48l0.31,0.48l0.3,0.48l0.3,0.48l0.29,0.48l0.29,0.48l0.28,0.48l0.28,0.48l0.27,0.48
			l0.26,0.48l0.26,0.48l0.25,0.48l0.25,0.48l0.24,0.48l0.24,0.48l0.23,0.48l0.23,0.48l0.22,0.49l0.22,0.48l0.21,0.48l0.2,0.49
			l0.2,0.48l0.19,0.49l0.19,0.49l0.18,0.48l0.18,0.49l0.17,0.49l0.17,0.49l0.16,0.49l0.16,0.48l0.15,0.49l0.15,0.49l0.14,0.49
			l0.14,0.49l0.13,0.49l0.12,0.49l0.12,0.48l0.11,0.49l0.11,0.49l0.11,0.48l0.08,0.39l0.02,0.09l0.09,0.49l0.09,0.49l0.08,0.48
			l0.08,0.49l0.07,0.48l0.07,0.48l0.06,0.49l0.05,0.48l0.05,0.48l0.05,0.48l0.04,0.48l0.04,0.48l0.03,0.48l0.03,0.48l0.02,0.48
			l0.02,0.48l0.01,0.48l0.01,0.48l0,0.48l0,0.48l0,0.48l-0.01,0.48L304.88,93l-0.02,0.47l-0.02,0.48l-0.03,0.47l-0.03,0.47
			l-0.03,0.47l-0.04,0.47l-0.04,0.47l-0.05,0.47l-0.05,0.47l-0.06,0.47l-0.06,0.47l-0.06,0.47l-0.07,0.47l-0.07,0.47l-0.08,0.47
			l-0.08,0.47l-0.09,0.47l-0.09,0.46l-0.09,0.47l-0.1,0.46l-0.1,0.46l-0.1,0.46l-0.11,0.46l-0.11,0.46l-0.12,0.46l-0.12,0.46
			l-0.12,0.46l-0.13,0.46l-0.13,0.46l-0.13,0.46l-0.14,0.45l-0.14,0.45l-0.14,0.45l-0.15,0.45l-0.15,0.45l-0.16,0.45l-0.16,0.45
			l-0.16,0.45l-0.17,0.45l-0.17,0.45l-0.17,0.45l-0.18,0.45l-0.18,0.44l-0.18,0.44l-0.19,0.44l-0.19,0.44l-0.19,0.44l-0.2,0.44
			l-0.2,0.44l-0.2,0.44l-0.21,0.44l-0.21,0.44l-0.21,0.43l-0.22,0.43l-0.22,0.43l-0.22,0.43l-0.22,0.43l-0.23,0.43l-0.23,0.43
			l-0.24,0.43l-0.24,0.43l-0.24,0.43l-0.24,0.42l-0.25,0.42l-0.25,0.42l-0.25,0.42l-0.25,0.42l-0.26,0.42l-0.26,0.42l-0.26,0.41
			l-0.26,0.42l-0.27,0.41l-0.27,0.41l-0.27,0.41l-0.27,0.41l-0.28,0.41l-0.28,0.41l-0.28,0.41l-0.29,0.41l-0.29,0.41l-0.29,0.4
			l-0.29,0.4l-0.3,0.4l-0.3,0.4l-0.3,0.4l-0.3,0.4l-0.3,0.4l-0.3,0.39l-0.31,0.4l-0.06,0.08l-0.25,0.31l-0.31,0.39l-0.32,0.39
			l-0.32,0.39l-0.32,0.39l-0.32,0.38l-0.33,0.38l-0.33,0.38l-0.33,0.38l-0.33,0.38l-0.33,0.38l-0.34,0.38l-0.34,0.38l-0.34,0.38
			l-0.34,0.37l-0.34,0.37l-0.34,0.37l-0.35,0.37l-0.35,0.37l-0.35,0.37l-0.35,0.36l-0.35,0.36l-0.35,0.36l-0.36,0.36l-0.36,0.36
			l-0.36,0.36l-0.36,0.36l-0.36,0.36l-0.36,0.36l-0.37,0.35l-0.37,0.35l-0.37,0.35l-0.37,0.35l-0.37,0.35l-0.37,0.35l-0.38,0.34
			l-0.38,0.34l-0.38,0.34l-0.38,0.34l-0.38,0.34l-0.38,0.34l-0.38,0.34l-0.39,0.33l-0.39,0.33l-0.39,0.33l-0.39,0.33l-0.39,0.33
			l-0.39,0.33l-0.39,0.33l-0.39,0.32l-0.4,0.32l-0.4,0.32l-0.4,0.32l-0.4,0.32l-0.4,0.32l-0.4,0.32l-0.4,0.31l-0.4,0.31l-0.41,0.31
			l-0.41,0.31l-0.41,0.31l-0.41,0.3l-0.41,0.3l-0.41,0.3l-0.41,0.3l-0.41,0.3l-0.41,0.3l-0.41,0.3l-0.41,0.3l-0.42,0.29l-0.41,0.29
			l-0.42,0.29l-0.42,0.29l-0.42,0.28l-0.42,0.28l-0.42,0.28l-0.84,0.56l-0.84,0.55l-0.85,0.54l-0.85,0.54l-0.85,0.53l-0.85,0.52
			l-0.85,0.52l-0.85,0.51l-0.85,0.5l-0.62,0.36l-0.27,0.08l-0.99,0.29l-0.98,0.3l-0.97,0.29l-3.36-0.54l0.93-2.96l0.7-0.65
			l0.68-0.66l0.67-0.68l0.18-0.19l0.59-0.36l0.81-0.5l0.8-0.5l0.8-0.51l0.8-0.52l0.8-0.52l0.8-0.53l0.79-0.54l0.79-0.54l0.79-0.55
			l0.39-0.28l0.39-0.28l0.39-0.28l0.39-0.28l0.39-0.28l0.39-0.28l0.39-0.29l0.39-0.29l0.39-0.29l0.39-0.29l0.38-0.29l0.38-0.29
			l0.38-0.3l0.38-0.3l0.38-0.3l0.38-0.3l0.38-0.3l0.38-0.3l0.38-0.31l0.38-0.31l0.37-0.31l0.37-0.31l0.37-0.31l0.37-0.31l0.37-0.31
			l0.37-0.32l0.37-0.32l0.37-0.32l0.37-0.32l0.36-0.32l0.36-0.32l0.36-0.32l0.36-0.32l0.36-0.33l0.36-0.33l0.35-0.33l0.35-0.33
			l0.35-0.33l0.35-0.33l0.35-0.33l0.35-0.33l0.35-0.34l0.34-0.34l0.34-0.34l0.34-0.34l0.34-0.34l0.34-0.34l0.34-0.34l0.33-0.34
			l0.33-0.34l0.33-0.35l0.33-0.35l0.33-0.35l0.32-0.35l0.32-0.35l0.32-0.35l0.32-0.35l0.32-0.35l0.32-0.36l0.31-0.36l0.31-0.36
			l0.31-0.36l0.31-0.36l0.31-0.36l0.3-0.36l0.3-0.36l0.3-0.36l0.3-0.36l0.3-0.36l0.3-0.37l0.29-0.37l0.29-0.37l0.29-0.37l0.29-0.37
			l0.29-0.37l0.22-0.3l0.06-0.07l0.28-0.37l0.28-0.37l0.28-0.37l0.28-0.37l0.27-0.38l0.27-0.38l0.27-0.38l0.26-0.38l0.26-0.38
			l0.26-0.38l0.26-0.38l0.26-0.38l0.25-0.38l0.25-0.38l0.25-0.38l0.24-0.38l0.24-0.38l0.24-0.39l0.24-0.38l0.23-0.39l0.23-0.39
			l0.23-0.39l0.22-0.39l0.22-0.39l0.22-0.39l0.22-0.39l0.21-0.39l0.21-0.39l0.21-0.39l0.21-0.39l0.2-0.39l0.2-0.4l0.2-0.39l0.19-0.4
			l0.19-0.4l0.19-0.4l0.19-0.4l0.18-0.4l0.18-0.4l0.18-0.4l0.17-0.4l0.17-0.4l0.17-0.4l0.16-0.4l0.16-0.4l0.16-0.4l0.15-0.4
			l0.15-0.4l0.15-0.4l0.15-0.41l0.14-0.4l0.14-0.41l0.13-0.41l0.13-0.41l0.13-0.41l0.12-0.41l0.12-0.41l0.12-0.41l0.12-0.41
			l0.11-0.41l0.11-0.41l0.1-0.41l0.1-0.41l0.1-0.41l0.09-0.41l0.09-0.41l0.09-0.41l0.08-0.41l0.08-0.41l0.08-0.41l0.07-0.41
			l0.07-0.41l0.07-0.41l0.06-0.41l0.06-0.41l0.05-0.41l0.05-0.41l0.05-0.41l0.04-0.41l0.04-0.41l0.04-0.41l0.03-0.41l0.03-0.41
			l0.02-0.41l0.02-0.41l0.02-0.41l0.01-0.41l0.01-0.41l0.01-0.41l0-0.41v-0.41l0-0.41l-0.01-0.41l-0.01-0.42l-0.02-0.41l-0.02-0.42
			l-0.02-0.41l-0.03-0.42l-0.03-0.41l-0.04-0.42l-0.04-0.42l-0.04-0.42l-0.05-0.41l-0.05-0.42l-0.06-0.42l-0.06-0.42l-0.07-0.42
			l-0.07-0.42l-0.07-0.42l-0.08-0.42l-0.08-0.42l-0.09-0.42l-0.02-0.08l-0.07-0.34l-0.09-0.42l-0.09-0.42l-0.1-0.42l-0.1-0.42
			l-0.11-0.42l-0.11-0.42l-0.12-0.42l-0.12-0.42l-0.13-0.42l-0.13-0.42l-0.14-0.42l-0.14-0.42l-0.14-0.42L293.97,77l-0.15-0.42
			l-0.16-0.42l-0.16-0.42l-0.17-0.42l-0.17-0.42l-0.18-0.42l-0.18-0.42l-0.19-0.42l-0.19-0.42l-0.2-0.42l-0.2-0.42l-0.21-0.42
			l-0.21-0.42l-0.22-0.42l-0.22-0.42l-0.23-0.42l-0.23-0.43l-0.24-0.42l-0.24-0.42l-0.25-0.43l-0.25-0.42l-0.26-0.43l-0.26-0.43
			l-0.27-0.42l-0.28-0.43L288.38,66l-0.29-0.43l-0.23-0.34l-0.24-0.34l-0.24-0.34l-0.24-0.34l-0.25-0.34l-0.25-0.34l-0.25-0.34
			l-0.25-0.34l-0.26-0.34l-0.26-0.34l-0.26-0.34l-0.26-0.34l-0.27-0.33l-0.27-0.34l-0.27-0.33l-0.27-0.33l-0.28-0.33l-0.28-0.33
			l-0.28-0.33l-0.28-0.33l-0.29-0.33l-0.29-0.33l-0.29-0.33l-0.29-0.33l-0.3-0.33l-0.3-0.32l-0.3-0.32l-0.3-0.32l-0.3-0.32
			l-0.3-0.32l-0.31-0.32l-0.31-0.32l-0.31-0.32l-0.31-0.32l-0.32-0.32l-0.32-0.32l-0.32-0.32l-0.32-0.31l-0.33-0.32l-0.33-0.31
			l-0.33-0.31l-0.33-0.31l-0.33-0.31l-0.33-0.31l-0.34-0.31l-0.34-0.31l-0.34-0.31l-0.34-0.3l-0.34-0.3l-0.34-0.3l-0.35-0.3
			l-0.35-0.3l-0.35-0.3l-0.35-0.3l-0.35-0.3l-0.35-0.3l-0.35-0.3l-0.35-0.29l-0.72-0.59l-0.72-0.58l-0.73-0.58l-0.74-0.58
			l-0.74-0.57l-0.75-0.57l-0.75-0.56l-0.75-0.56l-0.76-0.55l-0.76-0.55l-0.76-0.54l-0.77-0.54l-0.77-0.53l-0.77-0.53l-0.78-0.53
			l-0.78-0.52l-0.78-0.51l-0.78-0.51l-0.78-0.5l-0.79-0.5l-0.79-0.49l-0.79-0.49l-0.79-0.48l-0.79-0.48l-0.79-0.47l-0.79-0.47
			l-0.79-0.46l-0.79-0.46l-0.79-0.45l-0.79-0.45l-0.79-0.44l-0.79-0.44l-0.79-0.43l-0.78-0.43l-0.78-0.42l-0.33-0.18l-0.33-0.17
			l-0.33-0.17l-0.33-0.17l-0.33-0.17l-0.34-0.17l-0.34-0.17l-0.34-0.16l-0.34-0.16l-0.34-0.16l-0.29-0.13l-0.05-0.03l-0.34-0.16
			l-0.34-0.16l-0.34-0.15l-0.35-0.15l-0.35-0.15l-0.35-0.15l-0.35-0.15l-0.35-0.15l-0.35-0.15l-0.35-0.15l-0.35-0.14l-0.35-0.14
			l-0.35-0.14L235,25.25l-0.35-0.14l-0.72-0.28l-0.72-0.27l-0.72-0.26l-0.73-0.26l-0.73-0.25l-0.74-0.25l-0.74-0.24l-0.74-0.24
			l-0.74-0.23l-0.75-0.23l-0.75-0.22l-0.75-0.22l-0.75-0.21l-0.76-0.21l-0.76-0.21l-0.76-0.2l-0.76-0.2l-0.77-0.19l-0.77-0.19
			l-0.77-0.19l-0.77-0.18l-0.78-0.18l-0.78-0.17l-0.78-0.17l-0.78-0.17l-0.78-0.17l-0.78-0.16l-0.78-0.16l-0.79-0.16l-0.79-0.15
			l-0.79-0.15l-0.79-0.15l-0.79-0.15l-0.79-0.14l-0.79-0.14l-0.79-0.14l-0.79-0.14l-0.79-0.13l-0.79-0.13l-0.79-0.13l-0.79-0.13
			l-1.59-0.25l-1.59-0.25l-1.59-0.24l-1.58-0.24l-1.58-0.23l-0.89-0.13l-0.89-0.13l-0.89-0.12l-0.89-0.12l-0.89-0.12l-0.89-0.11
			l-0.9-0.11l-0.9-0.11l-0.9-0.11l-0.9-0.1l-0.9-0.1l-0.9-0.1l-0.9-0.09l-0.9-0.09l-0.9-0.09l-0.91-0.08l-0.91-0.08l-0.91-0.08
			l-0.91-0.07l-0.91-0.07l-0.91-0.07l-0.91-0.06l-0.91-0.06l-0.91-0.06l-0.91-0.06l-0.91-0.05l-0.91-0.05l-0.91-0.04l-0.91-0.04
			l-0.91-0.04l-0.92-0.03l-0.91-0.03l-0.91-0.03l-0.92-0.02l-0.92-0.02l-0.92-0.02l-0.91-0.01l-0.92-0.01l-0.92-0.01l-0.92,0h-0.92
			l-0.92,0l-0.92,0.01l-0.92,0.01l-0.92,0.01l-0.91,0.02l-0.92,0.02l-0.92,0.02l-0.92,0.03l-0.92,0.03l-0.91,0.04l-0.91,0.04
			l-0.92,0.04l-0.91,0.05l-0.91,0.05l-0.91,0.06l-0.91,0.06l-0.91,0.06l-0.91,0.07l-0.91,0.07l-0.91,0.08l-0.91,0.08l-0.91,0.09
			l-0.91,0.09l-0.91,0.09l-0.91,0.1l-0.91,0.1l-0.9,0.1l-0.91,0.11l-0.9,0.11l-0.9,0.12l-0.9,0.12l-0.9,0.13l-0.9,0.13l-0.9,0.13
			l-0.9,0.14l-0.11,0.02L125.3,16l-0.89,0.15l-0.89,0.15l-0.89,0.15l-0.89,0.16l-0.89,0.16l-0.89,0.17l-0.89,0.17l-0.89,0.18
			l-0.89,0.18l-0.88,0.19l-0.88,0.19l-0.88,0.19l-0.88,0.2l-0.88,0.2L112,18.64l-0.88,0.21l-0.87,0.21l-0.87,0.22l-0.87,0.23
			l-0.87,0.23l-0.87,0.24l-0.86,0.24l-0.86,0.24l-0.86,0.25l-0.86,0.25l-0.86,0.26l-0.85,0.26l-0.85,0.27l-0.85,0.27l-0.85,0.28
			l-0.85,0.28l-0.84,0.29l-0.84,0.29l-0.84,0.3l-0.84,0.3l-0.84,0.3l-0.83,0.31l-0.83,0.31l-0.83,0.32l-0.83,0.32l-0.82,0.33
			l-0.82,0.33l-0.82,0.34l-0.82,0.34l-0.81,0.35l-0.81,0.35l-0.81,0.36l-0.81,0.36l-0.8,0.37l-0.8,0.37l-0.8,0.38l-0.75,0.36
			l-0.75,0.36l-0.75,0.37l-0.75,0.37l-0.74,0.37l-0.74,0.38l-0.74,0.38l-0.74,0.38l-0.74,0.38l-0.73,0.38l-0.73,0.39l-0.73,0.39
			l-0.73,0.39l-0.73,0.4l-0.72,0.4l-0.72,0.4l-0.72,0.41l-0.72,0.41l-0.71,0.41l-0.71,0.41l-0.71,0.42l-0.7,0.42l-0.7,0.43
			l-0.7,0.43l-0.7,0.43l-0.69,0.43l-0.69,0.44l-0.69,0.44l-0.68,0.44l-0.68,0.45l-0.68,0.45l-0.67,0.45l-0.67,0.46l-0.67,0.46
			l-0.66,0.47l-0.66,0.47l-0.66,0.47l-0.65,0.47l-0.65,0.48l-0.65,0.48l-0.64,0.49l-0.64,0.49l-0.63,0.49l-0.63,0.5l-0.62,0.5
			l-0.62,0.51l-0.61,0.51l-0.61,0.51l-0.61,0.52l-0.6,0.52l-0.6,0.53l-0.59,0.53l-0.59,0.53L45,53.1l-0.58,0.54l-0.57,0.55
			l-0.57,0.55l-0.57,0.56l-0.56,0.56l-0.56,0.57l-0.27,0.28l-0.27,0.28l-0.27,0.29l-0.27,0.29l-0.27,0.29l-0.27,0.29l-0.27,0.29
			l-0.27,0.29l-0.41,0.45l-0.41,0.46l-0.4,0.46l-0.4,0.46l-0.4,0.46L37,61.47l-0.39,0.46l-0.39,0.46l-0.39,0.46l-0.39,0.46
			l-0.38,0.46l-0.38,0.46l-0.38,0.47l-0.37,0.47l-0.37,0.47L33.2,66.1l-0.36,0.47l-0.36,0.47l-0.36,0.47l-0.35,0.47l-0.35,0.47
			l-0.35,0.47L30.7,69.4l-0.34,0.48l-0.34,0.48l-0.34,0.48l-0.34,0.48L29,71.8l-0.33,0.48l-0.33,0.48l-0.33,0.49l-0.32,0.49
			l-0.32,0.49l-0.32,0.49l-0.31,0.49l-0.31,0.49l-0.31,0.49l-0.3,0.5l-0.3,0.5l-0.3,0.5l-0.3,0.5l-0.3,0.5l-0.29,0.5l-0.29,0.51
			l-0.29,0.51l-0.29,0.51l-0.28,0.51l-0.28,0.51l-0.28,0.51l-0.28,0.51l-0.27,0.52l-0.27,0.52l-0.27,0.52l-0.27,0.52l-0.26,0.53
			l-0.26,0.53l-0.26,0.53l-0.25,0.53L20,87.51l-0.25,0.54l-0.25,0.54l-0.24,0.54l-0.24,0.54l-0.24,0.54l-0.18,0.42l-0.18,0.42
			l-0.17,0.42l-0.17,0.42l-0.16,0.42l-0.16,0.41l-0.16,0.41l-0.16,0.41l-0.15,0.41l-0.15,0.41L17,94.78l-0.14,0.41l-0.14,0.41
			l-0.13,0.41l-0.13,0.41l-0.13,0.41l-0.12,0.41l-0.12,0.41l-0.12,0.41l-0.12,0.41l-0.11,0.41l-0.11,0.41l-0.11,0.41l-0.1,0.41
			l-0.1,0.41l-0.1,0.4l-0.09,0.41l-0.09,0.4l-0.09,0.4l-0.08,0.4l-0.08,0.4l-0.08,0.4l-0.07,0.4l-0.07,0.4l-0.07,0.4l-0.07,0.4
			l-0.06,0.4l-0.06,0.4l-0.06,0.4l-0.05,0.4l-0.05,0.4l-0.05,0.39l-0.04,0.4l-0.04,0.39l-0.04,0.39l-0.03,0.39l-0.03,0.39
			l-0.03,0.39l-0.02,0.39l-0.02,0.39l-0.02,0.39l-0.01,0.39l-0.01,0.39l-0.01,0.39l-0.01,0.39l0,0.39l0,0.39v0.39l0,0.38l0.01,0.38
			l0.01,0.38l0.01,0.38l0.01,0.38l0.02,0.38l0.02,0.38l0.02,0.38l0.03,0.38l0.03,0.38l0.03,0.38l0.03,0.38l0.03,0.38l0.04,0.38
			l0.04,0.38l0.04,0.38l0.05,0.38l0.05,0.38l0.05,0.37l0.06,0.38l0.06,0.37l0.06,0.37l0.06,0.37l0.06,0.37l0.07,0.37l0.07,0.37
			l0.07,0.37l0.08,0.37l0.08,0.37l0.08,0.37l0.08,0.37l0.09,0.37l0.09,0.37l0.09,0.37l0.09,0.36l0.1,0.36l0.1,0.36l0.1,0.36
			l0.1,0.36l0.11,0.36l0.11,0.36l0.11,0.36l0.11,0.36l0.12,0.36l0.12,0.36l0.12,0.36l0.12,0.36l0.13,0.36l0.13,0.36l0.13,0.36
			l0.13,0.36l0.14,0.36l0.14,0.35l0.14,0.35l0.14,0.35l0.15,0.35l0.15,0.35l0.15,0.35l0.15,0.35l0.16,0.35l0.16,0.35l0.16,0.35
			l0.16,0.35l0.17,0.35l0.17,0.34l0.17,0.35l0.17,0.34l0.18,0.34l0.18,0.34l0.18,0.34l0.18,0.34l0.18,0.34l0.19,0.34l0.19,0.34
			l0.19,0.34l0.19,0.34l0.19,0.34l0.2,0.34l0.2,0.34l0.2,0.34l0.21,0.34l0.21,0.34l0.21,0.33l0.21,0.33l0.21,0.33l0.22,0.33
			l0.22,0.33l0.22,0.33l0.22,0.33l0.22,0.33l0.07,0.1l0.16,0.23l0.23,0.33l0.23,0.32l0.24,0.32l0.24,0.32l0.24,0.32l0.24,0.32
			l0.24,0.32l0.25,0.32l0.25,0.32l0.25,0.32l0.25,0.32l0.25,0.32l0.25,0.32l0.26,0.32l0.26,0.31l0.26,0.31l0.26,0.31l0.26,0.31
			l0.27,0.31l0.27,0.31l0.27,0.31l0.27,0.31l0.27,0.31l0.28,0.31l0.28,0.31l0.28,0.3l0.28,0.3l0.28,0.3l0.28,0.3l0.29,0.3l0.29,0.3
			l0.29,0.3l0.29,0.3l0.29,0.3l0.3,0.3l0.3,0.3l0.3,0.3l0.3,0.29l0.3,0.3l0.3,0.29l0.3,0.29l0.31,0.29l0.31,0.29l0.31,0.29
			l0.31,0.29l0.31,0.29l0.31,0.29l0.32,0.28l0.32,0.28l0.32,0.28l0.32,0.28l0.32,0.28l0.33,0.28l0.32,0.28l0.33,0.28l0.33,0.28
			l0.33,0.28l0.33,0.28l0.33,0.28l0.34,0.27l0.34,0.27l0.34,0.27l0.34,0.27l0.34,0.27l0.34,0.27l0.34,0.27l0.35,0.27l0.35,0.26
			l0.35,0.26l0.35,0.26l0.35,0.26l0.71,0.52l0.72,0.52l0.72,0.51l0.73,0.51l0.73,0.5l0.74,0.5l0.74,0.5l0.75,0.49l0.75,0.49
			l0.76,0.48l0.76,0.48l0.77,0.47l0.77,0.47l0.78,0.47l0.78,0.46l0.79,0.45l0.79,0.45l0.79,0.45l0.5,0.27l0.5,0.27l0.5,0.26
			l0.51,0.26l0.51,0.25l0.52,0.25l0.52,0.24l0.52,0.24l0.53,0.24l0.53,0.23l0.53,0.23l0.54,0.22l0.54,0.22l0.55,0.21l0.55,0.21
			l0.55,0.21l0.55,0.2l0.56,0.2l0.56,0.2l0.56,0.19l0.57,0.19l0.57,0.19l0.57,0.18l0.57,0.18l0.58,0.17l0.58,0.17l0.58,0.17
			l0.58,0.17l0.59,0.17l0.59,0.16l0.59,0.16l0.59,0.16l0.59,0.15l0.59,0.15l0.59,0.15l0.6,0.15l0.6,0.14l0.6,0.14l0.6,0.14l0.6,0.14
			l0.6,0.13l0.6,0.13l0.61,0.13l0.47,0.1l0.13,0.03l0.61,0.13l0.61,0.13l0.61,0.12l0.61,0.12l1.22,0.24l1.22,0.23l1.22,0.23
			l1.22,0.23l1.22,0.22l1.22,0.22l2.43,0.43l1.34,0.24l1.34,0.23l1.34,0.22l1.35,0.22l0.67,0.11l0.68,0.1l0.68,0.1l0.68,0.1
			l0.68,0.1l0.68,0.1l0.68,0.1l0.68,0.09l0.68,0.09l0.68,0.09l0.68,0.09l0.68,0.09l0.68,0.09l0.68,0.08l0.68,0.08l0.68,0.08
			l0.68,0.08l0.68,0.07l0.68,0.07l0.69,0.07l0.69,0.07l0.68,0.07l0.69,0.06l0.69,0.06l0.69,0.06l0.69,0.06l0.69,0.06l0.69,0.05
			l0.69,0.05l0.69,0.05l0.69,0.05l0.69,0.04l0.69,0.04l0.69,0.04l0.69,0.04l0.69,0.04l0.69,0.03l0.69,0.03l0.69,0.03l0.69,0.02
			l0.69,0.02l0.69,0.02l0.69,0.02l0.69,0.02l0.69,0.01l0.69,0.01l0.68,0.01l0.69,0l0.69,0l0.68,0l0.68,0l0.68-0.01l0.68-0.01
			l0.68-0.01l0.68-0.02l0.68-0.02l0.68-0.02l0.68-0.02l0.68-0.03l0.68-0.03l0.68-0.03l0.68-0.04l0.68-0.04l0.68-0.04l0.68-0.05
			l0.68-0.05l0.67-0.05l0.67-0.06l0.67-0.06l0.67-0.06l0.01,0l0.66-0.04l0.67-0.05l0.67-0.05l0.67-0.06l0.67-0.06l0.67-0.06
			l0.67-0.06l0.67-0.07l0.67-0.07l0.67-0.08l0.67-0.08l0.67-0.08l0.67-0.09l0.66-0.09l0.67-0.09l0.66-0.1l0.66-0.1l0.66-0.11
			l0.66-0.11l0.66-0.11l0.66-0.12l0.66-0.12l0.66-0.13l0.66-0.13l0.65-0.13l0.65-0.14l0.39-0.09l0.28,0.01l0.7,0.01l0.7,0l0.7-0.01
			l0.7-0.02l0.7-0.02l0.7-0.03l0.7-0.04l0.7-0.05l0.7-0.06l0.7-0.07l0.7-0.08l0.69-0.09l0.69-0.1l0.69-0.11l0.69-0.12l0.69-0.13
			l0.69-0.14l0.69-0.14l0.68-0.15l0.68-0.16l0.68-0.17l0.68-0.18l0.68-0.19l0.99,0.33l-0.37,0.89l-0.61,0.34l-0.61,0.34l-0.61,0.34
			l-0.61,0.34l-0.62,0.34l-0.62,0.34l-0.62,0.34l-0.62,0.34l-0.62,0.34l-0.62,0.34l-0.62,0.34l-0.62,0.34l-0.63,0.34l-0.63,0.34
			l-0.63,0.34l-0.63,0.34l-0.63,0.34l-0.64,0.34l-0.64,0.34l-0.64,0.34l-0.64,0.34l-0.65,0.34l-0.65,0.34l-0.26,0.14l-0.42,0.11
			l-0.7,0.18l-0.7,0.18l-0.7,0.17l-0.7,0.17l-0.7,0.16l-0.71,0.16l-0.71,0.15l-0.71,0.15l-0.71,0.15l-0.71,0.14l-0.71,0.14
			l-0.71,0.14l-0.71,0.13l-0.71,0.13l-0.71,0.12l-0.72,0.12l-0.71,0.12l-0.72,0.11l-0.72,0.11l-0.72,0.11l-0.72,0.1l-0.72,0.1
			l-0.72,0.09l-0.72,0.09l-0.72,0.09l-0.71,0.08h-0.01l-0.72,0.06l-0.72,0.05l-0.73,0.05l-0.72,0.05l-0.72,0.04l-0.73,0.04
			l-0.73,0.04l-0.72,0.03l-0.73,0.03l-0.73,0.03l-0.73,0.02l-0.73,0.02l-0.73,0.02l-0.73,0.02l-0.73,0.01l-0.73,0.01l-0.73,0.01
			l-0.73,0h-0.72l-0.73,0l-0.73,0l-0.73-0.01l-0.73-0.01l-0.72-0.02l-0.73-0.02l-0.72-0.02l-0.73-0.02l-0.72-0.03l-0.72-0.03
			l-0.72-0.03l-0.72-0.03l-0.72-0.04l-0.72-0.04l-0.72-0.04l-0.72-0.04l-0.72-0.05l-0.72-0.05l-0.72-0.05l-0.72-0.05l-0.72-0.06
			l-0.72-0.06l-0.72-0.06l-0.72-0.06l-0.72-0.07l-0.72-0.07l-0.72-0.07l-0.72-0.07l-0.71-0.08l-0.72-0.08l-0.71-0.08l-0.71-0.08
			l-0.71-0.09l-0.71-0.09l-0.71-0.09l-0.71-0.09l-0.71-0.09l-0.71-0.09l-0.71-0.1l-0.71-0.1l-0.71-0.1l-0.7-0.1l-0.7-0.1l-0.7-0.11
			l-0.7-0.11l-0.7-0.11l-0.7-0.11l-0.7-0.11l-0.7-0.11l-0.7-0.11l-0.7-0.12l-1.39-0.24l-1.38-0.24l-1.38-0.25l-1.37-0.26l-2.45-0.46
			l-1.23-0.23l-1.24-0.24l-1.24-0.24l-1.25-0.25l-1.25-0.25l-1.26-0.26l-0.63-0.13l-0.63-0.13l-0.63-0.13l-0.63-0.14l-0.14-0.03
			l-0.5-0.11l-0.63-0.14l-0.63-0.15L79.43,191l-0.63-0.15l-0.63-0.15l-0.63-0.16l-0.63-0.16l-0.63-0.16l-0.63-0.16l-0.63-0.17
			l-0.63-0.17l-0.63-0.17l-0.63-0.18l-0.63-0.18l-0.63-0.18l-0.63-0.19l-0.63-0.19l-0.63-0.19l-0.63-0.2l-0.63-0.2l-0.62-0.21
			l-0.62-0.21l-0.62-0.21l-0.62-0.22l-0.62-0.22l-0.62-0.23l-0.61-0.23l-0.61-0.24l-0.61-0.24l-0.61-0.25l-0.61-0.25l-0.6-0.26
			l-0.6-0.26l-0.6-0.27l-0.6-0.27l-0.59-0.28l-0.59-0.29l-0.59-0.29l-0.59-0.3l-0.58-0.3l-0.58-0.31l-0.58-0.31l-0.57-0.32
			L54,181.59l-0.84-0.48l-0.83-0.49l-0.83-0.49l-0.82-0.5l-0.82-0.51l-0.81-0.51l-0.81-0.51l-0.8-0.52l-0.8-0.52l-0.79-0.53
			l-0.79-0.53l-0.78-0.54l-0.78-0.54l-0.77-0.55L42,173.79l-0.76-0.56l-0.75-0.56l-0.38-0.29l-0.37-0.28l-0.37-0.28L39,171.52
			l-0.37-0.29l-0.37-0.29l-0.36-0.29l-0.36-0.29l-0.36-0.29l-0.36-0.29l-0.36-0.3l-0.36-0.3l-0.36-0.3l-0.35-0.3l-0.35-0.3
			l-0.35-0.3l-0.35-0.3l-0.35-0.3l-0.35-0.3l-0.34-0.3l-0.34-0.31l-0.34-0.31l-0.34-0.31l-0.34-0.31l-0.33-0.31l-0.33-0.31
			l-0.33-0.31l-0.33-0.31l-0.33-0.32l-0.33-0.32l-0.32-0.32l-0.32-0.32l-0.32-0.32l-0.32-0.32l-0.32-0.32l-0.32-0.32l-0.31-0.32
			l-0.31-0.32l-0.31-0.32l-0.31-0.33l-0.31-0.33l-0.3-0.33l-0.3-0.33l-0.3-0.33l-0.3-0.33l-0.3-0.33l-0.3-0.33l-0.3-0.34l-0.29-0.34
			l-0.29-0.34l-0.29-0.34l-0.29-0.34l-0.29-0.34l-0.28-0.34l-0.28-0.34l-0.28-0.34l-0.28-0.34l-0.27-0.35l-0.27-0.35l-0.27-0.35
			l-0.27-0.35L20.45,153l-0.26-0.35l-0.26-0.35l-0.26-0.35l-0.26-0.35l-0.26-0.36l-0.26-0.35l-0.25-0.36l-0.25-0.36l-0.25-0.36
			l-0.17-0.25l-0.07-0.11l-0.24-0.36l-0.24-0.36l-0.24-0.36l-0.24-0.36l-0.24-0.36l-0.23-0.36l-0.23-0.36l-0.23-0.37l-0.23-0.37
			l-0.22-0.37l-0.22-0.37l-0.22-0.37l-0.22-0.37l-0.21-0.37l-0.21-0.37l-0.21-0.37l-0.21-0.38l-0.21-0.38l-0.2-0.38l-0.2-0.38
			l-0.2-0.38l-0.2-0.38l-0.19-0.38l-0.19-0.38l-0.19-0.38l-0.19-0.38l-0.19-0.38l-0.18-0.38l-0.18-0.38l-0.18-0.39l-0.17-0.39
			l-0.17-0.39l-0.17-0.39l-0.17-0.39l-0.16-0.39l-0.16-0.39l-0.16-0.39l-0.15-0.39l-0.15-0.39l-0.15-0.4l-0.15-0.4l-0.14-0.4
			l-0.14-0.4l-0.14-0.4l-0.14-0.4l-0.13-0.4l-0.13-0.4l-0.13-0.4l-0.13-0.4l-0.12-0.4l-0.12-0.41l-0.12-0.41l-0.11-0.41l-0.11-0.41
			l-0.11-0.41l-0.11-0.41l-0.1-0.41l-0.1-0.41l-0.1-0.41l-0.09-0.41l-0.09-0.41l-0.09-0.41l-0.09-0.41l-0.08-0.41L7.1,124.2
			l-0.08-0.42l-0.07-0.42l-0.07-0.42l-0.07-0.42l-0.07-0.42l-0.06-0.42l-0.06-0.42l-0.05-0.42l-0.05-0.42L6.45,120l-0.05-0.42
			l-0.04-0.42l-0.04-0.43l-0.04-0.43l-0.04-0.43l-0.03-0.43l-0.03-0.43l-0.02-0.43l-0.02-0.43l-0.02-0.43l-0.01-0.43l-0.01-0.43
			l-0.01-0.43l-0.01-0.43l0-0.43v-0.43l0-0.43l0-0.43l0.01-0.43l0.01-0.44l0.01-0.43l0.02-0.44l0.02-0.44l0.02-0.44l0.03-0.44
			l0.03-0.44l0.03-0.44l0.04-0.44l0.04-0.44l0.04-0.44l0.05-0.44l0.05-0.44l0.05-0.44l0.06-0.44l0.06-0.44l0.06-0.44l0.07-0.44
			l0.07-0.45l0.08-0.45l0.08-0.45l0.08-0.45l0.09-0.45l0.09-0.45l0.09-0.45l0.1-0.45l0.1-0.45l0.1-0.45l0.11-0.45l0.11-0.45L8,98.12
			l0.12-0.45l0.12-0.45l0.12-0.45l0.13-0.45l0.13-0.45l0.13-0.45l0.14-0.45l0.14-0.45l0.14-0.45l0.15-0.45l0.15-0.45l0.15-0.45
			l0.16-0.46l0.16-0.45l0.17-0.45l0.17-0.46l0.17-0.45l0.18-0.46l0.18-0.46l0.18-0.46l0.19-0.46l0.19-0.46l0.2-0.46l0.25-0.58
			l0.26-0.58l0.26-0.57l0.26-0.57l0.26-0.57l0.27-0.57l0.27-0.57l0.27-0.56l0.28-0.56l0.28-0.56l0.28-0.56l0.28-0.56l0.29-0.55
			l0.29-0.55l0.29-0.55l0.3-0.55l0.3-0.54l0.3-0.54l0.3-0.54l0.3-0.54l0.31-0.54l0.31-0.53l0.31-0.53l0.31-0.53l0.32-0.53l0.32-0.53
			l0.32-0.53l0.33-0.53l0.33-0.52l0.33-0.52l0.34-0.52l0.34-0.52l0.34-0.52l0.34-0.51l0.35-0.51l0.35-0.51l0.35-0.51l0.35-0.51
			l0.36-0.51l0.36-0.51l0.36-0.51l0.37-0.51l0.37-0.5l0.37-0.5l0.38-0.5l0.38-0.5l0.38-0.5l0.39-0.5l0.39-0.49l0.39-0.49l0.39-0.49
			l0.4-0.49l0.4-0.49l0.4-0.49l0.4-0.49l0.41-0.49l0.41-0.49l0.41-0.49l0.42-0.48l0.42-0.48l0.42-0.48l0.42-0.48l0.43-0.48
			l0.43-0.48l0.29-0.32l0.29-0.31l0.29-0.32l0.29-0.31l0.29-0.31l0.3-0.31l0.3-0.31l0.3-0.31l0.59-0.61l0.6-0.6l0.61-0.6l0.61-0.6
			l0.62-0.59l0.62-0.59l0.62-0.58l0.63-0.58l0.63-0.57l0.64-0.57l0.64-0.56l0.65-0.56l0.65-0.55l0.66-0.55l0.66-0.54l0.66-0.54
			l0.67-0.53l0.67-0.53l0.68-0.52l0.68-0.52l0.68-0.51l0.69-0.51l0.69-0.51l0.7-0.5l0.7-0.5l0.7-0.49l0.71-0.49l0.71-0.49l0.71-0.48
			l0.71-0.48l0.72-0.47l0.72-0.47l0.72-0.47l0.73-0.46l0.73-0.46l0.73-0.45l0.73-0.45l0.74-0.45l0.74-0.44l0.74-0.44l0.74-0.43
			l0.75-0.43l0.75-0.43l0.75-0.43l0.75-0.42l0.75-0.42L68.09,28l0.76-0.41l0.76-0.41l0.76-0.41l0.76-0.4l0.77-0.4l0.77-0.4
			l0.77-0.39l0.77-0.39l0.77-0.39l0.77-0.38l0.77-0.38l0.77-0.38l0.78-0.38l0.84-0.4l0.85-0.4l0.85-0.39l0.85-0.39l0.86-0.38
			l0.86-0.38l0.86-0.37l0.86-0.37l0.87-0.36l0.87-0.36l0.87-0.35l0.87-0.35l0.88-0.34l0.88-0.33L91,17.37l0.88-0.32l0.89-0.32
			l0.89-0.32l0.89-0.31l0.89-0.3l0.89-0.3l0.89-0.29l0.9-0.29l0.9-0.28l0.9-0.28l0.9-0.27l0.9-0.27l0.9-0.26l0.91-0.26l0.91-0.25
			l0.91-0.25l0.91-0.24l0.91-0.24l0.92-0.23l0.92-0.23l0.92-0.22l0.92-0.22l0.92-0.21l0.92-0.21l0.92-0.21l0.93-0.2l0.93-0.2
			l0.93-0.19l0.93-0.19l0.93-0.18l0.93-0.18l0.93-0.17l0.93-0.17L122,9.13l0.94-0.16l0.94-0.15l0.82-0.13l0.12-0.02l0.94-0.15
			l0.94-0.14l0.94-0.14l0.94-0.13l0.94-0.13l0.94-0.12l0.94-0.12l0.94-0.11l0.95-0.11l0.95-0.11l0.95-0.1l0.95-0.1l0.95-0.09
			l0.95-0.09L139,6.94l0.95-0.08l0.95-0.08l0.95-0.07l0.95-0.07l0.95-0.06l0.95-0.06l0.95-0.06l0.95-0.05l0.95-0.05l0.95-0.04
			l0.95-0.04l0.95-0.04l0.95-0.03l0.95-0.03l0.95-0.03l0.95-0.02l0.95-0.02l0.95-0.01l0.95-0.01l0.95-0.01l0.95,0H159.95z"/>
		<path class="st0" d="M181.67,185.02l0.29,0.17l0.28,0.17l0.28,0.17l0.28,0.17l0.28,0.17l0.27,0.18l0.27,0.18l0.27,0.18l0.27,0.18
			l0.27,0.18l0.26,0.19l0.26,0.19l0.26,0.19l0.26,0.19l0.26,0.19l0.25,0.19l0.25,0.19l0.25,0.2l0.25,0.2l0.24,0.2l0.24,0.2l0.24,0.2
			l0.24,0.21l0.23,0.21l0.23,0.21l0.23,0.21l0.23,0.21l0.23,0.21l0.22,0.21l0.22,0.22l0.22,0.22l0.22,0.22l0.22,0.22l0.21,0.22
			l0.15,0.16l0.05,0.07l0.18,0.24l0.18,0.24l0.18,0.24l0.18,0.25l0.17,0.25l0.17,0.25l0.17,0.25l0.17,0.25l0.16,0.25l0.16,0.25
			l0.16,0.25l0.15,0.26l0.15,0.26l0.15,0.26l0.15,0.26l0.14,0.26l0.14,0.26l0.14,0.26l0.14,0.26l0.13,0.26l0.13,0.26l0.13,0.26
			l0.12,0.26l0.12,0.27l0.12,0.27l0.12,0.27l0.11,0.27l0.11,0.27l0.11,0.27l0.1,0.27l0.1,0.27l0.1,0.27l0.1,0.27l0.09,0.28
			l0.09,0.28l0.09,0.28l0.09,0.28l0.08,0.28l0.08,0.28l0.08,0.28l0.07,0.28l0.07,0.28l0.07,0.28l0.07,0.28l0.06,0.28l0.06,0.28
			l0.06,0.28l0.06,0.28l0.05,0.28l0.05,0.28l0.05,0.28l0.04,0.29l0.04,0.29l0.04,0.29l0.04,0.29l0.03,0.29l0.03,0.29l0.03,0.29
			l0.03,0.29l0.02,0.21l0.01,0.08l0.02,0.29l0.02,0.29l0.02,0.29l0.01,0.29l0.01,0.29l0.01,0.29l0,0.29l0,0.29v0.29l0,0.3l0,0.29
			l-0.01,0.3l-0.01,0.3l-0.01,0.3l-0.01,0.3l-0.02,0.3l-0.02,0.3l-0.02,0.3l-0.02,0.3l-0.03,0.3l-0.03,0.3l-0.03,0.3l-0.03,0.3
			l-0.04,0.3l-0.04,0.3l-0.04,0.3l-0.05,0.3l-0.05,0.3l-0.05,0.31l-0.03,0.19l-0.04,0.2l-0.04,0.19l-0.05,0.19l-0.05,0.19
			l-0.05,0.19l-0.05,0.19l-0.06,0.18l-0.06,0.18l-0.06,0.18l-0.07,0.18l-0.07,0.18l-0.03,0.09l-0.1,0.26l-0.14,0.34l-0.15,0.34
			l-0.15,0.33l-0.15,0.33l-0.15,0.33l-0.3,0.63l-0.3,0.62l-0.14,0.3l-0.14,0.29l-0.13,0.28l-0.09,0.19l0.25-0.03l0.33-0.04
			l0.32-0.04l0.32-0.05l0.3-0.04l0.58-0.09l0.5-0.09l0.4-0.07l0.26-0.05l0.05-0.01l0,0l0.34-0.09l0.36-0.1l0.35-0.1l0.35-0.1
			l0.35-0.11l0.35-0.11l0.35-0.11l0.35-0.11l0.35-0.12l0.35-0.12l0.35-0.12l0.35-0.13l0.35-0.13l0.35-0.13l0.35-0.13l0.35-0.13
			l0.35-0.14l0.35-0.14l0.35-0.14l0.35-0.14l0.34-0.15l0.34-0.15l0.34-0.15l0.34-0.15l0.34-0.15l0.34-0.16l0.34-0.16l0.34-0.16
			l0.34-0.16l0.34-0.17l0.34-0.17l0.34-0.17l0.34-0.17l0.34-0.17l0.33-0.17l0.33-0.18l0.33-0.18l0.33-0.18l0.33-0.18l0.33-0.18
			l0.33-0.18l0.33-0.19l0.33-0.19l0.32-0.19l0.66-0.38l0.65-0.39l0.65-0.39l0.64-0.4l0.64-0.4l0.64-0.4l0.63-0.41l0.63-0.41
			l0.62-0.42l0.62-0.42l0.45-0.31l0.45-0.31l0.44-0.31l0.44-0.31l0.43-0.31l0.43-0.31l0.43-0.31l0.42-0.32l0.42-0.31l0.41-0.32
			l0.41-0.32l0.41-0.32l0.4-0.32l0.4-0.32l0.39-0.32l0.39-0.32l0.39-0.32l0.38-0.32l0.38-0.32l0.38-0.33l0.37-0.33l0.37-0.33
			l0.36-0.33l0.12-0.11l0.24-0.23l0.35-0.33l0.35-0.33l0.35-0.34l0.34-0.34l0.34-0.34l0.33-0.34l0.33-0.34l0.33-0.34l0.32-0.34
			l0.32-0.34l0.31-0.34l0.31-0.34l0.3-0.35l0.3-0.35l0.3-0.35l0.3-0.35l0.29-0.35l0.29-0.35l0.28-0.35l0.28-0.35l0.28-0.36
			l0.27-0.36l0.27-0.36l0.26-0.36l0.26-0.36l0.26-0.36l0.25-0.36l0.25-0.36l0.25-0.36l0.24-0.36l0.24-0.37l0.23-0.37l0.23-0.37
			l0.23-0.37l0.22-0.37l0.22-0.37l0.22-0.38l0.21-0.38l0.21-0.38l0.21-0.38l0.2-0.38l0.2-0.38l0.19-0.38l0.19-0.38l0.19-0.39
			l0.18-0.39l0.18-0.39l0.18-0.39l0.17-0.39l0.17-0.39l0.16-0.4l0.16-0.4l0.16-0.4l0.15-0.4l0.15-0.4l0.15-0.4l0.14-0.4l0.14-0.41
			l0.14-0.41l0.13-0.41l0.13-0.41l0.12-0.41l0.12-0.41l0.12-0.41l0.11-0.42l0.11-0.42l0.11-0.42l0.1-0.42l0.1-0.43l0.09-0.43
			l0.09-0.43l0.09-0.43l0.08-0.43l0.08-0.43l0.08-0.43l0.07-0.44l0.07-0.44l0.06-0.44l0.06-0.44l0.06-0.44l0.06-0.45l0.05-0.45
			l0.05-0.45l0.04-0.45l0.02-0.27l-0.01-0.19l-0.03-0.46l-0.03-0.46l-0.04-0.46l-0.04-0.46l-0.05-0.47l-0.06-0.47l-0.06-0.47
			l-0.06-0.47l-0.07-0.47l-0.07-0.47l-0.08-0.47l-0.08-0.47l-0.09-0.47l-0.09-0.47l-0.1-0.47l-0.1-0.48l-0.08-0.36l0.2-0.13
			l0.76-0.51l0.69-0.53l7.16-0.25l0.74,0.5l0.79,0.52l0.21,0.13L253.9,164l-0.08,0.54l-0.08,0.54l-0.09,0.53l-0.09,0.53l-0.09,0.53
			l-0.09,0.53l-0.1,0.52l-0.1,0.52l-0.1,0.52l-0.11,0.52l-0.11,0.51l-0.11,0.51l-0.12,0.51l-0.12,0.51l-0.12,0.5l-0.12,0.5
			l-0.05,0.2l-0.04,0.3l-0.06,0.5l-0.07,0.5l-0.07,0.5l-0.08,0.5l-0.08,0.49l-0.08,0.49l-0.09,0.49l-0.09,0.49l-0.1,0.49l-0.1,0.49
			l-0.1,0.48l-0.11,0.48l-0.11,0.48l-0.12,0.48l-0.12,0.48l-0.13,0.47l-0.13,0.47l-0.13,0.47l-0.14,0.47l-0.14,0.47l-0.15,0.47
			l-0.15,0.46l-0.15,0.46l-0.16,0.46l-0.16,0.46l-0.17,0.46l-0.17,0.46l-0.17,0.45l-0.18,0.45l-0.18,0.45l-0.19,0.45l-0.19,0.45
			l-0.2,0.44l-0.2,0.44l-0.2,0.44l-0.21,0.44l-0.21,0.44l-0.22,0.44l-0.22,0.43l-0.22,0.43l-0.23,0.43l-0.23,0.43l-0.24,0.43
			l-0.24,0.42l-0.24,0.42l-0.25,0.42l-0.25,0.42l-0.25,0.42l-0.26,0.42l-0.26,0.41l-0.27,0.41l-0.27,0.41l-0.28,0.41l-0.28,0.41
			l-0.28,0.41l-0.29,0.4l-0.29,0.4l-0.29,0.4l-0.3,0.4l-0.3,0.4l-0.31,0.39l-0.31,0.39l-0.31,0.39l-0.32,0.39l-0.32,0.39l-0.32,0.38
			l-0.33,0.38l-0.33,0.38l-0.34,0.38l-0.34,0.38l-0.35,0.38l-0.35,0.37l-0.35,0.37l-0.36,0.37l-0.36,0.37l-0.36,0.37l-0.37,0.37
			l-0.37,0.36l-0.38,0.36l-0.38,0.36l-0.38,0.36l-0.39,0.36l-0.39,0.36l-0.39,0.36l-0.27,0.24l-0.13,0.11l-0.4,0.36l-0.4,0.35
			l-0.41,0.35l-0.41,0.35l-0.42,0.35l-0.42,0.35l-0.42,0.34l-0.43,0.34l-0.43,0.34l-0.44,0.34l-0.44,0.34l-0.44,0.34l-0.45,0.34
			l-0.45,0.33l-0.46,0.33l-0.46,0.33l-0.46,0.33l-0.47,0.33l-0.47,0.33l-0.47,0.32l-0.48,0.33l-0.48,0.32l-0.48,0.32l-0.65,0.43
			l-0.66,0.43l-0.67,0.43l-0.67,0.43l-0.68,0.42l-0.68,0.42l-0.69,0.41l-0.69,0.41l-0.7,0.41l-0.7,0.4l-0.36,0.2l-0.35,0.2
			l-0.36,0.2l-0.36,0.19l-0.36,0.19l-0.36,0.19l-0.36,0.19l-0.36,0.19l-0.37,0.19l-0.37,0.19l-0.37,0.19l-0.37,0.18l-0.37,0.18
			l-0.37,0.18l-0.37,0.18l-0.37,0.18l-0.38,0.17l-0.38,0.17l-0.38,0.17l-0.38,0.17l-0.38,0.17l-0.38,0.16l-0.38,0.16l-0.38,0.16
			l-0.39,0.16l-0.39,0.15l-0.39,0.15l-0.39,0.15l-0.39,0.15l-0.39,0.14l-0.39,0.14l-0.39,0.14l-0.4,0.14l-0.4,0.13l-0.4,0.13
			l-0.4,0.13l-0.4,0.13l-0.4,0.12l-0.4,0.12l-0.4,0.11l-0.41,0.11l-0.41,0.11l-0.41,0.11l-0.44,0.11l-0.15,0.04l-0.18,0.04
			l-0.38,0.07l-0.48,0.08l-0.57,0.09l-0.64,0.09l-0.35,0.05l-0.36,0.05l-0.37,0.05l-0.37,0.05l-0.38,0.04l-0.38,0.04l-0.38,0.04
			l-0.38,0.04l-0.38,0.03l-0.38,0.03l-0.38,0.02l-0.36,0.01l-0.19,0l-0.18,0h-0.19l-0.19,0l-0.19-0.01l-0.19-0.01l-0.19-0.01
			l-0.2-0.02l-0.21-0.03l-0.22-0.04l-0.23-0.05l-0.25-0.06l-0.28-0.09l-0.31-0.13l-0.31-0.16l-0.22-0.14l-0.2-0.14l-0.2-0.17
			l-0.2-0.2l-0.19-0.24l-0.17-0.27l-0.14-0.3l-0.11-0.31l-0.07-0.32l-0.02-0.27v-0.06l0-0.21l0-0.21l0.01-0.21l0.01-0.2l0.02-0.2
			l0.02-0.2l0.03-0.2l0.03-0.19l0.04-0.19l0.04-0.19l0.04-0.19l0.05-0.19l0.05-0.19l0.05-0.18l0.05-0.18l0.06-0.18l0.06-0.18
			l0.06-0.18l0.12-0.34l0.13-0.34l0.14-0.34l0.14-0.34l0.14-0.33l0.14-0.33l0.14-0.32l0.28-0.63l0.27-0.61l0.12-0.29l0.12-0.29
			l0.11-0.28l0.11-0.27l0.1-0.26l0.07-0.21l0.02-0.07l-0.01,0.04l0.04-0.14l0.03-0.12l0.04-0.13l-0.01,0.04l0.04-0.13l0.03-0.13
			l-0.01,0.04l0.03-0.13l0.03-0.13l-0.01,0.05l0.02-0.12l0.02-0.12l-0.01,0.05l0.02-0.12l0.01-0.11l-0.01,0.06l0.01-0.12l0.03-0.25
			l0.02-0.26l0.02-0.26l0.02-0.26l0.02-0.26l0.02-0.26l0.01-0.26l0.01-0.26l0.01-0.25l0.01-0.25l0-0.25l0-0.25v-0.25v-0.25l0-0.25
			l0-0.25l-0.01-0.25l-0.01-0.25l-0.01-0.25l-0.01-0.25l-0.01-0.24l-0.02-0.24l-0.02-0.24l-0.02-0.24l-0.02-0.24l-0.03-0.24
			l-0.03-0.24l-0.03-0.24l-0.03-0.24l-0.01-0.06l-0.02-0.17l-0.04-0.24l-0.04-0.24l-0.04-0.24l-0.04-0.23l-0.04-0.23l-0.05-0.23
			l-0.05-0.23l-0.05-0.23l-0.05-0.23l-0.05-0.23l-0.06-0.23l-0.06-0.23l-0.06-0.23l-0.06-0.22l-0.06-0.23l-0.07-0.22l-0.07-0.22
			l-0.07-0.22l-0.07-0.22l-0.08-0.22l-0.08-0.22l-0.08-0.22l-0.08-0.22l-0.08-0.21l-0.09-0.21l-0.09-0.21l-0.09-0.21l-0.09-0.21
			l-0.09-0.21l-0.1-0.21l-0.1-0.21l-0.1-0.21l-0.1-0.21l-0.11-0.21l-0.11-0.2l-0.11-0.21l-0.11-0.2l-0.11-0.2l-0.11-0.2l-0.12-0.2
			l-0.12-0.2l-0.12-0.2l-0.12-0.2l-0.12-0.2l-0.13-0.19l-0.13-0.19l-0.13-0.19l-0.13-0.19l-0.13-0.19l-0.14-0.19l-0.14-0.19
			l-0.14-0.19l-0.14-0.19l-0.15-0.19l-0.15-0.19l-0.15-0.18l-0.15-0.18l-0.15-0.18l-0.15-0.18l-0.04-0.05l-0.1-0.14l-0.13-0.19
			l-0.14-0.19l-0.14-0.19l-0.14-0.19l-0.15-0.19l-0.15-0.19l-0.15-0.19l-0.15-0.19l-0.16-0.19l-0.16-0.19l-0.16-0.19l-0.16-0.19
			l-0.16-0.19l-0.17-0.19l-0.17-0.18l-0.17-0.19l-0.18-0.18l-0.18-0.18l-0.18-0.18l-0.18-0.18l-0.19-0.18l-0.19-0.18l-0.19-0.18
			l-0.19-0.18l-0.19-0.18l-0.2-0.17l-0.2-0.18l-0.2-0.17l-0.2-0.17l-0.21-0.17l-0.21-0.17l-0.21-0.17l-0.22-0.17l-0.22-0.17
			l-0.22-0.17l-0.08-0.06l0.28-0.65l0.31-0.87l0.16-0.7l0.85-1.11l0.67-0.37l0.82-0.54l0.61-0.44l0.1,0.06L181.67,185.02z"/>
		<path class="st0" d="M2.6,89.99l1.21,0.52l-0.07,0.45l-0.11,0.75l-0.1,0.74l-0.09,0.74l-0.09,0.74l-0.08,0.73L3.2,95.39
			l-0.01,0.09l-0.07,0.64l-0.08,0.73l-0.07,0.72L2.9,98.28L2.84,99l-0.05,0.71l-0.05,0.71l-0.04,0.71l-0.03,0.71l-0.03,0.7l0,0.17
			l-0.02,0.53l-0.02,0.7l-0.02,0.7l-0.01,0.69l0,0.69v0.69l0,0.69l0.01,0.68l0.02,0.68l0.02,0.68l0.03,0.68l0.03,0.65l0,0.03
			l0.03,0.67l0.04,0.67l0.04,0.67l0.05,0.67l0.06,0.67l0.06,0.66l0.07,0.66l0.07,0.66l0.08,0.66l0.09,0.66l0.09,0.66l0.02,0.11
			l0.07,0.54l0.09,0.65l0.1,0.65l0.1,0.65l0.11,0.65l0.12,0.64l0.12,0.64l0.13,0.64l0.13,0.64l0.14,0.64l0.14,0.64l0.15,0.64
			l0.15,0.63l0.16,0.63l0.17,0.63l0.17,0.63l0.18,0.63l0.18,0.63l0.19,0.62l0.19,0.62l0.2,0.62l0.21,0.62l0.21,0.62l0.22,0.62
			l0.22,0.62l0.23,0.62l0.24,0.61l0.24,0.61l0.25,0.61l0.25,0.61l0.26,0.61l0.26,0.61l0.27,0.61l0.13,0.29l0.14,0.32l0.27,0.61
			l0.28,0.6l0.28,0.6l0.29,0.6l0.3,0.6l0.3,0.6l0.3,0.6l0.31,0.6l0.31,0.6l0.32,0.6l0.33,0.59l0.33,0.6l0.34,0.59l0.34,0.59
			l0.35,0.59l0.35,0.59l0.21,0.35l0.14,0.24l0.36,0.59l0.36,0.59l0.37,0.59l0.37,0.59l0.38,0.59l0.39,0.59l0.39,0.59l0.4,0.58
			l0.4,0.59l0.41,0.58l0.41,0.58l0.42,0.58l0.42,0.58l0.01,0.01l0.39,0.59l0.4,0.6l0.41,0.6l0.42,0.6l0.42,0.6l0.43,0.6l0.17,0.23
			l0.26,0.37l0.42,0.61l0.43,0.61l0.44,0.6l0.45,0.6l0.45,0.6l0.46,0.6l0.46,0.6l0.19,0.24l0.28,0.36l0.47,0.6l0.48,0.6l0.49,0.6
			l0.5,0.6l0.5,0.6l0.51,0.6l0.52,0.6l0.52,0.59l0.53,0.59l0,1.47l-1.62-0.09l-0.63-0.52l-0.63-0.52l-0.62-0.52L26.82,171
			l-0.62-0.52l-0.61-0.52l-0.61-0.52l-0.6-0.53l-0.6-0.53l-0.36-0.32l-0.24-0.21l-0.59-0.53L22,166.78l-0.58-0.53l-0.58-0.54
			l-0.57-0.54l-0.57-0.54l-0.57-0.54l-0.34-0.33l-0.21-0.21l-0.54-0.56l-0.54-0.56l-0.53-0.56l-0.53-0.56l-0.52-0.56l-0.51-0.55
			l-0.01-0.01l-0.48-0.59L14.44,159l-0.47-0.59l-0.46-0.59l-0.46-0.6l-0.45-0.6l-0.45-0.6l-0.44-0.6l-0.44-0.6l-0.43-0.6l-0.42-0.61
			l-0.42-0.6l-0.41-0.61l-0.17-0.25l-0.24-0.36l-0.39-0.62l-0.39-0.62l-0.38-0.62l-0.38-0.62l-0.37-0.62l-0.37-0.62l-0.36-0.63
			l-0.35-0.63l-0.35-0.63l-0.34-0.63l-0.34-0.63l-0.33-0.63l-0.32-0.64l-0.32-0.64l-0.31-0.64l-0.31-0.64L3.4,141.4l-0.14-0.31
			l-0.29-0.65l-0.28-0.65l-0.28-0.65l-0.27-0.65l-0.27-0.66l-0.26-0.66l-0.25-0.66l-0.25-0.66l-0.24-0.66l-0.24-0.66l-0.23-0.66
			l-0.22-0.67l-0.22-0.67l-0.21-0.67l-0.21-0.67l-0.2-0.67l-0.19-0.67l-0.19-0.68l-0.18-0.68l-0.18-0.68l-0.17-0.68l-0.16-0.68
			l-0.16-0.68l-0.15-0.69l-0.14-0.69l-0.14-0.69L-2.43,123l-0.12-0.7l-0.12-0.69l-0.11-0.7l-0.11-0.7l-0.1-0.7l-0.08-0.58
			l-0.01-0.12l-0.07-0.71l-0.07-0.71l-0.06-0.71l-0.06-0.71l-0.05-0.71l-0.04-0.71l-0.04-0.71l-0.03-0.72l-0.02-0.72l-0.02-0.72
			l-0.01-0.72v-0.03l0-0.69l0.01-0.73l0.01-0.73l0.02-0.73l0.03-0.73l0.03-0.73l0.04-0.73l0.05-0.73l0.05-0.73l0.06-0.74l0.07-0.74
			l0.06-0.56l0.02-0.18l0.09-0.74l0.09-0.74l0.1-0.74l0.11-0.74l0.11-0.75l0.12-0.75l0.13-0.75l0.13-0.75l0.14-0.75l0.13-0.66
			l0.02-0.09l0.17-0.75l0.17-0.75l0.18-0.75l0.19-0.76l0.19-0.76l0.2-0.76l0.12-0.45l1.33-0.09L2.6,89.99z"/>
		<path class="st0" d="M291.62,146.08l-0.11,0.13l-0.24,0.27l-0.35,0.4l-0.36,0.4l-0.36,0.4l-0.36,0.39l-0.37,0.39l-0.37,0.39
			l-0.38,0.39l-0.38,0.39l-0.38,0.39l-0.39,0.39l-0.39,0.39l-0.39,0.38l-0.39,0.38l-0.4,0.38l-0.4,0.38l-0.4,0.38l-0.41,0.38
			l-0.41,0.38l-0.15,0.13l-0.26,0.24l-0.42,0.37l-0.42,0.37l-0.42,0.36l-0.43,0.36l-0.43,0.36l-0.43,0.36l-0.43,0.36l-0.44,0.36
			l-0.44,0.36l-0.44,0.35l-0.44,0.35l-0.44,0.35l-0.45,0.35l-0.45,0.35l-0.3,0.23l-0.16,0.12l-0.46,0.34l-0.46,0.34l-0.46,0.33
			l-0.46,0.33l-0.46,0.33l-0.47,0.33l-0.12,0.09l-0.35,0.23l-0.48,0.31l-0.48,0.31l-0.48,0.31l-0.48,0.31l-0.13,0.08l-0.37,0.2
			l-0.51,0.27l-0.24,0.13l-0.28,0.13l-0.53,0.24l-0.51,0.23l-0.02,0.01l-0.54,0.21l-0.54,0.21l-0.54,0.21l-0.54,0.21l-0.54,0.21
			l-0.13,0.05l-0.42,0.14l-0.55,0.18l-0.54,0.19l-0.54,0.18l-0.54,0.18l-0.54,0.18l-0.53,0.18l-0.39,0.13l-0.14,0.04l-1.01-0.28
			l0.31-0.91l0.12-0.08l0.34-0.21l0.46-0.3l0.46-0.3l0.45-0.31l0.45-0.31l0.45-0.32l0.44-0.32l0.34-0.25l0.11-0.07l0.45-0.31
			l0.45-0.32l0.45-0.32l0.44-0.32l0.44-0.33l0.01-0.01l0.44-0.3l0.45-0.31l0.24-0.16l0.23-0.14l0.47-0.29l0.34-0.21l0.13-0.07
			l0.49-0.26l0.49-0.26l0.49-0.27l0.49-0.27l0.36-0.2l0.13-0.07l0.49-0.27l0.49-0.27l0.49-0.27l0.49-0.27l0.48-0.28l0.48-0.28
			l0.17-0.1l0.32-0.18l0.48-0.28l0.48-0.28l0.48-0.28l0.48-0.29l0.47-0.29l0.47-0.3l0.47-0.3l0.47-0.3l0.47-0.3l0.46-0.3l0.46-0.31
			l0.46-0.31l0.45-0.31l0.45-0.32l0.29-0.2l0.16-0.11l0.45-0.32l0.45-0.32l0.44-0.32l0.44-0.33l0.44-0.33l0.43-0.33l0.43-0.34
			l0.42-0.34l0.42-0.34l0.42-0.34l0.41-0.34l0.41-0.35l0.41-0.35l0.4-0.35l0.4-0.36l0.39-0.36l0.39-0.36l0.38-0.36l0.27-0.25
			l0.12-0.12l0.66-0.05L291.62,146.08z"/>
	</g>
</g>
<g>
	<path d="M89.47,85.51c-0.84,0-1.53-0.43-2.07-1.3c-0.47-0.74-0.88-1.98-1.26-3.72l-0.84-4c-0.64-2.48-1.64-7.96-3.02-16.42
		l-4.65,14.03l-1.37,4.42c-0.56,1.75-1.14,3.19-1.74,4.3c-0.65,1.18-1.53,1.77-2.63,1.77c-0.92,0-1.64-0.5-2.16-1.49
		c-0.34-0.65-0.65-1.48-0.93-2.49l-0.67-2.58c-1.57-5.47-2.95-11.34-4.14-17.58l-0.84,4.16l-3,12.28c-0.12,1.44-0.51,3.57-1.16,6.4
		c-0.47,1.21-1.23,1.81-2.3,1.81c-0.76,0-1.36-0.27-1.81-0.81c-0.39-0.47-0.58-1.04-0.58-1.72c0-2.59,0.54-5.77,1.6-9.54l2.56-9.37
		l1.35-7.33c0.68-3.43,1.4-5.67,2.16-6.72c0.62-0.9,1.39-1.35,2.3-1.35c1.01,0,1.76,0.57,2.26,1.72c0.6,1.38,1.26,4.19,1.95,8.44
		c0.82,5.1,2.1,10.62,3.84,16.56c2.29-5.97,4.28-12.19,5.95-18.65l0.7-3.4c0.28-1.36,0.64-2.47,1.09-3.3
		c0.6-1.15,1.43-1.72,2.49-1.72c1.33,0,2.35,1.29,3.05,3.86c0.25,0.88,0.55,2.71,0.91,5.49c0.91,7.01,2.05,13,3.42,17.96l1.14,4
		c0.59,2.14,0.88,3.46,0.88,3.95c0,0.67-0.25,1.22-0.76,1.67C90.68,85.29,90.11,85.51,89.47,85.51z"/>
	<path d="M114.99,82.12c0,0.65-0.24,1.2-0.73,1.64c-0.49,0.44-1.07,0.66-1.73,0.66c-0.68,0-1.26-0.22-1.74-0.66
		c-0.48-0.44-0.72-0.99-0.72-1.64s-0.02-1.53-0.05-2.63c-0.05-1.52-0.08-2.54-0.09-3.05c-2.14,0.71-4.18,1.76-6.12,3.14
		c-1.05,0.76-2.75,2.15-5.07,4.16c-0.53,0.47-1.1,0.7-1.72,0.7c-0.67,0-1.25-0.23-1.74-0.69c-0.5-0.46-0.74-1-0.74-1.64
		c0-1.46,2.57-3.67,7.7-6.63c-3.97-1.74-5.95-3.84-5.95-6.3c0-3.47,2.36-6.33,7.09-8.58c1.97-0.93,4.74-1.4,8.33-1.4
		c0.81,0,1.48,0.29,2.04,0.87c0.55,0.58,0.83,1.3,0.83,2.15c0,2.2,0.07,5.51,0.22,9.93C114.92,76.58,114.99,79.9,114.99,82.12z
		 M109.85,72.58c-0.17-5.83-0.26-8.85-0.28-9.05c-0.78,0.05-1.28,0.09-1.51,0.12c-1.33,0.14-2.74,0.73-4.23,1.77
		c-1.74,1.19-2.61,2.48-2.63,3.86c0.78,1.54,2.03,2.53,3.77,2.98C105.93,72.5,107.55,72.61,109.85,72.58z"/>
	<path d="M141.32,62.83l-8.05,17.4c-1.98,4.23-3.5,7.78-4.56,10.63l-1.54,4.51c-0.4,1.12-1.1,1.67-2.09,1.67
		c-0.65,0-1.21-0.21-1.69-0.64c-0.47-0.43-0.71-0.96-0.71-1.59c0-1.55,1.67-6.04,5.02-13.47l-8.33-16.03l-1.05-1.7
		c-0.42-0.71-0.63-1.31-0.63-1.79c0-0.64,0.24-1.19,0.73-1.67c0.49-0.48,1.04-0.72,1.64-0.72c0.71,0,1.26,0.27,1.65,0.81
		c2.64,3.66,5.47,8.87,8.49,15.63l3.44-8.02c1.24-2.78,2.43-5.16,3.58-7.16c0.5-0.87,1.15-1.3,1.95-1.3c0.64,0,1.2,0.23,1.69,0.67
		c0.49,0.45,0.73,0.98,0.73,1.6C141.62,62.01,141.52,62.4,141.32,62.83z"/>
	<path d="M150.32,83.05c0,0.56-0.22,1.04-0.66,1.45c-0.44,0.41-0.94,0.62-1.5,0.62c-0.62,0-1.24-0.4-1.86-1.21
		c-0.6-0.76-0.91-1.46-0.91-2.09c0-0.56,0.22-1.04,0.66-1.44c0.44-0.4,0.95-0.6,1.52-0.6c0.6,0,1.23,0.4,1.86,1.21
		C150.03,81.74,150.32,82.43,150.32,83.05z M150.3,48.32v25.89c0,1.38-0.69,2.07-2.07,2.07c-1.38,0-2.07-0.69-2.07-2.07
		c0-0.64-0.02-1.58-0.06-2.85c-0.04-1.26-0.06-2.21-0.06-2.83c0-2.25,0.02-5.62,0.06-10.11s0.06-7.86,0.06-10.11
		c0-1.38,0.69-2.07,2.07-2.07C149.61,46.25,150.3,46.94,150.3,48.32z"/>
	<path d="M200.24,52.2c-2.08,2.51-3.68,4.58-4.79,6.21l-2.91,4.28c-1.13,1.61-2.19,2.97-3.19,4.07l5.12,7.49
		c2.03,2.96,3.84,5.38,5.42,7.26c0.42,0.51,0.63,1.05,0.63,1.6c0,0.65-0.24,1.22-0.71,1.7c-0.47,0.48-1.03,0.72-1.69,0.72
		c-0.59,0-1.14-0.24-1.65-0.72c-1.15-1.09-2.34-2.56-3.58-4.42l-3.12-4.79l-3.65-5.23l-8,9.26l-4.28,4.79
		c-0.51,0.51-1.08,0.77-1.7,0.77c-0.64,0-1.19-0.24-1.67-0.72c-0.48-0.48-0.72-1.05-0.72-1.7c0-0.56,0.2-1.09,0.6-1.58l4.19-4.67
		l8.72-10.12c-1.71-2.28-3.52-4.57-5.44-6.86l-2.7-3.65c-1.09-1.46-2.09-2.57-3.02-3.35c-0.65-0.54-0.98-1.17-0.98-1.88
		c0-0.64,0.22-1.2,0.67-1.7c0.45-0.5,1.01-0.74,1.67-0.74c1.32,0,3,1.4,5.05,4.21c0.64,0.95,1.6,2.29,2.91,4.02
		c1.77,2.11,3.45,4.23,5.05,6.35l5.3-7.4c3.44-4.79,5.68-7.19,6.7-7.19c0.64,0,1.19,0.24,1.67,0.72c0.48,0.48,0.72,1.05,0.72,1.7
		C200.87,51.16,200.66,51.69,200.24,52.2z"/>
	<path d="M229.24,69.18c0,3.83-1.07,7.3-3.21,10.42c-2.5,3.61-5.75,5.42-9.77,5.42c-3.29,0-6.08-0.97-8.37-2.91
		c-2.43-2.05-3.65-4.7-3.65-7.96c0-3.83,1.17-7.33,3.51-10.49c2.62-3.57,5.94-5.35,9.96-5.35C225.4,58.32,229.24,61.94,229.24,69.18
		z M224.41,69.18c0-2.36-0.5-3.98-1.5-4.86c-1-0.88-2.73-1.33-5.2-1.33c-2.39,0-4.45,1.2-6.19,3.6c-1.63,2.28-2.44,4.8-2.44,7.56
		c0,1.86,0.71,3.37,2.12,4.54c1.35,1.1,3.04,1.65,5.07,1.65c2.36,0,4.33-1.2,5.93-3.61C223.67,74.53,224.41,72.01,224.41,69.18z"/>
	<path d="M253.64,82.49c0,0.68-0.22,1.24-0.65,1.66c-0.43,0.43-0.99,0.64-1.65,0.64c-0.68,0-1.24-0.21-1.67-0.64
		c-0.43-0.43-0.65-0.98-0.65-1.66c0-1.26-0.05-3.91-0.14-7.96c-1.89,1.35-4.23,2.02-7,2.02c-3.29,0-5.66-1.13-7.13-3.4
		c-1.46-2.26-2.2-5.95-2.2-11.05c0-2.54,0.82-3.81,2.47-3.81c0.67,0,1.22,0.21,1.65,0.64c0.43,0.43,0.65,0.98,0.65,1.66
		c0,0.17-0.02,0.42-0.07,0.76c-0.05,0.33-0.07,0.59-0.07,0.76c0,4.11,0.39,6.84,1.16,8.19c0.71,1.26,2.12,1.88,4.23,1.88
		c0.95,0,2.08-0.33,3.42-0.98c1.43-0.71,2.39-1.49,2.88-2.33c0-0.43,0.01-1.39,0.05-2.86c0.03-1.47,0.05-2.4,0.05-2.79
		c0-0.31-0.03-0.78-0.08-1.4c-0.05-0.62-0.08-1.08-0.08-1.37c0-0.65,0.23-1.19,0.69-1.6c0.46-0.42,1.01-0.63,1.66-0.63
		c1.64,0,2.47,1.42,2.47,4.26c0,0.42-0.02,0.98-0.06,1.67c-0.04,0.7-0.06,1.16-0.06,1.37c0,1.78,0.02,4.61,0.07,8.48
		S253.64,80.7,253.64,82.49z"/>
	<path d="M279.74,62.83l-8.05,17.4c-1.99,4.23-3.5,7.78-4.56,10.63l-1.54,4.51c-0.4,1.12-1.1,1.67-2.09,1.67
		c-0.65,0-1.21-0.21-1.69-0.64c-0.47-0.43-0.71-0.96-0.71-1.59c0-1.55,1.67-6.04,5.02-13.47l-8.33-16.03l-1.05-1.7
		c-0.42-0.71-0.63-1.31-0.63-1.79c0-0.64,0.24-1.19,0.73-1.67c0.49-0.48,1.04-0.72,1.64-0.72c0.71,0,1.26,0.27,1.65,0.81
		c2.64,3.66,5.47,8.87,8.49,15.63l3.44-8.02c1.24-2.78,2.43-5.16,3.58-7.16c0.5-0.87,1.15-1.3,1.95-1.3c0.64,0,1.2,0.23,1.69,0.67
		c0.49,0.45,0.73,0.98,0.73,1.6C280.04,62.01,279.94,62.4,279.74,62.83z"/>
	<path d="M78.82,144.21c0,0.67-0.22,1.22-0.65,1.65c-0.43,0.43-0.98,0.65-1.65,0.65c-1.6,0-2.4-1.27-2.4-3.81
		c0-0.22,0.01-0.59,0.02-1.12c0-0.45,0-0.78,0-1H61.24c-0.48,0-1.16,0.05-2.05,0.14c-0.96,0.09-1.65,0.15-2.07,0.16
		c-0.02,0.45-0.02,1.03,0,1.74c0.03,0.88,0.05,1.47,0.05,1.74c0,0.68-0.22,1.24-0.65,1.66c-0.43,0.43-0.98,0.64-1.65,0.64
		c-1.61,0-2.42-1.15-2.42-3.44c0-0.59,0.02-1.47,0.05-2.63c0.03-1.16,0.05-2.04,0.05-2.63c0-0.76,0.26-1.35,0.78-1.78
		c0.52-0.43,1.15-0.59,1.9-0.5c1.58-2.23,2.65-4.76,3.21-7.58c0.42-2.05,0.63-4.78,0.63-8.21c0-1.44,0.31-2.46,0.93-3.05
		s1.66-0.88,3.12-0.88c0.39,0,1.11,0.03,2.17,0.09c1.06,0.06,1.9,0.09,2.52,0.09c0.59,0,1.47-0.05,2.63-0.15
		c1.16-0.1,2-0.15,2.51-0.15c1.21,0,1.99,0.51,2.35,1.54c0.19,0.54,0.28,1.57,0.28,3.07c0,0.71-0.04,1.77-0.13,3.18
		c-0.09,1.4-0.13,2.45-0.13,3.15c0,1.21,0.02,2.78,0.05,4.7c0.05,2.59,0.07,4.16,0.07,4.7c2.2,0,3.3,0.78,3.3,2.33
		c0,0.64,0.02,1.59,0.05,2.85C78.81,142.62,78.82,143.57,78.82,144.21z M70.96,120.69c-3.88,0.06-6.32,0.06-7.33,0
		c0,5.61-1.26,10.72-3.77,15.31c0.39-0.03,0.85-0.05,1.37-0.05h9.58c0-0.67-0.03-2.19-0.09-4.58c-0.03-1.89-0.05-3.42-0.05-4.58
		c0-0.67,0.05-1.68,0.14-3.04C70.91,122.4,70.96,121.38,70.96,120.69z"/>
	<path d="M93.03,141.4c-1.55,0-3.26-0.25-5.12-0.74l-0.05,11.12c0,0.68-0.21,1.24-0.64,1.67c-0.43,0.43-0.97,0.65-1.64,0.65
		c-0.67,0-1.21-0.22-1.64-0.65c-0.43-0.43-0.64-0.99-0.64-1.67l0.07-9.3v-9.28c-0.05-3.4-0.16-6.49-0.35-9.28l-0.35-4.72
		c0-1.1,0.2-2.03,0.6-2.79c0.47-0.91,1.14-1.37,2.02-1.37c0.6,0,1.11,0.21,1.52,0.64c0.41,0.43,0.62,0.95,0.62,1.57
		c0,0.14-0.02,0.4-0.07,0.77c-0.08,0.48-0.13,0.92-0.16,1.33c1.33-0.91,2.62-1.6,3.86-2.06c1.24-0.46,2.43-0.69,3.56-0.69
		c3.18,0,5.5,1.41,6.98,4.23c1.16,2.23,1.74,5.19,1.74,8.86c0,3.35-0.9,6.11-2.7,8.28C98.76,140.25,96.21,141.4,93.03,141.4z
		 M94.64,121.23c-1.43,0-2.71,0.32-3.86,0.95c-0.82,0.45-1.86,1.27-3.12,2.47c0.2,3.52,0.3,7.22,0.3,11.1
		c1.69,0.65,3.38,0.98,5.07,0.98c1.94,0,3.42-0.72,4.44-2.16c0.88-1.26,1.33-2.88,1.33-4.88c0-2.82-0.35-4.93-1.04-6.34
		S96.03,121.23,94.64,121.23z"/>
	<path d="M126.64,139.12c0,0.65-0.24,1.2-0.73,1.64c-0.49,0.44-1.07,0.66-1.73,0.66c-0.68,0-1.26-0.22-1.74-0.66
		c-0.48-0.44-0.72-0.99-0.72-1.64s-0.02-1.53-0.05-2.63c-0.05-1.52-0.08-2.54-0.09-3.05c-2.14,0.71-4.18,1.76-6.12,3.14
		c-1.05,0.76-2.75,2.15-5.07,4.16c-0.53,0.47-1.1,0.7-1.72,0.7c-0.67,0-1.25-0.23-1.74-0.69c-0.5-0.46-0.74-1-0.74-1.64
		c0-1.46,2.57-3.67,7.7-6.63c-3.97-1.74-5.95-3.84-5.95-6.3c0-3.47,2.36-6.33,7.09-8.58c1.97-0.93,4.74-1.4,8.33-1.4
		c0.81,0,1.48,0.29,2.04,0.87c0.55,0.58,0.83,1.3,0.83,2.15c0,2.2,0.07,5.51,0.22,9.93C126.57,133.58,126.64,136.9,126.64,139.12z
		 M121.5,129.58c-0.17-5.83-0.26-8.85-0.28-9.05c-0.78,0.05-1.28,0.09-1.51,0.12c-1.33,0.14-2.74,0.73-4.23,1.77
		c-1.74,1.19-2.61,2.48-2.63,3.86c0.78,1.54,2.03,2.53,3.77,2.98C117.58,129.5,119.21,129.61,121.5,129.58z"/>
	<path d="M157.07,139.12c0,0.67-0.22,1.22-0.65,1.65c-0.43,0.43-0.99,0.65-1.67,0.65c-0.67,0-1.22-0.22-1.65-0.65
		c-0.43-0.43-0.65-0.98-0.65-1.65c0-1.26-0.1-3.12-0.3-5.61c-0.2-2.48-0.3-4.35-0.3-5.61c0-0.34,0.06-2.65,0.19-6.93
		c-0.6,0-2.22-0.02-4.84-0.05c-1.98-0.03-3.61-0.05-4.86-0.05c-0.54,0-1.64,0.11-3.3,0.33c0.03,1.07,0.14,2.97,0.33,5.7
		c0.15,2.39,0.23,4.28,0.23,5.68c0,0.74-0.07,1.86-0.21,3.35c-0.14,1.49-0.21,2.61-0.21,3.37c0,0.67-0.22,1.22-0.65,1.65
		c-0.43,0.43-0.99,0.65-1.67,0.65c-0.67,0-1.22-0.22-1.65-0.65c-0.43-0.43-0.65-0.98-0.65-1.65c0-0.76,0.07-1.88,0.22-3.37
		c0.15-1.49,0.22-2.61,0.22-3.35c0-1.44-0.1-3.59-0.29-6.45c-0.19-2.86-0.29-5.01-0.29-6.45c0-0.85,0.27-1.55,0.8-2.1
		c0.54-0.55,1.23-0.83,2.08-0.83c0.56,0,1.4-0.08,2.51-0.24c1.12-0.16,1.96-0.24,2.54-0.24c1.33,0,3.34,0.02,6.02,0.06
		c2.68,0.04,4.69,0.06,6.02,0.06c0.62,0,1.16,0.23,1.62,0.69s0.69,1,0.69,1.62c0,1.01-0.04,2.52-0.12,4.54
		c-0.08,2.02-0.12,3.53-0.12,4.54c0,1.27,0.1,3.16,0.31,5.68C156.96,135.93,157.07,137.83,157.07,139.12z"/>
	<path d="M181.68,142.12c-0.29,0-0.83-0.34-1.6-1.02c-0.7-0.64-1.22-1.2-1.56-1.7c-1.49,0.81-2.8,1.41-3.93,1.83
		c-1.13,0.41-2.08,0.62-2.84,0.62c-3.63,0-6.27-1.02-7.93-3.07c-1.57-1.92-2.35-4.87-2.35-8.84c0-3.75,1.29-6.96,3.87-9.63
		c2.58-2.67,5.66-4,9.25-4c1.35,0,2.86,0.35,4.54,1.05c2.11,0.87,3.16,1.92,3.16,3.14c0,0.42-0.16,0.79-0.47,1.12
		c-0.15,0.59-0.28,1.56-0.36,2.91c-0.09,1.35-0.14,3.08-0.15,5.19c-0.02,1.92,0.12,3.44,0.4,4.56c0.15,0.68,0.64,2.05,1.47,4.09
		c0.11,0.28,0.29,0.69,0.54,1.23l0.14,0.4c0,0.62-0.22,1.13-0.65,1.54C182.75,141.91,182.25,142.12,181.68,142.12z M176.84,125.95
		c0-0.67,0.04-1.39,0.13-2.17c0.08-0.78,0.21-1.62,0.38-2.5c-0.57-0.29-1.07-0.51-1.48-0.65c-0.41-0.14-0.74-0.21-0.99-0.21
		c-2.4,0-4.48,0.98-6.22,2.94c-1.74,1.96-2.62,4.22-2.62,6.78c0,2.54,0.45,4.45,1.35,5.72c0.9,1.27,2.25,1.91,4.05,1.91
		c1.49,0,2.75-0.27,3.79-0.81c0.56-0.29,1.34-0.88,2.35-1.77C177.09,131.08,176.84,128,176.84,125.95z"/>
	<path d="M205.73,118.41c0,0.68-0.21,1.24-0.64,1.69c-0.43,0.44-0.97,0.66-1.64,0.66c-0.42,0-1.04-0.02-1.87-0.06
		c-0.83-0.04-1.45-0.06-1.87-0.06c-0.47,0-1.04,0.05-1.72,0.14c0.34,8.17,0.51,13.72,0.51,16.63c0,3.1-0.82,4.65-2.47,4.65
		c-0.62,0-1.16-0.2-1.62-0.6c-0.46-0.4-0.69-0.91-0.69-1.51c0-0.59,0.02-1.47,0.07-2.65c0.05-1.18,0.07-2.06,0.07-2.65
		c0-2.05-0.16-6.65-0.47-13.82c-0.51-0.03-1.5-0.05-2.95-0.05c-1.35,0-2.29-0.09-2.81-0.28c-0.98-0.34-1.47-1.05-1.47-2.14
		c0-0.65,0.21-1.21,0.62-1.67c0.41-0.46,0.95-0.7,1.62-0.7h13.72c1.15,0,1.98,0.12,2.49,0.35
		C205.36,116.7,205.73,117.39,205.73,118.41z"/>
	<path d="M233.71,134.23c0,0.6-0.03,1.5-0.09,2.7c-0.06,1.19-0.09,2.09-0.09,2.7c0,0.65-0.22,1.2-0.66,1.64s-0.99,0.66-1.64,0.66
		c-0.67,0-1.22-0.22-1.66-0.66s-0.66-0.99-0.66-1.64c0-1.01,0.04-2.51,0.14-4.51c0.09-2,0.14-3.5,0.14-4.51
		c0-1.91-0.15-3.72-0.44-5.44c-1.89,2.79-3.26,4.74-4.12,5.84c-1.64,2.11-3.26,3.85-4.86,5.21c-2.11,1.78-3.67,3.21-4.7,4.28
		c-0.82,0.85-1.68,1.28-2.58,1.28c-0.68,0-1.27-0.18-1.77-0.53c-0.54-0.4-0.81-0.94-0.81-1.6c0-4.42-0.08-9.02-0.23-13.82
		c-0.17-4.98-0.26-7.4-0.26-7.28c0-1.58,0.78-2.37,2.33-2.37c1.32,0,2.09,0.74,2.3,2.23c0.03,0.23,0.08,1.76,0.16,4.58l0.28,11.56
		c2.34-2.06,4.78-4.67,7.33-7.82c0.79-0.98,2.95-3.81,6.49-8.51c0.91-1.23,1.89-1.84,2.93-1.84c0.65,0,1.2,0.22,1.64,0.65
		c0.44,0.43,0.66,0.98,0.66,1.65c0,1.72,0.03,4.31,0.09,7.78C233.68,129.92,233.71,132.51,233.71,134.23z"/>
	<path d="M245.15,140.05c0,0.56-0.22,1.04-0.66,1.45c-0.44,0.41-0.94,0.62-1.5,0.62c-0.62,0-1.24-0.4-1.86-1.21
		c-0.6-0.76-0.91-1.46-0.91-2.09c0-0.56,0.22-1.04,0.66-1.44c0.44-0.4,0.95-0.6,1.52-0.6c0.6,0,1.22,0.4,1.86,1.21
		C244.86,138.74,245.15,139.43,245.15,140.05z M245.13,105.32v25.89c0,1.38-0.69,2.07-2.07,2.07s-2.07-0.69-2.07-2.07
		c0-0.64-0.02-1.58-0.06-2.85c-0.04-1.26-0.06-2.21-0.06-2.83c0-2.25,0.02-5.62,0.06-10.11c0.04-4.49,0.06-7.86,0.06-10.11
		c0-1.38,0.69-2.07,2.07-2.07S245.13,103.94,245.13,105.32z"/>
</g>
</svg>
