<?xml version="1.0" encoding="UTF-8"?>
<!DOCTYPE svg PUBLIC "-//W3C//DTD SVG 1.1//EN" "http://www.w3.org/Graphics/SVG/1.1/DTD/svg11.dtd">
<!-- Creator: CorelDRAW 2017 -->
<svg xmlns="http://www.w3.org/2000/svg" xml:space="preserve" width="58.992mm" height="74.097mm" version="1.1" style="shape-rendering:geometricPrecision; text-rendering:geometricPrecision; image-rendering:optimizeQuality; fill-rule:evenodd; clip-rule:evenodd"
viewBox="0 0 16910.72 21240.73"
 xmlns:xlink="http://www.w3.org/1999/xlink">
 <defs>
  <style type="text/css">
   <![CDATA[
    .fil1 {fill:black}
    .fil0 {fill:black;fill-rule:nonzero}
   ]]>
  </style>
 </defs>
 <g id="Слой_x0020_1">
  <metadata id="CorelCorpID_0Corel-Layer"/>
  <path class="fil0" d="M1796.02 17034.29c-44.4,28.38 -165.89,95.74 -363.03,200.75 -197.14,105.75 -340.15,202.3 -429.19,291.19 -121.4,119.51 -216.4,290.39 -283.68,512.52 -66.16,222.25 -99.82,478.12 -99.82,766.96 0,334.07 72.12,604.54 215.25,813 143.04,207.57 320.95,311.8 534.91,311.8 32.51,0 86.6,-11.47 161.16,-33.68 44.4,-13.85 79.23,-23.05 102.11,-29.12 51.69,20.64 91.39,47.53 120.2,80.47 27.69,32.94 42.08,68.14 42.08,107.27 0,12.27 -2.41,25.28 -8.43,40.59 -5.96,14.56 -14.39,30.67 -26.43,49.05 -70.89,68.17 -139.37,115.64 -207.89,141.7 -68.57,26.09 -155.11,39.13 -260.89,39.13 -375.12,0 -685.29,-140.23 -928.12,-420.62 -242.77,-281.27 -364.26,-649.77 -364.26,-1105.65 0,-557.01 131.06,-1001.48 394.39,-1334.72 263.21,-332.53 663.51,-560.82 1200.88,-683.43 68.51,20.67 118.99,48.96 151.5,84.28 32.42,35.95 49.25,79.63 49.25,132.49l0 36.03zm353.48 3205.82c10.78,-205.34 20.47,-383.87 26.49,-535.57 5.93,-151.79 8.37,-289.64 8.37,-412.22 0,-270.49 -7.28,-528.75 -22.85,-772.35 -15.62,-244.41 -39.7,-478.84 -72.15,-704.87 56.53,-39.16 119.08,-70.55 188.77,-93.48 68.51,-23.02 150.3,-39.13 243.98,-48.3 74.56,32.94 128.65,81.24 162.39,144.05 32.42,62.78 52.89,177.01 62.43,343.28 159.96,-100.39 295.72,-182.37 407.55,-246.01 111.83,-63.58 204.39,-111.83 277.72,-144.76 79.41,19.09 141.81,49.76 188.68,91.19 45.72,40.56 84.19,104.2 114.23,189.25 -169.45,64.36 -333.01,139.43 -490.48,225.97 -157.52,85.83 -311.34,184.72 -461.64,297.3 -7.17,142.5 -13.19,285.86 -16.83,431.37 -3.61,144.85 -4.73,291.91 -4.73,442.15 0,94.2 2.32,207.57 7.14,340.9 4.84,133.33 12.01,278.18 20.47,435.98l-108.19 88.09c-21.67,0 -52.86,-0.72 -94.97,-2.26 -42.14,-1.55 -73.33,-2.29 -91.39,-2.29 -85.31,0 -153.88,-5.36 -207.97,-16.08 -54.09,-9.95 -99.76,-27.58 -137.02,-51.31zm2804.64 -368.56c0,-139.43 -2.41,-278.92 -6.05,-419.1 -3.64,-140.21 -8.46,-282.71 -15.59,-427.61 -12.01,-1.52 -25.28,-3.01 -38.5,-3.81 -14.39,-0.72 -34.86,-0.72 -60.14,-0.72 -139.4,0 -243.98,35.2 -314.95,105.72 -70.95,70.46 -105.78,173.95 -105.78,311.86 0,185.38 26.49,307.24 78.14,364.66 51.69,57.5 145.45,86.63 282.56,86.63 20.38,0 62.43,-3.84 123.81,-11.55 22.85,-3.01 42,-5.36 56.5,-6.08zm-815.09 -1688.72l-21.64 0c-74.56,0 -140.64,-19.12 -195.96,-58.25 -56.53,-39.04 -85.31,-81.15 -85.31,-125.67 0,-6.08 3.53,-13.73 10.78,-22.93 7.25,-8.46 20.44,-20.67 38.47,-36.03 134.67,-50.6 272.87,-100.39 415.92,-147.89 143.13,-48.22 288.58,-93.45 436.38,-137.11 294.54,36 497.67,137.11 609.47,304.18 113.03,167.01 169.56,563.15 169.56,1189.13 0,207.66 -8.43,550.93 -25.28,1030.49 -1.2,49.05 -2.29,85.83 -2.29,109.56 -49.39,13.04 -93.88,23.05 -131.09,29.15 -37.24,5.36 -73.33,8.46 -109.39,8.46 -37.27,0 -75.74,-3.81 -117.85,-10.75 -40.88,-7.65 -79.35,-17.66 -117.85,-31.39l-27.61 -105.03c-98.61,29.93 -198.34,53.72 -298.16,70.55 -99.7,17.63 -186.33,26 -258.45,26 -192.32,0 -336.54,-61.23 -430.34,-183.06 -93.8,-121.86 -140.64,-310.31 -140.64,-566.21 0,-297.3 74.56,-511.06 223.51,-641.32 149.09,-130.29 393.18,-195.36 730.93,-195.36l113 0c-2.41,-186.27 -36.03,-338.69 -102.14,-459 -66.19,-120.31 -145.42,-180.02 -236.81,-180.02 -21.67,0 -49.25,3.84 -83.02,11.5 -33.65,6.91 -68.48,16.83 -104.55,29.1l-259.66 91.93zm3281.87 1694.08c75.76,32.94 131.06,67.45 164.69,104.2 34.86,36.75 51.66,76.62 51.66,120.28 0,22.22 -8.34,56.7 -25.23,102.65 -2.32,6.11 -3.53,10 -3.53,11.55 -121.49,32.94 -238.04,56.62 -349.87,70.43 -111.8,14.56 -226.06,21.47 -343.79,21.47 -121.46,0 -265.73,-8.46 -429.22,-26.03 -164.69,-16.91 -349.81,-43.66 -556.52,-79.69 -21.64,-35.23 -37.35,-71.24 -49.36,-107.3 -10.75,-36.03 -16.83,-70.43 -16.83,-103.4 0,-19.18 1.23,-34.49 2.44,-44.49 1.2,-10.72 2.41,-19.92 4.82,-26.83l917.26 -1864.87c-34.94,3.07 -69.77,5.36 -103.46,6.91 -34.86,1.52 -74.5,2.26 -121.37,2.26 -73.33,0 -155.08,-3.81 -246.47,-11.47 -92.59,-6.91 -194.73,-19.21 -310.14,-35.32 -19.26,-48.22 -32.48,-91.9 -42.14,-131.78 -9.55,-39.76 -14.39,-73.5 -14.39,-101.91 0,-19.84 8.46,-37.47 24.05,-53.61 16.83,-16.8 43.31,-32.13 78.2,-47.5 74.53,16.83 153.79,28.41 238.01,35.23 82.9,6.91 180.31,10.72 293.34,10.72 117.73,0 225.92,-3.81 325.73,-11.44 99.76,-7.65 191.2,-19.15 272.87,-34.51 70.92,22.19 123.81,53.69 162.28,93.45 37.29,39.87 64.9,95.83 84.22,169.36 -216.43,445.18 -395.59,821.4 -541.04,1130.96 -144.22,309.51 -269.23,586.05 -373.78,832.03 51.69,10.75 103.34,18.37 157.43,23.74 54.09,5.39 106.98,7.65 158.67,7.65 78.14,0 167.09,-5.36 268.11,-16.02 100.93,-10 209.15,-26.11 323.35,-46.75zm931.65 288.09c-75.74,-408.41 -165.92,-806.81 -270.44,-1194.49 -103.37,-387.74 -223.65,-764.67 -357.07,-1131.68 58.88,-29.96 116.61,-50.6 174.32,-63.61 57.73,-13.01 136.97,-19.21 238.04,-19.21 44.43,0 84.08,0 117.76,0.83 33.71,0.72 68.57,2.26 104.55,3.84 64.96,236.67 127.51,491.85 186.36,765.39 58.91,274.28 115.41,569.31 169.5,885.01 84.14,-265.13 158.75,-540.93 224.83,-827.5 66.08,-286.58 122.58,-585.39 169.45,-897.28 64.96,-8.37 111.83,-14.56 138.29,-17.57 27.72,-3.07 49.28,-4.62 66.19,-4.62 51.69,0 108.19,5.39 170.65,16.83 62.55,11.55 134.67,28.41 216.37,50.62 -140.64,649.75 -318.51,1268.07 -532.47,1854.21 -212.85,586.88 -460.52,1138.53 -743,1654.95l-73.33 0c-100.93,0 -194.73,-13.01 -280.1,-39.04 -86.57,-26.11 -171.88,-68.97 -259.69,-127.19 98.58,-108.85 189.94,-235.26 275.28,-377.05 84.19,-142.5 171.94,-319.48 264.5,-532.44zm4534.46 -3130.71c-44.4,28.38 -165.86,95.74 -363.03,200.75 -197.11,105.75 -340.15,202.3 -429.19,291.19 -121.4,119.51 -216.37,290.39 -283.68,512.52 -66.16,222.25 -99.82,478.12 -99.82,766.96 0,334.07 72.21,604.54 215.25,813 143.04,207.57 320.92,311.8 534.91,311.8 32.54,0 86.6,-11.47 161.16,-33.68 44.4,-13.85 79.26,-23.05 102.11,-29.12 51.69,20.64 91.39,47.53 120.2,80.47 27.69,32.94 42.08,68.14 42.08,107.27 0,12.27 -2.38,25.28 -8.34,40.59 -6.05,14.56 -14.42,30.67 -26.52,49.05 -70.92,68.17 -139.37,115.64 -207.97,141.7 -68.51,26.09 -155.06,39.13 -260.83,39.13 -375.12,0 -685.26,-140.23 -928.01,-420.62 -242.86,-281.27 -364.32,-649.77 -364.32,-1105.65 0,-557.01 131.03,-1001.48 394.33,-1334.72 263.33,-332.53 663.62,-560.82 1200.91,-683.43 68.51,20.67 119.05,48.96 151.5,84.28 32.42,35.95 49.25,79.63 49.25,132.49l0 36.03zm1362.1 2837.26c0,-139.43 -2.44,-278.92 -6.05,-419.1 -3.53,-140.21 -8.34,-282.71 -15.62,-427.61 -11.98,-1.52 -25.17,-3.01 -38.47,-3.81 -14.42,-0.72 -34.86,-0.72 -60.03,-0.72 -139.52,0 -244.06,35.2 -314.98,105.72 -71.01,70.46 -105.86,173.95 -105.86,311.86 0,185.38 26.46,307.24 78.14,364.66 51.71,57.5 145.45,86.63 282.56,86.63 20.44,0 62.46,-3.84 123.78,-11.55 22.88,-3.01 42.14,-5.36 56.53,-6.08zm-815.09 -1688.72l-21.59 0c-74.53,0 -140.69,-19.12 -196.02,-58.25 -56.5,-39.04 -85.31,-81.15 -85.31,-125.67 0,-6.08 3.61,-13.73 10.81,-22.93 7.2,-8.46 20.41,-20.67 38.47,-36.03 134.64,-50.6 272.84,-100.39 415.97,-147.89 143.07,-48.22 288.52,-93.45 436.38,-137.11 294.54,36 497.62,137.11 609.41,304.18 113.03,167.01 169.5,563.15 169.5,1189.13 0,207.66 -8.34,550.93 -25.17,1030.49 -1.2,49.05 -2.38,85.83 -2.38,109.56 -49.36,13.04 -93.8,23.05 -131.06,29.15 -37.29,5.36 -73.36,8.46 -109.39,8.46 -37.29,0 -75.76,-3.81 -117.85,-10.75 -40.91,-7.65 -79.32,-17.66 -117.76,-31.39l-27.72 -105.03c-98.61,29.93 -198.34,53.72 -298.07,70.55 -99.82,17.63 -186.33,26 -258.45,26 -192.44,0 -336.65,-61.23 -430.42,-183.06 -93.8,-121.86 -140.64,-310.31 -140.64,-566.21 0,-297.3 74.56,-511.06 223.62,-641.32 149.09,-130.29 393.07,-195.36 730.93,-195.36l112.92 0c-2.32,-186.27 -36.06,-338.69 -102.17,-459 -66.08,-120.31 -145.45,-180.02 -236.81,-180.02 -21.67,0 -49.25,3.84 -82.99,11.5 -33.65,6.91 -68.51,16.83 -104.55,29.1l-259.69 91.93zm2595.52 -860.41c11.95,28.29 21.64,59.68 26.4,93.45 6.02,33.74 9.63,71.98 9.63,113.37l0 193.84c0,1.55 -1.2,9.2 -3.61,23.76 -2.41,13.85 -2.41,29.1 0,45.95 79.38,-1.46 171.85,-6.11 277.72,-14.56 105.75,-8.37 229.53,-19.84 370.28,-35.23 68.48,36.06 117.73,76.62 150.18,121.11 31.33,45.15 48.16,98.84 50.57,161.65 -76.94,25.31 -171.97,45.92 -281.36,61.32 -110.59,16.02 -296.95,32.94 -560.25,50.51 -23.96,241.43 -40.79,472.04 -51.69,692.69 -10.78,221.42 -15.62,429.82 -15.62,625.98 0,251.29 18.06,404.54 52.95,460.52 34.92,55.12 102.19,82.7 200.72,82.7 51.77,0 99.82,-3.1 144.33,-9.95 44.43,-6.88 86.54,-16.91 127.42,-30.64 32.45,18.4 56.44,36.78 72.04,55.96 14.51,19.92 22.88,40.59 22.88,62.81 0,28.29 -10.81,56.7 -30.04,85.83 -20.44,28.26 -56.5,62.06 -108.19,102.62 -123.78,34.49 -229.67,59.05 -314.98,74.36 -85.31,14.56 -162.28,22.19 -230.73,22.19 -199.66,0 -342.7,-52.86 -428.04,-158.61 -85.28,-104.95 -128.62,-281.9 -128.62,-531.01 0,-122.58 12.01,-311.77 34.86,-567.73 24.08,-255.9 36.09,-449.71 36.09,-581.49 0,-101.94 -1.2,-179.28 -2.44,-232.17 -1.2,-53.66 -2.41,-101.91 -4.73,-144.85 -61.37,-10.66 -117.88,-22.93 -170.76,-37.5 -52.86,-13.85 -104.55,-30.67 -153.88,-49.79l0 -22.99c0,-39.87 9.66,-79.75 26.46,-118.05 18.03,-39.04 43.31,-78.09 75.76,-116.41l242.86 -13.82 25.17 -442.89c51.71,-27.58 101.02,-47.5 149.09,-61.26 49.28,-13.01 97.38,-19.92 146.66,-19.92 34.86,0 72.12,3.81 109.39,12.27 37.27,8.37 81.81,23.76 133.5,45.98z"/>
  <path class="fil1" d="M8308.56 5984.94c429.56,0 588.86,13.79 922.96,129.66 169.7,-815.55 290.42,-1722.52 -65.73,-2332.93 -94.48,-161.88 -276.46,-248.65 -243.92,-492.2 7.17,-53.78 -39.7,-142.3 1.43,-162.79 8.46,-4.3 187.39,97.64 263.81,11.5 87.37,-98.35 10.06,-226.26 117.24,-312.09 40.16,-32.11 57.73,-75.56 75.42,-116.67 16.31,-37.78 63.18,69.31 113.03,73.84 122.49,11.12 126.33,124.67 256.71,207.54 82.87,52.66 192.61,-177.21 338.26,-169.59 52.14,2.75 65.99,-14.53 118.16,-45.38 52.06,-30.87 35.63,67.97 84.11,117.02 109.96,111.28 -6.59,190.2 64.15,314.12 31.33,54.78 118.76,-1.95 172.8,-2.41 50.97,-0.26 50.65,3.27 95,-17 15.34,32.97 -14.33,100.53 12.5,149.95 86,158.92 -187.36,355.57 -406.34,560.48 -402.21,376.39 -359.56,1912.55 -283.08,2492.09 152.19,64.3 94.08,50.88 242.92,151.5 722.7,-191.03 1386.67,-451.95 2083.71,-721.5 350.79,-135.59 276.4,182.72 90.15,225.55 -648.34,273.88 -1334.49,411.01 -2060.18,578.14 46.1,34.49 54.24,41.45 97.26,79.78 490.48,6.02 1023.35,-45.01 1606.33,-117.04 192.61,-23.76 172.91,215.14 69.4,214.59 -578.74,-3.1 -1130.36,1.23 -1557.63,15.77 53.49,56.21 103.05,116.16 147.29,179.65 691.03,73.96 1393.46,121.66 2086.06,259.6 202.67,38.56 168.67,282.99 -25.68,245.9 -563.78,-127.25 -1406.22,-334.79 -1993.07,-398.57 151.33,267.28 94.66,579.86 102.25,980.73 10.55,550.62 300.42,633.84 230.27,1590.6 -597.43,-46.35 -603.02,-94.11 -1026.5,-240.45 117.13,922.25 454.21,2049.08 754.64,2982.88 203.87,633.72 1072.94,-658.8 1135.49,-967.19 46.27,-228.35 -488.7,-455.28 -438.59,-775.65 10.98,-70.52 -10.92,-227.92 32.59,-250.31 11.58,-5.91 185.87,88.92 269.63,-16.2 96.32,-120.83 58.08,-352.39 173.97,-454.19 43.31,-38.1 64.5,-94.08 85.48,-146.66 19.29,-48.33 60,99.56 110.74,111.34 124.67,28.81 124.35,64.33 252.09,189.48 81.18,79.55 72.47,-88.43 337.94,-108.5 53.92,-4.01 68.6,-11.64 124.24,-46.67 55.64,-35.17 31.96,94.66 78.17,165.49 98.84,151.44 -59.74,481.3 141.9,531.07 35.63,-19.44 46.64,-67.42 109.56,-96.86 22.65,26.14 22.79,61.37 18.83,106.87 -7.8,89.7 -1.38,165.09 -8.97,218.32 -54.49,382.81 -524.79,335.22 -828.54,849.64 -1136.35,1924.01 -1842.31,3387.33 -3823.8,3706.5 103.48,59.91 274.42,90.13 608.29,60 1384,-60.26 3837.5,-2361.23 4446.72,-704.38 28.26,76.77 37.5,264.82 -13.67,381.14 -107.18,243.63 -376.9,366.75 -566.04,-140.75 -109.73,-294.49 -727.37,-292.05 -1024.87,-179.91 -1652.52,622.86 -3172.74,1521.94 -4074.4,583.18 -2540.28,-566.84 -2448.03,-1851.52 -3834.75,-3571.25 -378.91,-469.84 -759.34,-276.34 -831.92,-656.68 -10.09,-52.92 10.69,-106.27 10.03,-179.42 -0.37,-45.61 -7.65,-80.44 13.82,-107.5 82.62,34.54 45.44,72.81 161.59,67.8 199.09,-57.88 25.14,-380.89 116.84,-536.26 42.8,-72.58 13.01,-201.38 70.23,-168.5 57.22,32.79 72.27,39.76 126.27,41.65 266.22,9.35 331.81,196.96 409.24,114.23 121.69,-130.2 137.48,-185.7 260.72,-244.95 46.32,-22.36 83.76,-163.28 105.29,-115.67 23.53,51.69 47.27,106.67 92.36,143.02 120.48,96.98 117.67,298.9 219.53,415.74 40.13,45.95 71.95,69.23 122.52,47.27 9.57,-6.85 15.77,-11.07 17.31,-10.38l2.12 1.09c53.26,-27.4 96.38,-65.7 100.88,-63.64 44.58,20.67 8.66,145.62 23.05,215.71 65.22,318.08 -384.87,675.32 -327.8,901.64 77.11,305.61 963.04,1446.18 1228.66,552.77 409.04,-1375.57 283.94,-2463.8 328.26,-3040.7 -430.22,110.25 -534.94,151.53 -1168.6,224.83 -59.11,-815.67 509.4,-1205.41 509.4,-1811.84 0,-160.62 32.05,-295.17 107.73,-440.28 -557.79,31.25 -1367.95,70.92 -1991.03,149.29 -206.63,25.97 -282.05,-256.48 -94.68,-269.06 794.02,15.42 1493.56,3.61 2165.32,-17.03 42.51,-63.75 91.7,-125.5 146.63,-185.01 -465.02,-54.09 -989.32,-94.94 -1443.2,-151.64 -207.34,-25.86 -63.38,-228.67 100.36,-189.71 567.5,134.76 967.19,221.27 1432.73,250.69 20.55,-19.35 41.57,-38.33 63.24,-57.16 -620.94,-236.7 -1266.76,-337.23 -1873.5,-569.65 -164.31,-53.23 -225.03,-363.17 97.44,-241.51 646.56,243.75 1234.19,503.81 1838.64,759.16 126.53,-101.28 174.46,-142.16 330.43,-224.69 -29.12,-125.73 129.66,-1880.78 -310,-2387.03 -187.88,-216.4 -475,-381.52 -403.5,-543.65 22.27,-50.45 -8.57,-116.7 3.96,-150.3 41.94,18.52 41.57,14.91 88.61,13.27 49.88,-1.83 133.61,51.4 159.67,-4.62 59.22,-126.56 -52.46,-200.75 43.46,-316.27 42.31,-50.91 22.19,-149.06 71.92,-120.28 49.74,28.75 63.29,45.44 111.31,40.59 134.24,-13.47 247.19,211.84 321.06,155.86 116.33,-87.89 114.09,-201.44 226.63,-217.55 45.89,-6.42 83.71,-115.3 100.68,-78.2 18.52,40.33 36.92,83.05 75.59,113.55 103.37,81.44 38.44,212.24 124.1,307.04 74.93,83.02 235,-25.91 243.09,-22.04 39.01,18.86 0.17,109.07 9.52,162.57 42.34,241.94 -110.25,343.42 -200.43,501.43 -361.77,633.64 -149.58,1679.12 0.34,2268.95 385.99,-143.24 589.15,-203.67 1068.33,-203.67zm-5092.02 4299.54c25.14,336.31 -148.38,688.53 -158.9,-180.17 -2.78,-228.47 59.91,-1170.35 101.33,-865.26 48.62,358.5 30.01,676.52 57.56,1045.42zm1241.1 -1919.02c-148.4,-619.07 -0.83,3138.77 123.78,926.37 17.51,-310.71 -73.36,-715.85 -123.78,-926.37zm465.31 1860.52c-25.11,260.26 148.23,532.79 158.81,-139.49 2.75,-176.81 -59.83,-905.65 -101.25,-669.53 -48.68,277.37 -30.01,523.56 -57.56,809.02zm-1101.55 -901.03c-49.22,701.72 -37.78,988.75 -175.29,355.52 -47.47,-218.26 5.79,-1480.29 71.98,-1379.61 65.22,99.36 154.11,299.9 103.31,1024.1zm9473.72 672.42c-25.14,336.31 148.35,688.45 158.81,-180.25 2.78,-228.5 -59.83,-1170.29 -101.28,-865.26 -48.68,358.5 -29.98,676.61 -57.53,1045.51zm-1159.32 -2028.01c148.4,-619.07 0.72,3138.77 -123.78,926.43 -17.51,-310.8 73.36,-715.91 123.78,-926.43zm-532.87 1789.31c25.11,367.21 -148.23,751.85 -158.78,-196.82 -2.81,-249.57 59.83,-1278.14 101.22,-944.98 48.68,391.49 29.98,738.9 57.56,1141.8zm1228.6 -730.76c49.22,816.87 37.7,1150.94 175.26,413.85 47.47,-254.15 -5.85,-1723.23 -71.92,-1606.05 -65.36,115.64 -154.14,349.12 -103.34,1192.2zm-2073.91 -6809.09c-25.14,377.16 148.35,772.09 158.81,-202.12 2.75,-256.25 -59.83,-1312.39 -101.28,-970.32 -48.7,402.01 -29.98,758.79 -57.53,1172.44zm-2090.96 -1319.13c-183,-656.22 175.64,3373.11 175.64,988.01 0,-334.93 -113.49,-764.75 -175.64,-988.01zm829.05 787.77c25.11,411.9 -148.23,843.21 -158.78,-220.7 -2.78,-279.81 59.83,-1433.33 101.22,-1059.64 48.62,439.02 29.98,828.57 57.56,1280.34zm678.01 -174.92c33.85,970.98 16.14,1367.4 167.5,494.95 52.17,-300.85 26.49,-2046.36 -41.8,-1908.53 -67.45,136.08 -160.7,411.53 -125.7,1413.58zm-2606.47 915.68c-25.11,377.19 148.38,772.12 158.92,-202.1 2.78,-256.25 -59.91,-1312.42 -101.36,-970.35 -48.59,402.04 -29.98,758.82 -57.56,1172.44zm-1468.91 -1516.9c-182.92,-683.8 175.67,3514.38 175.67,1029.4 0,-348.98 -113.43,-796.92 -175.67,-1029.4zm967.19 5954.96c-101.56,0 -243.95,204.59 -243.95,385.36 0,180.65 142.38,269.09 243.95,269.09 101.59,0 253.78,-141.3 253.78,-321.98 0,-180.77 -152.19,-332.47 -253.78,-332.47zm-1375.4 -4875.68c25.11,411.79 -148.23,843.13 -158.7,-220.7 -2.78,-279.9 59.8,-1433.33 101.13,-1059.7 48.68,438.99 30.07,828.65 57.56,1280.4zm1184.03 -569.25c33.91,970.95 16.14,1367.32 167.5,494.92 52.26,-300.91 26.49,-2046.33 -41.85,-1908.53 -67.42,136.11 -160.64,411.56 -125.64,1413.61zm2739.08 5444.93c-101.59,0 -244.06,204.59 -244.06,385.36 0,180.65 142.47,269.09 244.06,269.09 101.59,0 253.78,-141.3 253.78,-321.98 0,-180.77 -152.19,-332.47 -253.78,-332.47zm-984.88 -571.92c-350.9,-296.26 -1098.34,403.88 -369.91,306.99 302.63,-40.25 815.95,69.6 369.91,-306.99zm-1428.35 419.9c445.59,0 708.91,383.95 708.91,705.42 0,321.58 -469.46,577.05 -915.17,577.05 -445.67,0 -761.74,-266.39 -761.74,-588 0,-321.46 522.33,-694.47 968,-694.47zm2380.63 68.48c-445.7,0 -724.08,301.77 -776.82,623.23 -52.83,321.58 394.04,412.71 839.66,412.71 445.64,0 791.9,-143.16 739.16,-464.74 -52.86,-321.46 -356.43,-571.2 -801.99,-571.2z"/>
 </g>
</svg>
