<?xml version="1.0" encoding="utf-8"?>
<!-- Generator: Adobe Illustrator 23.0.2, SVG Export Plug-In . SVG Version: 6.00 Build 0)  -->
<svg version="1.1" id="OBJECTS" xmlns="http://www.w3.org/2000/svg" xmlns:xlink="http://www.w3.org/1999/xlink" x="0px" y="0px"
	 viewBox="0 0 500 500" style="enable-background:new 0 0 500 500;" xml:space="preserve">
<style type="text/css">
	.st0{fill:#994A4A;}
	.st1{fill:#45C3EF;}
</style>
<path class="st0" d="M95.57,474.32l3.51,1.62c0,0,1.21-1.48,1.75-1.21c0.54,0.27,2.83-0.14,2.83-0.14l1.89,0.54
	c0,0-1.15-2.56-0.94-2.77c0.2-0.2,0.47-0.27,0.61-0.54c0.14-0.27,0.67-0.74,0.67-0.74l-0.34-0.54c0,0,0.54-0.34,0.94-0.07
	c0.4,0.27,0.74,0.27,1.01,0.88c0.27,0.61,0.47,0.54,0.4,1.15c-0.07,0.61-0.27,0.81-0.13,1.15c0.13,0.34,0.61,0.74,0.61,0.74
	s1.01-0.34,1.21-0.34c0.2,0,1.01,0.27,1.01,0.27s0.81,0.13,1.21-0.07s1.08-0.47,1.42-0.61c0.34-0.14,1.21-0.74,1.48-0.47
	c0.27,0.27,1.15,0.61,1.28,1.01c0.13,0.4,0.27,0.61,0.27,0.88s0.07,0.4,0.34,0.67c0.27,0.27,2.23,0.34,2.23,0.34l0.88-1.21
	l1.48,1.35c0,0,1.55,0.4,1.89,0.34c0.34-0.07,2.63-0.27,2.63-0.27s-0.2-1.42-0.2-1.62c0-0.2,0.27-0.47,0.27-0.47s0.4-0.07,0.4-0.27
	c0-0.2,0-0.47,0.07-0.67c0.07-0.2,0.34-0.54,0.54-0.61c0.2-0.07,0.67-0.07,0.67-0.07l-0.34,1.08c0.2,0.4,0.34,0.27,0.47,0.61
	c0.14,0.34,0.34,0.81,0.34,0.81s-0.07,0.07,0.2,0.34c0.27,0.27,0.88,0.54,1.08,0.61c0.2,0.07,1.15,0.54,1.28,0.27
	c0.13-0.27,0.2-0.94,0.4-0.81c0.2,0.14,0.67,0.34,0.94,0.61c0.27,0.27,1.69,0.74,2.02,0.61c0.34-0.14,0.74-0.61,0.94-0.67
	c0.2-0.07-0.34-0.74,0.67-0.27c1.01,0.47,1.55,0.74,1.75,0.81c0.2,0.07,1.82,0.27,1.82,0.27l1.01-0.81c0,0,0.07-0.4,0.4-0.47
	s1.55-0.13,1.96-0.07c0.4,0.07,0.47,0.27,1.01,0.07c0.54-0.2,0.94-0.67,0.94-0.67s0.4-0.2,0.54-0.4c0.13-0.2,0.2-0.67,0.4-0.61
	c0.2,0.07,0.88,0.34,0.88,0.34l0.61,0.67l1.21,0.47l0.67-0.47c0,0,0.07-0.34,0.4-0.27s1.15,0.2,1.48,0.4
	c0.34,0.2,1.69-0.27,1.69-0.27s0.27-0.54,0.47-0.54c0.2,0,1.28,0.14,1.28,0.14s0.81,0.61,1.01,0.74c0.2,0.13,1.21,0.27,1.21,0.27
	l0.94-0.2l0.81-0.2l1.55,0.47l3.71,2.43l0.72,0.63c0,0,1.35-0.36,1.98,0c0.63,0.36,1.08,0.54,1.26,0.9c0.18,0.36,0.9,0.72,0.9,0.72
	s2.25,0.27,2.79,0.09c0.54-0.18,0.9-0.36,1.44-0.36c0.54,0,1.26-0.54,1.98,0.09c0.72,0.63,1.89,0.9,2.16,0.9
	c0.27,0,0.9,0.18,1.44-0.09c0.54-0.27,1.8-0.72,2.16-0.9c0.36-0.18,1.35-0.36,1.71-0.63c0.36-0.27,0.27-0.72,1.44-0.36
	c1.17,0.36,2.16,0.72,3.15,0.63c0.99-0.09,3.96-0.36,4.23-0.63c0.27-0.27,1.08-0.9,1.08-0.9l1.44-0.81c0,0,1.71-0.18,2.16,0.09
	c0.45,0.27,0.99,0.45,1.53,0.54c0.54,0.09,2.79-0.36,3.24-0.36c0.45,0,0.72-0.54,1.44-0.18c0.72,0.36,1.71,0.99,1.71,0.99l1.08,0.36
	c0,0,1.98,0,2.52,0.54c0.54,0.54,0.36,1.35,0.72,1.8c0.36,0.45,0.54,0.63,1.08,0.9c0.54,0.27,0.99,0.27,1.62,0.45
	c0.63,0.18,0.99-0.18,1.71,0.9c0.72,1.08,0.81,0.99,1.08,1.26c0.27,0.27,2.34-1.08,2.34-1.08s0.99-0.45,1.62-0.18
	c0.63,0.27,0.9,0.36,1.53,0.54c0.63,0.18,1.62,0.45,1.62,0.45l0.81-1.26l2.07-0.63c0,0,1.26,0.63,1.44,0.9
	c0.18,0.27,0.63,0.99,0.63,0.99l1.08-0.45l-1.17,1.53c0,0,1.08,1.17,1.53,1.17c0.45,0,2.61-0.54,2.61-0.54s0-1.53,0.81-0.36
	s0.9,1.26,1.44,1.44c0.54,0.18,1.35,0.63,1.98,0.18c0.63-0.45,1.89-2.25,2.16-2.52c0.27-0.27,4.41-0.72,4.77-0.63
	s1.53,0.54,2.25,0.99c0.72,0.45,0.99,0.54,1.35,0.81c0.36,0.27,1.35,0.27,1.71,0.27s1.89-0.09,2.25-0.18
	c0.36-0.09,1.17-0.54,2.07-0.18c0.9,0.36,2.52,0.63,2.52,0.63s0.63-1.62,0.99-1.71c0.36-0.09,1.53-0.45,2.25-0.36
	c0.72,0.09,2.16,0.36,2.16,0.36h1.35c0,0,2.88-2.7,4.05-2.52c1.17,0.18,2.07,0.36,2.07,0.36s0.63,0.54,1.71,0.45
	c1.08-0.09,2.97-0.09,3.33-0.63c0.36-0.54,0.09-0.9,0.81-0.72c0.72,0.18,1.26,0.36,1.8,0.63c0.54,0.27,2.16,0.63,2.16,0.63
	s0.36-0.54,1.17-0.45s2.16,0.18,2.16,0.72c0,0.54-0.18,0.45,0.18,0.99c0.36,0.54,0.72,0.63,1.35,0.9c0.63,0.27,1.62,0.45,2.52,0.45
	c0.9,0,1.98-0.09,2.25,0c0.27,0.09,1.35,1.08,1.35,1.08l2.7,0.63c0,0,1.44-0.09,1.98-0.54c0.54-0.45,1.35-1.08,1.53-0.54
	c0.18,0.54,0.09,0.81,0.27,1.17c0.18,0.36,0.45,0.63,0.45,0.63s1.26-0.45,1.35-0.18c0.09,0.27,0.36,1.62,0.36,1.62l0.36,0.27
	l0.63-1.89c0,0,0.63-0.63,1.35-0.63c0.72,0,1.53,0.63,1.62-0.09c0.09-0.72-0.09-1.53,0.36-1.98c0.45-0.45,2.43-0.72,2.43-0.72
	s2.7,0.36,2.79,0.09c0.09-0.27,0-0.09,0.36-0.63c0.36-0.54-0.27-0.9,0.63-0.81c0.9,0.09,2.52,0.45,3.24,0.63
	c0.72,0.18,2.52,0.45,2.79,0.09c0.27-0.36,0.72-0.54,0.72-0.54s0.45-0.54,0.81-0.63c0.36-0.09,0.72-0.45,1.44-0.09
	c0.72,0.36,1.71,0.63,1.98,0.54c0.27-0.09,0.36-0.09,0.81-0.27c0.45-0.18,0.99-0.27,1.44,0.09s0.54,0.63,1.17,0.45
	c0.63-0.18,2.79-0.45,2.79-0.45s0.54-0.54,1.62-1.17c1.08-0.63,1.71-1.08,2.07-1.35c0.36-0.27,0.99,0.09,1.17-0.36
	c0.18-0.45-0.27-1.35,0.63-1.62c0.9-0.27,3.33-0.09,3.33-0.09l1.98,0.45l0.45,0.72c0,0,0.99,0.27,1.35,0.09
	c0.36-0.18,1.62-0.81,2.25-0.72c0.63,0.09,3.6,0.63,4.14,0.72c0.54,0.09,1.62,0.09,2.07,0.36c0.45,0.27,1.8,0.72,1.8,0.72
	s1.71,0.45,2.07,0.18c0.36-0.27,1.26-0.72,1.53-0.9c0.27-0.18,0.54-0.09,0.63-0.36s-0.18-0.54,0.63-0.45
	c0.81,0.09,2.07,0.54,2.52,0.45c0.45-0.09,1.08-0.54,1.53-0.63c0.45-0.09,1.89-0.45,2.61-0.09c0.72,0.36,1.44,0.63,1.44,0.63
	s0.45,0.36,0.81,0.18c0.36-0.18,2.7-0.99,2.7-0.99l5.58-0.54l0.9,0.36l3.06-0.27l0.27-0.54l4.68-0.99c0,0,1.21-0.54,1.89,0
	c0.67,0.54,1.08,0.94,1.75,1.35s2.83,0.27,3.24,0c0.4-0.27,1.21-1.21,2.16-1.35c0.94-0.13,4.45,0.14,4.99,0.54
	c0.54,0.4,1.75,0.94,2.43,1.08c0.67,0.14,4.32-1.62,4.32-1.62s0.4,0,0.67-0.54c0.27-0.54,0.54-1.75,0.94-1.89
	c0.4-0.14,0.4-0.67,1.48-0.4c1.08,0.27,1.08,0.54,1.75,0.27s1.89-1.21,2.56-1.21c0.67,0,1.62-0.14,2.02,0.4
	c0.4,0.54,0.13-0.27,0.4,0.54c0.27,0.81,0.4,0.81,0.4,1.48c0,0.67-0.54,0.67,0.14,1.21c0.67,0.54,0.81,0.4,1.48,0.67
	s1.75,0.27,2.29,0.54c0.54,0.27,0.67,1.08,1.08,1.35c0.4,0.27,0.54,0.67,1.21,0.4c0.67-0.27,2.29-1.08,2.7-1.21
	c0.4-0.13,1.21-0.54,1.75-0.94c0.54-0.4,0.13-1.08,1.62-1.21c1.48-0.14,2.29-0.54,3.51-0.14c1.21,0.4,2.56,0.4,2.97-0.27
	c0.4-0.67,0.4-0.67,0.4-0.67s0.67-1.35,1.35-1.62c0.67-0.27,1.35-1.35,2.43-1.21c1.08,0.13,2.7,0.54,2.7,0.54s-0.67-0.54,0.94-0.54
	s5.13,0.13,5.13,0.13s0.94,0.81,1.62,1.35c0.67,0.54,1.35,1.21,1.35,1.21l2.7,1.35c0,0,1.89,0.27,2.56,0.14
	c0.67-0.14,2.02-1.08,2.7-1.48c0.67-0.4,2.43-0.94,2.43-0.94s2.7-10.53,1.89-11.61c-0.81-1.08-1.62-0.81-1.89-2.43
	c-0.27-1.62,0-1.35,0.27-3.51c0.27-2.16,0.54-2.43,0.54-3.78c0-1.35,0-4.86,0-4.86s0-2.97,0-4.86s0-5.13,0-5.13v-5.67l-1.89-3.51
	c0,0,0.27-1.89,0.27-3.24c0-1.35,0.54-1.08,1.08-5.4c0.54-4.32,0.81-5.94,0.81-5.94s2.16-12.96,0.54-15.93
	c-1.62-2.97-4.05-4.59-4.05-8.37c0-3.78,0.27-7.56,0.27-7.56s1.08-2.16,1.35-4.05c0.27-1.89,0.81-3.51,0.54-6.75
	c-0.27-3.24-0.27-3.51-0.54-4.59c-0.27-1.08-3.42-14.58-2.7-17.46c0.72-2.88,1.08-7.56,1.08-7.56l1.44-10.08
	c0,0-1.08-7.92-1.08-10.44c0-2.52-0.36-6.48,0-8.64c0.36-2.16,0.36-6.12,0.36-6.12l1.44-5.76l1.44-8.28l-0.72-5.04
	c0,0-0.72-1.44-1.08-3.24c-0.36-1.8-0.36-1.8-0.36-3.24s0.36-0.36,0-2.52c-0.36-2.16-1.44-5.76-1.44-6.84c0-1.08,0-11.88,0-11.88
	s0-3.96,0-5.4c0-1.44,1.08-3.24,1.08-6.84c0-3.6,0-9.36,0-9.36s-2.16-2.88-2.16-4.68c0-1.8,0.72-9.36,0.72-9.36l1.44-8.64
	c0,0-1.08-7.2-1.44-9.72c-0.36-2.52-0.36-3.24-0.36-3.24s0.72-2.16,1.08-3.24c0.36-1.08,1.08-2.16,1.08-2.16l0.72-5.76v-1.8
	l3.24-22.49c0,0-3.24-8.1-2.16-10.8c1.08-2.7,1.08-5.94,1.08-5.94l-2.16-4.32l-0.54-4.86l-2.16-2.16l-2.16,0.54l-2.16,1.08h-3.24
	l-3.24-2.7c0,0-7.02,0.67-7.83,1.89c-0.81,1.21-2.7,1.08-2.7,1.08s-2.7-1.08-2.97-1.48c-0.27-0.4-0.81-1.62-0.81-1.62
	s-0.54-1.08-1.62-0.14c-1.08,0.94,0.81,0.4-1.08,0.94c-1.89,0.54-1.89,0.94-3.1,0.54c-1.21-0.4-1.08-0.81-2.16-0.4
	c-1.08,0.4-2.02,0.81-2.02,0.81h-2.56l-1.21-0.94l-1.62-2.16c0,0-0.67-1.62-2.02-0.81c-1.35,0.81-0.81,0.67-1.35,0.81
	c-0.54,0.13-0.4,0.54-1.21-0.4c-0.81-0.94-1.08-1.48-1.08-1.48s-0.4-0.67-0.81-1.35c-0.4-0.67-0.4-2.56-0.4-2.56l0.4-1.75
	c0,0,0.54-0.81-0.54-1.35c-1.08-0.54-1.08-1.08-1.62-0.81c-0.54,0.27-0.81,0.81-0.81,0.81l-0.54,1.08l-1.35,0.67l-0.94-0.54
	l-0.67,0.14l-1.08,1.35l-1.48-0.4l-0.81-0.4l-1.75-0.67l-2.43,0.94l-0.54,0.27c0,0,0.27-0.13-0.94-0.4c-1.21-0.27-1.89-0.4-1.89-0.4
	l-2.16,0.27l-1.48-0.67l-0.94,0.4l-1.08,1.08l-1.62-0.27c0,0,0.4-2.16-1.89-0.13c-2.29,2.02-2.29,2.02-2.29,2.02l-1.48,1.35
	l-1.89-0.13l-0.81-0.27l-1.75,0.27l-1.21-0.54l-1.75-0.81l-0.94,0.67l-2.43,0.81c-1.62,0-2.56-0.13-2.56-0.13l-2.56,0.27l-0.54,0.4
	l-2.16,0.54l-3.37,0.14l-0.14,1.62c0,0,0.4,1.08-0.14,1.35c-0.54,0.27-1.75,0.14-1.75,0.14l-1.48-0.54l-2.97-1.35
	c0,0-0.54-0.81-1.08-0.4c-0.54,0.4-0.54,0.4-0.54,0.4s-0.54,0.67-1.48,0.67c-0.94,0-1.08-0.94-2.83-1.08
	c-1.75-0.13-2.7-1.08-3.51-0.27c-0.81,0.81,0.54-0.4-0.81,0.81c-1.35,1.21-2.83,1.08-2.83,1.08l-2.43-1.35c0,0-1.89-0.67-2.83-1.08
	c-0.94-0.4-1.08-0.54-1.75-0.67c-0.67-0.13-1.35,0-1.35,0l-0.54,0.67c0,0,0.54,0.4,0.4,1.08c-0.13,0.67-0.27,1.08-0.27,1.08
	s-0.94,0.4-1.21,0.81c-0.27,0.4-0.27-0.81-0.4,0.81c-0.14,1.62,1.62,1.21-0.14,2.16c-1.75,0.94-1.48,0.4-1.75,0.94
	c-0.27,0.54-0.14-0.54-0.27,0.54c-0.13,1.08,0.4,0.4-0.13,1.08c-0.54,0.67-1.21,1.48-1.21,1.48s-0.27,0.13-0.81,0.13
	c-0.54,0-1.62-0.27-1.62-0.27s-0.4-0.4,0-0.67c0.4-0.27,1.21-1.48,1.21-1.48v-0.94l-1.21-0.14c0,0-0.54-0.4-0.81-0.81
	c-0.27-0.4-0.14-0.4,0.13-0.81c0.27-0.4,1.08-0.54,0.27-1.08c-0.81-0.54-2.02-1.89-2.02-1.89c-0.67,0.4-0.81,1.08-0.81,1.08
	l-0.27,0.67c0,0-0.67-0.94-1.21-1.35c-0.54-0.4,0.4-0.4-0.54-0.4c-0.94,0-1.08,1.89-1.08,1.89l-0.94,0.27l-1.89-0.81
	c-0.4-0.54-0.4-0.67-0.54-1.08c-0.13-0.4,0.4,0.13-0.13-0.4c-0.54-0.54-1.35,0.54-1.75,0.67c-0.4,0.13,0-0.54-0.4,0.13
	c-0.4,0.67-0.4,0.67-0.4,0.67s0.13-0.54-0.27,0.54c-0.4,1.08-0.36,1.03-1.62,1.21c-1.26,0.18-4.14-0.72-4.14-0.72l0.18,0.9
	c0,0-1.98,0.18-3.06-0.54c-1.08-0.72,0,0.18-1.08-0.72c-1.08-0.9,1.62-1.98-1.62-1.26c-3.24,0.72-2.34-0.18-3.24,0.72
	c-0.9,0.9-0.18,1.98-0.9,0.9c-0.72-1.08-1.44-1.44-1.44-1.44l-1.8-0.72l-3.96-2.88l-1.08,0.54l-0.72,1.62v1.08v1.08l-5.58,0.36
	c-0.18,1.44-0.36,2.16-0.36,2.16l-2.52,0.54l-2.16-0.9c0,0,0.36-1.08-1.44-0.54c-1.8,0.54,0.18,3.42-3.06,3.6
	c-3.24,0.18-4.86,0.36-5.76-0.36c-0.9-0.72-0.54,0-1.44-1.26c-0.9-1.26-0.9-1.26-0.9-1.26s1.8,0.36,0,0
	c-1.8-0.36-1.8-0.18-2.16,0.54c-0.36,0.72-0.36,0.72-0.36,0.72s-1.98,1.44-3.06,0.54c-1.08-0.9-1.8-1.8-2.34-2.52
	c-0.54-0.72-0.54-0.72-0.54-0.72s-0.18-0.9-0.72-1.08c-0.54-0.18-2.34-1.62-2.7-0.72c-0.36,0.9-0.54,1.44-0.54,1.44l-1.62,2.16
	c0,0,0,0.54-1.62,0.18c-1.62-0.36-1.98-0.54-2.52-1.08c-0.54-0.54,0.54-0.9-0.54-0.54c-1.08,0.36-1.98,2.34-1.98,2.34
	s0.72,0.18-1.62-0.18c-2.34-0.36-2.34-0.18-3.42-0.9c-1.08-0.72-3.06-2.16-3.24-2.7c-0.18-0.54,0.18-2.16-1.26-2.34
	c-1.44-0.18,0.54-2.52-3.24,0.18c-3.78,2.7-5.04,3.24-5.58,3.42c-0.54,0.18-1.26,0.36-1.26,0.36l-1.62,0.36c0,0-3.06-1.26-4.5-1.08
	c-1.44,0.18-1.26-2.16-3.06,0c-1.8,2.16-1.98,3.24-2.7,3.42c-0.72,0.18-1.8,0.9-3.24-0.54c-1.44-1.44-1.44-1.98-2.16-2.34
	c-0.72-0.36,1.98-1.62-1.44-0.72c-3.42,0.9-3.42,0.9-3.42,0.9s0,1.98-2.52,0.36c-2.52-1.62-1.26-2.16-3.96-2.52
	c-2.7-0.36-2.88-1.44-3.96-0.72c-1.08,0.72-1.8,1.08-1.8,1.08l-0.9,0.18l-1.26,0.9c-0.72,1.08-0.72,1.08-0.72,1.08l0.54,2.16
	l-1.08,0.72h-0.9c-0.72,1.62-0.72,1.62-0.72,1.62s-3.54-0.66-3.78-0.18c-0.54,1.08-0.54,1.08-0.54,1.08l-1.8-0.18l-0.72-1.44
	l-1.26-1.26l-1.08-0.36l0.54-1.98c0,0,1.26-0.36-0.9-0.72c-2.16-0.36-2.88-0.18-2.88-0.18c-0.9,0.54-0.9,0.54-0.9,0.54
	s-0.9-1.08-1.08-0.18c-0.18,0.9,0.18,1.44-0.72,1.62c-0.9,0.18-0.9,0.18-0.9,0.18s-1.8-0.72-2.7-0.72c-0.9,0-0.36-0.36-1.62,0.18
	c-1.26,0.54,1.08-0.36-1.26,0.54c-2.34,0.9-0.36,0-2.34,0.9c-1.98,0.9-2.34,0-3.6,0c-1.26,0,1.44-4.5-2.16,0
	c-3.6,4.5-2.7,7.02-5.22,7.38c-2.52,0.36-0.9,0.72-2.52,0.36c-1.62-0.36-1.08,0.9-1.62-0.36c-0.54-1.26-0.72-2.34-0.72-2.34
	s-0.36-0.9,0.36-1.44s0.54-1.98-0.72-1.98s-0.54-0.9-1.26,0c-0.72,0.9,1.44,0.9-0.72,0.9c-2.16,0,0.72,0.72-2.16,0
	c-2.88-0.72-1.62-0.54-2.88-0.72c-1.26-0.18,0,0-1.98,0s-1.98,0-2.7-0.18c-0.72-0.18,0.72,0-1.44-0.54c-2.16-0.54-1.26-0.72-2.7-0.9
	c-1.44-0.18-0.18-0.72-1.44-0.18c-1.26,0.54-1.8-4.32-2.52-3.96c-0.72,0.36-1.26,0-1.62,1.26c-0.36,1.26,0.18,0.54-0.36,1.26
	c-0.54,0.72,0.54,0.72-0.54,0.72c-1.08,0-0.72-2.16-1.08,0c-0.36,2.16-0.54,2.7-0.54,2.7l-0.72,0.36l-1.26-0.54l-0.72-0.18
	l-1.98,0.72l-1.44-0.18c0,0-0.9-0.54-0.9,0.18s-0.72,1.62-0.72,1.62s-0.18,0.54-1.26,0.18c-1.08-0.36-1.08-0.36-1.08-0.36
	s-0.36,0.18-0.72-1.08c-0.36-1.26,0-3.06-1.08-2.52c-1.08,0.54-1.08,0.54-1.08,0.54s-2.16,0.18-2.34,0.72
	c-0.18,0.54-0.18,0.54-0.18,0.54l-1.3,2.88l0.4,0.94c0,0,0.81,0,0.67,1.08c-0.14,1.08,1.89,0.67-0.14,1.08
	c-2.02,0.4-2.02,0.4-2.02,0.4l-1.21,4.45l0.67,1.62c0,0,0.54,0.94,0.54,1.48c0,0.54-0.13,1.75-0.13,1.75s0,0-0.14,0.67
	c-0.13,0.67-0.13,1.75-0.13,1.75s0,1.35,0,2.56c0,1.21-0.14,1.48,0,2.43c0.13,0.94,0.4,2.43,0.4,2.43v1.62l0.4,1.21l-0.13,1.21
	l-0.27,1.75c0,0-1.08,1.62-1.21,2.29c-0.14,0.67,0,1.35,0,1.35s-3.24,10.53-2.7,14.31c0.54,3.78,1.08,4.86,1.62,8.64
	c0.54,3.78,0.54,8.1,0.54,8.1s-2.16,5.94-3.24,8.64c-1.08,2.7-1.62,2.7-1.08,4.86c0.54,2.16,2.16,4.32,2.7,5.94
	c0.54,1.62,1.62,2.16,1.62,4.32c0,2.16-1.08,5.94-1.08,5.94s-1.62,5.4-1.62,8.1c0,2.7,2.16,9.18,2.16,9.18l1.62,2.7v7.02
	c0,0-1.08,3.78-1.62,5.4c-0.54,1.62-1.62,4.86-2.7,6.48c-1.08,1.62-1.08,1.62-1.08,1.62s0.54,17.82,0.54,19.43
	c0,1.62,0,3.24,1.08,5.94c1.08,2.7,1.08,8.64,1.08,8.64s-1.08,2.7-0.54,5.94c0.54,3.24,2.7,7.56,2.7,7.56l2.16,3.78
	c0,0,0,5.4-0.54,7.02c-0.54,1.62-0.54,4.32-0.54,4.32s-1.08,4.86-1.08,7.56s1.08,1.62,0,4.86c-1.08,3.24-3.78,8.1-3.78,8.1
	l-0.54,5.4l1.62,4.32c0,0,2.16,2.7,2.7,7.02c0.54,4.32,1.62,4.32,1.62,7.02c0,2.7,0,4.86,0,4.86l3.24,12.96l-2.7,3.24
	c0,0-3.24,1.62-3.78,3.78c-0.54,2.16,0,6.48,0,6.48s1.08,1.62,1.08,3.24c0,1.62,1.62-0.54,0.54,3.24c-1.08,3.78-2.16,3.78-2.7,5.94
	c-0.54,2.16-1.08,2.7-1.08,4.32c0,1.62,0.54,1.62,1.08,3.24c0.54,1.62,1.62-1.62,0.54,3.24c-1.08,4.86-1.62,5.94-1.62,9.18
	c0,3.24,1.08,6.48,1.08,6.48s2.7,4.86,3.24,6.48c0.54,1.62,2.16,1.08,1.08,3.78c-1.08,2.7,0,0-1.08,2.7
	c-1.08,2.7-1.62,4.32-1.62,4.32v2.16L95.57,474.32z"/>
<path class="st1" d="M358.52,167.73c0-0.33-0.25-0.42-0.25-0.42l-0.08-0.5c0-0.25-0.17-0.25-0.42-0.5s-0.42,0-0.67,0
	s-0.83,0-1.17-0.17c-0.33-0.17,0,0-0.25-0.58c-0.25-0.58,0,0,0.25-0.25s0.33-0.08,0.58-0.08s0.17-0.33,0.17-0.33s0,0,0-0.25
	s-0.17-0.25-0.08-0.58c0.08-0.33,1.17-0.67,1.17-0.67s-0.08-0.33-0.17-0.67c-0.08-0.33,0.25-0.58,0.25-0.58l0.42-0.67l-0.08-1.17
	l-0.08-0.5l-0.33-0.67v-0.67c0,0,0.17-0.08,0.42-0.42c0.25-0.33,0.17-0.25,0.25-0.5c0.08-0.25-0.08-0.67-0.08-0.67s0,0,0-0.25
	s0,0-0.33-1c-0.33-1,0,0-0.33-0.25c-0.33-0.25-0.17,0-0.67-0.25s0,0-0.08-0.58c-0.08-0.58,0,0,0.42-0.75c0.42-0.75,0,0,0.5-0.25
	s0,0,0.42-0.42c0.42-0.42,0,0-0.33-0.83c-0.33-0.83-0.08-0.5-0.08-0.5l0.17-0.5l0.17-0.42l-0.33-0.92v-0.58l0.25-1.08l-0.08-0.83
	l-0.83-1.25l0.75-0.42l0.08-0.83l-0.17-0.5v-0.67l0.08-0.67l-0.08-0.33c0,0-0.58-0.83-0.5-1.42c0.08-0.58,0.17-0.42,0.58-0.83
	c0.42-0.42,0-1.33,0-1.33s0,0-0.17-0.42c-0.17-0.42,0,0-0.25-0.67s0,0-0.25-0.5s-0.33-0.33-0.33-0.33l-0.33-0.25c0,0,0,0-0.25-0.42
	s0,0,0.08-0.67c0.08-0.67,0,0,0.67-0.5c0.67-0.5,0,0,0.33-0.67c0.33-0.67,0,0,0.17-0.67c0.17-0.67,0,0,0.33-0.42
	c0.33-0.42,0,0,0.42-0.67c0.42-0.67,0,0,0.17-0.5c0.17-0.5,0,0-0.17-0.67c-0.17-0.67,0,0-0.33-0.67c-0.33-0.67,0,0,0.08-0.67
	c0.08-0.67,0.17-1.33,0.17-1.33l-0.17-0.5l-0.75-0.92l0.08-0.58l0.33-0.42l-0.33-1.08l0.25-0.58l0.58-0.5l0.25-0.67l0.17-0.5
	l0.08-0.58c0,0-0.08-0.5-0.08-0.92c0-0.42-0.08-0.5-0.17-0.75c-0.08-0.25,0.54-0.88,0.54-0.88H220.41c0.02,0.1,0.03,0.18,0.02,0.22
	c-0.13,0.5-0.13,0.75-0.13,1.38s0,0.88,0.25,1.38s0.38,1.13,0.38,1.13l-0.25,0.75l-0.13,0.5l-0.13,0.75c0,0,0.38,0.88,0.38,1.5
	c0,0.63,0,0.63,0,0.63l-0.25,0.75v0.5c0,0,0.25,0.13,0.38,0.63s0.63,0.38,0.38,1.38s-0.25,1-0.25,1s-0.13,0.5-0.13,0.88
	s0,1.25,0,1.25s-0.41,0.41-0.47,0.66s-0.09,0.28-0.16,0.44c-0.06,0.16-0.19,0.31-0.19,0.31s-0.03,0.28,0.03,0.41
	s0.16,0.22,0.25,0.28c0.09,0.06,0.34,0.25,0.44,0.25c0.09,0,0.25-0.09,0.31,0.06c0.06,0.16,0.09,0.34,0.09,0.34l0.09,0.25l0.34,0.22
	l0.16,0.13l0.09,0.22l0.09,0.16l0.22,0.28l0.16,0.28c0,0,0.13-0.16,0.09,0.25c-0.03,0.41,0.03,0.25-0.03,0.41
	c-0.06,0.16-0.06,0.16-0.06,0.16l-0.28,0.19l-0.41,0.19l-0.09,0.19l0.09,0.31l-0.19,0.47l-0.34,0.31c0,0-0.03,0-0.06,0.16
	c-0.03,0.16,0.09-0.13-0.03,0.16c-0.13,0.28-0.13,0.28-0.13,0.28l-0.06,0.31l0.03,0.41c0,0,0.13,0.66-0.09,1.41
	c-0.22,0.75-0.13,1-0.13,1.19s0.02,0.08,0.09,0.47c0.07,0.4,0.32,0.4,0.19,0.78s-0.19,0.63-0.19,0.63s-0.13,0.25-0.19,0.38
	s0.06,0.38,0.06,0.38l0.16,0.34l0.19,0.44l0.13,0.66c0,0-0.41,0.59-0.53,1.59s0.19,1.88,0.19,1.88l0.19,1.19l-0.19,1.06l-0.38,0.94
	l0.31,1.06l0.56,0.94c0,0,0.25,0.56,0.13,0.81s-0.25,0.5-0.25,0.5l-0.19,0.44l0.56,1.19l0.31,0.75l-0.13,0.75l-0.38,0.5l-0.25,0.5
	l-0.5,0.38l-0.06,0.81c0,0,0.13,0,0.19,0.56s0,0.06,0.06,0.56s-0.5-0.06,0.06,0.5s0.56,0.56,0.56,0.56l-0.25,0.44l-0.44,0.13
	l-0.38,0.13l-0.38,0.5l-0.19,0.28h139.25l-0.54-0.2C358.52,168.4,358.52,168.06,358.52,167.73z"/>
</svg>
