<?xml version="1.0" encoding="utf-8"?>
<!-- Generator: Adobe Illustrator 23.0.2, SVG Export Plug-In . SVG Version: 6.00 Build 0)  -->
<svg version="1.1" id="Capa_1" xmlns="http://www.w3.org/2000/svg" xmlns:xlink="http://www.w3.org/1999/xlink" x="0px" y="0px"
	 viewBox="0 0 1022 1022" style="enable-background:new 0 0 1022 1022;" xml:space="preserve">
<g>
	<g>
		<path d="M918.1,122.2L518.2,2.3c-5.6-1.7-11.6-1.7-17.2,0l-399.9,120c-12.6,3.8-21.3,15.4-21.3,28.6v439.9
			c0,57.2,23.2,115.8,68.8,174.1c34.9,44.5,83.2,89.2,143.5,132.9c101.3,73.3,201,118.3,205.2,120.2c3.9,1.7,8,2.6,12.2,2.6
			c4.2,0,8.3-0.9,12.2-2.6c4.2-1.9,103.9-46.9,205.2-120.2c60.3-43.6,108.6-88.4,143.4-132.9c45.7-58.3,68.8-116.9,68.8-174.1V150.8
			C939.3,137.6,930.7,126,918.1,122.2z M879.6,590.7c0,101.2-101.6,196.2-186.8,258c-76.4,55.4-153.9,94.7-183.2,108.9
			c-29.3-14.1-106.8-53.4-183.2-108.9c-85.2-61.8-186.8-156.8-186.8-258V173l370-111l370,111V590.7z"/>
	</g>
</g>
<g>
	<g>
		<g>
			<path d="M440.7,515.3c-2-4.3-7.1-6.1-11.4-4.1c-4.3,2-6.1,7.1-4.1,11.4c1.5,3.2,2.3,6.6,2.3,10.1v18.4c0,13-10.6,23.6-23.6,23.6
				s-23.6-10.6-23.6-23.6v-18.4c0-13,10.6-23.6,23.6-23.6c4.7,0,8.6-3.8,8.6-8.6c0-4.7-3.8-8.6-8.6-8.6c-22.5,0-40.7,18.3-40.7,40.7
				v18.4c0,22.5,18.3,40.7,40.7,40.7s40.7-18.3,40.7-40.7v-18.4C444.7,526.7,443.3,520.8,440.7,515.3z"/>
		</g>
	</g>
	<g>
		<g>
			<path d="M652.1,515.3c-2-4.3-7.1-6.1-11.4-4.1c-4.3,2-6.1,7.1-4.1,11.4c1.5,3.2,2.3,6.6,2.3,10.1v18.4c0,13-10.6,23.6-23.6,23.6
				c-13,0-23.6-10.6-23.6-23.6v-18.4c0-13,10.6-23.6,23.6-23.6c4.7,0,8.6-3.8,8.6-8.6c0-4.7-3.8-8.6-8.6-8.6
				c-22.5,0-40.7,18.3-40.7,40.7v18.4c0,22.5,18.3,40.7,40.7,40.7c22.5,0,40.7-18.3,40.7-40.7v-18.4
				C656,526.7,654.7,520.8,652.1,515.3z"/>
		</g>
	</g>
	<g>
		<g>
			<path d="M598.7,682.9c-3.2-3.5-8.6-3.8-12.1-0.7c-8.6,7.7-19.6,11.9-31,11.9c-9.4,0-18.5-2.8-26.2-8.1c-11.8-8.1-27.7-8.1-39.5,0
				c-7.7,5.3-16.8,8.1-26.2,8.1c-11.4,0-22.5-4.2-31-11.9c-3.5-3.2-8.9-2.9-12.1,0.7c-3.2,3.5-2.9,8.9,0.7,12.1
				c11.7,10.5,26.8,16.3,42.5,16.3c0.2,0,0.4,0,0.6,0v9.8c0,25,20.3,45.3,45.3,45.3s45.3-20.3,45.3-45.3v-9.8c0.2,0,0.4,0,0.6,0
				c15.7,0,30.7-5.8,42.5-16.3C601.6,691.9,601.9,686.5,598.7,682.9z M537.8,721.1c0,15.5-12.6,28.2-28.2,28.2
				c-15.5,0-28.2-12.6-28.2-28.2v-12.3c6.4-1.9,12.5-4.7,18.1-8.5c0.5-0.3,1-0.6,1.5-0.9V712c0,4.7,3.8,8.6,8.6,8.6
				c4.7,0,8.6-3.8,8.6-8.6v-12.6c0.5,0.3,1,0.6,1.5,0.9c5.6,3.8,11.7,6.7,18.1,8.5V721.1L537.8,721.1z"/>
		</g>
	</g>
	<g>
		<g>
			<path d="M547,610.4c-3.2-6.7-9.8-10.8-17.1-10.8h-40.6c-7.4,0-14,4.1-17.1,10.8c-3.2,6.7-2.3,14.4,2.4,20.1l20.3,25.1
				c3.6,4.5,9,7.1,14.8,7.1s11.1-2.6,14.8-7.1l20.3-25.1C549.3,624.8,550.2,617.1,547,610.4z M531.3,619.7l-20.3,25.1
				c-0.5,0.6-1,0.7-1.4,0.7s-1-0.1-1.4-0.7l-20.3-25.1c-0.5-0.6-0.6-1.3-0.2-2c0.3-0.7,0.9-1.1,1.7-1.1h40.6c0.8,0,1.3,0.4,1.7,1.1
				C531.9,618.5,531.8,619.1,531.3,619.7z"/>
		</g>
	</g>
	<g>
		<g>
			<path d="M778.3,630.2c-4.7-1.3-9.7-2.4-15-3.4c8-24.1,12.1-49.6,12.1-75.6c0-32.2-6.3-63.4-18.4-92.4V245.2
				c0-10.5-5.9-19.8-15.4-24.3c-9.5-4.5-20.4-3.2-28.6,3.4l-111.2,90.4c-29.2-10.2-60.3-15.6-92.3-15.6s-63.2,5.3-92.3,15.6
				l-111.2-90.4c-8.1-6.6-19.1-7.9-28.6-3.4c-9.5,4.5-15.4,13.8-15.4,24.3v213.5c-12.1,29-18.4,60.3-18.4,92.4
				c0,26,4.1,51.5,12.1,75.6c-5.2,1-10.2,2.2-15,3.4c-4.6,1.2-7.3,5.9-6.1,10.5c1,3.8,4.5,6.3,8.3,6.3c0.7,0,1.5-0.1,2.2-0.3
				c5.1-1.4,10.7-2.6,16.5-3.7c5.8,14,12.9,27.5,21.2,40.3c-8.9,3.7-17.5,7.6-25.6,11.8c-4.2,2.2-5.8,7.4-3.6,11.6
				c1.5,2.9,4.5,4.6,7.6,4.6c1.3,0,2.7-0.3,3.9-1c8.7-4.5,18.1-8.7,27.8-12.6c8.5,11.2,18,21.9,28.5,31.8
				c50.2,47.5,116.9,73.7,187.8,73.7s137.6-26.2,187.8-73.7c10.5-10,20-20.6,28.5-31.8c9.7,3.9,19.1,8.1,27.8,12.6
				c1.3,0.7,2.6,1,3.9,1c3.1,0,6.1-1.7,7.6-4.6c2.2-4.2,0.5-9.4-3.6-11.6c-8.1-4.2-16.7-8.1-25.6-11.8c8.4-12.8,15.5-26.3,21.2-40.3
				c5.8,1.1,11.4,2.3,16.5,3.7c0.7,0.2,1.5,0.3,2.2,0.3c3.8,0,7.2-2.5,8.3-6.3C785.6,636.1,782.9,631.4,778.3,630.2z M724,237.6
				c3-2.4,6.9-2.9,10.4-1.2c3.5,1.7,5.6,4.9,5.6,8.8l-16.6,18.7c-3.1,3.5-2.8,9,0.7,12.1c1.6,1.4,3.7,2.2,5.7,2.2
				c2.4,0,4.7-1,6.4-2.9l3.7-4.2v154.2c-11.6-18.9-25.8-36.5-42.5-52.3c-8.7-8.3-17.9-15.8-27.6-22.8l42.1-47.4
				c3.1-3.5,2.8-9-0.7-12.1c-3.5-3.1-9-2.8-12.1,0.7l-43.6,49.2c-11.3-7-23-13.2-35.2-18.5L724,237.6z M284.9,236.3
				c3.5-1.7,7.4-1.2,10.4,1.2L399,321.8c-12.2,5.3-24,11.5-35.2,18.5l-84.5-95.2C279.3,241.2,281.4,238,284.9,236.3z M279.3,270.9
				l70.1,79c-9.6,6.9-18.9,14.5-27.6,22.8c-16.7,15.8-31,33.4-42.5,52.3C279.3,425.1,279.3,270.9,279.3,270.9z M746.1,623.9
				c-52.5-7.4-115.8-5.6-119-5.5c-4.7,0.1-8.5,4.1-8.3,8.8c0.1,4.7,4.1,8.4,8.8,8.3c0.8,0,61.5-1.7,112.1,4.8
				c-5.6,12.8-12.3,25-20.1,36.6c-50.5-18.7-103.3-29.1-106.1-29.6c-4.6-0.9-9.1,2.1-10.1,6.8s2.1,9.1,6.8,10.1
				c0.7,0.1,50.5,10,98.9,27.3c-45.4,57.5-117.9,94.7-199.5,94.7c-81.6,0-154.1-37.3-199.5-94.7c48.3-17.3,98.2-27.1,98.9-27.3
				c4.6-0.9,7.7-5.4,6.8-10.1c-0.9-4.6-5.4-7.7-10-6.8c-2.8,0.6-55.6,11-106.1,29.6c-7.8-11.5-14.5-23.8-20.1-36.6
				c50.6-6.5,111.3-4.8,112.1-4.8c4.7,0.2,8.7-3.6,8.8-8.3c0.1-4.7-3.6-8.7-8.3-8.8c-3.2-0.1-66.6-1.9-119,5.5
				c-7.9-22.9-12.2-47.4-12.2-72.7c0-129.5,111.6-234.9,248.7-234.9s248.7,105.4,248.7,234.9C758.3,576.5,754,601,746.1,623.9z"/>
		</g>
	</g>
</g>
</svg>
