<?xml version="1.0" encoding="utf-8"?>
<!-- Generator: Adobe Illustrator 23.0.2, SVG Export Plug-In . SVG Version: 6.00 Build 0)  -->
<svg version="1.1" id="Capa_1" xmlns="http://www.w3.org/2000/svg" xmlns:xlink="http://www.w3.org/1999/xlink" x="0px" y="0px"
	 viewBox="0 0 1022 1022" style="enable-background:new 0 0 1022 1022;" xml:space="preserve">
<g>
	<g>
		<g>
			<path d="M518,429.7c-2-4.2-7-6-11.2-4c-4.2,2-6,7-4,11.2c1.5,3.1,2.2,6.4,2.2,9.9v18c0,12.7-10.4,23.1-23.1,23.1
				c-12.7,0-23.1-10.4-23.1-23.1v-18c0-12.7,10.4-23.1,23.1-23.1c4.6,0,8.4-3.8,8.4-8.4c0-4.6-3.8-8.4-8.4-8.4
				c-22,0-39.8,17.9-39.8,39.8v18c0,22,17.9,39.8,39.8,39.8c22,0,39.8-17.9,39.8-39.8v-18C521.8,440.8,520.5,435.1,518,429.7z"/>
		</g>
	</g>
	<g>
		<g>
			<path d="M724.7,429.7c-2-4.2-7-6-11.2-4c-4.2,2-6,7-4,11.2c1.5,3.1,2.2,6.4,2.2,9.9v18c0,12.7-10.4,23.1-23.1,23.1
				s-23.1-10.4-23.1-23.1v-18c0-12.7,10.4-23.1,23.1-23.1c4.6,0,8.4-3.8,8.4-8.4c0-4.6-3.8-8.4-8.4-8.4c-22,0-39.8,17.9-39.8,39.8
				v18c0,22,17.9,39.8,39.8,39.8c22,0,39.8-17.9,39.8-39.8v-18C728.6,440.8,727.3,435.1,724.7,429.7z"/>
		</g>
	</g>
	<g>
		<g>
			<path d="M672.5,593.7c-3.1-3.4-8.4-3.7-11.8-0.6c-8.4,7.5-19.2,11.7-30.4,11.7c-9.2,0-18.1-2.7-25.6-7.9
				c-11.6-7.9-27.1-7.9-38.6,0c-7.6,5.2-16.4,7.9-25.6,7.9c-11.2,0-22-4.1-30.4-11.7c-3.4-3.1-8.7-2.8-11.8,0.6
				c-3.1,3.4-2.8,8.7,0.6,11.8c11.5,10.3,26.2,16,41.6,16c0.2,0,0.4,0,0.6,0v9.6c0,24.4,19.9,44.3,44.3,44.3s44.3-19.9,44.3-44.3
				v-9.6c0.2,0,0.4,0,0.6,0c15.3,0,30.1-5.7,41.6-16C675.3,602.4,675.6,597.1,672.5,593.7z M612.9,631.1c0,15.2-12.4,27.6-27.6,27.6
				s-27.6-12.4-27.6-27.6V619c6.3-1.8,12.2-4.6,17.7-8.4c0.5-0.3,1-0.6,1.5-0.9v12.3c0,4.6,3.8,8.4,8.4,8.4s8.4-3.8,8.4-8.4v-12.3
				c0.5,0.3,1,0.6,1.5,0.9c5.5,3.7,11.4,6.5,17.7,8.4V631.1L612.9,631.1z"/>
		</g>
	</g>
	<g>
		<g>
			<path d="M622,522.7c-3.1-6.5-9.5-10.6-16.8-10.6h-39.7c-7.2,0-13.7,4.1-16.8,10.6c-3.1,6.5-2.2,14.1,2.3,19.7l19.9,24.6
				c3.5,4.4,8.8,6.9,14.4,6.9c5.6,0,10.9-2.5,14.4-6.9l19.9-24.6C624.2,536.8,625.1,529.3,622,522.7z M606.6,531.9l-19.9,24.6
				c-0.4,0.6-1,0.7-1.4,0.7s-1-0.1-1.4-0.7l-19.9-24.6c-0.5-0.6-0.5-1.2-0.2-1.9c0.3-0.7,0.9-1,1.6-1h39.7c0.8,0,1.3,0.3,1.6,1
				C607.2,530.6,607.1,531.3,606.6,531.9z"/>
		</g>
	</g>
	<g>
		<g>
			<path d="M848.2,542.1c-4.6-1.2-9.5-2.3-14.6-3.3c7.8-23.6,11.9-48.5,11.9-74c0-31.5-6.2-62-18-90.4V165.5
				c0-10.3-5.8-19.4-15-23.8c-9.3-4.4-20-3.1-28,3.3l-108.8,88.4c-28.5-10-59-15.2-90.3-15.2c-31.3,0-61.8,5.2-90.3,15.2L386.2,145
				c-8-6.5-18.7-7.8-28-3.3c-9.3,4.4-15,13.5-15,23.8v208.9c-11.8,28.4-18,59-18,90.4c0,25.5,4.1,50.3,11.9,74
				c-5.1,1-10,2.1-14.6,3.3c-4.5,1.2-7.1,5.8-5.9,10.3c1,3.7,4.4,6.2,8.1,6.2c0.7,0,1.5-0.1,2.2-0.3c5-1.4,10.5-2.5,16.2-3.6
				c5.6,13.7,12.6,26.9,20.8,39.4c-8.7,3.6-17.1,7.5-25,11.6c-4.1,2.1-5.7,7.2-3.6,11.3c1.5,2.9,4.4,4.5,7.4,4.5
				c1.3,0,2.6-0.3,3.9-0.9c8.5-4.4,17.7-8.5,27.2-12.4c8.3,11,17.6,21.4,27.9,31.1c49.1,46.5,114.4,72.1,183.7,72.1
				s134.6-25.6,183.7-72.1c10.3-9.7,19.6-20.2,27.9-31.1c9.5,3.8,18.7,8,27.2,12.4c1.2,0.6,2.6,0.9,3.9,0.9c3,0,6-1.6,7.4-4.5
				c2.1-4.1,0.5-9.2-3.6-11.3c-7.9-4.1-16.3-8-25-11.6c8.2-12.6,15.1-25.7,20.8-39.4c5.7,1,11.2,2.2,16.2,3.6
				c0.7,0.2,1.5,0.3,2.2,0.3c3.7,0,7.1-2.5,8.1-6.2C855.3,547.9,852.7,543.3,848.2,542.1z M795,158c2.9-2.4,6.7-2.8,10.2-1.2
				c3.4,1.6,5.4,4.8,5.5,8.6l-16.2,18.3c-3.1,3.5-2.8,8.8,0.7,11.8c1.6,1.4,3.6,2.1,5.6,2.1c2.3,0,4.6-1,6.3-2.8l3.7-4.1v150.8
				c-11.3-18.5-25.2-35.7-41.6-51.2c-8.5-8.1-17.6-15.5-27-22.3l41.2-46.4c3.1-3.5,2.8-8.8-0.7-11.8c-3.5-3.1-8.8-2.8-11.8,0.7
				L728,258.5c-11-6.9-22.5-12.9-34.5-18.1L795,158z M365.5,156.8c3.4-1.6,7.2-1.2,10.2,1.2l101.4,82.4
				c-11.9,5.2-23.4,11.2-34.5,18.1L360,165.4C360,161.6,362.1,158.4,365.5,156.8z M360,190.6l68.6,77.3c-9.4,6.8-18.5,14.2-27,22.3
				c-16.4,15.5-30.3,32.7-41.6,51.2V190.6z M816.7,535.9c-51.3-7.2-113.3-5.5-116.4-5.4c-4.6,0.1-8.3,4-8.1,8.6s4,8.3,8.6,8.1
				c0.7,0,60.2-1.7,109.7,4.7c-5.5,12.5-12,24.5-19.7,35.8c-49.4-18.3-101-28.5-103.8-29c-4.5-0.9-8.9,2.1-9.8,6.6s2.1,8.9,6.6,9.8
				c0.6,0.1,49.4,9.7,96.7,26.7c-44.4,56.2-115.3,92.7-195.1,92.7c-79.8,0-150.7-36.5-195.1-92.7c47.3-16.9,96.1-26.5,96.7-26.7
				c4.5-0.9,7.5-5.3,6.6-9.8c-0.9-4.5-5.3-7.5-9.8-6.6c-2.8,0.5-54.4,10.7-103.8,29c-7.6-11.3-14.2-23.3-19.7-35.8
				c49.5-6.4,108.9-4.7,109.7-4.7c4.6,0.2,8.5-3.5,8.6-8.1c0.1-4.6-3.5-8.5-8.1-8.6c-3.2-0.1-65.1-1.8-116.4,5.4
				c-7.7-22.4-12-46.3-12-71.2c0-126.7,109.1-229.8,243.3-229.8S828.7,338,828.7,464.8C828.7,489.6,824.4,513.5,816.7,535.9z"/>
		</g>
	</g>
</g>
<path d="M249,541.2C116,541.2,8.3,649,8.3,781.9S116,1022.6,249,1022.6s240.7-107.7,240.7-240.7S381.9,541.2,249,541.2z M369.2,967
	L249,903.8L128.7,967l23-133.9l-97.3-94.9l134.5-19.5L249,596.8l60.1,121.9l134.5,19.5l-97.3,94.9L369.2,967z"/>
<path d="M885.7,125C805.5,44.8,698.7,0.6,585.3,0.6c-113.5,0-220,44.1-300.2,124.3s-124.4,187-124.4,300.3
	c0,51.9,9.3,102.3,27,149.5c6.5-2,13.2-3.7,19.9-5.1c-17.2-44.9-26.7-93.5-26.7-144.4c0-223,181.4-404.4,404.4-404.4
	s404.4,181.4,404.4,404.4S808.3,829.6,585.3,829.6c-46.6,0-91.3-7.9-133-22.5c-1.2,6.8-2.7,13.5-4.5,20
	c43.7,14.9,90,22.7,137.5,22.7c113.4,0,220-44.1,300.2-124.3S1010,538.7,1010,425.2S965.9,205.2,885.7,125z"/>
</svg>
