<?xml version="1.0" encoding="utf-8"?>
<!-- Generator: Adobe Illustrator 23.0.2, SVG Export Plug-In . SVG Version: 6.00 Build 0)  -->
<svg version="1.1" id="Capa_1" xmlns="http://www.w3.org/2000/svg" xmlns:xlink="http://www.w3.org/1999/xlink" x="0px" y="0px"
	 viewBox="0 0 1022 1022" style="enable-background:new 0 0 1022 1022;" xml:space="preserve">
<g>
	<g>
		<g>
			<path d="M455.3,531.8c-1.5-3.1-5.2-4.4-8.3-2.9c-3.1,1.5-4.4,5.2-2.9,8.3c1.1,2.3,1.6,4.8,1.6,7.3v13.3c0,9.4-7.7,17.1-17.1,17.1
				s-17.1-7.7-17.1-17.1v-13.3c0-9.4,7.7-17.1,17.1-17.1c3.4,0,6.2-2.8,6.2-6.2s-2.8-6.2-6.2-6.2c-16.3,0-29.6,13.3-29.6,29.6v13.3
				c0,16.3,13.3,29.6,29.6,29.6s29.6-13.3,29.6-29.6v-13.3C458.1,540,457.1,535.7,455.3,531.8z"/>
		</g>
	</g>
	<g>
		<g>
			<path d="M608.6,531.8c-1.5-3.1-5.2-4.4-8.3-2.9c-3.1,1.5-4.4,5.2-2.9,8.3c1.1,2.3,1.6,4.8,1.6,7.3v13.3c0,9.4-7.7,17.1-17.1,17.1
				c-9.4,0-17.1-7.7-17.1-17.1v-13.3c0-9.4,7.7-17.1,17.1-17.1c3.4,0,6.2-2.8,6.2-6.2s-2.8-6.2-6.2-6.2c-16.3,0-29.6,13.3-29.6,29.6
				v13.3c0,16.3,13.3,29.6,29.6,29.6c16.3,0,29.6-13.3,29.6-29.6v-13.3C611.5,540,610.5,535.7,608.6,531.8z"/>
		</g>
	</g>
	<g>
		<g>
			<path d="M569.9,653.4c-2.3-2.6-6.2-2.8-8.8-0.5c-6.2,5.6-14.2,8.7-22.5,8.7c-6.8,0-13.4-2-19-5.9c-8.6-5.9-20.1-5.9-28.7,0
				c-5.6,3.8-12.2,5.9-19,5.9c-8.3,0-16.3-3.1-22.5-8.7c-2.6-2.3-6.5-2.1-8.8,0.5c-2.3,2.6-2.1,6.5,0.5,8.8
				c8.5,7.6,19.5,11.8,30.8,11.8c0.2,0,0.3,0,0.4,0v7.1c0,18.1,14.8,32.9,32.9,32.9s32.9-14.8,32.9-32.9V674c0.2,0,0.3,0,0.4,0
				c11.4,0,22.3-4.2,30.8-11.8C572,659.9,572.2,656,569.9,653.4z M525.7,681.1c0,11.3-9.2,20.5-20.5,20.5
				c-11.3,0-20.5-9.2-20.5-20.5v-8.9c4.7-1.3,9.1-3.4,13.1-6.2c0.4-0.2,0.7-0.5,1.1-0.7v9.1c0,3.4,2.8,6.2,6.2,6.2s6.2-2.8,6.2-6.2
				v-9.1c0.4,0.2,0.7,0.4,1.1,0.7c4.1,2.8,8.5,4.9,13.1,6.2V681.1L525.7,681.1z"/>
		</g>
	</g>
	<g>
		<g>
			<path d="M532.4,600.8c-2.3-4.8-7.1-7.8-12.4-7.8h-29.5c-5.4,0-10.1,3-12.4,7.8c-2.3,4.8-1.7,10.4,1.7,14.6l14.7,18.2
				c2.6,3.3,6.5,5.1,10.7,5.1c4.2,0,8.1-1.9,10.7-5.1l14.7-18.2C534,611.2,534.7,605.6,532.4,600.8z M521,607.6l-14.7,18.2
				c-0.3,0.4-0.8,0.5-1,0.5s-0.7-0.1-1-0.5l-14.7-18.2c-0.4-0.4-0.4-0.9-0.2-1.4c0.2-0.5,0.7-0.8,1.2-0.8H520c0.6,0,1,0.3,1.2,0.8
				C521.4,606.6,521.4,607.1,521,607.6z"/>
		</g>
	</g>
	<g>
		<g>
			<path d="M700.2,615.1c-3.4-0.9-7.1-1.7-10.9-2.5c5.8-17.5,8.8-36,8.8-54.9c0-23.3-4.6-46-13.3-67.1v-155
				c0-7.6-4.3-14.4-11.2-17.7c-6.9-3.3-14.8-2.3-20.7,2.5l-80.7,65.6c-21.2-7.4-43.8-11.3-67-11.3c-23.2,0-45.8,3.9-67,11.3
				l-80.7-65.6c-5.9-4.8-13.9-5.8-20.7-2.5c-6.9,3.3-11.2,10-11.2,17.7v155c-8.7,21.1-13.3,43.7-13.3,67.1c0,18.9,3,37.3,8.8,54.9
				c-3.8,0.7-7.4,1.6-10.9,2.5c-3.3,0.9-5.3,4.3-4.4,7.6c0.7,2.8,3.3,4.6,6,4.6c0.5,0,1.1-0.1,1.6-0.2c3.7-1,7.8-1.9,12-2.7
				c4.2,10.1,9.3,19.9,15.4,29.2c-6.4,2.7-12.7,5.5-18.6,8.6c-3,1.6-4.2,5.3-2.6,8.4c1.1,2.1,3.3,3.4,5.5,3.4c1,0,1.9-0.2,2.9-0.7
				c6.3-3.3,13.1-6.3,20.2-9.2c6.2,8.1,13.1,15.9,20.7,23.1c36.4,34.5,84.8,53.5,136.3,53.5s99.9-19,136.3-53.5
				c7.6-7.2,14.5-14.9,20.7-23.1c7.1,2.8,13.9,5.9,20.2,9.2c0.9,0.5,1.9,0.7,2.9,0.7c2.2,0,4.4-1.2,5.5-3.4c1.6-3,0.4-6.8-2.6-8.4
				c-5.9-3-12.1-5.9-18.6-8.6c6.1-9.3,11.2-19.1,15.4-29.2c4.2,0.8,8.3,1.7,12,2.7c0.5,0.1,1.1,0.2,1.6,0.2c2.7,0,5.3-1.8,6-4.6
				C705.5,619.4,703.5,616,700.2,615.1z M660.8,330.2c2.2-1.8,5-2.1,7.5-0.9c2.5,1.2,4,3.6,4.1,6.4l-12,13.5c-2.3,2.6-2,6.5,0.5,8.8
				c1.2,1.1,2.7,1.6,4.1,1.6c1.7,0,3.4-0.7,4.7-2.1l2.7-3.1v111.9c-8.4-13.7-18.7-26.5-30.9-38c-6.3-6-13-11.5-20-16.5l30.5-34.4
				c2.3-2.6,2-6.5-0.5-8.8c-2.6-2.3-6.5-2-8.8,0.5l-31.6,35.7c-8.2-5.1-16.7-9.6-25.6-13.4L660.8,330.2z M342.1,329.3
				c2.5-1.2,5.4-0.9,7.5,0.9l75.3,61.1c-8.8,3.8-17.4,8.3-25.6,13.4l-61.3-69.1C338.1,332.9,339.6,330.5,342.1,329.3z M338.1,354.4
				l50.9,57.4c-7,5-13.7,10.5-20,16.5c-12.2,11.5-22.5,24.3-30.9,38L338.1,354.4z M676.9,610.6c-38.1-5.4-84-4.1-86.4-4
				c-3.4,0.1-6.1,3-6,6.4c0.1,3.4,3,6.1,6.4,6c0.5,0,44.6-1.3,81.4,3.5c-4,9.3-8.9,18.2-14.6,26.5c-36.7-13.6-75-21.1-77-21.5
				c-3.4-0.7-6.6,1.5-7.3,4.9s1.5,6.6,4.9,7.3c0.5,0.1,36.7,7.2,71.8,19.8c-32.9,41.7-85.6,68.8-144.8,68.8
				c-59.2,0-111.8-27.1-144.7-68.8c35.1-12.5,71.3-19.7,71.8-19.8c3.4-0.7,5.6-3.9,4.9-7.3c-0.7-3.4-3.9-5.6-7.3-4.9
				c-2.1,0.4-40.3,8-77,21.5c-5.6-8.4-10.5-17.3-14.6-26.5c36.7-4.7,80.8-3.5,81.4-3.5c3.4,0.1,6.3-2.6,6.4-6c0.1-3.4-2.6-6.3-6-6.4
				c-2.3-0.1-48.3-1.4-86.4,4c-5.7-16.6-8.9-34.4-8.9-52.8c0-94,81-170.5,180.5-170.5s180.5,76.5,180.5,170.5
				C685.7,576.2,682.6,593.9,676.9,610.6z"/>
		</g>
	</g>
</g>
<path d="M511,826c-84.1,0-163.3-32.8-222.8-92.3S196,595.1,196,511s32.8-163.3,92.3-222.8S426.8,196,511,196
	c84.1,0,163.3,32.8,222.8,92.3S826,426.8,826,511s-32.8,163.3-92.3,222.8S595.1,826,511,826z M511,211c-165.4,0-300,134.6-300,300
	s134.6,300,300,300s300-134.6,300-300S676.4,211,511,211z"/>
<g>
	<g>
		<path d="M558.2,68.2h-106c-6.8,0-10.2-8.2-5.4-13l53-53c3-3,7.8-3,10.8,0l53,53C568.4,60,565,68.2,558.2,68.2z"/>
		<path d="M509.1,60h-7.8c-4.2,0-7.6,3.4-7.6,7.6v155.9c0,4.2,3.4,7.6,7.6,7.6h7.8c4.2,0,7.6-3.4,7.6-7.6V67.6
			C516.7,63.4,513.3,60,509.1,60z"/>
	</g>
	<g>
		<path d="M558.2,953.7h-106c-6.8,0-10.2,8.2-5.4,13l53,53c3,3,7.8,3,10.8,0l53-53C568.4,961.9,565,953.7,558.2,953.7z"/>
		<path d="M509.1,961.9h-7.8c-4.2,0-7.6-3.4-7.6-7.6V798.4c0-4.2,3.4-7.6,7.6-7.6h7.8c4.2,0,7.6,3.4,7.6,7.6v155.9
			C516.7,958.5,513.3,961.9,509.1,961.9z"/>
	</g>
</g>
<g>
	<g>
		<path d="M953.7,569.9v-106c0-6.8,8.2-10.2,13-5.4l53,53c3,3,3,7.8,0,10.8l-53,53C961.9,580.1,953.7,576.7,953.7,569.9z"/>
		<path d="M961.9,520.8v-7.8c0-4.2-3.4-7.6-7.6-7.6H798.4c-4.2,0-7.6,3.4-7.6,7.6v7.8c0,4.2,3.4,7.6,7.6,7.6h155.9
			C958.5,528.4,961.9,525,961.9,520.8z"/>
	</g>
	<g>
		<path d="M68.2,569.9v-106c0-6.8-8.2-10.2-13-5.4l-53,53c-3,3-3,7.8,0,10.8l53,53C60,580.1,68.2,576.7,68.2,569.9z"/>
		<path d="M60,520.8v-7.8c0-4.2,3.4-7.6,7.6-7.6h155.9c4.2,0,7.6,3.4,7.6,7.6v7.8c0,4.2-3.4,7.6-7.6,7.6H67.6
			C63.4,528.4,60,525,60,520.8z"/>
	</g>
</g>
<g>
	<g>
		<path d="M844.3,220.9l-75-75c-4.8-4.8-1.4-13,5.4-13h75c4.2,0,7.6,3.4,7.6,7.6l0,75C857.3,222.3,849.1,225.7,844.3,220.9z"/>
		<path d="M815.3,180.4l-5.5-5.5c-3-3-7.8-3-10.8,0L688.9,285.1c-3,3-3,7.8,0,10.8l5.5,5.5c3,3,7.8,3,10.8,0l110.2-110.2
			C818.3,188.2,818.3,183.4,815.3,180.4z"/>
	</g>
	<g>
		<path d="M218.1,847.1l-75-75c-4.8-4.8-13-1.4-13,5.4v75c0,4.2,3.4,7.6,7.6,7.6l75,0C219.5,860.1,222.9,851.9,218.1,847.1z"/>
		<path d="M177.6,818.1l-5.5-5.5c-3-3-3-7.8,0-10.8l110.2-110.2c3-3,7.8-3,10.8,0l5.5,5.5c3,3,3,7.8,0,10.8L188.4,818.1
			C185.4,821.1,180.6,821.1,177.6,818.1z"/>
	</g>
</g>
<g>
	<g>
		<path d="M241.1,154.9l-75,75c-4.8,4.8-13,1.4-13-5.4v-75c0-4.2,3.4-7.6,7.6-7.6l75,0C242.5,141.9,245.9,150.1,241.1,154.9z"/>
		<path d="M200.6,183.8l-5.5,5.5c-3,3-3,7.8,0,10.8l110.2,110.2c3,3,7.8,3,10.8,0l5.5-5.5c3-3,3-7.8,0-10.8L211.4,183.8
			C208.4,180.8,203.6,180.8,200.6,183.8z"/>
	</g>
	<g>
		<path d="M867.3,781l-75,75c-4.8,4.8-1.4,13,5.4,13h75c4.2,0,7.6-3.4,7.6-7.6l0-75C880.3,779.6,872.1,776.2,867.3,781z"/>
		<path d="M838.4,821.6l-5.5,5.5c-3,3-7.8,3-10.8,0L711.9,716.8c-3-3-3-7.8,0-10.8l5.5-5.5c3-3,7.8-3,10.8,0l110.2,110.2
			C841.3,813.7,841.3,818.6,838.4,821.6z"/>
	</g>
</g>
</svg>
