<?xml version="1.0" encoding="utf-8"?>
<!-- Generator: Adobe Illustrator 23.0.2, SVG Export Plug-In . SVG Version: 6.00 Build 0)  -->
<svg version="1.1" id="Layer_1" xmlns="http://www.w3.org/2000/svg" xmlns:xlink="http://www.w3.org/1999/xlink" x="0px" y="0px"
	 viewBox="0 0 257.66 7.77" style="enable-background:new 0 0 257.66 7.77;" xml:space="preserve">
<style type="text/css">
	.st0{fill:#FFFFFF;}
</style>
<path class="st0" d="M0,0v5.89C0.65,5.72,1.23,5.5,1.41,5.25c2.25-0.01,4.67,0.24,3.12-0.34c0.36-0.36,2.45-0.25,3.43-0.2
	c0.74,0.27,2.54,0.72,3.03,0.61c0.68,0.74,2.46-0.96,2.88-1.27C13.84,4.28,16.8,5.1,17.22,4.9c-1.44-0.37,0-0.77,3.09-1.08
	c-0.69-0.71,1.7,0.26,3.18,0.15c0.25,0.74,2.82-0.71,3.34-0.17c0.91-0.52,3.51-1.36,3.33-0.64c0.66,0.17,2.63,0.67,3.36,0.24
	c-0.76,0.34,3.35,1.6,3.35,0.99c0-0.58,3.33-1.34,3.33,0.13c0-1.4,3.31,0.26,3.31,0.25c0-0.12,3.42-0.97,3.42-0.75
	c0,0.86,3.2,1.62,3.2,0.95c0-0.63,3.39-0.14,3.39-0.22c0-1.01,3.32-0.42,3.32,0.21c0,0.4,3.61,0.72,3.61-0.48
	c0-0.23,3.02,0.48,3.02,1.02c0,0.25,2.85,1.96,2.85,1.34c0,0.01,3.51,0.47,3.51,0.14c0,0.67,3.37,0.93,3.37,0.73
	c0,0.46,3.49-1.67,3.49-1.51c0,0.14,3.26,0.01,3.26,0.09c0-0.19,3.63,0.07,3.63,0.27c0-1.26,1.6-2.46,1.6-1.99
	c0,1.04,3.02-0.31,3.02-0.61c0,0.43,3.29-0.17,3.29,0.16c0,1.03,3.23-0.36,3.23,0.34c0,0.56,3.27,0.01,3.27-0.31
	c0,0.09,3.18-0.89,3.18-0.6c0-0.54,3.41,0.45,3.41,0.27c0-0.06,3.02-1.3,3.02-1.66c0-0.08,3.44,1.46,3.44,0.53
	c0-0.68,3.34,0.4,3.34-0.03c0-0.38,3.47,1.04,3.47-0.58c0,0.17,3.09,1.48,3.09,1.22c0,0.25,3.48,0.69,3.48,1.11
	c0-0.33,4.07,0.6,4.07-0.09c0,1.24,3.81,1.65,3.81,0.51c0,0.42,3.54-0.07,3.54-0.36c0,0.53,3.35,0.17,3.35,0.15
	c0,0.75,3.41,0.57,3.41,0.64c0-0.87,3.28-0.71,3.28-1.06c0,0.22,3.62,1.63,3.62,0.98c0,0.2,3.4,0.03,3.4-0.27
	c0-1.17,3.28-0.52,3.28-0.61c0-0.13,3-1.45,3-1.34c0-0.23,3.44,0.57,3.44-0.08c0-0.01,3.88,2.2,3.88,1.16
	c0-0.17,2.85-2.38,2.85-1.87c0,0.36,3.35,0.02,3.35-0.5c0-0.5,3.54-0.03,3.54-0.13c0-0.71,3.61,0.65,3.61,0.44
	c0-0.19,3.55,0.15,3.55,0.54c0-0.22,3.45-0.36,3.45-0.66c0-0.14,3.5,0.56,3.5,0.47c0-0.19,3.5,0.81,3.5-0.69
	c0,0.18,3.43,0.32,3.43,1.21c0,0.59,3.58-1.17,3.58-1.27c0-1.37,3.41,0.38,3.41,0.98c0-0.93,3.54,0.37,3.54-0.4
	c0,0.19,3.42,1.53,3.42,0.77c0-0.54,3.33-0.42,3.33-0.3c0-0.39,3.38-0.79,3.38-0.81c0-1.88,3.29-0.47,3.29,0.03
	c0,0.56,3.13,1.83,3.13,1.57c0,1.16,3.36,0.27,3.36-0.57c0,0.96,3.35-0.96,3.35-0.49c0,0.4,3.25,0.83,3.25,0.4
	c0,0.48,3.59,0.09,3.29,0.03c-0.22-0.37,3.85,0.02,3.59,0.18c-1.38,0.11,2.94,0.74,3.48,0.53c0.79,0.87,4.21,0.76,3.55,0.17
	c0.56-0.48,4.09,0.67,3.52,0.92c0.82,0.07,2.73,0.23,3.7-0.21c0.13,0.14,1.25-0.14,2.2-0.45V0H0z"/>
</svg>
