<?xml version="1.0" encoding="utf-8"?>
<!-- Generator: Adobe Illustrator 18.0.0, SVG Export Plug-In . SVG Version: 6.00 Build 0)  -->
<!DOCTYPE svg PUBLIC "-//W3C//DTD SVG 1.1//EN" "http://www.w3.org/Graphics/SVG/1.1/DTD/svg11.dtd">
<svg version="1.1" id="Слой_1" xmlns="http://www.w3.org/2000/svg" xmlns:xlink="http://www.w3.org/1999/xlink" x="0px" y="0px"
	 viewBox="0 0 510.3 294.8" enable-background="new 0 0 510.3 294.8" xml:space="preserve">
<rect x="0" y="0" fill="none" width="509.9" height="294.8"/>
<polygon fill="#0E0E0E" points="493.6,250 16.3,250 16.3,216.1 19.4,216.1 19.4,246.9 490.5,246.9 490.5,218 493.6,218 "/>
<g>
	<path fill="#0E0E0E" d="M216,263.3v2.3h-0.5c-2.1,0-3.8,0.7-5,1.9s-2,2.9-2.2,5.1c1.1-1.3,2.7-1.9,4.6-1.9c1.9,0,3.3,0.7,4.4,2
		c1.1,1.3,1.7,3,1.7,5.1c0,2.2-0.6,4-1.8,5.3s-2.8,2-4.8,2c-2,0-3.7-0.8-5-2.4c-1.3-1.6-1.9-3.6-1.9-6.1v-1c0-3.9,0.8-6.9,2.5-9
		s4.2-3.1,7.5-3.2H216z M212.4,272.9c-0.9,0-1.8,0.3-2.6,0.8s-1.3,1.3-1.6,2.1v1c0,1.8,0.4,3.2,1.2,4.2s1.8,1.6,3,1.6
		c1.2,0,2.2-0.4,2.9-1.3s1-2.1,1-3.5c0-1.5-0.4-2.6-1.1-3.6C214.6,273.4,213.6,272.9,212.4,272.9z"/>
	<path fill="#0E0E0E" d="M226.2,272.7h2c1.3,0,2.3-0.4,3-1s1.1-1.5,1.1-2.7c0-2.5-1.2-3.8-3.7-3.8c-1.2,0-2.1,0.3-2.8,1
		s-1,1.6-1,2.7H222c0-1.7,0.6-3.1,1.9-4.2s2.8-1.7,4.7-1.7c2,0,3.6,0.5,4.7,1.6s1.7,2.5,1.7,4.4c0,0.9-0.3,1.8-0.9,2.7
		c-0.6,0.9-1.4,1.5-2.5,1.9c1.2,0.4,2.1,1,2.7,1.8s1,1.9,1,3.1c0,1.9-0.6,3.4-1.9,4.6s-2.9,1.7-4.9,1.7s-3.6-0.5-4.9-1.6
		c-1.3-1.1-1.9-2.5-1.9-4.3h2.7c0,1.1,0.4,2,1.1,2.7s1.7,1,2.9,1c1.3,0,2.3-0.3,3-1s1-1.7,1-2.9c0-1.2-0.4-2.2-1.1-2.9s-1.9-1-3.3-1
		h-2V272.7z"/>
	<path fill="#0E0E0E" d="M252.4,275.6c0,3.2-0.5,5.5-1.6,7.1s-2.8,2.3-5.1,2.3c-2.3,0-4-0.8-5.1-2.3c-1.1-1.5-1.7-3.8-1.7-6.8v-3.6
		c0-3.1,0.5-5.5,1.6-7s2.8-2.3,5.1-2.3c2.3,0,4,0.7,5.1,2.2s1.6,3.7,1.7,6.8V275.6z M249.7,271.9c0-2.3-0.3-4-1-5
		c-0.6-1-1.7-1.6-3.1-1.6c-1.4,0-2.4,0.5-3,1.6s-1,2.7-1,4.8v4.3c0,2.3,0.3,4,1,5.1c0.7,1.1,1.7,1.6,3,1.6c1.3,0,2.3-0.5,3-1.6
		s1-2.7,1-4.9V271.9z"/>
	<path fill="#0E0E0E" d="M272.7,281.1l5.4-12.3h3.4v15.8h-2.7v-11.5l-5.1,11.5h-1.9l-5.2-11.8v11.8h-2.7v-15.8h3.5L272.7,281.1z"/>
	<path fill="#0E0E0E" d="M295,281.1l5.4-12.3h3.4v15.8h-2.7v-11.5l-5.1,11.5h-1.9l-5.2-11.8v11.8h-2.7v-15.8h3.5L295,281.1z"/>
</g>
<path fill="none" stroke="#000000" stroke-miterlimit="10" d="M670.8,557"/>
<g>
	<path fill="#AE8469" d="M423.8,200.5c-16.7,0-42.6-12.5-72.6-26.9c-34.3-16.4-73.3-35.2-99.6-34c-34,1.6-69.7,19.4-101.3,35.3
		c-26.3,13.1-48.9,24.5-66.2,24.5c-1.4,0-2.7-0.1-4-0.2c-31.1-3.5-51.5-29.2-60.4-76.1c-4-20.8-8.3-58.5,7.2-77.2
		c6.9-8.4,17-12.1,29.8-11.1c25.6,2.1,50.6,7.7,77.1,13.6c36.8,8.3,74.9,16.8,120.3,17.4c30,0.4,69.5-8,107.6-16.2
		c33.5-7.1,65.2-13.9,87.3-13.9c10.6,0,18.4,1.6,23.7,4.8c21.2,12.7,22.5,57.1,13,92.4c-5,18.6-12.8,34.8-22.5,46.5
		c-11.2,13.6-24.8,21.1-39.2,21.1H423.8z M254.1,133.3c27.6,0,66,18.6,99.8,34.8c28.1,13.4,54.6,26.4,69.9,26.4h0.3
		c28.6-1,47.5-32.8,55.7-62.9c10.4-38.3,5.9-75.9-10.1-85.5c-4.3-2.6-11.2-3.9-20.5-3.9c-21.5,0-52.8,6.7-86,13.7
		c-38.5,8.2-78.3,16.7-109,16.3c-46.1-0.6-84.5-9.2-121.6-17.6c-26.3-5.9-51.1-11.5-76.2-13.5c-1.2-0.1-2.4-0.2-3.6-0.2
		c-9.1,0-15.9,2.9-20.9,9c-13.8,16.7-9.6,52.3-5.8,72c8.4,44,26.8,67.9,55,71.1c1,0.1,2.2,0.2,3.3,0.2c15.8,0,37.9-11,63.4-23.8
		c32.1-16.1,68.6-34.3,103.8-35.9C252.3,133.3,253.2,133.3,254.1,133.3z"/>
	<g id="Слой_x0020_1_1_">
		<path fill="#AE8469" d="M67.3,163.5c-0.1,0.1-0.5,0.3-1,0.6c-0.5,0.3-0.9,0.6-1.2,0.8c-0.3,0.3-0.6,0.8-0.8,1.4
			c-0.2,0.6-0.3,1.3-0.3,2.1c0,0.9,0.2,1.7,0.6,2.3c0.4,0.6,0.9,0.9,1.5,0.9c0.1,0,0.2,0,0.4-0.1c0.1,0,0.2-0.1,0.3-0.1
			c0.1,0.1,0.3,0.1,0.3,0.2c0.1,0.1,0.1,0.2,0.1,0.3c0,0,0,0.1,0,0.1c0,0,0,0.1-0.1,0.1c-0.2,0.2-0.4,0.3-0.6,0.4
			c-0.2,0.1-0.4,0.1-0.7,0.1c-1,0-1.9-0.4-2.6-1.2c-0.7-0.8-1-1.8-1-3.1c0-1.5,0.4-2.8,1.1-3.7c0.7-0.9,1.8-1.6,3.3-1.9
			c0.2,0.1,0.3,0.1,0.4,0.2c0.1,0.1,0.1,0.2,0.1,0.4L67.3,163.5L67.3,163.5z M68.3,172.4c0-0.6,0.1-1.1,0.1-1.5c0-0.4,0-0.8,0-1.1
			c0-0.8,0-1.5-0.1-2.1c0-0.7-0.1-1.3-0.2-2c0.2-0.1,0.3-0.2,0.5-0.3c0.2-0.1,0.4-0.1,0.7-0.1c0.2,0.1,0.4,0.2,0.5,0.4
			c0.1,0.2,0.1,0.5,0.2,1c0.4-0.3,0.8-0.5,1.1-0.7c0.3-0.2,0.6-0.3,0.8-0.4c0.2,0.1,0.4,0.1,0.5,0.3c0.1,0.1,0.2,0.3,0.3,0.5
			c-0.5,0.2-0.9,0.4-1.4,0.6c-0.4,0.2-0.9,0.5-1.3,0.8c0,0.4,0,0.8,0,1.2c0,0.4,0,0.8,0,1.2c0,0.3,0,0.6,0,0.9c0,0.4,0,0.8,0.1,1.2
			l-0.3,0.2c-0.1,0-0.1,0-0.3,0c-0.1,0-0.2,0-0.3,0c-0.2,0-0.4,0-0.6,0C68.5,172.5,68.4,172.4,68.3,172.4L68.3,172.4z M76.1,171.4
			c0-0.4,0-0.8,0-1.2c0-0.4,0-0.8,0-1.2c0,0-0.1,0-0.1,0c0,0-0.1,0-0.2,0c-0.4,0-0.7,0.1-0.9,0.3c-0.2,0.2-0.3,0.5-0.3,0.9
			c0,0.5,0.1,0.9,0.2,1c0.1,0.2,0.4,0.2,0.8,0.2c0.1,0,0.2,0,0.3,0C76,171.4,76.1,171.4,76.1,171.4z M73.8,166.7L73.8,166.7
			c-0.3,0-0.5-0.1-0.6-0.2c-0.2-0.1-0.2-0.2-0.2-0.3c0,0,0,0,0-0.1c0,0,0.1-0.1,0.1-0.1c0.4-0.1,0.8-0.3,1.2-0.4
			c0.4-0.1,0.8-0.3,1.2-0.4c0.8,0.1,1.4,0.4,1.7,0.8c0.3,0.5,0.5,1.6,0.5,3.3c0,0.6,0,1.5-0.1,2.9c0,0.1,0,0.2,0,0.3
			c-0.1,0-0.3,0.1-0.4,0.1c-0.1,0-0.2,0-0.3,0c-0.1,0-0.2,0-0.3,0c-0.1,0-0.2,0-0.3-0.1l-0.1-0.3c-0.3,0.1-0.6,0.1-0.8,0.2
			c-0.3,0-0.5,0.1-0.7,0.1c-0.5,0-0.9-0.2-1.2-0.5c-0.3-0.3-0.4-0.9-0.4-1.6c0-0.8,0.2-1.4,0.6-1.8c0.4-0.4,1.1-0.5,2-0.5H76
			c0-0.5-0.1-0.9-0.3-1.3c-0.2-0.3-0.4-0.5-0.7-0.5c-0.1,0-0.1,0-0.2,0c-0.1,0-0.2,0-0.3,0.1L73.8,166.7L73.8,166.7z M83,171.4
			c0.2,0.1,0.4,0.2,0.5,0.3c0.1,0.1,0.1,0.2,0.1,0.3c0,0.1,0,0.2-0.1,0.3c0,0,0,0,0,0c-0.3,0.1-0.7,0.2-1,0.2c-0.3,0-0.6,0.1-1,0.1
			c-0.3,0-0.7,0-1.2-0.1c-0.5,0-1-0.1-1.5-0.2c-0.1-0.1-0.1-0.2-0.1-0.3c0-0.1,0-0.2,0-0.3c0-0.1,0-0.1,0-0.1c0,0,0-0.1,0-0.1
			l2.5-5.2c-0.1,0-0.2,0-0.3,0c-0.1,0-0.2,0-0.3,0c-0.2,0-0.4,0-0.7,0c-0.3,0-0.5-0.1-0.9-0.1c-0.1-0.1-0.1-0.3-0.1-0.4
			c0-0.1,0-0.2,0-0.3c0-0.1,0-0.1,0.1-0.1c0,0,0.1-0.1,0.2-0.1c0.2,0,0.4,0.1,0.7,0.1c0.2,0,0.5,0,0.8,0c0.3,0,0.6,0,0.9,0
			c0.3,0,0.5-0.1,0.8-0.1c0.2,0.1,0.3,0.1,0.5,0.3c0.1,0.1,0.2,0.3,0.2,0.5c-0.6,1.2-1.1,2.3-1.5,3.1c-0.4,0.9-0.7,1.6-1,2.3
			c0.1,0,0.3,0.1,0.4,0.1c0.2,0,0.3,0,0.4,0c0.2,0,0.5,0,0.7,0C82.3,171.5,82.6,171.4,83,171.4L83,171.4z M85.5,172.2
			c-0.2-1.1-0.5-2.2-0.8-3.3c-0.3-1.1-0.6-2.1-1-3.1c0.2-0.1,0.3-0.1,0.5-0.2c0.2,0,0.4-0.1,0.7-0.1c0.1,0,0.2,0,0.3,0
			c0.1,0,0.2,0,0.3,0c0.2,0.7,0.4,1.4,0.5,2.1c0.2,0.8,0.3,1.6,0.5,2.5c0.2-0.7,0.4-1.5,0.6-2.3c0.2-0.8,0.3-1.6,0.5-2.5
			c0.2,0,0.3,0,0.4,0c0.1,0,0.1,0,0.2,0c0.1,0,0.3,0,0.5,0c0.2,0,0.4,0.1,0.6,0.1c-0.4,1.8-0.9,3.5-1.5,5.2
			c-0.6,1.6-1.3,3.2-2.1,4.6h-0.2c-0.3,0-0.5,0-0.8-0.1c-0.2-0.1-0.5-0.2-0.7-0.4c0.3-0.3,0.5-0.7,0.8-1
			C85,173.3,85.3,172.8,85.5,172.2L85.5,172.2z M98.1,163.5c-0.1,0.1-0.5,0.3-1,0.6c-0.5,0.3-0.9,0.6-1.2,0.8
			c-0.3,0.3-0.6,0.8-0.8,1.4c-0.2,0.6-0.3,1.3-0.3,2.1c0,0.9,0.2,1.7,0.6,2.3c0.4,0.6,0.9,0.9,1.5,0.9c0.1,0,0.2,0,0.4-0.1
			c0.1,0,0.2-0.1,0.3-0.1c0.1,0.1,0.3,0.1,0.3,0.2c0.1,0.1,0.1,0.2,0.1,0.3c0,0,0,0.1,0,0.1c0,0,0,0.1-0.1,0.1
			c-0.2,0.2-0.4,0.3-0.6,0.4c-0.2,0.1-0.4,0.1-0.7,0.1c-1,0-1.9-0.4-2.6-1.2c-0.7-0.8-1-1.8-1-3.1c0-1.5,0.4-2.8,1.1-3.7
			c0.7-0.9,1.8-1.6,3.3-1.9c0.2,0.1,0.3,0.1,0.4,0.2c0.1,0.1,0.1,0.2,0.1,0.4L98.1,163.5L98.1,163.5z M101.9,171.4
			c0-0.4,0-0.8,0-1.2c0-0.4,0-0.8,0-1.2c0,0-0.1,0-0.1,0c0,0-0.1,0-0.2,0c-0.4,0-0.7,0.1-0.9,0.3c-0.2,0.2-0.3,0.5-0.3,0.9
			c0,0.5,0.1,0.9,0.2,1c0.1,0.2,0.4,0.2,0.8,0.2c0.1,0,0.2,0,0.3,0C101.8,171.4,101.9,171.4,101.9,171.4z M99.7,166.7L99.7,166.7
			c-0.3,0-0.5-0.1-0.6-0.2c-0.2-0.1-0.2-0.2-0.2-0.3c0,0,0,0,0-0.1c0,0,0.1-0.1,0.1-0.1c0.4-0.1,0.8-0.3,1.2-0.4
			c0.4-0.1,0.8-0.3,1.2-0.4c0.8,0.1,1.4,0.4,1.7,0.8c0.3,0.5,0.5,1.6,0.5,3.3c0,0.6,0,1.5-0.1,2.9c0,0.1,0,0.2,0,0.3
			c-0.1,0-0.3,0.1-0.4,0.1c-0.1,0-0.2,0-0.3,0c-0.1,0-0.2,0-0.3,0c-0.1,0-0.2,0-0.3-0.1l-0.1-0.3c-0.3,0.1-0.6,0.1-0.8,0.2
			c-0.3,0-0.5,0.1-0.7,0.1c-0.5,0-0.9-0.2-1.2-0.5c-0.3-0.3-0.4-0.9-0.4-1.6c0-0.8,0.2-1.4,0.6-1.8c0.4-0.4,1.1-0.5,2-0.5h0.3
			c0-0.5-0.1-0.9-0.3-1.3c-0.2-0.3-0.4-0.5-0.7-0.5c-0.1,0-0.1,0-0.2,0c-0.1,0-0.2,0-0.3,0.1L99.7,166.7L99.7,166.7z M106.9,164.3
			c0,0.1,0.1,0.2,0.1,0.3c0,0.1,0,0.2,0,0.3v0.5c0,0,0,0,0,0.1c0,0,0,0.1,0,0.1c0.2,0,0.5,0,0.8,0c0.3,0,0.6-0.1,1-0.1
			c0.2,0.1,0.3,0.2,0.4,0.3c0.1,0.1,0.1,0.3,0.1,0.4c-0.2,0.1-0.5,0.1-0.8,0.2c-0.3,0-0.8,0.1-1.6,0.1c-0.1,0.7-0.1,1.3-0.1,1.9
			c0,0.6,0,1.2,0,1.7c0,0.7,0.1,1.1,0.1,1.3c0.1,0.2,0.3,0.2,0.6,0.2c0.1,0,0.3,0,0.4,0c0.1,0,0.2,0,0.4-0.1
			c0.1,0.1,0.2,0.1,0.2,0.2c0,0.1,0.1,0.1,0.1,0.2c0,0.1,0,0.2-0.1,0.2c-0.1,0.1-0.2,0.2-0.3,0.3c-0.3,0.1-0.6,0.2-0.9,0.2
			c-0.2,0-0.5,0.1-0.6,0.1c-0.6,0-1-0.1-1.2-0.4c-0.2-0.3-0.4-0.8-0.4-1.5c0-0.3,0-0.9,0.1-1.6c0.1-0.7,0.1-1.2,0.1-1.6
			c0-0.3,0-0.5,0-0.6c0-0.1,0-0.3,0-0.4c-0.2,0-0.3-0.1-0.5-0.1c-0.1,0-0.3-0.1-0.4-0.1v-0.1c0-0.1,0-0.2,0.1-0.3
			c0.1-0.1,0.1-0.2,0.2-0.3l0.7,0l0.1-1.2c0.1-0.1,0.3-0.1,0.4-0.2c0.1,0,0.3-0.1,0.4-0.1c0.1,0,0.2,0,0.3,0
			C106.6,164.2,106.7,164.2,106.9,164.3L106.9,164.3z"/>
		<path fill-rule="evenodd" clip-rule="evenodd" fill="#AE8469" d="M85.4,132.8c1.2,0,1.6,0,2.6,0.4c0.5-2.3,0.8-4.8-0.2-6.5
			c-0.3-0.4-0.8-0.7-0.7-1.4c0-0.1-0.1-0.4,0-0.5c0,0,0.5,0.3,0.7,0c0.2-0.3,0-0.6,0.3-0.9c0.1-0.1,0.2-0.2,0.2-0.3
			c0-0.1,0.2,0.2,0.3,0.2c0.3,0,0.4,0.3,0.7,0.6c0.2,0.1,0.5-0.5,0.9-0.5c0.1,0,0.2,0,0.3-0.1c0.1-0.1,0.1,0.2,0.2,0.3
			c0.3,0.3,0,0.5,0.2,0.9c0.1,0.2,0.3,0,0.5,0c0.1,0,0.1,0,0.3,0c0,0.1,0,0.3,0,0.4c0.2,0.4-0.5,1-1.1,1.6c-1.1,1-1,5.3-0.8,6.9
			c0.4,0.2,0.3,0.1,0.7,0.4c2-0.5,3.9-1.3,5.8-2c1-0.4,0.8,0.5,0.3,0.6c-1.8,0.8-3.7,1.1-5.7,1.6c0.1,0.1,0.2,0.1,0.3,0.2
			c1.4,0,2.8-0.1,4.5-0.3c0.5-0.1,0.5,0.6,0.2,0.6c-1.6,0-3.1,0-4.3,0c0.1,0.2,0.3,0.3,0.4,0.5c1.9,0.2,3.9,0.3,5.8,0.7
			c0.6,0.1,0.5,0.8-0.1,0.7c-1.6-0.4-3.9-0.9-5.5-1.1c0.4,0.7,0.3,1.6,0.3,2.7c0,1.5,0.8,1.8,0.6,4.4c-1.7-0.1-1.7-0.3-2.9-0.7
			c0.3,2.6,1.3,5.7,2.1,8.3c0.6,1.8,3-1.8,3.2-2.7c0.1-0.6-1.4-1.3-1.2-2.2c0-0.2,0-0.6,0.1-0.7c0,0,0.5,0.2,0.7,0
			c0.3-0.3,0.2-1,0.5-1.3c0.1-0.1,0.2-0.3,0.2-0.4c0.1-0.1,0.2,0.3,0.3,0.3c0.3,0.1,0.3,0.2,0.7,0.5c0.2,0.2,0.2-0.2,0.9-0.3
			c0.1,0,0.2,0,0.3-0.1c0.2-0.1,0.1,0.3,0.2,0.5c0.3,0.4-0.2,1.3,0.4,1.5c0.1-0.1,0.1-0.2,0.3-0.3c0.1,0.1,0.1,0.2,0.1,0.3
			c0,0.2,0,0.5,0,0.6c-0.2,1.1-1.5,0.9-2.3,2.4c-3.2,5.3-5.1,9.4-10.6,10.3c0.3,0.2,0.8,0.3,1.7,0.2c3.8-0.2,10.7-6.6,12.4-2
			c0.1,0.2,0.1,0.7,0,1.1c-0.3,0.7-1,1-1.6-0.4c-0.3-0.8-2-0.8-2.8-0.5c-4.6,1.7-8.8,4.2-11.3,1.6c-7.1-1.6-6.8-5.1-10.7-9.9
			c-1.1-1.3-2.1-0.8-2.3-1.8c0-0.1,0-0.3,0-0.5c0-0.1,0-0.2,0-0.3c0.2,0.1,0.1,0.2,0.4,0.2c0.6-0.2,0.1-1.1,0.3-1.5
			c0.1-0.2,0-0.6,0.2-0.5c0.2,0.1,0.2,0.1,0.4,0.1c0.7,0,0.9,0.5,1.1,0.3c0.3-0.4,0.4-0.5,0.7-0.7c0.1-0.1,0.2-0.5,0.3-0.3
			c0.1,0.1,0.1,0.3,0.3,0.4c0.3,0.3,0.3,0.8,0.6,1.2c0.1,0.1,0.2,0.2,0.3,0.1c0,0,0,0,0,0l0,0c0.1-0.1,0.3-0.2,0.3-0.2
			c0.1,0.1,0,0.4,0.1,0.6c0.2,0.9-1.1,1.9-0.9,2.5c0.2,0.8,2.7,4,3.4,1.5c1.1-3.8,0.8-6.8,0.9-8.4c-1.2,0.3-1.5,0.4-3.2,0.6
			c-0.2-2.3,1.4-3.3,1.4-5c0-0.4,0.1-0.8,0.3-1.2c-1.5,0.1-3.8,0.2-5.5,0.4c-0.6,0.1-0.8-0.7-0.3-0.7c2.2,0,4.1,0,6,0
			c0.1-0.2,0.3-0.3,0.4-0.5c-1.3-0.2-2.7-0.3-4-0.4c-0.6-0.1-0.2-0.6,0.3-0.5c1.6,0.4,2.7,0.6,4,0.7c0.1-0.1,0.1-0.1,0.2-0.2
			c-1.7-0.7-3.5-0.9-5.2-1.6c-0.5-0.1-0.6-1,0.3-0.7c1.8,0.7,3.4,1.4,5.1,2.1c0.4-0.3,0.5-0.4,0.9-0.6c-0.1-0.3,0.4-5.2-0.9-6.6
			c-0.5-0.6-1.3-1.1-1.1-1.5c0.1-0.1,0-0.3,0-0.4c0.1,0.1,0.1,0,0.2,0c0.1,0,0.4,0.1,0.4,0c0.2-0.4-0.1-0.6,0.1-0.9
			c0.1-0.1,0.1-0.4,0.2-0.3c0.1,0.1,0.2,0.1,0.3,0.1c0.4,0,0.7,0.6,0.9,0.4c0.3-0.2,0.3-0.6,0.6-0.6c0.1,0,0.2-0.3,0.3-0.2
			c0.1,0.1,0.1,0.2,0.2,0.3c0.3,0.2,0.1,0.6,0.3,0.9c0.2,0.2,0.7-0.1,0.7-0.1c0.1,0.1,0,0.3,0,0.5c0.1,0.7-0.3,1-0.6,1.4
			c-1,1.8-0.4,4.7,0,6.3C83.5,133,84.1,132.8,85.4,132.8L85.4,132.8z M71.3,144.7c0.1,0.9-0.4,1.9-0.4-0.5c0-0.6,0.2-3.3,0.3-2.4
			C71.3,142.8,71.2,143.7,71.3,144.7L71.3,144.7z M74.7,139.4c-0.4-1.7,0,8.7,0.3,2.6C75.1,141.1,74.9,140,74.7,139.4z M76,144.6
			c-0.1,0.7,0.4,1.5,0.4-0.4c0-0.5-0.2-2.5-0.3-1.9C76,143.1,76.1,143.8,76,144.6z M73,142.1c-0.1,1.9-0.1,2.7-0.5,1
			c-0.1-0.6,0-4.1,0.2-3.8C72.9,139.5,73.1,140.1,73,142.1L73,142.1z M99.3,143.9c-0.1,0.9,0.4,1.9,0.4-0.5c0-0.6-0.2-3.3-0.3-2.4
			C99.3,142,99.4,142.9,99.3,143.9z M96.1,138.3c0.4-1.7,0,8.7-0.3,2.6C95.7,140,95.9,138.9,96.1,138.3z M94.6,143.3
			c0.1,1-0.4,2.1-0.4-0.5c0-0.7,0.2-3.6,0.3-2.6C94.6,141.2,94.5,142.1,94.6,143.3z M98,141.2c0.1,2.3,0.1,3.2,0.5,1.1
			c0.1-0.7,0-4.8-0.2-4.5C98.1,138.2,97.8,138.9,98,141.2z M92.2,122.3c-0.1,1,0.4,2.1,0.4-0.6c0-0.7-0.2-3.6-0.3-2.7
			C92.3,120.2,92.3,121.2,92.2,122.3z M86.4,118.7c-0.5-1.8,0.5,9.4,0.5,2.7C86.9,120.5,86.6,119.3,86.4,118.7z M88.7,120.8
			c0.1,1.1-0.4,2.3-0.4-0.6c0-0.8,0.2-4,0.3-2.9C88.7,118.5,88.6,119.6,88.7,120.8z M90.6,120.4c0.1,2.7,0,3.8,0.5,1.4
			c0.1-0.8,0.1-5.7-0.1-5.3C90.8,116.8,90.5,117.6,90.6,120.4z M83.4,122.9c-0.1,1,0.4,2.1,0.4-0.6c0-0.7-0.2-3.6-0.3-2.7
			C83.4,120.8,83.4,121.8,83.4,122.9L83.4,122.9z M79.3,118.7c-0.5-1.9,0.5,9.8,0.5,2.9C79.8,120.6,79.5,119.3,79.3,118.7z
			 M82,135.2c-0.3,0-0.7,0.6-0.7,1.1c0,0.5,0.4,0.7,0.7,0.7c0.3,0,0.7-0.4,0.7-0.9C82.7,135.7,82.3,135.2,82,135.2z M78.2,121.7
			c0.1,1.1-0.4,2.3-0.4-0.6c0-0.8,0.2-4,0.3-2.9C78.1,119.4,78.1,120.4,78.2,121.7L78.2,121.7z M81.4,120.1c0.1,2.7,0,3.8,0.5,1.4
			c0.1-0.8,0.1-5.7-0.1-5.3C81.6,116.6,81.3,117.3,81.4,120.1L81.4,120.1z M89,135.2c-0.3,0-0.7,0.6-0.7,1.1c0,0.5,0.4,0.7,0.7,0.7
			c0.3,0,0.7-0.4,0.7-0.9C89.8,135.7,89.3,135.2,89,135.2z M86.3,133.6c-1-0.8-3.1,1.1-1,0.9C86.1,134.4,87.6,134.7,86.3,133.6z
			 M82.3,134.8c1.2,0,2,1.1,2,2c0,0.9-1.3,1.6-2.5,1.6c-1.2,0-2.1-0.7-2.1-1.6C79.7,135.8,81.1,134.8,82.3,134.8z M89,135
			c-1.2,0-2,0.8-2.2,1.7c-0.1,0.9,1.1,1.1,2.3,1.1c1.2,0,2.2-0.4,2.1-1.3C91,135.7,90.2,135,89,135L89,135z"/>
	</g>
</g>
<path fill="none" d="M319.3,3041.5l2307-0.1c0,0,381.1-194.2,61.7-389.6c-111.7-68.3-331.7,137.7-650.7,181.7
	c-154.6,21.3-297.2,23.3-491,24.5c-111.6,0.7-242.9,17.7-384-5.5c-401-66-319-58-640-202c-67.7-30.4-245-62-334,75
	C64.9,2915.4,319.3,3041.5,319.3,3041.5z"/>
</svg>
