<?xml version="1.0" encoding="utf-8"?>
<!-- Generator: Adobe Illustrator 18.0.0, SVG Export Plug-In . SVG Version: 6.00 Build 0)  -->
<!DOCTYPE svg PUBLIC "-//W3C//DTD SVG 1.1//EN" "http://www.w3.org/Graphics/SVG/1.1/DTD/svg11.dtd">
<svg version="1.1" id="Слой_1" xmlns="http://www.w3.org/2000/svg" xmlns:xlink="http://www.w3.org/1999/xlink" x="0px" y="0px"
	 viewBox="0 0 510.3 294.8" enable-background="new 0 0 510.3 294.8" xml:space="preserve">
<rect x="0" y="0" fill="none" width="509.9" height="294.8"/>
<path fill="none" stroke="#000000" stroke-miterlimit="10" d="M670.8,557"/>
<g>
	<path fill="#AE8469" d="M425.3,294.5c-16.7,0-42.6-12.5-72.6-26.9c-34.3-16.4-73.3-35.2-99.6-34c-34,1.6-69.7,19.4-101.3,35.3
		c-26.3,13.1-48.9,24.5-66.2,24.5c-1.4,0-2.7-0.1-4-0.2c-31.1-3.5-51.5-29.2-60.4-76.1c-4-20.8-8.3-58.5,7.2-77.2
		c6.9-8.4,17-12.1,29.8-11.1c25.6,2.1,50.6,7.7,77.1,13.6c36.8,8.3,74.9,16.8,120.3,17.4c30,0.4,69.5-8,107.6-16.2
		c33.5-7.1,65.2-13.9,87.3-13.9c10.6,0,18.4,1.6,23.7,4.8c21.2,12.7,22.5,57.1,13,92.4c-5,18.6-12.8,34.8-22.5,46.5
		c-11.2,13.6-24.8,21.1-39.2,21.1H425.3z M255.7,227.3c27.6,0,66,18.6,99.8,34.8c28.1,13.4,54.6,26.4,69.9,26.4h0.3
		c28.6-1,47.5-32.8,55.7-62.9c10.4-38.3,5.9-75.9-10.1-85.5c-4.3-2.6-11.2-3.9-20.5-3.9c-21.5,0-52.8,6.7-86,13.7
		c-38.5,8.2-78.3,16.7-109,16.3c-46.1-0.6-84.5-9.2-121.6-17.6c-26.3-5.9-51.1-11.5-76.2-13.5c-1.2-0.1-2.4-0.2-3.6-0.2
		c-9.1,0-15.9,2.9-20.9,9c-13.8,16.7-9.6,52.3-5.8,72c8.4,44,26.8,67.9,55,71.1c1,0.1,2.2,0.2,3.3,0.2c15.8,0,37.9-11,63.4-23.8
		c32.1-16.1,68.6-34.3,103.8-35.9C253.8,227.3,254.7,227.3,255.7,227.3z"/>
	<g id="Слой_x0020_1_1_">
		<path fill="#AE8469" d="M68.9,257.5c-0.1,0.1-0.5,0.3-1,0.6c-0.5,0.3-0.9,0.6-1.2,0.8c-0.3,0.3-0.6,0.8-0.8,1.4
			c-0.2,0.6-0.3,1.3-0.3,2.1c0,0.9,0.2,1.7,0.6,2.3c0.4,0.6,0.9,0.9,1.5,0.9c0.1,0,0.2,0,0.4-0.1c0.1,0,0.2-0.1,0.3-0.1
			c0.1,0.1,0.3,0.1,0.3,0.2c0.1,0.1,0.1,0.2,0.1,0.3c0,0,0,0.1,0,0.1c0,0,0,0.1-0.1,0.1c-0.2,0.2-0.4,0.3-0.6,0.4
			c-0.2,0.1-0.4,0.1-0.7,0.1c-1,0-1.9-0.4-2.6-1.2c-0.7-0.8-1-1.8-1-3.1c0-1.5,0.4-2.8,1.1-3.7c0.7-0.9,1.8-1.6,3.3-1.9
			c0.2,0.1,0.3,0.1,0.4,0.2c0.1,0.1,0.1,0.2,0.1,0.4L68.9,257.5L68.9,257.5z M69.9,266.4c0-0.6,0.1-1.1,0.1-1.5c0-0.4,0-0.8,0-1.1
			c0-0.8,0-1.5-0.1-2.1c0-0.7-0.1-1.3-0.2-2c0.2-0.1,0.3-0.2,0.5-0.3c0.2-0.1,0.4-0.1,0.7-0.1c0.2,0.1,0.4,0.2,0.5,0.4
			c0.1,0.2,0.1,0.5,0.2,1c0.4-0.3,0.8-0.5,1.1-0.7c0.3-0.2,0.6-0.3,0.8-0.4c0.2,0.1,0.4,0.1,0.5,0.3c0.1,0.1,0.2,0.3,0.3,0.5
			c-0.5,0.2-0.9,0.4-1.4,0.6c-0.4,0.2-0.9,0.5-1.3,0.8c0,0.4,0,0.8,0,1.2c0,0.4,0,0.8,0,1.2c0,0.3,0,0.6,0,0.9c0,0.4,0,0.8,0.1,1.2
			l-0.3,0.2c-0.1,0-0.1,0-0.3,0c-0.1,0-0.2,0-0.3,0c-0.2,0-0.4,0-0.6,0C70.1,266.5,70,266.4,69.9,266.4L69.9,266.4z M77.6,265.4
			c0-0.4,0-0.8,0-1.2c0-0.4,0-0.8,0-1.2c0,0-0.1,0-0.1,0c0,0-0.1,0-0.2,0c-0.4,0-0.7,0.1-0.9,0.3c-0.2,0.2-0.3,0.5-0.3,0.9
			c0,0.5,0.1,0.9,0.2,1c0.1,0.2,0.4,0.2,0.8,0.2c0.1,0,0.2,0,0.3,0C77.6,265.4,77.6,265.4,77.6,265.4z M75.4,260.7L75.4,260.7
			c-0.3,0-0.5-0.1-0.6-0.2c-0.2-0.1-0.2-0.2-0.2-0.3c0,0,0,0,0-0.1c0,0,0.1-0.1,0.1-0.1c0.4-0.1,0.8-0.3,1.2-0.4
			c0.4-0.1,0.8-0.3,1.2-0.4c0.8,0.1,1.4,0.4,1.7,0.8c0.3,0.5,0.5,1.6,0.5,3.3c0,0.6,0,1.5-0.1,2.9c0,0.1,0,0.2,0,0.3
			c-0.1,0-0.3,0.1-0.4,0.1c-0.1,0-0.2,0-0.3,0c-0.1,0-0.2,0-0.3,0c-0.1,0-0.2,0-0.3-0.1l-0.1-0.3c-0.3,0.1-0.6,0.1-0.8,0.2
			c-0.3,0-0.5,0.1-0.7,0.1c-0.5,0-0.9-0.2-1.2-0.5c-0.3-0.3-0.4-0.9-0.4-1.6c0-0.8,0.2-1.4,0.6-1.8c0.4-0.4,1.1-0.5,2-0.5h0.3
			c0-0.5-0.1-0.9-0.3-1.3c-0.2-0.3-0.4-0.5-0.7-0.5c-0.1,0-0.1,0-0.2,0c-0.1,0-0.2,0-0.3,0.1L75.4,260.7L75.4,260.7z M84.5,265.4
			c0.2,0.1,0.4,0.2,0.5,0.3c0.1,0.1,0.1,0.2,0.1,0.3c0,0.1,0,0.2-0.1,0.3c0,0,0,0,0,0c-0.3,0.1-0.7,0.2-1,0.2c-0.3,0-0.6,0.1-1,0.1
			c-0.3,0-0.7,0-1.2-0.1c-0.5,0-1-0.1-1.5-0.2c-0.1-0.1-0.1-0.2-0.1-0.3c0-0.1,0-0.2,0-0.3c0-0.1,0-0.1,0-0.1c0,0,0-0.1,0-0.1
			l2.5-5.2c-0.1,0-0.2,0-0.3,0c-0.1,0-0.2,0-0.3,0c-0.2,0-0.4,0-0.7,0c-0.3,0-0.5-0.1-0.9-0.1c-0.1-0.1-0.1-0.3-0.1-0.4
			c0-0.1,0-0.2,0-0.3c0-0.1,0-0.1,0.1-0.1c0,0,0.1-0.1,0.2-0.1c0.2,0,0.4,0.1,0.7,0.1c0.2,0,0.5,0,0.8,0c0.3,0,0.6,0,0.9,0
			c0.3,0,0.5-0.1,0.8-0.1c0.2,0.1,0.3,0.1,0.5,0.3c0.1,0.1,0.2,0.3,0.2,0.5c-0.6,1.2-1.1,2.3-1.5,3.1c-0.4,0.9-0.7,1.6-1,2.3
			c0.1,0,0.3,0.1,0.4,0.1c0.2,0,0.3,0,0.4,0c0.2,0,0.5,0,0.7,0C83.9,265.5,84.2,265.4,84.5,265.4L84.5,265.4z M87.1,266.2
			c-0.2-1.1-0.5-2.2-0.8-3.3c-0.3-1.1-0.6-2.1-1-3.1c0.2-0.1,0.3-0.1,0.5-0.2c0.2,0,0.4-0.1,0.7-0.1c0.1,0,0.2,0,0.3,0
			c0.1,0,0.2,0,0.3,0c0.2,0.7,0.4,1.4,0.5,2.1c0.2,0.8,0.3,1.6,0.5,2.5c0.2-0.7,0.4-1.5,0.6-2.3c0.2-0.8,0.3-1.6,0.5-2.5
			c0.2,0,0.3,0,0.4,0c0.1,0,0.1,0,0.2,0c0.1,0,0.3,0,0.5,0c0.2,0,0.4,0.1,0.6,0.1c-0.4,1.8-0.9,3.5-1.5,5.2
			c-0.6,1.6-1.3,3.2-2.1,4.6h-0.2c-0.3,0-0.5,0-0.8-0.1c-0.2-0.1-0.5-0.2-0.7-0.4c0.3-0.3,0.5-0.7,0.8-1
			C86.6,267.3,86.8,266.8,87.1,266.2L87.1,266.2z M99.7,257.5c-0.1,0.1-0.5,0.3-1,0.6c-0.5,0.3-0.9,0.6-1.2,0.8
			c-0.3,0.3-0.6,0.8-0.8,1.4c-0.2,0.6-0.3,1.3-0.3,2.1c0,0.9,0.2,1.7,0.6,2.3c0.4,0.6,0.9,0.9,1.5,0.9c0.1,0,0.2,0,0.4-0.1
			c0.1,0,0.2-0.1,0.3-0.1c0.1,0.1,0.3,0.1,0.3,0.2c0.1,0.1,0.1,0.2,0.1,0.3c0,0,0,0.1,0,0.1c0,0,0,0.1-0.1,0.1
			c-0.2,0.2-0.4,0.3-0.6,0.4c-0.2,0.1-0.4,0.1-0.7,0.1c-1,0-1.9-0.4-2.6-1.2c-0.7-0.8-1-1.8-1-3.1c0-1.5,0.4-2.8,1.1-3.7
			c0.7-0.9,1.8-1.6,3.3-1.9c0.2,0.1,0.3,0.1,0.4,0.2c0.1,0.1,0.1,0.2,0.1,0.4L99.7,257.5L99.7,257.5z M103.5,265.4
			c0-0.4,0-0.8,0-1.2c0-0.4,0-0.8,0-1.2c0,0-0.1,0-0.1,0c0,0-0.1,0-0.2,0c-0.4,0-0.7,0.1-0.9,0.3c-0.2,0.2-0.3,0.5-0.3,0.9
			c0,0.5,0.1,0.9,0.2,1c0.1,0.2,0.4,0.2,0.8,0.2c0.1,0,0.2,0,0.3,0C103.4,265.4,103.4,265.4,103.5,265.4z M101.2,260.7L101.2,260.7
			c-0.3,0-0.5-0.1-0.6-0.2c-0.2-0.1-0.2-0.2-0.2-0.3c0,0,0,0,0-0.1c0,0,0.1-0.1,0.1-0.1c0.4-0.1,0.8-0.3,1.2-0.4
			c0.4-0.1,0.8-0.3,1.2-0.4c0.8,0.1,1.4,0.4,1.7,0.8c0.3,0.5,0.5,1.6,0.5,3.3c0,0.6,0,1.5-0.1,2.9c0,0.1,0,0.2,0,0.3
			c-0.1,0-0.3,0.1-0.4,0.1c-0.1,0-0.2,0-0.3,0c-0.1,0-0.2,0-0.3,0c-0.1,0-0.2,0-0.3-0.1l-0.1-0.3c-0.3,0.1-0.6,0.1-0.8,0.2
			c-0.3,0-0.5,0.1-0.7,0.1c-0.5,0-0.9-0.2-1.2-0.5c-0.3-0.3-0.4-0.9-0.4-1.6c0-0.8,0.2-1.4,0.6-1.8c0.4-0.4,1.1-0.5,2-0.5h0.3
			c0-0.5-0.1-0.9-0.3-1.3c-0.2-0.3-0.4-0.5-0.7-0.5c-0.1,0-0.1,0-0.2,0c-0.1,0-0.2,0-0.3,0.1L101.2,260.7L101.2,260.7z M108.4,258.3
			c0,0.1,0.1,0.2,0.1,0.3c0,0.1,0,0.2,0,0.3v0.5c0,0,0,0,0,0.1c0,0,0,0.1,0,0.1c0.2,0,0.5,0,0.8,0c0.3,0,0.6-0.1,1-0.1
			c0.2,0.1,0.3,0.2,0.4,0.3c0.1,0.1,0.1,0.3,0.1,0.4c-0.2,0.1-0.5,0.1-0.8,0.2c-0.3,0-0.8,0.1-1.6,0.1c-0.1,0.7-0.1,1.3-0.1,1.9
			c0,0.6,0,1.2,0,1.7c0,0.7,0.1,1.1,0.1,1.3c0.1,0.2,0.3,0.2,0.6,0.2c0.1,0,0.3,0,0.4,0c0.1,0,0.2,0,0.4-0.1
			c0.1,0.1,0.2,0.1,0.2,0.2c0,0.1,0.1,0.1,0.1,0.2c0,0.1,0,0.2-0.1,0.2c-0.1,0.1-0.2,0.2-0.3,0.3c-0.3,0.1-0.6,0.2-0.9,0.2
			c-0.2,0-0.5,0.1-0.6,0.1c-0.6,0-1-0.1-1.2-0.4c-0.2-0.3-0.4-0.8-0.4-1.5c0-0.3,0-0.9,0.1-1.6c0.1-0.7,0.1-1.2,0.1-1.6
			c0-0.3,0-0.5,0-0.6c0-0.1,0-0.3,0-0.4c-0.2,0-0.3-0.1-0.5-0.1c-0.1,0-0.3-0.1-0.4-0.1v-0.1c0-0.1,0-0.2,0.1-0.3
			c0.1-0.1,0.1-0.2,0.2-0.3l0.7,0l0.1-1.2c0.1-0.1,0.3-0.1,0.4-0.2c0.1,0,0.3-0.1,0.4-0.1c0.1,0,0.2,0,0.3,0
			C108.1,258.2,108.3,258.2,108.4,258.3L108.4,258.3z"/>
		<path fill-rule="evenodd" clip-rule="evenodd" fill="#AE8469" d="M87,226.8c1.2,0,1.6,0,2.6,0.4c0.5-2.3,0.8-4.8-0.2-6.5
			c-0.3-0.4-0.8-0.7-0.7-1.4c0-0.1-0.1-0.4,0-0.5c0,0,0.5,0.3,0.7,0c0.2-0.3,0-0.6,0.3-0.9c0.1-0.1,0.2-0.2,0.2-0.3
			c0-0.1,0.2,0.2,0.3,0.2c0.3,0,0.4,0.3,0.7,0.6c0.2,0.1,0.5-0.5,0.9-0.5c0.1,0,0.2,0,0.3-0.1c0.1-0.1,0.1,0.2,0.2,0.3
			c0.3,0.3,0,0.5,0.2,0.9c0.1,0.2,0.3,0,0.5,0c0.1,0,0.1,0,0.3,0c0,0.1,0,0.3,0,0.4c0.2,0.4-0.5,1-1.1,1.6c-1.1,1-1,5.3-0.8,6.9
			c0.4,0.2,0.3,0.1,0.7,0.4c2-0.5,3.9-1.3,5.8-2c1-0.4,0.8,0.5,0.3,0.6c-1.8,0.8-3.7,1.1-5.7,1.6c0.1,0.1,0.2,0.1,0.3,0.2
			c1.4,0,2.8-0.1,4.5-0.3c0.5-0.1,0.5,0.6,0.2,0.6c-1.6,0-3.1,0-4.3,0c0.1,0.2,0.3,0.3,0.4,0.5c1.9,0.2,3.9,0.3,5.8,0.7
			c0.6,0.1,0.5,0.8-0.1,0.7c-1.6-0.4-3.9-0.9-5.5-1.1c0.4,0.7,0.3,1.6,0.3,2.7c0,1.5,0.8,1.8,0.6,4.4c-1.7-0.1-1.7-0.3-2.9-0.7
			c0.3,2.6,1.3,5.7,2.1,8.3c0.6,1.8,3-1.8,3.2-2.7c0.1-0.6-1.4-1.3-1.2-2.2c0-0.2,0-0.6,0.1-0.7c0,0,0.5,0.2,0.7,0
			c0.3-0.3,0.2-1,0.5-1.3c0.1-0.1,0.2-0.3,0.2-0.4c0.1-0.1,0.2,0.3,0.3,0.3c0.3,0.1,0.3,0.2,0.7,0.5c0.2,0.2,0.2-0.2,0.9-0.3
			c0.1,0,0.2,0,0.3-0.1c0.2-0.1,0.1,0.3,0.2,0.5c0.3,0.4-0.2,1.3,0.4,1.5c0.1-0.1,0.1-0.2,0.3-0.3c0.1,0.1,0.1,0.2,0.1,0.3
			c0,0.2,0,0.5,0,0.6c-0.2,1.1-1.5,0.9-2.3,2.4c-3.2,5.3-5.1,9.4-10.6,10.3c0.3,0.2,0.8,0.3,1.7,0.2c3.8-0.2,10.7-6.6,12.4-2
			c0.1,0.2,0.1,0.7,0,1.1c-0.3,0.7-1,1-1.6-0.4c-0.3-0.8-2-0.8-2.8-0.5c-4.6,1.7-8.8,4.2-11.3,1.6c-7.1-1.6-6.8-5.1-10.7-9.9
			c-1.1-1.3-2.1-0.8-2.3-1.8c0-0.1,0-0.3,0-0.5c0-0.1,0-0.2,0-0.3c0.2,0.1,0.1,0.2,0.4,0.2c0.6-0.2,0.1-1.1,0.3-1.5
			c0.1-0.2,0-0.6,0.2-0.5c0.2,0.1,0.2,0.1,0.4,0.1c0.7,0,0.9,0.5,1.1,0.3c0.3-0.4,0.4-0.5,0.7-0.7c0.1-0.1,0.2-0.5,0.3-0.3
			c0.1,0.1,0.1,0.3,0.3,0.4c0.3,0.3,0.3,0.8,0.6,1.2c0.1,0.1,0.2,0.2,0.3,0.1c0,0,0,0,0,0l0,0c0.1-0.1,0.3-0.2,0.3-0.2
			c0.1,0.1,0,0.4,0.1,0.6c0.2,0.9-1.1,1.9-0.9,2.5c0.2,0.8,2.7,4,3.4,1.5c1.1-3.8,0.8-6.8,0.9-8.4c-1.2,0.3-1.5,0.4-3.2,0.6
			c-0.2-2.3,1.4-3.3,1.4-5c0-0.4,0.1-0.8,0.3-1.2c-1.5,0.1-3.8,0.2-5.5,0.4c-0.6,0.1-0.8-0.7-0.3-0.7c2.2,0,4.1,0,6,0
			c0.1-0.2,0.3-0.3,0.4-0.5c-1.3-0.2-2.7-0.3-4-0.4c-0.6-0.1-0.2-0.6,0.3-0.5c1.6,0.4,2.7,0.6,4,0.7c0.1-0.1,0.1-0.1,0.2-0.2
			c-1.7-0.7-3.5-0.9-5.2-1.6c-0.5-0.1-0.6-1,0.3-0.7c1.8,0.7,3.4,1.4,5.1,2.1c0.4-0.3,0.5-0.4,0.9-0.6c-0.1-0.3,0.4-5.2-0.9-6.6
			c-0.5-0.6-1.3-1.1-1.1-1.5c0.1-0.1,0-0.3,0-0.4c0.1,0.1,0.1,0,0.2,0c0.1,0,0.4,0.1,0.4,0c0.2-0.4-0.1-0.6,0.1-0.9
			c0.1-0.1,0.1-0.4,0.2-0.3c0.1,0.1,0.2,0.1,0.3,0.1c0.4,0,0.7,0.6,0.9,0.4c0.3-0.2,0.3-0.6,0.6-0.6c0.1,0,0.2-0.3,0.3-0.2
			c0.1,0.1,0.1,0.2,0.2,0.3c0.3,0.2,0.1,0.6,0.3,0.9c0.2,0.2,0.7-0.1,0.7-0.1c0.1,0.1,0,0.3,0,0.5c0.1,0.7-0.3,1-0.6,1.4
			c-1,1.8-0.4,4.7,0,6.3C85.1,227,85.6,226.8,87,226.8L87,226.8z M72.8,238.7c0.1,0.9-0.4,1.9-0.4-0.5c0-0.6,0.2-3.3,0.3-2.4
			C72.8,236.8,72.7,237.7,72.8,238.7L72.8,238.7z M76.3,233.4c-0.4-1.7,0,8.7,0.3,2.6C76.7,235.1,76.4,234,76.3,233.4z M77.6,238.6
			c-0.1,0.7,0.4,1.5,0.4-0.4c0-0.5-0.2-2.5-0.3-1.9C77.6,237.1,77.6,237.8,77.6,238.6z M74.5,236.1c-0.1,1.9-0.1,2.7-0.5,1
			c-0.1-0.6,0-4.1,0.2-3.8C74.4,233.5,74.6,234.1,74.5,236.1L74.5,236.1z M100.8,237.9c-0.1,0.9,0.4,1.9,0.4-0.5
			c0-0.6-0.2-3.3-0.3-2.4C100.8,236,100.9,236.9,100.8,237.9z M97.6,232.3c0.4-1.7,0,8.7-0.3,2.6C97.2,234,97.5,232.9,97.6,232.3z
			 M96.1,237.3c0.1,1-0.4,2.1-0.4-0.5c0-0.7,0.2-3.6,0.3-2.6C96.1,235.2,96,236.1,96.1,237.3z M99.5,235.2c0.1,2.3,0.1,3.2,0.5,1.1
			c0.1-0.7,0-4.8-0.2-4.5C99.6,232.2,99.4,232.9,99.5,235.2z M93.8,216.3c-0.1,1,0.4,2.1,0.4-0.6c0-0.7-0.2-3.6-0.3-2.7
			C93.8,214.2,93.8,215.2,93.8,216.3z M88,212.7c-0.5-1.8,0.5,9.4,0.5,2.7C88.4,214.5,88.1,213.3,88,212.7z M90.3,214.8
			c0.1,1.1-0.4,2.3-0.4-0.6c0-0.8,0.2-4,0.3-2.9C90.2,212.5,90.2,213.6,90.3,214.8z M92.1,214.4c0.1,2.7,0,3.8,0.5,1.4
			c0.1-0.8,0.1-5.7-0.1-5.3C92.3,210.8,92,211.6,92.1,214.4z M84.9,216.9c-0.1,1,0.4,2.1,0.4-0.6c0-0.7-0.2-3.6-0.3-2.7
			C84.9,214.8,85,215.8,84.9,216.9L84.9,216.9z M80.8,212.7c-0.5-1.9,0.5,9.8,0.5,2.9C81.3,214.6,81,213.3,80.8,212.7z M83.5,229.2
			c-0.3,0-0.7,0.6-0.7,1.1c0,0.5,0.4,0.7,0.7,0.7c0.3,0,0.7-0.4,0.7-0.9C84.2,229.7,83.8,229.2,83.5,229.2z M79.7,215.7
			c0.1,1.1-0.4,2.3-0.4-0.6c0-0.8,0.2-4,0.3-2.9C79.7,213.4,79.6,214.4,79.7,215.7L79.7,215.7z M83,214.1c0.1,2.7,0,3.8,0.5,1.4
			c0.1-0.8,0.1-5.7-0.1-5.3C83.1,210.6,82.9,211.3,83,214.1L83,214.1z M90.6,229.2c-0.3,0-0.7,0.6-0.7,1.1c0,0.5,0.4,0.7,0.7,0.7
			s0.7-0.4,0.7-0.9C91.3,229.7,90.9,229.2,90.6,229.2z M87.9,227.6c-1-0.8-3.1,1.1-1,0.9C87.7,228.4,89.1,228.7,87.9,227.6z
			 M83.9,228.8c1.2,0,2,1.1,2,2c0,0.9-1.3,1.6-2.5,1.6c-1.2,0-2.1-0.7-2.1-1.6C81.2,229.8,82.6,228.8,83.9,228.8z M90.5,229
			c-1.2,0-2,0.8-2.2,1.7c-0.1,0.9,1.1,1.1,2.3,1.1c1.2,0,2.2-0.4,2.1-1.3C92.6,229.7,91.7,229,90.5,229L90.5,229z"/>
	</g>
</g>
<path fill="none" d="M319.3,3041.5l2307-0.1c0,0,381.1-194.2,61.7-389.6c-111.7-68.3-331.7,137.7-650.7,181.7
	c-154.6,21.3-297.2,23.3-491,24.5c-111.6,0.7-242.9,17.7-384-5.5c-401-66-319-58-640-202c-67.7-30.4-245-62-334,75
	C64.9,2915.4,319.3,3041.5,319.3,3041.5z"/>
<g>
	<path fill="#AE8469" d="M333.3,141.7h-156c10.1-35.6,20.1-71.1,30.2-106.7l0,0c33.5,0,87.4,0,95.9,0
		C312.7,65.7,323.9,104.6,333.3,141.7z"/>
	<path fill="#AE8469" d="M258.3,19.2c8.7,0,15.8,7.1,15.8,15.8c4.2,0,8.1,0,11.7,0c0-15.2-12.3-27.5-27.5-27.5
		c-15.2,0-27.5,12.3-27.5,27.5c3.9,0,7.8,0,11.7,0C242.5,26.3,249.6,19.2,258.3,19.2z"/>
	<g>
		<path fill="#FFFFFF" d="M213.5,108H209v-22l-6.7,2.3v-3.8l10.7-3.9h0.6V108z"/>
		<path fill="#FFFFFF" d="M224.3,94.4l1.5-13.8h14.7v4h-10.9l-0.8,6.6c1.3-0.7,2.7-1.1,4.3-1.1c2.6,0,4.6,0.8,6.1,2.5
			c1.5,1.7,2.2,3.9,2.2,6.7c0,2.8-0.8,5-2.4,6.7c-1.6,1.7-3.8,2.5-6.6,2.5c-2.5,0-4.6-0.7-6.2-2.1c-1.7-1.4-2.5-3.3-2.7-5.6h4.4
			c0.2,1.3,0.7,2.4,1.4,3.1c0.8,0.7,1.8,1.1,3.1,1.1c1.4,0,2.5-0.5,3.3-1.5c0.8-1,1.2-2.4,1.2-4.1c0-1.7-0.4-3-1.3-4
			c-0.9-1-2.1-1.5-3.6-1.5c-0.8,0-1.5,0.1-2.1,0.3c-0.6,0.2-1.2,0.7-1.9,1.3L224.3,94.4z"/>
		<path fill="#FFFFFF" d="M262.9,96.4c0,3.9-0.7,6.9-2.2,8.9c-1.5,2-3.7,3-6.7,3c-3,0-5.2-1-6.7-2.9c-1.5-2-2.3-4.8-2.3-8.7V92
			c0-3.9,0.7-6.9,2.2-8.9c1.5-2,3.7-3,6.8-3c3,0,5.2,1,6.7,2.9c1.5,1.9,2.2,4.8,2.3,8.6V96.4z M258.3,91.3c0-2.6-0.4-4.5-1.1-5.7
			c-0.7-1.2-1.8-1.8-3.4-1.8c-1.5,0-2.6,0.6-3.3,1.7c-0.7,1.1-1.1,2.9-1.1,5.3v6.2c0,2.6,0.4,4.5,1.1,5.7c0.7,1.3,1.8,1.9,3.4,1.9
			c1.5,0,2.6-0.6,3.3-1.7c0.7-1.2,1.1-3,1.1-5.5V91.3z"/>
		<path fill="#FFFFFF" d="M284.1,99.9h-2.3v8.1h-4.6V87.6h4.6v8.1h2l5.6-8.1h5.7l-7.4,9.8l8,10.6h-6L284.1,99.9z"/>
		<path fill="#FFFFFF" d="M311.8,91.3h-8.9V108h-4.6V87.6h13.4V91.3z"/>
	</g>
</g>
</svg>
