<?xml version="1.0" encoding="utf-8"?>
<!-- Generator: Adobe Illustrator 18.0.0, SVG Export Plug-In . SVG Version: 6.00 Build 0)  -->
<!DOCTYPE svg PUBLIC "-//W3C//DTD SVG 1.1//EN" "http://www.w3.org/Graphics/SVG/1.1/DTD/svg11.dtd">
<svg version="1.1" id="Слой_1" xmlns="http://www.w3.org/2000/svg" xmlns:xlink="http://www.w3.org/1999/xlink" x="0px" y="0px"
	 viewBox="0 0 510.3 294.8" enable-background="new 0 0 510.3 294.8" xml:space="preserve">
<rect x="0.7" y="0.2" fill="none" width="509.9" height="294.5"/>
<polygon fill="#0E0E0E" points="360.4,253.3 143.1,253.3 143.1,219.9 146.2,219.9 146.2,250.2 357.3,250.2 357.3,221.8 360.4,221.8 
	"/>
<g>
	<path fill="#0E0E0E" d="M221.1,282.9h-13.4v-2.3l6.6-7.2c1-1.1,1.6-2,2-2.7s0.6-1.4,0.6-2.2c0-0.9-0.3-1.7-0.8-2.3
		s-1.3-0.9-2.2-0.9c-1.1,0-1.9,0.3-2.5,1s-0.9,1.6-0.9,2.7h-3.3c0-1.2,0.3-2.3,0.8-3.3s1.3-1.7,2.4-2.3s2.2-0.8,3.5-0.8
		c1.9,0,3.5,0.5,4.6,1.5s1.7,2.3,1.7,4c0,1-0.3,2-0.8,3.1s-1.5,2.3-2.8,3.7l-4.9,5.2h9.2V282.9z"/>
	<path fill="#0E0E0E" d="M234.9,275.8h2.5v2.7h-2.5v4.4h-3.3v-4.4H223l-0.1-2l8.6-13.5h3.4V275.8z M226.4,275.8h5.2v-8.3l-0.2,0.4
		L226.4,275.8z"/>
	<path fill="#0E0E0E" d="M252.5,274.5c0,2.9-0.5,5-1.6,6.5s-2.7,2.2-4.9,2.2c-2.2,0-3.8-0.7-4.9-2.1s-1.6-3.5-1.7-6.3v-3.4
		c0-2.9,0.5-5,1.6-6.4s2.7-2.1,4.9-2.1c2.2,0,3.8,0.7,4.9,2.1s1.6,3.5,1.6,6.3V274.5z M249.2,270.8c0-1.9-0.3-3.2-0.8-4.1
		s-1.3-1.3-2.4-1.3c-1.1,0-1.9,0.4-2.4,1.2s-0.8,2.1-0.8,3.9v4.5c0,1.9,0.3,3.2,0.8,4.2s1.3,1.4,2.4,1.4c1.1,0,1.9-0.4,2.4-1.3
		s0.8-2.2,0.8-4V270.8z"/>
	<path fill="#0E0E0E" d="M271.5,278.8l4.4-10.7h4.2v14.8h-3.3v-9.8l-4.1,9.8h-2.3l-4.1-9.8v9.8h-3.3v-14.8h4.2L271.5,278.8z"/>
	<path fill="#0E0E0E" d="M292.5,278.8l4.4-10.7h4.2v14.8h-3.3v-9.8l-4.1,9.8h-2.3l-4.1-9.8v9.8H284v-14.8h4.2L292.5,278.8z"/>
</g>
<g>
	<path fill="#0E0E0E" d="M89.4,146v13.4h-2.3l-7.2-6.6c-1.1-1-2-1.6-2.7-2s-1.4-0.6-2.2-0.6c-0.9,0-1.7,0.3-2.3,0.8
		s-0.9,1.3-0.9,2.2c0,1.1,0.3,1.9,1,2.5s1.6,0.9,2.7,0.9v3.3c-1.2,0-2.3-0.3-3.3-0.8s-1.7-1.3-2.3-2.4s-0.8-2.2-0.8-3.5
		c0-1.9,0.5-3.5,1.5-4.6s2.3-1.7,4-1.7c1,0,2,0.3,3.1,0.8s2.3,1.5,3.7,2.8l5.2,4.9V146H89.4z"/>
	<path fill="#0E0E0E" d="M89.4,130.1v13.4h-2.3l-7.2-6.6c-1.1-1-2-1.6-2.7-2s-1.4-0.6-2.2-0.6c-0.9,0-1.7,0.3-2.3,0.8
		s-0.9,1.3-0.9,2.2c0,1.1,0.3,1.9,1,2.5s1.6,0.9,2.7,0.9v3.3c-1.2,0-2.3-0.3-3.3-0.8s-1.7-1.3-2.3-2.4s-0.8-2.2-0.8-3.5
		c0-1.9,0.5-3.5,1.5-4.6s2.3-1.7,4-1.7c1,0,2,0.3,3.1,0.8s2.3,1.5,3.7,2.8l5.2,4.9v-9.2H89.4z"/>
	<path fill="#0E0E0E" d="M81,114.6c2.9,0,5,0.5,6.5,1.6s2.2,2.7,2.2,4.9c0,2.2-0.7,3.8-2.1,4.9s-3.5,1.6-6.3,1.7h-3.4
		c-2.9,0-5-0.5-6.4-1.6s-2.1-2.7-2.1-4.9c0-2.2,0.7-3.8,2.1-4.9s3.5-1.6,6.3-1.6H81z M77.3,117.9c-1.9,0-3.2,0.3-4.1,0.8
		s-1.3,1.3-1.3,2.4c0,1.1,0.4,1.9,1.2,2.4s2.1,0.8,3.9,0.8h4.5c1.9,0,3.2-0.3,4.2-0.8s1.4-1.3,1.4-2.4c0-1.1-0.4-1.9-1.3-2.4
		s-2.2-0.8-4-0.8H77.3z"/>
	<path fill="#0E0E0E" d="M85.3,95.7l-10.7-4.4v-4.2h14.8v3.3h-9.8l9.8,4.1v2.3l-9.8,4.1h9.8v3.3H74.6V100L85.3,95.7z"/>
	<path fill="#0E0E0E" d="M85.3,74.6l-10.7-4.4v-4.2h14.8v3.3h-9.8l9.8,4.1v2.3l-9.8,4.1h9.8v3.3H74.6V79L85.3,74.6z"/>
</g>
<path fill="#0E0E0E" d="M75.5,344.6"/>
<path fill="#0E0E0E" d="M76.5,142.5"/>
<polygon fill="#0E0E0E" points="101.3,204.5 101.3,82.5 98.3,82.5 98.3,207.5 130.3,207.5 130.3,204.5 "/>
<path fill="#AE8469" d="M359.8,208.4H142.5V8h217.3V208.4z M147.4,203.4h207.4V13H147.4V203.4z"/>
<polygon fill="#0E0E0E" points="101.3,10.5 101.3,83.5 98.3,83.5 98.3,7.5 130.3,7.5 130.3,10.5 "/>
</svg>
