<?xml version="1.0" encoding="utf-8"?>
<!-- Generator: Adobe Illustrator 18.0.0, SVG Export Plug-In . SVG Version: 6.00 Build 0)  -->
<!DOCTYPE svg PUBLIC "-//W3C//DTD SVG 1.1//EN" "http://www.w3.org/Graphics/SVG/1.1/DTD/svg11.dtd">
<svg version="1.1" id="Слой_1" xmlns="http://www.w3.org/2000/svg" xmlns:xlink="http://www.w3.org/1999/xlink" x="0px" y="0px"
	 viewBox="0 0 510.3 294.8" enable-background="new 0 0 510.3 294.8" xml:space="preserve">
<path fill="#AE8469" d="M389.7,260.1H118.9c17.5-61.7,35-123.4,52.4-185.1l0,0c58.1,0,151.8,0,166.5,0
	C354,128.2,373.5,195.6,389.7,260.1z"/>
<path fill="#AE8469" d="M259.6,47.5c15.2,0,27.5,12.3,27.5,27.5c7.3,0,14.1,0,20.3,0c0-26.4-21.4-47.8-47.8-47.8
	c-26.4,0-47.8,21.4-47.8,47.8c6.7,0,13.5,0,20.3,0C232.1,59.8,244.4,47.5,259.6,47.5z"/>
<g>
	<path fill="#FFFFFF" d="M203.5,172.1h4.8c2.4,0,4.4-0.7,5.8-1.9c1.4-1.2,2.1-3,2.1-5.4c0-2.3-0.6-4-1.8-5.3c-1.2-1.3-3-1.9-5.4-1.9
		c-2.1,0-3.9,0.6-5.3,1.8c-1.4,1.2-2.1,2.8-2.1,4.8h-7.9c0-2.4,0.6-4.7,1.9-6.7c1.3-2,3.1-3.6,5.4-4.7c2.3-1.1,4.9-1.7,7.8-1.7
		c4.8,0,8.5,1.2,11.2,3.6c2.7,2.4,4.1,5.7,4.1,10c0,2.1-0.7,4.1-2,6c-1.4,1.9-3.1,3.3-5.3,4.3c2.6,0.9,4.6,2.3,6,4.2
		c1.4,1.9,2,4.2,2,6.9c0,4.3-1.5,7.7-4.4,10.2c-2.9,2.5-6.8,3.8-11.6,3.8c-4.6,0-8.3-1.2-11.3-3.7c-2.9-2.4-4.4-5.7-4.4-9.7h7.9
		c0,2.1,0.7,3.8,2.1,5.1c1.4,1.3,3.3,2,5.7,2c2.5,0,4.4-0.7,5.8-2c1.4-1.3,2.1-3.2,2.1-5.7c0-2.5-0.7-4.4-2.2-5.8
		c-1.5-1.4-3.7-2-6.6-2h-4.7V172.1z"/>
	<path fill="#FFFFFF" d="M262.2,185.5h-4v14h-7.9v-35.4h7.9v14.1h3.5l9.8-14.1h9.8l-12.8,16.9l13.9,18.5H272L262.2,185.5z"/>
	<path fill="#FFFFFF" d="M310.3,170.6h-15.4v29H287v-35.4h23.3V170.6z"/>
</g>
</svg>
