<?xml version="1.0" encoding="utf-8"?>
<!-- Generator: Adobe Illustrator 18.0.0, SVG Export Plug-In . SVG Version: 6.00 Build 0)  -->
<!DOCTYPE svg PUBLIC "-//W3C//DTD SVG 1.1//EN" "http://www.w3.org/Graphics/SVG/1.1/DTD/svg11.dtd">
<svg version="1.1" id="Слой_1" xmlns="http://www.w3.org/2000/svg" xmlns:xlink="http://www.w3.org/1999/xlink" x="0px" y="0px"
	 viewBox="0 0 510.3 294.8" enable-background="new 0 0 510.3 294.8" xml:space="preserve">
<rect x="0" y="0" fill="none" width="509.9" height="294.8"/>
<g id="Слой_x0020_1">
	<path fill="#AE8469" d="M242.8,174.1c-0.1,0.1-0.3,0.2-0.7,0.4c-0.4,0.2-0.6,0.4-0.8,0.5c-0.2,0.2-0.4,0.5-0.5,0.9
		c-0.1,0.4-0.2,0.9-0.2,1.4c0,0.6,0.1,1.1,0.4,1.5c0.3,0.4,0.6,0.6,1,0.6c0.1,0,0.2,0,0.3-0.1c0.1,0,0.1,0,0.2-0.1
		c0.1,0,0.2,0.1,0.2,0.1c0.1,0.1,0.1,0.1,0.1,0.2c0,0,0,0,0,0.1c0,0,0,0.1,0,0.1c-0.1,0.1-0.3,0.2-0.4,0.3c-0.1,0-0.3,0.1-0.5,0.1
		c-0.7,0-1.3-0.3-1.7-0.8c-0.4-0.5-0.7-1.2-0.7-2c0-1,0.2-1.8,0.7-2.4c0.5-0.6,1.2-1,2.2-1.2c0.1,0,0.2,0.1,0.3,0.2
		C242.8,173.8,242.8,173.9,242.8,174.1L242.8,174.1L242.8,174.1z M243.4,179.9c0-0.4,0-0.7,0-1c0-0.3,0-0.5,0-0.8c0-0.5,0-1,0-1.4
		c0-0.4-0.1-0.9-0.1-1.3c0.1-0.1,0.2-0.1,0.3-0.2c0.1,0,0.3-0.1,0.4-0.1c0.1,0.1,0.2,0.1,0.3,0.3c0.1,0.1,0.1,0.3,0.1,0.6
		c0.3-0.2,0.5-0.3,0.7-0.4c0.2-0.1,0.4-0.2,0.5-0.3c0.1,0,0.3,0.1,0.3,0.2c0.1,0.1,0.2,0.2,0.2,0.3c-0.3,0.1-0.6,0.3-0.9,0.4
		c-0.3,0.2-0.6,0.3-0.8,0.5c0,0.3,0,0.5,0,0.8c0,0.3,0,0.5,0,0.8c0,0.2,0,0.4,0,0.6c0,0.2,0,0.5,0,0.8l-0.2,0.2c0,0-0.1,0-0.2,0
		c-0.1,0-0.1,0-0.2,0c-0.2,0-0.3,0-0.4,0C243.6,180,243.5,180,243.4,179.9L243.4,179.9z M248.6,179.3c0-0.3,0-0.5,0-0.8
		c0-0.3,0-0.5,0-0.8c0,0,0,0-0.1,0c0,0-0.1,0-0.1,0c-0.3,0-0.4,0.1-0.6,0.2c-0.1,0.1-0.2,0.3-0.2,0.6c0,0.3,0,0.6,0.1,0.7
		c0.1,0.1,0.3,0.2,0.5,0.2c0,0,0.1,0,0.2,0C248.5,179.3,248.5,179.3,248.6,179.3z M247.1,176.2L247.1,176.2c-0.2,0-0.3,0-0.4-0.1
		c-0.1-0.1-0.2-0.1-0.2-0.2c0,0,0,0,0,0c0,0,0,0,0.1-0.1c0.2-0.1,0.5-0.2,0.8-0.3c0.3-0.1,0.5-0.2,0.8-0.3c0.5,0.1,0.9,0.3,1.1,0.6
		c0.2,0.3,0.3,1,0.3,2.2c0,0.4,0,1,0,1.9c0,0.1,0,0.2,0,0.2c-0.1,0-0.2,0-0.2,0.1c-0.1,0-0.1,0-0.2,0c-0.1,0-0.1,0-0.2,0
		c-0.1,0-0.1,0-0.2-0.1l-0.1-0.2c-0.2,0.1-0.4,0.1-0.5,0.1c-0.2,0-0.3,0-0.5,0c-0.4,0-0.6-0.1-0.8-0.3c-0.2-0.2-0.3-0.6-0.3-1
		c0-0.5,0.1-0.9,0.4-1.2c0.3-0.2,0.7-0.4,1.3-0.4h0.2c0-0.3-0.1-0.6-0.2-0.8c-0.1-0.2-0.3-0.3-0.4-0.3c0,0-0.1,0-0.2,0
		c-0.1,0-0.1,0-0.2,0.1L247.1,176.2L247.1,176.2z M253.1,179.3c0.1,0.1,0.2,0.1,0.3,0.2c0.1,0.1,0.1,0.1,0.1,0.2c0,0,0,0.1,0,0.2
		c0,0,0,0,0,0c-0.2,0.1-0.4,0.1-0.6,0.1c-0.2,0-0.4,0-0.6,0c-0.2,0-0.5,0-0.8,0c-0.3,0-0.6-0.1-1-0.1c0-0.1-0.1-0.1-0.1-0.2
		c0-0.1,0-0.1,0-0.2c0,0,0-0.1,0-0.1c0,0,0,0,0,0l1.7-3.4c-0.1,0-0.1,0-0.2,0c-0.1,0-0.1,0-0.2,0c-0.1,0-0.3,0-0.5,0
		c-0.2,0-0.4,0-0.6-0.1c0-0.1-0.1-0.2-0.1-0.2c0-0.1,0-0.1,0-0.2c0,0,0-0.1,0-0.1c0,0,0.1-0.1,0.1-0.1c0.1,0,0.3,0.1,0.4,0.1
		c0.2,0,0.3,0,0.5,0c0.2,0,0.4,0,0.6,0c0.2,0,0.3,0,0.5-0.1c0.1,0,0.2,0.1,0.3,0.2c0.1,0.1,0.1,0.2,0.2,0.3c-0.4,0.8-0.7,1.5-1,2.1
		c-0.3,0.6-0.5,1.1-0.7,1.5c0.1,0,0.2,0,0.3,0c0.1,0,0.2,0,0.3,0c0.1,0,0.3,0,0.5,0C252.7,179.3,252.9,179.3,253.1,179.3
		L253.1,179.3z M254.8,179.8c-0.1-0.7-0.3-1.5-0.5-2.2c-0.2-0.7-0.4-1.4-0.7-2.1c0.1-0.1,0.2-0.1,0.3-0.1c0.1,0,0.3,0,0.4,0
		c0.1,0,0.2,0,0.2,0c0.1,0,0.1,0,0.2,0c0.1,0.4,0.2,0.9,0.3,1.4c0.1,0.5,0.2,1,0.3,1.6c0.2-0.5,0.3-1,0.4-1.5
		c0.1-0.5,0.2-1.1,0.3-1.6c0.1,0,0.2,0,0.3,0c0.1,0,0.1,0,0.1,0c0.1,0,0.2,0,0.3,0c0.1,0,0.2,0.1,0.4,0.1c-0.3,1.2-0.6,2.3-1,3.4
		c-0.4,1.1-0.8,2.1-1.4,3h-0.1c-0.2,0-0.4,0-0.5-0.1c-0.2,0-0.3-0.1-0.5-0.2c0.2-0.2,0.3-0.4,0.5-0.7
		C254.4,180.5,254.6,180.2,254.8,179.8L254.8,179.8z M263.1,174.1c-0.1,0.1-0.3,0.2-0.7,0.4c-0.4,0.2-0.6,0.4-0.8,0.5
		c-0.2,0.2-0.4,0.5-0.5,0.9c-0.1,0.4-0.2,0.9-0.2,1.4c0,0.6,0.1,1.1,0.4,1.5c0.3,0.4,0.6,0.6,1,0.6c0.1,0,0.2,0,0.3-0.1
		c0.1,0,0.1,0,0.2-0.1c0.1,0,0.2,0.1,0.2,0.1c0.1,0.1,0.1,0.1,0.1,0.2c0,0,0,0,0,0.1c0,0,0,0.1,0,0.1c-0.1,0.1-0.3,0.2-0.4,0.3
		c-0.1,0-0.3,0.1-0.5,0.1c-0.7,0-1.3-0.3-1.7-0.8c-0.4-0.5-0.7-1.2-0.7-2c0-1,0.2-1.8,0.7-2.4c0.5-0.6,1.2-1,2.2-1.2
		c0.1,0,0.2,0.1,0.3,0.2C263,173.8,263.1,173.9,263.1,174.1L263.1,174.1L263.1,174.1z M265.6,179.3c0-0.3,0-0.5,0-0.8
		c0-0.3,0-0.5,0-0.8c0,0,0,0-0.1,0c0,0-0.1,0-0.1,0c-0.3,0-0.4,0.1-0.6,0.2c-0.1,0.1-0.2,0.3-0.2,0.6c0,0.3,0,0.6,0.1,0.7
		c0.1,0.1,0.3,0.2,0.5,0.2c0,0,0.1,0,0.2,0C265.5,179.3,265.5,179.3,265.6,179.3z M264.1,176.2L264.1,176.2c-0.2,0-0.3,0-0.4-0.1
		c-0.1-0.1-0.2-0.1-0.2-0.2c0,0,0,0,0,0c0,0,0,0,0.1-0.1c0.2-0.1,0.5-0.2,0.8-0.3c0.3-0.1,0.5-0.2,0.8-0.3c0.5,0.1,0.9,0.3,1.1,0.6
		c0.2,0.3,0.3,1,0.3,2.2c0,0.4,0,1,0,1.9c0,0.1,0,0.2,0,0.2c-0.1,0-0.2,0-0.2,0.1c-0.1,0-0.1,0-0.2,0c-0.1,0-0.1,0-0.2,0
		c-0.1,0-0.1,0-0.2-0.1l-0.1-0.2c-0.2,0.1-0.4,0.1-0.5,0.1c-0.2,0-0.3,0-0.5,0c-0.4,0-0.6-0.1-0.8-0.3c-0.2-0.2-0.3-0.6-0.3-1
		c0-0.5,0.1-0.9,0.4-1.2c0.3-0.2,0.7-0.4,1.3-0.4h0.2c0-0.3-0.1-0.6-0.2-0.8c-0.1-0.2-0.3-0.3-0.4-0.3c0,0-0.1,0-0.2,0
		c-0.1,0-0.1,0-0.2,0.1L264.1,176.2L264.1,176.2z M268.8,174.6c0,0.1,0,0.1,0,0.2c0,0.1,0,0.1,0,0.2v0.4c0,0,0,0,0,0
		c0,0,0,0.1,0,0.1c0.1,0,0.3,0,0.5,0c0.2,0,0.4,0,0.7-0.1c0.1,0.1,0.2,0.1,0.3,0.2c0.1,0.1,0.1,0.2,0.1,0.3c-0.1,0-0.3,0.1-0.5,0.1
		c-0.2,0-0.5,0.1-1,0.1c0,0.4-0.1,0.9-0.1,1.3c0,0.4,0,0.8,0,1.1c0,0.5,0,0.7,0.1,0.8c0.1,0.1,0.2,0.2,0.4,0.2c0.1,0,0.2,0,0.3,0
		c0.1,0,0.2,0,0.2-0.1c0.1,0,0.1,0.1,0.1,0.1c0,0,0,0.1,0,0.1c0,0.1,0,0.1-0.1,0.2c0,0.1-0.1,0.1-0.2,0.2c-0.2,0.1-0.4,0.1-0.6,0.1
		c-0.2,0-0.3,0-0.4,0c-0.4,0-0.6-0.1-0.8-0.3c-0.2-0.2-0.2-0.5-0.2-1c0-0.2,0-0.6,0.1-1c0-0.5,0.1-0.8,0.1-1.1c0-0.2,0-0.3,0-0.4
		c0-0.1,0-0.2,0-0.3c-0.1,0-0.2,0-0.3-0.1c-0.1,0-0.2-0.1-0.3-0.1v0c0-0.1,0-0.1,0-0.2c0-0.1,0.1-0.1,0.1-0.2l0.4,0l0-0.8
		c0.1-0.1,0.2-0.1,0.3-0.1c0.1,0,0.2,0,0.3,0c0.1,0,0.1,0,0.2,0C268.6,174.5,268.7,174.6,268.8,174.6L268.8,174.6z"/>
	<path fill-rule="evenodd" clip-rule="evenodd" fill="#AE8469" d="M254.7,153.9c0.8,0,1.1,0,1.7,0.2c0.3-1.5,0.5-3.1-0.1-4.3
		c-0.2-0.3-0.5-0.5-0.4-0.9c0-0.1-0.1-0.3,0-0.3c0,0,0.3,0.2,0.5,0c0.2-0.2,0-0.4,0.2-0.6c0.1-0.1,0.1-0.1,0.1-0.2
		c0-0.1,0.1,0.1,0.2,0.1c0.2,0,0.2,0.2,0.5,0.4c0.2,0.1,0.4-0.3,0.6-0.3c0.1,0,0.1,0,0.2-0.1c0.1-0.1,0.1,0.1,0.2,0.2
		c0.2,0.2,0,0.3,0.1,0.6c0.1,0.1,0.2,0,0.3,0c0.1,0,0.1,0,0.2,0c0,0.1,0,0.2,0,0.3c0.2,0.3-0.3,0.7-0.7,1c-0.7,0.7-0.7,3.5-0.5,4.6
		c0.3,0.1,0.2,0.1,0.4,0.3c1.3-0.3,2.5-0.8,3.8-1.3c0.6-0.2,0.5,0.3,0.2,0.4c-1.2,0.5-2.4,0.8-3.8,1.1c0.1,0.1,0.1,0.1,0.2,0.1
		c0.9,0,1.9-0.1,2.9-0.2c0.4,0,0.3,0.4,0.1,0.4c-1.1,0-2.1,0-2.8,0c0.1,0.1,0.2,0.2,0.3,0.3c1.3,0.1,2.5,0.2,3.8,0.5
		c0.4,0.1,0.3,0.5,0,0.4c-1-0.2-2.6-0.6-3.6-0.7c0.3,0.5,0.2,1.1,0.2,1.8c0,1,0.5,1.2,0.4,2.9c-1.1-0.1-1.1-0.2-1.9-0.4
		c0.2,1.7,0.8,3.7,1.4,5.5c0.4,1.2,2-1.2,2.1-1.8c0.1-0.4-0.9-0.8-0.8-1.4c0-0.1,0-0.4,0.1-0.5c0,0,0.3,0.2,0.5,0
		c0.2-0.2,0.1-0.6,0.3-0.8c0.1-0.1,0.1-0.2,0.2-0.3c0-0.1,0.1,0.2,0.2,0.2c0.2,0.1,0.2,0.1,0.5,0.3c0.1,0.1,0.1-0.2,0.6-0.2
		c0.1,0,0.1,0,0.2-0.1c0.1-0.1,0.1,0.2,0.1,0.3c0.2,0.3-0.1,0.9,0.3,1c0.1,0,0.1-0.1,0.2-0.2c0,0,0,0.1,0,0.2c0,0.2,0,0.3,0,0.4
		c-0.1,0.7-1,0.6-1.5,1.6c-2.1,3.5-3.4,6.2-7,6.8c0.2,0.1,0.5,0.2,1.1,0.1c2.5-0.1,7-4.3,8.1-1.3c0.1,0.1,0.1,0.5,0,0.7
		c-0.2,0.4-0.7,0.7-1-0.3c-0.2-0.5-1.3-0.5-1.9-0.3c-3,1.1-5.8,2.8-7.4,1.1c-4.6-1-4.5-3.4-7-6.5c-0.7-0.9-1.4-0.5-1.5-1.2
		c0-0.1,0-0.2,0-0.3c0-0.1,0-0.1,0-0.2c0.2,0.1,0.1,0.1,0.3,0.1c0.4-0.1,0-0.7,0.2-1c0.1-0.1,0-0.4,0.1-0.3c0.1,0.1,0.1,0.1,0.2,0.1
		c0.5,0,0.6,0.4,0.7,0.2c0.2-0.2,0.3-0.3,0.5-0.4c0.1,0,0.2-0.3,0.2-0.2c0,0.1,0.1,0.2,0.2,0.3c0.2,0.2,0.2,0.5,0.4,0.8
		c0.1,0.1,0.1,0.1,0.2,0.1c0,0,0,0,0,0l0,0c0.1-0.1,0.2-0.1,0.2-0.1c0.1,0,0,0.3,0,0.4c0.1,0.6-0.7,1.2-0.6,1.6
		c0.1,0.6,1.8,2.6,2.2,1c0.7-2.5,0.5-4.5,0.6-5.6c-0.8,0.2-1,0.3-2.1,0.4c-0.1-1.5,0.9-2.2,0.9-3.3c0-0.3,0.1-0.5,0.2-0.8
		c-1,0.1-2.5,0.1-3.6,0.3c-0.4,0-0.5-0.5-0.2-0.5c1.5,0,2.7,0,4,0c0.1-0.1,0.2-0.2,0.3-0.3c-0.9-0.1-1.8-0.2-2.6-0.3
		c-0.4,0-0.1-0.4,0.2-0.3c1,0.2,1.8,0.4,2.6,0.5c0,0,0.1-0.1,0.1-0.1c-1.1-0.4-2.3-0.6-3.4-1c-0.3-0.1-0.4-0.7,0.2-0.4
		c1.2,0.4,2.3,0.9,3.4,1.4c0.2-0.2,0.3-0.3,0.6-0.4c-0.1-0.2,0.2-3.4-0.6-4.4c-0.3-0.4-0.9-0.7-0.7-1c0-0.1,0-0.2,0-0.3
		c0.1,0,0.1,0,0.2,0c0.1,0,0.2,0.1,0.3,0c0.1-0.2-0.1-0.4,0.1-0.6c0.1-0.1,0-0.3,0.1-0.2c0.1,0.1,0.1,0.1,0.2,0.1
		c0.2,0,0.5,0.4,0.6,0.3c0.2-0.2,0.2-0.4,0.4-0.4c0.1,0,0.2-0.2,0.2-0.1c0,0.1,0.1,0.2,0.1,0.2c0.2,0.1,0.1,0.4,0.2,0.6
		c0.1,0.2,0.4,0,0.4,0c0.1,0,0,0.2,0,0.3c0.1,0.4-0.2,0.6-0.4,0.9c-0.7,1.2-0.3,3.1,0,4.1C253.4,154,253.8,153.9,254.7,153.9
		L254.7,153.9z M245.4,161.7c0,0.6-0.3,1.3-0.3-0.3c0-0.4,0.1-2.1,0.2-1.6C245.4,160.5,245.3,161.1,245.4,161.7L245.4,161.7z
		 M247.6,158.2c-0.3-1.1,0,5.7,0.2,1.7C247.9,159.4,247.7,158.6,247.6,158.2z M248.5,161.6c0,0.5,0.3,1,0.3-0.3
		c0-0.3-0.1-1.7-0.2-1.2C248.5,160.7,248.6,161.1,248.5,161.6z M246.5,160c-0.1,1.3-0.1,1.8-0.3,0.6c-0.1-0.4,0-2.7,0.1-2.5
		C246.4,158.3,246.6,158.7,246.5,160L246.5,160z M263.8,161.2c0,0.6,0.3,1.3,0.3-0.3c0-0.4-0.1-2.1-0.2-1.6
		C263.8,160,263.9,160.5,263.8,161.2z M261.7,157.5c0.3-1.1,0,5.7-0.2,1.7C261.4,158.6,261.6,157.9,261.7,157.5z M260.7,160.8
		c0,0.7-0.3,1.4-0.3-0.4c0-0.5,0.1-2.3,0.2-1.7C260.7,159.4,260.7,160,260.7,160.8z M263,159.4c0.1,1.5,0.1,2.1,0.3,0.8
		c0.1-0.5,0-3.2-0.1-2.9C263,157.5,262.9,157.9,263,159.4z M259.2,147c0,0.7,0.3,1.4,0.3-0.4c0-0.5-0.1-2.4-0.2-1.8
		C259.2,145.6,259.2,146.2,259.2,147z M255.3,144.6c-0.3-1.2,0.3,6.2,0.3,1.8C255.7,145.8,255.5,145,255.3,144.6z M256.9,146
		c0,0.8-0.3,1.5-0.3-0.4c0-0.5,0.1-2.6,0.2-1.9C256.8,144.5,256.8,145.2,256.9,146z M258.1,145.7c0.1,1.8,0,2.5,0.3,0.9
		c0.1-0.6,0-3.7-0.1-3.5C258.2,143.4,258,143.9,258.1,145.7z M253.3,147.4c0,0.7,0.3,1.4,0.3-0.4c0-0.5-0.1-2.4-0.2-1.8
		C253.4,146,253.4,146.6,253.3,147.4L253.3,147.4z M250.6,144.6c-0.3-1.3,0.3,6.4,0.3,1.9C251,145.8,250.8,145,250.6,144.6z
		 M252.4,155.5c-0.2,0-0.4,0.4-0.4,0.7c0,0.3,0.3,0.5,0.4,0.5c0.2,0,0.5-0.3,0.5-0.6C252.9,155.8,252.6,155.5,252.4,155.5z
		 M249.9,146.6c0,0.8-0.3,1.5-0.3-0.4c0-0.5,0.1-2.6,0.2-1.9C249.9,145,249.9,145.8,249.9,146.6L249.9,146.6z M252.1,145.5
		c0.1,1.8,0,2.5,0.3,0.9c0.1-0.6,0-3.7-0.1-3.5C252.2,143.2,252,143.7,252.1,145.5L252.1,145.5z M257.1,155.5
		c-0.2,0-0.4,0.4-0.4,0.7c0,0.3,0.3,0.5,0.4,0.5c0.2,0,0.5-0.3,0.5-0.6C257.5,155.8,257.3,155.5,257.1,155.5z M255.3,154.4
		c-0.6-0.5-2,0.7-0.7,0.6C255.2,154.9,256.1,155.1,255.3,154.4z M252.7,155.2c0.8,0,1.3,0.7,1.3,1.3c0,0.6-0.9,1.1-1.7,1.1
		c-0.8,0-1.4-0.5-1.4-1.1C250.9,155.9,251.8,155.2,252.7,155.2z M257,155.3c-0.8,0-1.3,0.6-1.4,1.1c-0.1,0.6,0.7,0.8,1.5,0.8
		c0.8,0,1.4-0.3,1.4-0.8C258.4,155.8,257.8,155.3,257,155.3L257,155.3z"/>
</g>
<path fill="#AE8469" d="M382.2,210.4c-15.5,0-29.7-3.2-42.7-6.1c-2.4-0.5-5.4-1.3-8.9-2.1c-10.3-2.5-24.3-5.9-38-8.3
	c-5.4-1-10.7-1.7-16.1-2.4c-6.1-0.7-11.9-1.4-19.2-1.5c-6.8-0.1-12.9,0.5-26,1.8c-8.1,0.8-12.5,1.2-17.7,2
	c-9.3,1.4-15.2,2.8-22.5,4.7c-2.7,0.7-5.7,1.4-9.1,2.3c-22.8,5.5-39.3,9.4-59,7.8c-8.8-0.7-16.5-2.4-17.3-2.6
	c-15.7-3.5-23.9-7.1-26.6-8.5c-4.5-2.3-16.1-8.8-25.8-19.5c-1.5-1.7-3.2-3.8-3.8-4.4c-0.4-0.4-6.9-8.4-12.3-16.6
	c-18.9-29-21.9-60.4-22-61.8c-3-33.7,4.1-60.6,20.5-77.8C52.2,0.4,77.3-0.1,97.2,1.4c5.9,0.4,8.3,0.9,17.3,2.4
	c3.9,0.7,9,1.6,16.2,2.8c20.9,3.5,40.7,6.3,58.7,8.3c26.8,3,44.5,5,69.1,4.6c15-0.3,28.2-1.4,43.4-2.6c13.6-1.1,27.3-2.6,40.7-4.2
	c10.2-1.3,15.4-2.1,22.1-3.1c6-0.9,12.9-2,25.2-3.7c30-4.1,40.6-4.9,53.7-2.4c11.9,2.3,20.8,6.3,28,12.5c1.9,1.7,6.9,6.3,11.4,13.7
	c3.3,5.4,6,12.4,8.2,21.2l0,0c5.3,21.2,4,39.5,2.8,48.5c-1.2,9.1-3.2,15.8-4.3,19.8c-3.8,13.3-9.3,25.9-16.3,37.5
	c-4.8,8-10.8,18-21.4,27.6c-18.6,17.1-39.2,21.9-46,23.5C397.8,209.6,389.9,210.4,382.2,210.4z M255.8,183.8c0.5,0,1.1,0,1.7,0
	c7.6,0.1,13.8,0.8,19.8,1.5c5.5,0.6,10.9,1.4,16.5,2.4c13.9,2.5,28,5.9,38.4,8.4c3.5,0.8,6.5,1.6,8.8,2.1c19.6,4.4,39.9,9,63.7,3.4
	c6.4-1.5,25.8-6,43.2-22c9.9-9,15.6-18.6,20.2-26.2c6.7-11.1,12-23.3,15.7-36c1.2-4.1,3-10.4,4.1-19c1.2-8.6,2.4-25.9-2.6-46.1
	c-2-8.1-4.5-14.6-7.5-19.5c-4-6.6-8.4-10.7-10.2-12.2c-6.5-5.6-14.2-9-25.1-11.1C431,7.3,421.8,7.7,390.9,12
	c-12.3,1.7-19.1,2.8-25.1,3.7c-6.7,1-12,1.9-22.3,3.1c-13.5,1.7-27.3,3.1-41,4.3c-15.3,1.3-28.6,2.4-43.8,2.6
	c-25,0.4-42.9-1.6-69.8-4.6c-18.2-2-38.1-4.9-59.1-8.4c-7.2-1.2-12.4-2.1-16.3-2.8c-9-1.6-11.1-1.9-16.7-2.3
	c-18.6-1.4-41.8-1-56.4,14.2C25.3,37.7,18.8,62.9,21.6,94.8c0,0.3,3,31.2,21,58.9c5.1,7.8,11.7,15.8,11.8,15.9
	c0.6,0.7,2.2,2.7,3.7,4.3c8.9,9.9,19.7,16,24,18.1c2,1,9.7,4.6,25.2,8c0.8,0.2,8.1,1.7,16.5,2.4c18.7,1.5,34.8-2.3,57-7.6
	c3.4-0.8,6.3-1.6,9-2.2c7.6-1.9,13.5-3.4,23.2-4.8c5.3-0.8,9.8-1.2,18-2C242.3,184.5,249,183.8,255.8,183.8z M386.4,188
	c-0.5,0-1.1,0-1.6,0c-15.8-0.4-27.3-5.5-43.2-12.5c-4.2-1.8-12.7-6.3-29.7-15c-2.7-1.4-7.7-4-14.2-7.6c-4.4-2.5-6.9-4-8.8-5.2
	c-1.3-0.8-2.4-1.4-3.6-2.1c-11.2-6.1-22.4-6.6-27.8-6.8c-5.5-0.2-16.6,0.1-29.5,5c-5.3,2-8.1,3.7-13.3,6.8c-2.1,1.3-4.5,2.7-7.6,4.5
	c-0.1,0.1-13.1,7.5-33.1,16.7l-1.9,0.9c-15.2,7-38.2,17.7-61.9,13.3c-48.2-8.8-70.5-53-74.9-88.2c-1.8-14.2-0.2-26.5-0.1-27
	c0.2-2.6,0.7-7.6,3.2-13.1C43,47.6,51,39.6,55,36.5c5.5-4.2,12-7.5,18.6-9.4c14.3-4,26.5-1.1,40.6,2.2c1,0.2,2.8,0.8,5.7,1.7
	c3.1,1,7.5,2.3,13.5,4c2.3,0.7,5.5,1.7,9.3,2.9c5.4,1.7,12.2,3.9,18.9,5.9c12,3.4,24.1,6.3,32.2,8.2l2,0.5
	c13.7,3.3,50.1,11.9,93.9,5.6c38.5-5.5,69.3-17.1,69.6-17.2l0.8-0.3c5.6-2.1,17-6.1,29.9-9l0.9-0.2c19.3-4.4,26.5-6,36.2-4.9
	c5.6,0.6,16.6,2.9,26.9,11.3c12.4,10,16.5,22.1,17.5,25.6c7.7,27.7-4.5,61.1-7,67.5c-1.7,4.4-17.9,43.3-55.6,53.7
	C400.6,186.9,393.4,188,386.4,188z M255,132.5c1,0,2,0,2.8,0.1c5.9,0.2,18.1,0.7,30.5,7.5c1.3,0.7,2.4,1.4,3.8,2.2
	c1.8,1.1,4.3,2.6,8.6,5.1c6.3,3.6,11.3,6.1,14,7.5c16.9,8.7,25.4,13.1,29.4,14.9c15.8,7,26.3,11.7,40.9,12c6.9,0.2,14-0.8,22.4-3.2
	c34.7-9.7,49.9-45.9,51.5-50c2.4-6.1,13.9-37.7,6.8-63.6c-0.6-2.2-4.1-13.4-15.4-22.4c-9.1-7.3-18.7-9.4-23.7-9.9
	c-8.6-1-15.6,0.6-34.2,4.8l-0.9,0.2c-12.6,2.8-23.6,6.7-29.1,8.8l-0.8,0.3c-0.3,0.1-31.8,12-70.9,17.5c-44.9,6.4-82.2-2.4-96.2-5.8
	l-2-0.5c-8.2-1.9-20.4-4.8-32.5-8.3c-6.9-2-13.7-4.2-19.1-5.9c-3.7-1.2-6.8-2.2-9.1-2.9c-6-1.8-10.4-3.1-13.6-4.1
	c-2.6-0.8-4.3-1.3-5.3-1.6c-13.8-3.3-24.7-5.9-37.5-2.3c-5.9,1.7-11.6,4.6-16.5,8.3c-3.3,2.6-10.7,9.8-14.7,18.8
	c-2,4.5-2.4,8.9-2.6,11.2C41.4,72,39.9,83.5,41.6,97c4.1,33.1,24.9,74.6,69.8,82.8c21.7,4,42.8-5.8,58.1-12.9l2-0.9
	c19.7-9.1,32.4-16.4,32.6-16.4c3-1.7,5.4-3.2,7.5-4.4c5.3-3.2,8.5-5.1,14.3-7.3C237.9,133.4,248.5,132.5,255,132.5z"/>
<polygon fill="#0E0E0E" points="493.6,259 16.3,259 16.3,225.1 19.4,225.1 19.4,255.9 490.5,255.9 490.5,227 493.6,227 "/>
<g>
	<path fill="#0E0E0E" d="M216,272.3v2.3h-0.5c-2.1,0-3.8,0.7-5,1.9s-2,2.9-2.2,5.1c1.1-1.3,2.7-1.9,4.6-1.9c1.9,0,3.3,0.7,4.4,2
		c1.1,1.3,1.7,3,1.7,5.1c0,2.2-0.6,4-1.8,5.3s-2.8,2-4.8,2c-2,0-3.7-0.8-5-2.4c-1.3-1.6-1.9-3.6-1.9-6.1v-1c0-3.9,0.8-6.9,2.5-9
		s4.2-3.1,7.5-3.2H216z M212.4,281.9c-0.9,0-1.8,0.3-2.6,0.8s-1.3,1.3-1.6,2.1v1c0,1.8,0.4,3.2,1.2,4.2s1.8,1.6,3,1.6
		c1.2,0,2.2-0.4,2.9-1.3s1-2.1,1-3.5c0-1.5-0.4-2.6-1.1-3.6C214.6,282.4,213.6,281.9,212.4,281.9z"/>
	<path fill="#0E0E0E" d="M232.6,284.3c-0.6,0.7-1.2,1.2-2,1.6s-1.6,0.6-2.6,0.6c-1.2,0-2.3-0.3-3.2-0.9s-1.6-1.5-2.1-2.6
		c-0.5-1.1-0.7-2.3-0.7-3.6c0-1.4,0.3-2.7,0.8-3.9c0.5-1.1,1.3-2,2.3-2.6s2.2-0.9,3.5-0.9c2.1,0,3.8,0.8,5,2.4
		c1.2,1.6,1.8,3.7,1.8,6.5v0.8c0,4.2-0.8,7.2-2.5,9.1s-4.1,2.9-7.4,2.9h-0.5v-2.3h0.6c2.2,0,4-0.6,5.2-1.7
		C231.8,288.5,232.5,286.7,232.6,284.3z M228.4,284.3c0.9,0,1.7-0.3,2.5-0.8c0.8-0.6,1.3-1.2,1.7-2.1v-1.1c0-1.8-0.4-3.2-1.2-4.3
		s-1.7-1.7-2.9-1.7c-1.2,0-2.1,0.5-2.9,1.4c-0.7,0.9-1.1,2.1-1.1,3.6c0,1.5,0.3,2.7,1,3.6C226.3,283.8,227.3,284.3,228.4,284.3z"/>
	<path fill="#0E0E0E" d="M252.4,284.6c0,3.2-0.5,5.5-1.6,7.1s-2.8,2.3-5.1,2.3c-2.3,0-4-0.8-5.1-2.3c-1.1-1.5-1.7-3.8-1.7-6.8v-3.6
		c0-3.1,0.5-5.5,1.6-7s2.8-2.3,5.1-2.3c2.3,0,4,0.7,5.1,2.2s1.6,3.7,1.7,6.8V284.6z M249.7,280.9c0-2.3-0.3-4-1-5
		c-0.6-1-1.7-1.6-3.1-1.6c-1.4,0-2.4,0.5-3,1.6s-1,2.7-1,4.8v4.3c0,2.3,0.3,4,1,5.1c0.7,1.1,1.7,1.6,3,1.6c1.3,0,2.3-0.5,3-1.6
		s1-2.7,1-4.9V280.9z"/>
	<path fill="#0E0E0E" d="M272.7,290.1l5.4-12.3h3.4v15.8h-2.7v-11.5l-5.1,11.5h-1.9l-5.2-11.8v11.8h-2.7v-15.8h3.5L272.7,290.1z"/>
	<path fill="#0E0E0E" d="M295,290.1l5.4-12.3h3.4v15.8h-2.7v-11.5l-5.1,11.5h-1.9l-5.2-11.8v11.8h-2.7v-15.8h3.5L295,290.1z"/>
</g>
</svg>
