<?xml version="1.0" encoding="utf-8"?>
<!-- Generator: Adobe Illustrator 23.0.2, SVG Export Plug-In . SVG Version: 6.00 Build 0)  -->
<svg version="1.1" id="Слой_1" xmlns="http://www.w3.org/2000/svg" xmlns:xlink="http://www.w3.org/1999/xlink" x="0px" y="0px"
	 viewBox="0 0 510.3 294.8" style="enable-background:new 0 0 510.3 294.8;" xml:space="preserve">
<style type="text/css">
	.st0{fill:none;}
	.st1{fill:#AE8469;}
	.st2{fill:#FFFFFF;}
	.st3{fill-rule:evenodd;clip-rule:evenodd;fill:#AE8469;}
</style>
<rect x="0.7" class="st0" width="509.9" height="294.8"/>
<g>
	<path class="st1" d="M301.2,80.7h-87.1c5.6-19.9,11.2-39.9,16.9-59.8l0,0c18.7,0,48.8,0,53.5,0C289.7,38.1,295.9,59.9,301.2,80.7z"
		/>
	<path class="st1" d="M257.6,11.4c4.9,0,8.8,4,8.8,8.9c2.3,0,4.5,0,6.5,0c0-8.5-6.9-15.4-15.4-15.4s-15.4,6.9-15.4,15.4
		c2.2,0,4.3,0,6.5,0C248.8,15.4,252.7,11.4,257.6,11.4z"/>
	<g>
		<path class="st2" d="M241.3,55.4h-2v-9.3c0-0.5,0-0.9,0-1.3c0-0.4,0-0.8,0.1-1.2c-0.2,0.2-0.3,0.4-0.5,0.5
			c-0.2,0.2-0.4,0.3-0.6,0.5l-1.5,1.2l-1.1-1.3l4-3.1h1.7V55.4z"/>
		<path class="st2" d="M250.7,46.7c1.4,0,2.5,0.4,3.3,1.1c0.8,0.7,1.3,1.7,1.3,3.1c0,1.5-0.5,2.6-1.4,3.5c-0.9,0.8-2.2,1.3-3.9,1.3
			c-0.7,0-1.4-0.1-2-0.2c-0.6-0.1-1.2-0.3-1.6-0.6v-1.9c0.5,0.3,1,0.5,1.7,0.7c0.7,0.2,1.3,0.3,1.9,0.3c1,0,1.8-0.2,2.3-0.7
			c0.6-0.4,0.9-1.2,0.9-2.1c0-0.8-0.3-1.5-0.8-1.9c-0.5-0.5-1.4-0.7-2.5-0.7c-0.4,0-0.8,0-1.2,0.1c-0.4,0.1-0.8,0.1-1.1,0.2l-1-0.6
			l0.5-6.8h7.2v1.8H249l-0.3,3.7c0.2,0,0.5-0.1,0.8-0.1C249.8,46.7,250.2,46.7,250.7,46.7z"/>
		<path class="st2" d="M269.4,44.8h2.3l-4.4,5.1l4.8,5.5h-2.4l-4.6-5.3v5.3H263V44.8h2.1v5.1L269.4,44.8z"/>
		<path class="st2" d="M280.5,44.8v1.7h-4.6v8.9h-2.1V44.8H280.5z"/>
	</g>
	<path class="st1" d="M379.8,282.2L379.8,282.2c-15.3,0-29-3.1-42.3-6.1c-2.4-0.5-5.4-1.3-8.9-2.1c-10.3-2.5-24.4-5.9-38.1-8.3
		c-5.3-1-10.8-1.8-16.2-2.4c-6.2-0.7-12-1.4-19.3-1.5l-1.6,0c-6.3,0-12.4,0.6-24.6,1.8c-8.1,0.8-12.6,1.3-17.8,2
		c-9.4,1.4-15.3,2.9-22.7,4.8c-2.7,0.7-5.7,1.5-9.1,2.3c-22.5,5.4-39.5,9.4-58.5,7.8c-8.7-0.7-16.3-2.4-17.1-2.5
		c-15.6-3.5-23.5-7-26.3-8.4c-4.5-2.3-15.8-8.7-25.3-19.2c-1.6-1.7-3.4-4-3.8-4.5c-0.1-0.1-6.8-8.3-12.1-16.4
		c-18.7-28.8-21.7-61-21.7-61.3c-2.9-33.4,4-60,20.1-76.9c10.2-10.8,26-16.3,47-16.3c4.9,0,9.4,0.3,13.1,0.6
		c5.8,0.4,8.2,0.9,17.1,2.4c3.9,0.7,9,1.6,16.2,2.8c21,3.5,40.8,6.4,58.8,8.4c26.3,3,44.6,5,69.3,4.6c15.1-0.3,28.3-1.4,43.5-2.6
		c13.5-1.1,27.3-2.6,40.8-4.3c10.2-1.3,15.4-2.1,22.1-3.1c6-0.9,12.9-2,25.3-3.7c18.1-2.5,29.7-3.9,38.6-3.9c5.1,0,9.5,0.4,14.6,1.4
		c11.8,2.3,20.2,6,27.3,12.2c1.9,1.6,6.7,6.2,11.1,13.4c1.2,2,4.8,7.9,8,20.9c5.2,21.1,3.9,39.2,2.7,48.1c-1.2,9-3.1,15.4-4.3,19.7
		c-3.8,13.3-9.2,25.8-16.1,37.3c-4.8,8-10.7,17.9-21.1,27.4c-18.3,16.9-38.6,21.6-45.3,23.2C395.6,281.3,387.9,282.2,379.8,282.2z
		 M253.4,258.6l1.6,0c7.5,0.1,13.4,0.8,19.6,1.5c5.5,0.6,11,1.5,16.4,2.4c13.8,2.5,27.9,5.9,38.3,8.4c3.5,0.8,6.5,1.6,8.9,2.1
		c13.1,3,26.6,6,41.6,6c7.9,0,15.3-0.8,22.8-2.6c6.5-1.5,26.2-6.1,43.9-22.5c10-9.2,15.8-18.9,20.5-26.7
		c6.8-11.3,12.1-23.6,15.8-36.6c1.2-4.2,3-10.5,4.2-19.3c1.2-8.7,2.4-26.4-2.7-46.9c-3.1-12.5-6.5-18.1-7.7-20
		c-4.1-6.8-8.7-11.1-10.5-12.7c-6.7-5.8-14.6-9.3-25.8-11.5c-4.9-0.9-9.1-1.3-14-1.3c-8.8,0-20.6,1.4-38.2,3.8
		c-12.3,1.7-19.2,2.8-25.2,3.7c-6.7,1-12,1.9-22.2,3.2c-13.5,1.7-27.3,3.1-40.9,4.3c-15.3,1.3-28.5,2.4-43.7,2.6
		c-24.9,0.4-43.2-1.6-69.7-4.6c-18.1-2-38-4.9-59-8.4c-7.2-1.2-12.4-2.1-16.3-2.8c-9-1.6-11.2-1.9-16.8-2.4c-3.7-0.3-8-0.6-12.9-0.6
		c-20.3,0-34.9,5-44.7,15.3c-15.4,16.3-22.1,42-19.2,74.5c0,0.3,3,31.7,21.3,59.9c5.2,8,11.8,16,11.9,16.1c0.4,0.5,2.2,2.7,3.7,4.4
		c9.1,10.2,20.1,16.4,24.4,18.5c2.6,1.3,10.3,4.8,25.5,8.1c0.8,0.2,8.2,1.8,16.7,2.5c2.9,0.2,5.7,0.4,8.6,0.4
		c14.6,0,28.1-3.1,48.9-8.1c3.4-0.8,6.3-1.6,9-2.3c7.5-1.9,13.4-3.4,23-4.8c5.2-0.8,9.7-1.2,17.9-2
		C240.7,259.2,246.9,258.6,253.4,258.6z M383.9,259.7c-0.5,0-1,0-1.5,0c-15.5-0.4-26.9-5.4-42.6-12.4c-4.1-1.8-12.6-6.3-29.6-15.1
		c-2.7-1.4-7.7-4-14.1-7.6c-4.4-2.5-6.9-4-8.7-5.2c-1.4-0.8-2.4-1.5-3.6-2.1c-11.5-6.3-23-6.8-28.5-7c-0.6,0-1.5-0.1-2.6-0.1
		c-6.3,0-16.3,0.9-27.5,5.1c-5.4,2.1-8.5,3.9-13.6,7c-2.1,1.3-4.5,2.7-7.5,4.5c-0.1,0.1-13,7.5-32.9,16.7l-1.9,0.9
		c-13,6-30.7,14.3-49.8,14.3c-3.8,0-7.6-0.3-11.2-1c-47.4-8.7-69.3-52.4-73.6-87.3c-1.8-14.4-0.1-26.7-0.1-26.8
		c0.2-2.6,0.7-7.4,3-12.7c4.4-9.8,12.2-17.6,16.1-20.6c5.4-4.2,11.6-7.3,18.1-9.2c4.5-1.3,9.1-1.9,13.9-1.9c8.5,0,17,2,25.9,4.2
		c1,0.2,2.8,0.8,5.5,1.6c3.1,1,7.5,2.3,13.5,4.1c2.3,0.7,5.5,1.7,9.3,2.9c5.4,1.8,12.2,3.9,18.9,5.9c13.5,3.9,27.7,7.2,32.3,8.3
		l2,0.5c10.8,2.6,33.4,7.9,62.6,7.9c10.8,0,21.5-0.8,31.9-2.2c38.6-5.5,69.6-17.2,69.9-17.4l0.8-0.3c5.6-2.1,16.8-6.1,29.7-9
		l0.9-0.2c19-4.3,26.1-6,35.7-4.9c5.5,0.6,16.1,2.9,26.1,11c9.6,7.8,15,18,16.9,24.9c7.5,27.4-4.5,60.5-6.9,66.8
		c-1.7,4.3-17.7,42.7-54.6,53C397.8,258.6,390.8,259.7,383.9,259.7z M252.6,207c1.2,0,2.1,0,2.7,0.1c5.8,0.2,17.7,0.7,29.8,7.4
		c1.3,0.7,2.3,1.4,3.7,2.2c1.9,1.1,4.3,2.6,8.7,5.1c6.4,3.6,11.3,6.2,14,7.6c16.9,8.8,25.4,13.2,29.4,15
		c15.4,6.9,26.6,11.8,41.4,12.2c7.1,0.2,14.3-0.9,22.8-3.2c35.5-9.9,50.9-47,52.5-51.2c2.4-6.2,14.1-38.4,6.8-64.8
		c-0.6-2.2-4.3-13.9-15.9-23.3c-9.4-7.6-19.4-9.7-24.5-10.3c-9.1-1-16,0.6-34.6,4.9l-0.9,0.2c-12.7,2.9-23.8,6.8-29.3,8.9l-0.8,0.3
		c-0.3,0.1-31.6,12-70.6,17.5c-10.5,1.5-21.4,2.3-32.3,2.3c-29.6,0-53.3-5.6-63.3-8l-2-0.5c-4.7-1.1-18.9-4.4-32.5-8.3
		c-6.8-2-13.6-4.2-19-5.9c-3.7-1.2-6.9-2.2-9.2-2.9c-6-1.8-10.4-3.1-13.6-4.1c-2.7-0.8-4.4-1.4-5.3-1.6c-9.1-2.2-17-4.1-25.2-4.1
		c-4.5,0-8.8,0.6-13,1.8c-6.1,1.7-12,4.7-17.1,8.6c-3.7,2.9-11,10.2-15.2,19.4c-2.1,4.8-2.5,9.3-2.8,11.8c0,0.2-1.6,12.2,0.1,26
		c4.2,33.8,25.3,76.2,71.1,84.6c3.4,0.6,7,0.9,10.6,0.9c18.3,0,35.8-8.1,48.5-14l1.9-0.9c19.8-9.2,32.6-16.5,32.7-16.6
		c3-1.8,5.4-3.2,7.5-4.4c5.2-3.2,8.4-5.1,14.1-7.2C235.7,207.9,246,207,252.6,207z"/>
	<g id="Слой_x0020_1_1_">
		<path class="st1" d="M245,246.5c-0.1,0.1-0.3,0.2-0.7,0.4c-0.4,0.2-0.7,0.4-0.9,0.6c-0.2,0.2-0.4,0.6-0.6,1.1
			c-0.1,0.5-0.2,1-0.2,1.6c0,0.7,0.1,1.2,0.4,1.7c0.3,0.4,0.7,0.6,1.1,0.6c0.1,0,0.2,0,0.3-0.1c0.1,0,0.2,0,0.2-0.1
			c0.1,0,0.2,0.1,0.2,0.2c0.1,0.1,0.1,0.1,0.1,0.2c0,0,0,0.1,0,0.1c0,0,0,0.1-0.1,0.1c-0.1,0.1-0.3,0.2-0.4,0.3
			c-0.1,0.1-0.3,0.1-0.5,0.1c-0.8,0-1.4-0.3-1.9-0.9c-0.5-0.6-0.7-1.3-0.7-2.3c0-1.1,0.3-2.1,0.8-2.7c0.5-0.7,1.4-1.2,2.5-1.4
			c0.1,0,0.2,0.1,0.3,0.2C244.9,246.3,245,246.4,245,246.5L245,246.5L245,246.5z M245.7,253.1c0-0.4,0-0.8,0.1-1.1
			c0-0.3,0-0.6,0-0.8c0-0.6,0-1.1,0-1.6c0-0.5-0.1-1-0.1-1.4c0.1-0.1,0.2-0.1,0.4-0.2c0.1,0,0.3-0.1,0.5-0.1
			c0.2,0.1,0.3,0.2,0.3,0.3c0.1,0.1,0.1,0.4,0.1,0.7c0.3-0.2,0.6-0.4,0.8-0.5c0.2-0.1,0.4-0.2,0.6-0.3c0.2,0,0.3,0.1,0.4,0.2
			c0.1,0.1,0.2,0.2,0.2,0.4c-0.3,0.1-0.7,0.3-1,0.5c-0.3,0.2-0.6,0.4-0.9,0.6c0,0.3,0,0.6,0,0.9c0,0.3,0,0.6,0,0.9
			c0,0.2,0,0.4,0,0.7c0,0.3,0,0.6,0,0.9l-0.2,0.2c0,0-0.1,0-0.2,0c-0.1,0-0.1,0-0.2,0c-0.2,0-0.3,0-0.4,0
			C245.9,253.2,245.8,253.2,245.7,253.1L245.7,253.1z M251.4,252.4c0-0.3,0-0.6,0-0.9c0-0.3,0-0.6,0-0.9c0,0-0.1,0-0.1,0
			c0,0-0.1,0-0.1,0c-0.3,0-0.5,0.1-0.6,0.2c-0.1,0.1-0.2,0.4-0.2,0.6c0,0.4,0.1,0.6,0.2,0.7c0.1,0.1,0.3,0.2,0.6,0.2
			c0,0,0.1,0,0.3,0C251.4,252.4,251.4,252.4,251.4,252.4z M249.8,248.9L249.8,248.9c-0.2,0-0.3,0-0.4-0.1c-0.1-0.1-0.2-0.2-0.2-0.3
			c0,0,0,0,0,0c0,0,0,0,0.1-0.1c0.3-0.1,0.6-0.2,0.9-0.3c0.3-0.1,0.6-0.2,0.9-0.3c0.6,0.1,1,0.3,1.2,0.6c0.2,0.3,0.3,1.2,0.3,2.4
			c0,0.4,0,1.1-0.1,2.1c0,0.1,0,0.2,0,0.2c-0.1,0-0.2,0-0.3,0.1c-0.1,0-0.1,0-0.2,0c-0.1,0-0.2,0-0.2,0c-0.1,0-0.2,0-0.2-0.1
			l-0.1-0.2c-0.2,0.1-0.4,0.1-0.6,0.1c-0.2,0-0.4,0.1-0.5,0.1c-0.4,0-0.7-0.1-0.9-0.4c-0.2-0.3-0.3-0.6-0.3-1.2
			c0-0.6,0.2-1.1,0.5-1.3c0.3-0.3,0.8-0.4,1.5-0.4h0.2c0-0.4-0.1-0.7-0.2-0.9c-0.1-0.2-0.3-0.4-0.5-0.4c0,0-0.1,0-0.2,0
			c-0.1,0-0.1,0-0.2,0.1L249.8,248.9L249.8,248.9z M256.5,252.4c0.2,0.1,0.3,0.1,0.3,0.2c0.1,0.1,0.1,0.2,0.1,0.2c0,0,0,0.1-0.1,0.2
			c0,0,0,0,0,0c-0.2,0.1-0.5,0.1-0.7,0.1c-0.2,0-0.5,0-0.7,0c-0.2,0-0.5,0-0.9-0.1c-0.3,0-0.7-0.1-1.1-0.2c0-0.1-0.1-0.1-0.1-0.2
			c0-0.1,0-0.1,0-0.2c0,0,0-0.1,0-0.1c0,0,0,0,0-0.1l1.9-3.8c-0.1,0-0.1,0-0.2,0c-0.1,0-0.2,0-0.2,0c-0.1,0-0.3,0-0.5,0
			c-0.2,0-0.4,0-0.6-0.1c0-0.1-0.1-0.2-0.1-0.3c0-0.1,0-0.2,0-0.2c0,0,0-0.1,0-0.1c0,0,0.1-0.1,0.2-0.1c0.2,0,0.3,0.1,0.5,0.1
			c0.2,0,0.4,0,0.6,0c0.2,0,0.5,0,0.7,0c0.2,0,0.4,0,0.6-0.1c0.1,0,0.3,0.1,0.3,0.2c0.1,0.1,0.1,0.2,0.2,0.3
			c-0.4,0.9-0.8,1.7-1.1,2.3c-0.3,0.6-0.6,1.2-0.8,1.7c0.1,0,0.2,0,0.3,0c0.1,0,0.2,0,0.3,0c0.2,0,0.3,0,0.5,0
			C256,252.5,256.2,252.4,256.5,252.4L256.5,252.4z M258.4,253c-0.2-0.8-0.3-1.7-0.6-2.5c-0.2-0.8-0.5-1.6-0.7-2.3
			c0.1-0.1,0.2-0.1,0.4-0.1c0.1,0,0.3,0,0.5,0c0.1,0,0.2,0,0.2,0c0.1,0,0.1,0,0.2,0c0.1,0.5,0.3,1,0.4,1.6c0.1,0.6,0.2,1.2,0.3,1.8
			c0.2-0.5,0.3-1.1,0.5-1.7c0.1-0.6,0.3-1.2,0.3-1.8c0.1,0,0.2,0,0.3,0c0.1,0,0.1,0,0.1,0c0.1,0,0.2,0,0.3,0c0.1,0,0.3,0.1,0.4,0.1
			c-0.3,1.3-0.7,2.6-1.1,3.8c-0.4,1.2-0.9,2.3-1.5,3.4h-0.1c-0.2,0-0.4,0-0.6-0.1c-0.2-0.1-0.4-0.1-0.5-0.3c0.2-0.2,0.4-0.5,0.6-0.8
			C258,253.8,258.2,253.4,258.4,253L258.4,253z M267.6,246.5c-0.1,0.1-0.3,0.2-0.7,0.4c-0.4,0.2-0.7,0.4-0.9,0.6
			c-0.2,0.2-0.4,0.6-0.6,1.1c-0.1,0.5-0.2,1-0.2,1.6c0,0.7,0.1,1.2,0.4,1.7c0.3,0.4,0.7,0.6,1.1,0.6c0.1,0,0.2,0,0.3-0.1
			c0.1,0,0.2,0,0.2-0.1c0.1,0,0.2,0.1,0.2,0.2c0.1,0.1,0.1,0.1,0.1,0.2c0,0,0,0.1,0,0.1c0,0,0,0.1-0.1,0.1c-0.1,0.1-0.3,0.2-0.4,0.3
			c-0.1,0.1-0.3,0.1-0.5,0.1c-0.8,0-1.4-0.3-1.9-0.9c-0.5-0.6-0.7-1.3-0.7-2.3c0-1.1,0.3-2.1,0.8-2.7c0.5-0.7,1.4-1.2,2.5-1.4
			c0.1,0,0.2,0.1,0.3,0.2C267.6,246.3,267.6,246.4,267.6,246.5L267.6,246.5L267.6,246.5z M270.4,252.4c0-0.3,0-0.6,0-0.9
			c0-0.3,0-0.6,0-0.9c0,0-0.1,0-0.1,0c0,0-0.1,0-0.1,0c-0.3,0-0.5,0.1-0.6,0.2c-0.1,0.1-0.2,0.4-0.2,0.6c0,0.4,0.1,0.6,0.2,0.7
			c0.1,0.1,0.3,0.2,0.6,0.2c0,0,0.1,0,0.3,0C270.4,252.4,270.4,252.4,270.4,252.4z M268.8,248.9L268.8,248.9c-0.2,0-0.3,0-0.4-0.1
			c-0.1-0.1-0.2-0.2-0.2-0.3c0,0,0,0,0,0c0,0,0,0,0.1-0.1c0.3-0.1,0.6-0.2,0.9-0.3c0.3-0.1,0.6-0.2,0.9-0.3c0.6,0.1,1,0.3,1.2,0.6
			c0.2,0.3,0.3,1.2,0.3,2.4c0,0.4,0,1.1-0.1,2.1c0,0.1,0,0.2,0,0.2c-0.1,0-0.2,0-0.3,0.1c-0.1,0-0.2,0-0.2,0c-0.1,0-0.2,0-0.2,0
			c-0.1,0-0.2,0-0.2-0.1l-0.1-0.2c-0.2,0.1-0.4,0.1-0.6,0.1c-0.2,0-0.4,0.1-0.5,0.1c-0.4,0-0.7-0.1-0.9-0.4
			c-0.2-0.3-0.3-0.6-0.3-1.2c0-0.6,0.2-1.1,0.5-1.3c0.3-0.3,0.8-0.4,1.5-0.4h0.2c0-0.4-0.1-0.7-0.2-0.9c-0.1-0.2-0.3-0.4-0.5-0.4
			c0,0-0.1,0-0.2,0c-0.1,0-0.1,0-0.2,0.1L268.8,248.9L268.8,248.9z M274.1,247.1c0,0.1,0,0.1,0.1,0.2c0,0.1,0,0.1,0,0.2v0.4
			c0,0,0,0,0,0c0,0,0,0.1,0,0.1c0.2,0,0.4,0,0.6,0c0.2,0,0.5,0,0.8-0.1c0.1,0.1,0.2,0.2,0.3,0.2c0.1,0.1,0.1,0.2,0.1,0.3
			c-0.2,0.1-0.4,0.1-0.6,0.1c-0.2,0-0.6,0.1-1.1,0.1c0,0.5-0.1,1-0.1,1.4c0,0.5,0,0.9,0,1.3c0,0.5,0,0.8,0.1,0.9
			c0.1,0.1,0.2,0.2,0.4,0.2c0.1,0,0.2,0,0.3,0c0.1,0,0.2,0,0.3-0.1c0.1,0,0.1,0.1,0.1,0.1c0,0,0,0.1,0,0.1c0,0.1,0,0.1-0.1,0.2
			c0,0.1-0.1,0.1-0.2,0.2c-0.3,0.1-0.5,0.1-0.6,0.2c-0.2,0-0.3,0-0.5,0c-0.4,0-0.7-0.1-0.9-0.3c-0.2-0.2-0.3-0.6-0.3-1.1
			c0-0.3,0-0.6,0.1-1.2c0-0.5,0.1-0.9,0.1-1.2c0-0.2,0-0.4,0-0.5c0-0.1,0-0.2,0-0.3c-0.1,0-0.2,0-0.3-0.1c-0.1,0-0.2-0.1-0.3-0.1v0
			c0-0.1,0-0.2,0.1-0.2c0-0.1,0.1-0.2,0.2-0.2l0.5,0l0.1-0.9c0.1-0.1,0.2-0.1,0.3-0.1c0.1,0,0.2,0,0.3,0c0.1,0,0.1,0,0.2,0
			C273.9,247.1,274,247.1,274.1,247.1L274.1,247.1z"/>
		<path class="st3" d="M258.3,223.8c0.9,0,1.2,0,1.9,0.3c0.3-1.7,0.6-3.5-0.1-4.8c-0.2-0.3-0.6-0.5-0.5-1c0-0.1-0.1-0.3,0-0.3
			c0,0,0.4,0.2,0.5,0c0.2-0.2,0-0.5,0.2-0.6c0.1-0.1,0.1-0.2,0.2-0.2c0-0.1,0.1,0.1,0.2,0.2c0.3,0,0.3,0.3,0.5,0.4
			c0.2,0.1,0.4-0.4,0.7-0.3c0.1,0,0.1,0,0.2-0.1c0.1-0.1,0.1,0.1,0.2,0.2c0.2,0.2,0,0.4,0.1,0.6c0.1,0.1,0.2,0,0.4,0
			c0.1,0,0.1,0,0.2,0c0,0.1,0,0.2,0,0.3c0.2,0.3-0.4,0.7-0.8,1.2c-0.8,0.8-0.7,3.9-0.6,5.1c0.3,0.1,0.2,0.1,0.5,0.3
			c1.5-0.4,2.8-0.9,4.3-1.5c0.7-0.3,0.6,0.4,0.2,0.5c-1.3,0.6-2.7,0.8-4.2,1.2c0.1,0.1,0.1,0.1,0.2,0.2c1,0,2.1-0.1,3.3-0.2
			c0.4,0,0.4,0.4,0.1,0.4c-1.2,0-2.3,0-3.2,0c0.1,0.1,0.2,0.2,0.3,0.4c1.4,0.2,2.9,0.3,4.3,0.5c0.4,0.1,0.3,0.6-0.1,0.5
			c-1.2-0.3-2.9-0.7-4.1-0.8c0.3,0.5,0.2,1.2,0.2,2c0,1.1,0.6,1.3,0.5,3.3c-1.2-0.1-1.2-0.2-2.1-0.5c0.2,1.9,0.9,4.2,1.5,6.1
			c0.4,1.3,2.2-1.4,2.3-2c0.1-0.5-1-0.9-0.9-1.6c0-0.1,0-0.5,0.1-0.5c0,0,0.4,0.2,0.6,0c0.2-0.2,0.1-0.7,0.4-0.9
			c0.1-0.1,0.1-0.2,0.2-0.3c0-0.1,0.1,0.2,0.2,0.2c0.3,0.1,0.3,0.1,0.5,0.4c0.2,0.2,0.1-0.2,0.7-0.2c0.1,0,0.1,0,0.3-0.1
			c0.1-0.1,0.1,0.2,0.2,0.3c0.2,0.3-0.1,1,0.3,1.1c0.1,0,0.1-0.1,0.2-0.2c0,0.1,0,0.1,0,0.2c0,0.2,0,0.3,0,0.4
			c-0.1,0.8-1.1,0.7-1.7,1.7c-2.3,4-3.8,7-7.8,7.6c0.2,0.1,0.6,0.2,1.2,0.1c2.8-0.1,7.8-4.9,9.1-1.4c0.1,0.2,0.1,0.5,0,0.8
			c-0.2,0.5-0.8,0.8-1.2-0.3c-0.2-0.6-1.5-0.6-2.1-0.4c-3.4,1.3-6.5,3.1-8.3,1.2c-5.2-1.2-5-3.8-7.8-7.3c-0.8-1-1.6-0.6-1.7-1.3
			c0-0.1,0-0.2,0-0.4c0-0.1,0-0.2,0-0.2c0.2,0.1,0.1,0.1,0.3,0.1c0.4-0.1,0.1-0.8,0.2-1.1c0.1-0.1,0-0.4,0.1-0.3
			c0.1,0.1,0.1,0.1,0.3,0.1c0.5,0,0.7,0.4,0.8,0.2c0.2-0.3,0.3-0.4,0.5-0.5c0.1,0,0.2-0.3,0.2-0.2c0,0.1,0.1,0.2,0.2,0.3
			c0.2,0.2,0.2,0.6,0.4,0.9c0.1,0.1,0.1,0.1,0.3,0.1c0,0,0,0,0,0l0,0c0.1-0.1,0.2-0.1,0.2-0.1c0.1,0,0,0.3,0,0.4
			c0.1,0.7-0.8,1.4-0.7,1.9c0.2,0.6,2,3,2.5,1.1c0.8-2.8,0.6-5.1,0.7-6.2c-0.9,0.2-1.1,0.3-2.4,0.5c-0.1-1.7,1-2.5,1-3.7
			c0-0.3,0.1-0.6,0.2-0.9c-1.1,0.1-2.8,0.1-4.1,0.3c-0.4,0.1-0.6-0.5-0.2-0.6c1.6,0,3.1,0,4.4,0c0.1-0.1,0.2-0.3,0.3-0.4
			c-1-0.1-2-0.2-3-0.3c-0.4-0.1-0.1-0.5,0.2-0.4c1.2,0.3,2,0.5,2.9,0.5c0,0,0.1-0.1,0.1-0.1c-1.3-0.5-2.6-0.7-3.8-1.2
			c-0.3-0.1-0.5-0.7,0.2-0.5c1.3,0.5,2.5,1,3.8,1.6c0.3-0.2,0.4-0.3,0.7-0.5c-0.1-0.3,0.3-3.9-0.6-4.9c-0.4-0.4-1-0.8-0.8-1.1
			c0-0.1,0-0.2,0-0.3c0.1,0,0.1,0,0.2,0c0.1,0,0.3,0.1,0.3,0c0.1-0.3-0.1-0.4,0.1-0.7c0.1-0.1,0-0.3,0.1-0.2
			c0.1,0.1,0.1,0.1,0.2,0.1c0.3,0,0.5,0.4,0.7,0.3c0.2-0.2,0.2-0.4,0.5-0.4c0.1,0,0.2-0.2,0.2-0.2c0,0.1,0.1,0.2,0.2,0.2
			c0.2,0.2,0.1,0.4,0.3,0.6c0.2,0.2,0.5-0.1,0.5,0c0.1,0,0,0.2,0,0.3c0.1,0.5-0.2,0.7-0.4,1c-0.7,1.3-0.3,3.5,0,4.7
			C256.9,224,257.3,223.8,258.3,223.8L258.3,223.8z M247.9,232.7c0.1,0.7-0.3,1.4-0.3-0.4c0-0.5,0.1-2.4,0.2-1.8
			C247.9,231.3,247.8,231.9,247.9,232.7L247.9,232.7z M250.4,228.7c-0.3-1.3,0,6.5,0.3,1.9C250.7,230,250.5,229.2,250.4,228.7z
			 M251.4,232.6c-0.1,0.5,0.3,1.1,0.3-0.3c0-0.4-0.1-1.9-0.2-1.4C251.4,231.5,251.4,232,251.4,232.6z M249.1,230.7
			c-0.1,1.4-0.1,2-0.4,0.7c-0.1-0.4,0-3,0.1-2.8C249,228.8,249.2,229.2,249.1,230.7L249.1,230.7z M268.5,232.1
			c-0.1,0.7,0.3,1.4,0.3-0.4c0-0.5-0.1-2.4-0.2-1.8C268.5,230.7,268.5,231.3,268.5,232.1z M266.1,227.9c0.3-1.3,0,6.5-0.3,1.9
			C265.8,229.2,266,228.3,266.1,227.9z M265,231.6c0.1,0.8-0.3,1.5-0.3-0.4c0-0.5,0.1-2.6,0.2-1.9C265,230.1,265,230.8,265,231.6z
			 M267.5,230.1c0.1,1.7,0.1,2.4,0.4,0.9c0.1-0.5,0-3.5-0.1-3.3C267.6,227.9,267.4,228.4,267.5,230.1z M263.3,216.1
			c-0.1,0.8,0.3,1.6,0.3-0.4c0-0.5-0.1-2.7-0.2-2C263.3,214.5,263.3,215.2,263.3,216.1z M259,213.4c-0.4-1.3,0.4,6.9,0.4,2
			C259.4,214.7,259.1,213.8,259,213.4z M260.7,215c0.1,0.8-0.3,1.7-0.3-0.5c0-0.6,0.1-2.9,0.2-2.2
			C260.7,213.3,260.7,214.1,260.7,215z M262.1,214.6c0.1,2,0,2.8,0.3,1c0.1-0.6,0.1-4.2-0.1-3.9C262.2,212,262,212.6,262.1,214.6z
			 M256.8,216.5c-0.1,0.8,0.3,1.6,0.3-0.4c0-0.5-0.1-2.7-0.2-2C256.8,214.9,256.8,215.7,256.8,216.5L256.8,216.5z M253.8,213.4
			c-0.4-1.4,0.4,7.2,0.4,2.1C254.1,214.8,253.9,213.9,253.8,213.4z M255.7,225.7c-0.2,0-0.5,0.4-0.5,0.8c0,0.4,0.3,0.6,0.5,0.6
			c0.2,0,0.5-0.3,0.5-0.7C256.3,226,255.9,225.7,255.7,225.7z M252.9,215.6c0.1,0.8-0.3,1.7-0.3-0.5c0-0.6,0.1-2.9,0.2-2.2
			C252.9,213.9,252.9,214.7,252.9,215.6L252.9,215.6z M255.3,214.5c0.1,2,0,2.8,0.3,1c0.1-0.6,0.1-4.2-0.1-3.9
			C255.5,211.8,255.3,212.4,255.3,214.5L255.3,214.5z M261,225.7c-0.2,0-0.5,0.4-0.5,0.8c0,0.4,0.3,0.6,0.5,0.6
			c0.2,0,0.5-0.3,0.5-0.7C261.5,226,261.2,225.7,261,225.7z M258.9,224.5c-0.7-0.6-2.2,0.8-0.8,0.6
			C258.8,225,259.8,225.2,258.9,224.5z M256,225.3c0.9,0,1.4,0.8,1.4,1.4c0,0.7-1,1.2-1.9,1.2c-0.9,0-1.6-0.5-1.6-1.2
			C254,226.1,255.1,225.3,256,225.3z M260.9,225.5c-0.9,0-1.5,0.6-1.6,1.3c-0.1,0.7,0.8,0.8,1.7,0.8c0.9,0,1.6-0.3,1.5-1
			C262.4,226,261.8,225.5,260.9,225.5L260.9,225.5z"/>
	</g>
</g>
</svg>
