<?xml version="1.0" encoding="utf-8"?>
<!-- Generator: Adobe Illustrator 18.0.0, SVG Export Plug-In . SVG Version: 6.00 Build 0)  -->
<!DOCTYPE svg PUBLIC "-//W3C//DTD SVG 1.1//EN" "http://www.w3.org/Graphics/SVG/1.1/DTD/svg11.dtd">
<svg version="1.1" id="Слой_1" xmlns="http://www.w3.org/2000/svg" xmlns:xlink="http://www.w3.org/1999/xlink" x="0px" y="0px"
	 viewBox="0 0 510.3 294.8" enable-background="new 0 0 510.3 294.8" xml:space="preserve">
<rect x="0.7" y="0.2" fill="none" width="509.9" height="294.5"/>
<polygon fill="#0E0E0E" points="354.4,256.3 158.8,256.3 158.8,222.9 161.6,222.9 161.6,253.2 351.6,253.2 351.6,224.8 354.4,224.8 
	"/>
<polygon fill="#0E0E0E" points="135.9,208.6 104.4,208.6 104.4,3.4 137.8,3.4 137.8,6.5 107.5,6.5 107.5,205.6 135.9,205.6 "/>
<path fill="#AE8469" d="M354.7,208.8H157.8V3.6h196.9V208.8z M163.3,202.7h185.9V9.7H163.3V202.7z"/>
<rect x="158.6" y="29.5" fill="#AE8469" width="193" height="6.1"/>
<rect x="159.1" y="176.8" fill="#AE8469" width="192.5" height="6.1"/>
<g>
	<path fill="#0E0E0E" d="M224.1,285.9h-13.4v-2.3l6.6-7.2c1-1.1,1.6-2,2-2.7s0.6-1.4,0.6-2.2c0-0.9-0.3-1.7-0.8-2.3
		s-1.3-0.9-2.2-0.9c-1.1,0-1.9,0.3-2.5,1s-0.9,1.6-0.9,2.7h-3.3c0-1.2,0.3-2.3,0.8-3.3s1.3-1.7,2.4-2.3s2.2-0.8,3.5-0.8
		c1.9,0,3.5,0.5,4.6,1.5s1.7,2.3,1.7,4c0,1-0.3,2-0.8,3.1s-1.5,2.3-2.8,3.7l-4.9,5.2h9.2V285.9z"/>
	<path fill="#0E0E0E" d="M237.9,278.8h2.5v2.7h-2.5v4.4h-3.3v-4.4H226l-0.1-2l8.6-13.5h3.4V278.8z M229.4,278.8h5.2v-8.3l-0.2,0.4
		L229.4,278.8z"/>
	<path fill="#0E0E0E" d="M255.5,277.5c0,2.9-0.5,5-1.6,6.5s-2.7,2.2-4.9,2.2c-2.2,0-3.8-0.7-4.9-2.1s-1.6-3.5-1.7-6.3v-3.4
		c0-2.9,0.5-5,1.6-6.4s2.7-2.1,4.9-2.1c2.2,0,3.8,0.7,4.9,2.1s1.6,3.5,1.6,6.3V277.5z M252.2,273.8c0-1.9-0.3-3.2-0.8-4.1
		s-1.3-1.3-2.4-1.3c-1.1,0-1.9,0.4-2.4,1.2s-0.8,2.1-0.8,3.9v4.5c0,1.9,0.3,3.2,0.8,4.2s1.3,1.4,2.4,1.4c1.1,0,1.9-0.4,2.4-1.3
		s0.8-2.2,0.8-4V273.8z"/>
	<path fill="#0E0E0E" d="M274.5,281.8l4.4-10.7h4.2v14.8h-3.3v-9.8l-4.1,9.8h-2.3l-4.1-9.8v9.8h-3.3v-14.8h4.2L274.5,281.8z"/>
	<path fill="#0E0E0E" d="M295.5,281.8l4.4-10.7h4.2v14.8h-3.3v-9.8l-4.1,9.8h-2.3l-4.1-9.8v9.8H287v-14.8h4.2L295.5,281.8z"/>
</g>
<g>
	<path fill="#0E0E0E" d="M92.1,139.3v13.4h-2.3l-7.2-6.6c-1.1-1-2-1.6-2.7-2s-1.4-0.6-2.2-0.6c-0.9,0-1.7,0.3-2.3,0.8
		s-0.9,1.3-0.9,2.2c0,1.1,0.3,1.9,1,2.5s1.6,0.9,2.7,0.9v3.3c-1.2,0-2.3-0.3-3.3-0.8s-1.7-1.3-2.3-2.4s-0.8-2.2-0.8-3.5
		c0-1.9,0.5-3.5,1.5-4.6s2.3-1.7,4-1.7c1,0,2,0.3,3.1,0.8s2.3,1.5,3.7,2.8l5.2,4.9v-9.2H92.1z"/>
	<path fill="#0E0E0E" d="M83.8,127.4c1.2,1.1,1.8,2.4,1.8,3.9c0,1.8-0.6,3.1-1.8,4.2s-2.8,1.6-4.8,1.6c-1.3,0-2.5-0.3-3.6-0.8
		s-1.9-1.3-2.5-2.3s-0.9-2.1-0.9-3.4c0-2,0.7-3.6,2.2-4.8s3.5-1.8,6-1.8h0.9c3.6,0,6.3,0.8,8.2,2.4c1.9,1.6,2.8,4,2.9,7.3v0.4h-2.7
		v-0.5c0-2-0.5-3.5-1.4-4.5S85.7,127.5,83.8,127.4z M82.9,130.6c0-0.7-0.2-1.3-0.6-1.9s-0.9-1-1.6-1.4h-1.3c-1.5,0-2.6,0.3-3.5,0.9
		c-0.9,0.6-1.3,1.4-1.3,2.3s0.4,1.7,1.2,2.3s1.8,0.9,3,0.9c1.2,0,2.3-0.3,3-0.9S82.9,131.5,82.9,130.6z"/>
	<path fill="#0E0E0E" d="M83.7,107.9c2.9,0,5,0.5,6.5,1.6s2.2,2.7,2.2,4.9c0,2.2-0.7,3.8-2.1,4.9s-3.5,1.6-6.3,1.7h-3.4
		c-2.9,0-5-0.5-6.4-1.6s-2.1-2.7-2.1-4.9c0-2.2,0.7-3.8,2.1-4.9s3.5-1.6,6.3-1.6H83.7z M80,111.2c-1.9,0-3.2,0.3-4.1,0.8
		s-1.3,1.3-1.3,2.4c0,1.1,0.4,1.9,1.2,2.4s2.1,0.8,3.9,0.8h4.5c1.9,0,3.2-0.3,4.2-0.8s1.4-1.3,1.4-2.4c0-1.1-0.4-1.9-1.3-2.4
		s-2.2-0.8-4-0.8H80z"/>
	<path fill="#0E0E0E" d="M88,89l-10.7-4.4v-4.2h14.8v3.3h-9.8l9.8,4.1v2.3l-9.8,4.1h9.8v3.3H77.3v-4.2L88,89z"/>
	<path fill="#0E0E0E" d="M88,68l-10.7-4.4v-4.2h14.8v3.3h-9.8l9.8,4.1v2.3l-9.8,4.1h9.8v3.3H77.3v-4.2L88,68z"/>
</g>
</svg>
