<?xml version="1.0" encoding="utf-8"?>
<!-- Generator: Adobe Illustrator 18.0.0, SVG Export Plug-In . SVG Version: 6.00 Build 0)  -->
<!DOCTYPE svg PUBLIC "-//W3C//DTD SVG 1.1//EN" "http://www.w3.org/Graphics/SVG/1.1/DTD/svg11.dtd">
<svg version="1.1" id="Слой_1" xmlns="http://www.w3.org/2000/svg" xmlns:xlink="http://www.w3.org/1999/xlink" x="0px" y="0px"
	 viewBox="0 0 510.3 294.8" enable-background="new 0 0 510.3 294.8" xml:space="preserve">
<path fill="#AE8469" d="M389.7,260.1H118.9c17.5-61.7,35-123.4,52.4-185.1l0,0c58.1,0,151.8,0,166.5,0
	C354,128.2,373.5,195.6,389.7,260.1z"/>
<path fill="#AE8469" d="M259.6,47.5c15.2,0,27.5,12.3,27.5,27.5c7.3,0,14.1,0,20.3,0c0-26.4-21.4-47.8-47.8-47.8
	c-26.4,0-47.8,21.4-47.8,47.8c6.7,0,13.5,0,20.3,0C232.1,59.8,244.4,47.5,259.6,47.5z"/>
<g>
	<path fill="#FFFFFF" d="M193.8,199h-7.9v-38.3l-11.7,4v-6.7l18.6-6.8h1V199z"/>
	<path fill="#FFFFFF" d="M212,209.8l-4.3-2.6c1.3-2,2.1-3.7,2.6-5.2c0.5-1.5,0.7-3,0.7-4.5v-6.2h7.2l0,5.7c0,2.3-0.6,4.6-1.8,7
		C215.3,206.4,213.8,208.3,212,209.8z"/>
	<path fill="#FFFFFF" d="M247.7,179.1c-2.7,2.8-5.8,4.2-9.3,4.2c-4.2,0-7.5-1.5-10-4.4c-2.5-2.9-3.7-6.8-3.7-11.6
		c0-3.1,0.6-6,1.9-8.5c1.3-2.6,3.1-4.5,5.4-6c2.3-1.4,5-2.1,8.1-2.1c4.8,0,8.6,1.8,11.4,5.4c2.8,3.6,4.2,8.4,4.2,14.4v2.2
		c0,8.6-1.9,15.1-5.8,19.7c-3.9,4.5-9.7,6.8-17.4,6.9h-0.9v-6.6h1.1c4.7-0.1,8.3-1.2,10.8-3.4C245.9,187.1,247.4,183.7,247.7,179.1z
		 M240,177.1c1.6,0,3.1-0.5,4.5-1.4c1.4-0.9,2.5-2.2,3.2-3.8v-3.1c0-3.5-0.7-6.3-2.2-8.5c-1.4-2.1-3.3-3.2-5.6-3.2
		c-2.3,0-4.1,0.9-5.5,2.8s-2,4.3-2,7.1c0,3,0.7,5.4,2.1,7.2S237.7,177.1,240,177.1z"/>
	<path fill="#FFFFFF" d="M293,185h-4v14h-8v-35.4h8v14.1h3.5l9.8-14.1h9.8l-12.8,16.9l13.9,18.5h-10.3L293,185z"/>
	<path fill="#FFFFFF" d="M341.1,170.1h-15.4v29h-7.9v-35.4h23.3V170.1z"/>
</g>
</svg>
