<?xml version="1.0" encoding="utf-8"?>
<!-- Generator: Adobe Illustrator 18.0.0, SVG Export Plug-In . SVG Version: 6.00 Build 0)  -->
<!DOCTYPE svg PUBLIC "-//W3C//DTD SVG 1.1//EN" "http://www.w3.org/Graphics/SVG/1.1/DTD/svg11.dtd">
<svg version="1.1" id="Слой_1" xmlns="http://www.w3.org/2000/svg" xmlns:xlink="http://www.w3.org/1999/xlink" x="0px" y="0px"
	 viewBox="0 0 510.3 294.8" enable-background="new 0 0 510.3 294.8" xml:space="preserve">
<rect x="0" y="0" fill="none" width="509.9" height="294.8"/>
<polygon fill="#0E0E0E" points="493.6,225 16.3,225 16.3,191.1 19.4,191.1 19.4,221.9 490.5,221.9 490.5,193 493.6,193 "/>
<g>
	<path fill="#0E0E0E" d="M206.6,249l1.1-10.6h10.9v2.5H210l-0.6,5.8c1-0.6,2.2-0.9,3.6-0.9c1.9,0,3.5,0.6,4.6,1.9s1.7,3,1.7,5.2
		c0,2.2-0.6,3.9-1.8,5.2c-1.2,1.3-2.8,1.9-5,1.9c-1.9,0-3.4-0.5-4.6-1.6s-1.9-2.5-2-4.3h2.6c0.2,1.2,0.6,2.1,1.3,2.8
		c0.7,0.6,1.6,0.9,2.8,0.9c1.3,0,2.2-0.4,3-1.3c0.7-0.9,1.1-2,1.1-3.6c0-1.4-0.4-2.6-1.2-3.4c-0.8-0.9-1.8-1.3-3.1-1.3
		c-1.2,0-2.1,0.3-2.8,0.8l-0.7,0.6L206.6,249z"/>
	<path fill="#0E0E0E" d="M236.2,259.7h-14v-1.9l7.4-8.2c1.1-1.2,1.8-2.2,2.3-3c0.4-0.8,0.6-1.6,0.6-2.4c0-1.1-0.3-2-1-2.7
		s-1.6-1.1-2.7-1.1c-1.3,0-2.4,0.4-3.1,1.2c-0.7,0.8-1.1,1.8-1.1,3.2h-2.7c0-2,0.6-3.5,1.9-4.8c1.3-1.2,3-1.8,5.1-1.8
		c2,0,3.5,0.5,4.7,1.6c1.2,1,1.7,2.4,1.7,4.2c0,2.1-1.3,4.6-4,7.5l-5.7,6.2h10.7V259.7z"/>
	<path fill="#0E0E0E" d="M240.3,249l1.1-10.6h10.9v2.5h-8.6l-0.6,5.8c1-0.6,2.2-0.9,3.6-0.9c1.9,0,3.5,0.6,4.6,1.9s1.7,3,1.7,5.2
		c0,2.2-0.6,3.9-1.8,5.2c-1.2,1.3-2.8,1.9-5,1.9c-1.9,0-3.4-0.5-4.6-1.6s-1.9-2.5-2-4.3h2.6c0.2,1.2,0.6,2.1,1.3,2.8
		c0.7,0.6,1.6,0.9,2.8,0.9c1.3,0,2.2-0.4,3-1.3c0.7-0.9,1.1-2,1.1-3.6c0-1.4-0.4-2.6-1.2-3.4c-0.8-0.9-1.8-1.3-3.1-1.3
		c-1.2,0-2.1,0.3-2.8,0.8l-0.7,0.6L240.3,249z"/>
	<path fill="#0E0E0E" d="M272.7,256.1l5.4-12.3h3.4v15.8h-2.7v-11.5l-5.1,11.5h-1.9l-5.2-11.8v11.8h-2.7v-15.8h3.5L272.7,256.1z"/>
	<path fill="#0E0E0E" d="M295,256.1l5.4-12.3h3.4v15.8h-2.7v-11.5l-5.1,11.5h-1.9l-5.2-11.8v11.8h-2.7v-15.8h3.5L295,256.1z"/>
</g>
<g>
	<path fill="#AE8469" d="M214.6,114.4c-0.3,0.2-1,0.6-2.2,1.2c-1.2,0.6-2.1,1.2-2.6,1.8c-0.7,0.7-1.3,1.8-1.7,3.1
		c-0.4,1.4-0.6,2.9-0.6,4.7c0,2,0.4,3.7,1.3,5c0.9,1.3,2,1.9,3.3,1.9c0.2,0,0.5-0.1,1-0.2c0.3-0.1,0.5-0.1,0.6-0.2
		c0.3,0.1,0.6,0.3,0.7,0.5c0.2,0.2,0.3,0.4,0.3,0.7c0,0.1,0,0.2-0.1,0.2c0,0.1-0.1,0.2-0.2,0.3c-0.4,0.4-0.8,0.7-1.3,0.9
		c-0.4,0.2-0.9,0.2-1.6,0.2c-2.3,0-4.2-0.9-5.7-2.6c-1.5-1.7-2.2-4-2.2-6.7c0-3.4,0.8-6.1,2.4-8.1c1.6-2,4-3.4,7.3-4.2
		c0.4,0.1,0.7,0.3,0.9,0.5c0.2,0.2,0.3,0.5,0.3,0.8L214.6,114.4L214.6,114.4z M216.8,133.9c0.1-1.3,0.1-2.3,0.2-3.3
		c0-0.9,0.1-1.8,0.1-2.5c0-1.6,0-3.2-0.1-4.7c-0.1-1.5-0.2-2.9-0.4-4.3c0.3-0.2,0.7-0.4,1.1-0.6c0.4-0.1,0.9-0.2,1.5-0.3
		c0.5,0.2,0.8,0.5,1,0.9c0.2,0.4,0.3,1.1,0.4,2.1c1-0.6,1.8-1.1,2.5-1.5c0.7-0.4,1.2-0.7,1.7-0.9c0.5,0.1,0.9,0.3,1.1,0.6
		c0.3,0.2,0.5,0.6,0.7,1.2c-1,0.4-2,0.8-3,1.4c-1,0.5-1.9,1.1-2.8,1.8c0,0.9-0.1,1.7-0.1,2.6c0,0.9,0,1.8,0,2.7c0,0.6,0,1.3,0,2.1
		c0,0.8,0.1,1.7,0.1,2.7l-0.7,0.5c-0.1,0-0.3,0-0.6,0c-0.3,0-0.4,0-0.6,0c-0.5,0-0.9,0-1.3-0.1C217.3,134.1,217,134,216.8,133.9
		L216.8,133.9z M233.9,131.6c0-0.8,0-1.7,0-2.6c0-0.9-0.1-1.7-0.1-2.6c-0.1,0-0.2,0-0.2,0c-0.1,0-0.2,0-0.4,0
		c-0.8,0-1.5,0.2-1.9,0.6c-0.4,0.4-0.6,1.1-0.6,1.9c0,1.1,0.2,1.9,0.5,2.2c0.3,0.4,0.9,0.5,1.7,0.5c0.1,0,0.4,0,0.8-0.1
		C233.7,131.7,233.8,131.7,233.9,131.6z M228.9,121.4h-0.1c-0.5,0-0.9-0.1-1.2-0.4c-0.3-0.2-0.5-0.5-0.5-0.8c0,0,0-0.1,0.1-0.1
		c0-0.1,0.1-0.1,0.2-0.2c0.8-0.3,1.7-0.6,2.5-0.9c0.9-0.3,1.8-0.6,2.7-0.8c1.8,0.2,3,0.8,3.7,1.9c0.7,1,1,3.4,1,7.2
		c0,1.3-0.1,3.4-0.2,6.3c0,0.3,0,0.5,0,0.7c-0.3,0.1-0.6,0.1-0.8,0.2c-0.2,0-0.4,0.1-0.7,0.1c-0.2,0-0.5,0-0.7-0.1
		c-0.2,0-0.5-0.1-0.7-0.2l-0.2-0.6c-0.6,0.2-1.2,0.3-1.8,0.4c-0.6,0.1-1.1,0.2-1.6,0.2c-1.2,0-2-0.4-2.6-1.1
		c-0.6-0.7-0.9-1.9-0.9-3.4c0-1.8,0.5-3.1,1.4-3.9c0.9-0.8,2.4-1.2,4.5-1.2h0.7c0-1.1-0.2-2.1-0.6-2.8c-0.4-0.7-0.9-1.1-1.4-1.1
		c-0.1,0-0.3,0-0.5,0.1c-0.2,0-0.4,0.1-0.6,0.2L228.9,121.4L228.9,121.4z M248.9,131.7c0.5,0.2,0.8,0.4,1,0.6
		c0.2,0.2,0.3,0.5,0.3,0.7c0,0.1-0.1,0.3-0.2,0.6c0,0,0,0.1,0,0.1c-0.7,0.2-1.4,0.3-2.1,0.4c-0.7,0.1-1.4,0.1-2.1,0.1
		c-0.7,0-1.6-0.1-2.6-0.2c-1-0.1-2.1-0.3-3.4-0.5c-0.1-0.2-0.2-0.4-0.3-0.7c-0.1-0.2-0.1-0.4-0.1-0.6c0-0.1,0-0.2,0-0.3
		c0-0.1,0-0.1,0-0.2l5.6-11.4c-0.2,0-0.4,0-0.6,0c-0.2,0-0.5,0-0.7,0c-0.4,0-0.9,0-1.5-0.1c-0.6,0-1.2-0.1-1.9-0.2
		c-0.1-0.3-0.2-0.6-0.3-0.8c-0.1-0.2-0.1-0.4-0.1-0.6c0-0.1,0.1-0.2,0.1-0.3c0.1-0.1,0.3-0.2,0.5-0.3c0.5,0.1,0.9,0.2,1.4,0.2
		c0.5,0,1.1,0.1,1.8,0.1c0.7,0,1.4,0,2-0.1c0.6,0,1.2-0.1,1.7-0.2c0.4,0.1,0.8,0.3,1,0.6c0.2,0.2,0.4,0.6,0.5,1
		c-1.3,2.7-2.4,5-3.3,6.9c-0.9,1.9-1.6,3.6-2.3,5.1c0.3,0.1,0.6,0.1,1,0.1c0.3,0,0.7,0,1,0c0.5,0,1,0,1.6-0.1
		C247.5,131.9,248.2,131.8,248.9,131.7L248.9,131.7z M254.6,133.4c-0.5-2.5-1-4.9-1.6-7.3c-0.6-2.4-1.4-4.7-2.2-6.9
		c0.4-0.2,0.7-0.3,1.1-0.4c0.4-0.1,0.8-0.1,1.4-0.1c0.3,0,0.5,0,0.7,0c0.2,0,0.4,0,0.6,0c0.4,1.4,0.8,3,1.1,4.7
		c0.4,1.7,0.7,3.5,1,5.4c0.5-1.6,1-3.3,1.4-5c0.4-1.7,0.7-3.6,1-5.5c0.4-0.1,0.7-0.1,0.8-0.1c0.2,0,0.3,0,0.4,0c0.3,0,0.7,0,1,0.1
		c0.4,0.1,0.8,0.2,1.3,0.3c-0.9,4-1.9,7.7-3.2,11.3c-1.3,3.6-2.8,6.9-4.5,10.1h-0.4c-0.6,0-1.2-0.1-1.7-0.2c-0.5-0.2-1-0.4-1.6-0.8
		c0.6-0.7,1.2-1.4,1.7-2.3C253.5,135.8,254,134.7,254.6,133.4L254.6,133.4z M282.2,114.4c-0.3,0.2-1,0.6-2.2,1.2
		c-1.2,0.6-2.1,1.2-2.6,1.8c-0.7,0.7-1.3,1.8-1.7,3.1c-0.4,1.4-0.6,2.9-0.6,4.7c0,2,0.4,3.7,1.3,5c0.9,1.3,2,1.9,3.3,1.9
		c0.2,0,0.5-0.1,1-0.2c0.3-0.1,0.5-0.1,0.6-0.2c0.3,0.1,0.6,0.3,0.7,0.5c0.2,0.2,0.3,0.4,0.3,0.7c0,0.1,0,0.2-0.1,0.2
		c0,0.1-0.1,0.2-0.2,0.3c-0.4,0.4-0.8,0.7-1.3,0.9c-0.4,0.2-0.9,0.2-1.6,0.2c-2.3,0-4.2-0.9-5.7-2.6c-1.5-1.7-2.2-4-2.2-6.7
		c0-3.4,0.8-6.1,2.4-8.1c1.6-2,4-3.4,7.3-4.2c0.4,0.1,0.7,0.3,0.9,0.5c0.2,0.2,0.3,0.5,0.3,0.8L282.2,114.4L282.2,114.4z
		 M290.5,131.6c0-0.8,0-1.7,0-2.6c0-0.9-0.1-1.7-0.1-2.6c-0.1,0-0.2,0-0.2,0c-0.1,0-0.2,0-0.4,0c-0.8,0-1.5,0.2-1.9,0.6
		c-0.4,0.4-0.6,1.1-0.6,1.9c0,1.1,0.2,1.9,0.5,2.2c0.3,0.4,0.9,0.5,1.7,0.5c0.1,0,0.4,0,0.8-0.1
		C290.3,131.7,290.4,131.7,290.5,131.6z M285.5,121.4h-0.1c-0.5,0-0.9-0.1-1.2-0.4c-0.3-0.2-0.5-0.5-0.5-0.8c0,0,0-0.1,0.1-0.1
		c0-0.1,0.1-0.1,0.2-0.2c0.8-0.3,1.7-0.6,2.5-0.9c0.9-0.3,1.8-0.6,2.7-0.8c1.8,0.2,3,0.8,3.7,1.9c0.7,1,1,3.4,1,7.2
		c0,1.3-0.1,3.4-0.2,6.3c0,0.3,0,0.5,0,0.7c-0.3,0.1-0.6,0.1-0.8,0.2c-0.2,0-0.4,0.1-0.7,0.1c-0.2,0-0.5,0-0.7-0.1
		c-0.2,0-0.5-0.1-0.7-0.2l-0.2-0.6c-0.6,0.2-1.2,0.3-1.8,0.4c-0.6,0.1-1.1,0.2-1.6,0.2c-1.2,0-2-0.4-2.6-1.1
		c-0.6-0.7-0.9-1.9-0.9-3.4c0-1.8,0.5-3.1,1.4-3.9c0.9-0.8,2.4-1.2,4.5-1.2h0.7c0-1.1-0.2-2.1-0.6-2.8c-0.4-0.7-0.9-1.1-1.4-1.1
		c-0.1,0-0.3,0-0.5,0.1c-0.2,0-0.4,0.1-0.6,0.2L285.5,121.4L285.5,121.4z M301.3,116.1c0.1,0.2,0.1,0.4,0.2,0.6
		c0,0.2,0.1,0.4,0.1,0.7v1.2c0,0,0,0.1,0,0.1c0,0.1,0,0.2,0,0.3c0.5,0,1,0,1.7-0.1c0.6-0.1,1.4-0.1,2.3-0.2c0.4,0.2,0.7,0.5,0.9,0.7
		c0.2,0.3,0.3,0.6,0.3,1c-0.5,0.2-1,0.3-1.7,0.4c-0.7,0.1-1.8,0.2-3.4,0.3c-0.1,1.5-0.2,2.9-0.3,4.2c-0.1,1.3-0.1,2.6-0.1,3.8
		c0,1.5,0.1,2.5,0.3,2.8c0.2,0.3,0.6,0.5,1.2,0.5c0.3,0,0.6,0,0.9-0.1c0.3,0,0.5-0.1,0.8-0.2c0.2,0.1,0.3,0.2,0.4,0.3
		c0.1,0.1,0.1,0.2,0.1,0.4c0,0.2-0.1,0.3-0.2,0.5c-0.1,0.2-0.3,0.4-0.7,0.6c-0.8,0.2-1.4,0.4-1.9,0.5c-0.5,0.1-1,0.1-1.4,0.1
		c-1.2,0-2.1-0.3-2.6-1c-0.5-0.6-0.8-1.7-0.8-3.2c0-0.7,0.1-1.9,0.2-3.5c0.1-1.6,0.2-2.7,0.2-3.5c0-0.6,0-1.1,0-1.4
		c0-0.3,0-0.6,0-0.9c-0.4-0.1-0.7-0.1-1-0.2c-0.3-0.1-0.6-0.2-0.9-0.3v-0.1c0-0.2,0.1-0.5,0.2-0.7c0.1-0.2,0.3-0.5,0.5-0.7l1.5-0.1
		l0.2-2.7c0.3-0.2,0.6-0.3,0.9-0.4c0.3-0.1,0.6-0.1,0.9-0.1c0.2,0,0.4,0,0.7,0.1C300.7,115.9,301,116,301.3,116.1L301.3,116.1z"/>
	<path fill="#AE8469" d="M494.7,163h-479V89.8h479V163z M20.7,158h469V94.8h-469V158z"/>
</g>
</svg>
