<?xml version="1.0" encoding="utf-8"?>
<!-- Generator: Adobe Illustrator 18.0.0, SVG Export Plug-In . SVG Version: 6.00 Build 0)  -->
<!DOCTYPE svg PUBLIC "-//W3C//DTD SVG 1.1//EN" "http://www.w3.org/Graphics/SVG/1.1/DTD/svg11.dtd">
<svg version="1.1" id="Слой_1" xmlns="http://www.w3.org/2000/svg" xmlns:xlink="http://www.w3.org/1999/xlink" x="0px" y="0px"
	 viewBox="0 0 510.3 294.8" enable-background="new 0 0 510.3 294.8" xml:space="preserve">
<rect x="0" y="0" fill="none" width="509.9" height="294.8"/>
<g>
	<path fill="#AE8469" d="M214.6,195.7c-0.3,0.2-1,0.6-2.2,1.2c-1.2,0.6-2.1,1.2-2.6,1.8c-0.7,0.7-1.3,1.8-1.7,3.1
		c-0.4,1.4-0.6,2.9-0.6,4.7c0,2,0.4,3.7,1.3,5c0.9,1.3,2,1.9,3.3,1.9c0.2,0,0.5-0.1,1-0.2c0.3-0.1,0.5-0.1,0.6-0.2
		c0.3,0.1,0.6,0.3,0.7,0.5c0.2,0.2,0.3,0.4,0.3,0.7c0,0.1,0,0.2-0.1,0.2c0,0.1-0.1,0.2-0.2,0.3c-0.4,0.4-0.8,0.7-1.3,0.9
		c-0.4,0.2-0.9,0.2-1.6,0.2c-2.3,0-4.2-0.9-5.7-2.6c-1.5-1.7-2.2-4-2.2-6.7c0-3.4,0.8-6.1,2.4-8.1c1.6-2,4-3.4,7.3-4.2
		c0.4,0.1,0.7,0.3,0.9,0.5c0.2,0.2,0.3,0.5,0.3,0.8L214.6,195.7L214.6,195.7z M216.8,215.2c0.1-1.3,0.1-2.3,0.2-3.3
		c0-0.9,0.1-1.8,0.1-2.5c0-1.6,0-3.2-0.1-4.7c-0.1-1.5-0.2-2.9-0.4-4.3c0.3-0.2,0.7-0.4,1.1-0.6c0.4-0.1,0.9-0.2,1.5-0.3
		c0.5,0.2,0.8,0.5,1,0.9c0.2,0.4,0.3,1.1,0.4,2.1c1-0.6,1.8-1.1,2.5-1.5c0.7-0.4,1.2-0.7,1.7-0.9c0.5,0.1,0.9,0.3,1.1,0.6
		c0.3,0.2,0.5,0.6,0.7,1.2c-1,0.4-2,0.8-3,1.4c-1,0.5-1.9,1.1-2.8,1.8c0,0.9-0.1,1.7-0.1,2.6c0,0.9,0,1.8,0,2.7c0,0.6,0,1.3,0,2.1
		c0,0.8,0.1,1.7,0.1,2.7l-0.7,0.5c-0.1,0-0.3,0-0.6,0c-0.3,0-0.4,0-0.6,0c-0.5,0-0.9,0-1.3-0.1C217.3,215.5,217,215.4,216.8,215.2
		L216.8,215.2z M233.9,213c0-0.8,0-1.7,0-2.6c0-0.9-0.1-1.7-0.1-2.6c-0.1,0-0.2,0-0.2,0c-0.1,0-0.2,0-0.4,0c-0.8,0-1.5,0.2-1.9,0.6
		c-0.4,0.4-0.6,1.1-0.6,1.9c0,1.1,0.2,1.9,0.5,2.2c0.3,0.4,0.9,0.5,1.7,0.5c0.1,0,0.4,0,0.8-0.1C233.7,213,233.8,213,233.9,213z
		 M228.9,202.7h-0.1c-0.5,0-0.9-0.1-1.2-0.4c-0.3-0.2-0.5-0.5-0.5-0.8c0,0,0-0.1,0.1-0.1c0-0.1,0.1-0.1,0.2-0.2
		c0.8-0.3,1.7-0.6,2.5-0.9c0.9-0.3,1.8-0.6,2.7-0.8c1.8,0.2,3,0.8,3.7,1.9c0.7,1,1,3.4,1,7.2c0,1.3-0.1,3.4-0.2,6.3
		c0,0.3,0,0.5,0,0.7c-0.3,0.1-0.6,0.1-0.8,0.2c-0.2,0-0.4,0.1-0.7,0.1c-0.2,0-0.5,0-0.7-0.1c-0.2,0-0.5-0.1-0.7-0.2l-0.2-0.6
		c-0.6,0.2-1.2,0.3-1.8,0.4c-0.6,0.1-1.1,0.2-1.6,0.2c-1.2,0-2-0.4-2.6-1.1c-0.6-0.7-0.9-1.9-0.9-3.4c0-1.8,0.5-3.1,1.4-3.9
		c0.9-0.8,2.4-1.2,4.5-1.2h0.7c0-1.1-0.2-2.1-0.6-2.8c-0.4-0.7-0.9-1.1-1.4-1.1c-0.1,0-0.3,0-0.5,0.1c-0.2,0-0.4,0.1-0.6,0.2
		L228.9,202.7L228.9,202.7z M248.9,213c0.5,0.2,0.8,0.4,1,0.6c0.2,0.2,0.3,0.5,0.3,0.7c0,0.1-0.1,0.3-0.2,0.6c0,0,0,0.1,0,0.1
		c-0.7,0.2-1.4,0.3-2.1,0.4c-0.7,0.1-1.4,0.1-2.1,0.1c-0.7,0-1.6-0.1-2.6-0.2c-1-0.1-2.1-0.3-3.4-0.5c-0.1-0.2-0.2-0.4-0.3-0.7
		c-0.1-0.2-0.1-0.4-0.1-0.6c0-0.1,0-0.2,0-0.3c0-0.1,0-0.1,0-0.2l5.6-11.4c-0.2,0-0.4,0-0.6,0c-0.2,0-0.5,0-0.7,0
		c-0.4,0-0.9,0-1.5-0.1c-0.6,0-1.2-0.1-1.9-0.2c-0.1-0.3-0.2-0.6-0.3-0.8c-0.1-0.2-0.1-0.4-0.1-0.6c0-0.1,0.1-0.2,0.1-0.3
		c0.1-0.1,0.3-0.2,0.5-0.3c0.5,0.1,0.9,0.2,1.4,0.2c0.5,0,1.1,0.1,1.8,0.1c0.7,0,1.4,0,2-0.1c0.6,0,1.2-0.1,1.7-0.2
		c0.4,0.1,0.8,0.3,1,0.6c0.2,0.2,0.4,0.6,0.5,1c-1.3,2.7-2.4,5-3.3,6.9c-0.9,1.9-1.6,3.6-2.3,5.1c0.3,0.1,0.6,0.1,1,0.1
		c0.3,0,0.7,0,1,0c0.5,0,1,0,1.6-0.1C247.5,213.2,248.2,213.1,248.9,213L248.9,213z M254.6,214.8c-0.5-2.5-1-4.9-1.6-7.3
		c-0.6-2.4-1.4-4.7-2.2-6.9c0.4-0.2,0.7-0.3,1.1-0.4c0.4-0.1,0.8-0.1,1.4-0.1c0.3,0,0.5,0,0.7,0c0.2,0,0.4,0,0.6,0
		c0.4,1.4,0.8,3,1.1,4.7c0.4,1.7,0.7,3.5,1,5.4c0.5-1.6,1-3.3,1.4-5c0.4-1.7,0.7-3.6,1-5.5c0.4-0.1,0.7-0.1,0.8-0.1
		c0.2,0,0.3,0,0.4,0c0.3,0,0.7,0,1,0.1c0.4,0.1,0.8,0.2,1.3,0.3c-0.9,4-1.9,7.7-3.2,11.3c-1.3,3.6-2.8,6.9-4.5,10.1h-0.4
		c-0.6,0-1.2-0.1-1.7-0.2c-0.5-0.2-1-0.4-1.6-0.8c0.6-0.7,1.2-1.4,1.7-2.3C253.5,217.1,254,216.1,254.6,214.8L254.6,214.8z
		 M282.2,195.7c-0.3,0.2-1,0.6-2.2,1.2c-1.2,0.6-2.1,1.2-2.6,1.8c-0.7,0.7-1.3,1.8-1.7,3.1c-0.4,1.4-0.6,2.9-0.6,4.7
		c0,2,0.4,3.7,1.3,5c0.9,1.3,2,1.9,3.3,1.9c0.2,0,0.5-0.1,1-0.2c0.3-0.1,0.5-0.1,0.6-0.2c0.3,0.1,0.6,0.3,0.7,0.5
		c0.2,0.2,0.3,0.4,0.3,0.7c0,0.1,0,0.2-0.1,0.2c0,0.1-0.1,0.2-0.2,0.3c-0.4,0.4-0.8,0.7-1.3,0.9c-0.4,0.2-0.9,0.2-1.6,0.2
		c-2.3,0-4.2-0.9-5.7-2.6c-1.5-1.7-2.2-4-2.2-6.7c0-3.4,0.8-6.1,2.4-8.1c1.6-2,4-3.4,7.3-4.2c0.4,0.1,0.7,0.3,0.9,0.5
		c0.2,0.2,0.3,0.5,0.3,0.8L282.2,195.7L282.2,195.7z M290.5,213c0-0.8,0-1.7,0-2.6c0-0.9-0.1-1.7-0.1-2.6c-0.1,0-0.2,0-0.2,0
		c-0.1,0-0.2,0-0.4,0c-0.8,0-1.5,0.2-1.9,0.6c-0.4,0.4-0.6,1.1-0.6,1.9c0,1.1,0.2,1.9,0.5,2.2c0.3,0.4,0.9,0.5,1.7,0.5
		c0.1,0,0.4,0,0.8-0.1C290.3,213,290.4,213,290.5,213z M285.5,202.7h-0.1c-0.5,0-0.9-0.1-1.2-0.4c-0.3-0.2-0.5-0.5-0.5-0.8
		c0,0,0-0.1,0.1-0.1c0-0.1,0.1-0.1,0.2-0.2c0.8-0.3,1.7-0.6,2.5-0.9c0.9-0.3,1.8-0.6,2.7-0.8c1.8,0.2,3,0.8,3.7,1.9
		c0.7,1,1,3.4,1,7.2c0,1.3-0.1,3.4-0.2,6.3c0,0.3,0,0.5,0,0.7c-0.3,0.1-0.6,0.1-0.8,0.2c-0.2,0-0.4,0.1-0.7,0.1
		c-0.2,0-0.5,0-0.7-0.1c-0.2,0-0.5-0.1-0.7-0.2l-0.2-0.6c-0.6,0.2-1.2,0.3-1.8,0.4c-0.6,0.1-1.1,0.2-1.6,0.2c-1.2,0-2-0.4-2.6-1.1
		c-0.6-0.7-0.9-1.9-0.9-3.4c0-1.8,0.5-3.1,1.4-3.9c0.9-0.8,2.4-1.2,4.5-1.2h0.7c0-1.1-0.2-2.1-0.6-2.8c-0.4-0.7-0.9-1.1-1.4-1.1
		c-0.1,0-0.3,0-0.5,0.1c-0.2,0-0.4,0.1-0.6,0.2L285.5,202.7L285.5,202.7z M301.3,197.5c0.1,0.2,0.1,0.4,0.2,0.6
		c0,0.2,0.1,0.4,0.1,0.7v1.2c0,0,0,0.1,0,0.1c0,0.1,0,0.2,0,0.3c0.5,0,1,0,1.7-0.1c0.6-0.1,1.4-0.1,2.3-0.2c0.4,0.2,0.7,0.5,0.9,0.7
		c0.2,0.3,0.3,0.6,0.3,1c-0.5,0.2-1,0.3-1.7,0.4c-0.7,0.1-1.8,0.2-3.4,0.3c-0.1,1.5-0.2,2.9-0.3,4.2c-0.1,1.3-0.1,2.6-0.1,3.8
		c0,1.5,0.1,2.5,0.3,2.8c0.2,0.3,0.6,0.5,1.2,0.5c0.3,0,0.6,0,0.9-0.1c0.3,0,0.5-0.1,0.8-0.2c0.2,0.1,0.3,0.2,0.4,0.3
		c0.1,0.1,0.1,0.2,0.1,0.4c0,0.2-0.1,0.3-0.2,0.5c-0.1,0.2-0.3,0.4-0.7,0.6c-0.8,0.2-1.4,0.4-1.9,0.5c-0.5,0.1-1,0.1-1.4,0.1
		c-1.2,0-2.1-0.3-2.6-1c-0.5-0.6-0.8-1.7-0.8-3.2c0-0.7,0.1-1.9,0.2-3.5c0.1-1.6,0.2-2.7,0.2-3.5c0-0.6,0-1.1,0-1.4
		c0-0.3,0-0.6,0-0.9c-0.4-0.1-0.7-0.1-1-0.2c-0.3-0.1-0.6-0.2-0.9-0.3v-0.1c0-0.2,0.1-0.5,0.2-0.7c0.1-0.2,0.3-0.5,0.5-0.7l1.5-0.1
		l0.2-2.7c0.3-0.2,0.6-0.3,0.9-0.4c0.3-0.1,0.6-0.1,0.9-0.1c0.2,0,0.4,0,0.7,0.1C300.7,197.2,301,197.3,301.3,197.5L301.3,197.5z"/>
	<path fill="#AE8469" d="M494.7,244.4h-479v-73.2h479V244.4z M20.7,239.4h469v-63.2h-469V239.4z"/>
</g>
<g>
	<path fill="#AE8469" d="M338.1,164.9H178.3c10.3-36.6,20.6-73.1,31-109.7l0,0c34.3,0,89.6,0,98.3,0
		C317,86.7,328.6,126.7,338.1,164.9z"/>
	<path fill="#AE8469" d="M261.3,38.9c9,0,16.2,7.3,16.2,16.3c4.3,0,8.3,0,12,0c0-15.6-12.6-28.3-28.2-28.3s-28.2,12.7-28.2,28.3
		c4,0,8,0,12,0C245.1,46.2,252.3,38.9,261.3,38.9z"/>
	<g>
		<path fill="#FFFFFF" d="M215.4,130.2h-4.7v-22.7l-6.9,2.4v-4l11-4.1h0.6V130.2z"/>
		<path fill="#FFFFFF" d="M226.4,116.2L228,102h15.1v4.1h-11.2l-0.8,6.7c1.3-0.7,2.8-1.1,4.4-1.1c2.7,0,4.8,0.9,6.2,2.6
			c1.5,1.7,2.2,4,2.2,6.9c0,2.9-0.8,5.2-2.5,6.9c-1.6,1.7-3.9,2.5-6.8,2.5c-2.6,0-4.7-0.7-6.4-2.2c-1.7-1.5-2.6-3.4-2.8-5.8h4.5
			c0.2,1.4,0.7,2.4,1.5,3.2c0.8,0.7,1.8,1.1,3.1,1.1c1.4,0,2.6-0.5,3.4-1.6c0.8-1,1.2-2.4,1.2-4.2c0-1.7-0.4-3.1-1.3-4.1
			c-0.9-1-2.1-1.5-3.7-1.5c-0.8,0-1.6,0.1-2.2,0.3c-0.6,0.2-1.2,0.7-1.9,1.3L226.4,116.2z"/>
		<path fill="#FFFFFF" d="M266,118.3c0,4.1-0.8,7.1-2.3,9.2c-1.5,2.1-3.8,3.1-6.9,3.1c-3,0-5.3-1-6.9-3c-1.5-2-2.3-5-2.4-8.9v-4.9
			c0-4.1,0.8-7.1,2.3-9.1c1.5-2,3.8-3,6.9-3c3.1,0,5.4,1,6.9,3c1.5,2,2.3,4.9,2.3,8.9V118.3z M261.3,113c0-2.6-0.4-4.6-1.1-5.8
			c-0.7-1.2-1.9-1.9-3.4-1.9c-1.5,0-2.7,0.6-3.4,1.8c-0.7,1.2-1.1,3-1.1,5.5v6.4c0,2.6,0.4,4.6,1.1,5.9c0.7,1.3,1.9,1.9,3.5,1.9
			c1.5,0,2.6-0.6,3.3-1.8c0.7-1.2,1.1-3.1,1.1-5.6V113z"/>
		<path fill="#FFFFFF" d="M287.7,121.9h-2.4v8.3h-4.7v-21h4.7v8.4h2.1l5.8-8.4h5.8l-7.6,10l8.2,10.9h-6.1L287.7,121.9z"/>
		<path fill="#FFFFFF" d="M316.1,113H307v17.2h-4.7v-21h13.8V113z"/>
	</g>
</g>
</svg>
