<?xml version="1.0" encoding="utf-8"?>
<!-- Generator: Adobe Illustrator 18.0.0, SVG Export Plug-In . SVG Version: 6.00 Build 0)  -->
<!DOCTYPE svg PUBLIC "-//W3C//DTD SVG 1.1//EN" "http://www.w3.org/Graphics/SVG/1.1/DTD/svg11.dtd">
<svg version="1.1" id="Слой_1" xmlns="http://www.w3.org/2000/svg" xmlns:xlink="http://www.w3.org/1999/xlink" x="0px" y="0px"
	 viewBox="0 0 510.3 294.8" enable-background="new 0 0 510.3 294.8" xml:space="preserve">
<rect x="0.7" y="0.2" fill="none" width="509.9" height="294.5"/>
<polygon fill="#0E0E0E" points="359.4,218.3 142.1,218.3 142.1,184.9 145.2,184.9 145.2,215.2 356.3,215.2 356.3,186.8 359.4,186.8 
	"/>
<g>
	<path fill="#0E0E0E" d="M223.1,247.9h-13.4v-2.3l6.6-7.2c1-1.1,1.6-2,2-2.7s0.6-1.4,0.6-2.2c0-0.9-0.3-1.7-0.8-2.3
		s-1.3-0.9-2.2-0.9c-1.1,0-1.9,0.3-2.5,1s-0.9,1.6-0.9,2.7h-3.3c0-1.2,0.3-2.3,0.8-3.3s1.3-1.7,2.4-2.3s2.2-0.8,3.5-0.8
		c1.9,0,3.5,0.5,4.6,1.5s1.7,2.3,1.7,4c0,1-0.3,2-0.8,3.1s-1.5,2.3-2.8,3.7l-4.9,5.2h9.2V247.9z"/>
	<path fill="#0E0E0E" d="M239,247.9h-13.4v-2.3l6.6-7.2c1-1.1,1.6-2,2-2.7s0.6-1.4,0.6-2.2c0-0.9-0.3-1.7-0.8-2.3s-1.3-0.9-2.2-0.9
		c-1.1,0-1.9,0.3-2.5,1s-0.9,1.6-0.9,2.7h-3.3c0-1.2,0.3-2.3,0.8-3.3s1.3-1.7,2.4-2.3s2.2-0.8,3.5-0.8c1.9,0,3.5,0.5,4.6,1.5
		s1.7,2.3,1.7,4c0,1-0.3,2-0.8,3.1s-1.5,2.3-2.8,3.7l-4.9,5.2h9.2V247.9z"/>
	<path fill="#0E0E0E" d="M254.5,239.5c0,2.9-0.5,5-1.6,6.5s-2.7,2.2-4.9,2.2c-2.2,0-3.8-0.7-4.9-2.1s-1.6-3.5-1.7-6.3v-3.4
		c0-2.9,0.5-5,1.6-6.4s2.7-2.1,4.9-2.1c2.2,0,3.8,0.7,4.9,2.1s1.6,3.5,1.6,6.3V239.5z M251.2,235.8c0-1.9-0.3-3.2-0.8-4.1
		s-1.3-1.3-2.4-1.3c-1.1,0-1.9,0.4-2.4,1.2s-0.8,2.1-0.8,3.9v4.5c0,1.9,0.3,3.2,0.8,4.2s1.3,1.4,2.4,1.4c1.1,0,1.9-0.4,2.4-1.3
		s0.8-2.2,0.8-4V235.8z"/>
	<path fill="#0E0E0E" d="M273.5,243.8l4.4-10.7h4.2v14.8h-3.3v-9.8l-4.1,9.8h-2.3l-4.1-9.8v9.8h-3.3v-14.8h4.2L273.5,243.8z"/>
	<path fill="#0E0E0E" d="M294.5,243.8l4.4-10.7h4.2v14.8h-3.3v-9.8l-4.1,9.8h-2.3l-4.1-9.8v9.8H286v-14.8h4.2L294.5,243.8z"/>
</g>
<g>
	<path fill="#0E0E0E" d="M75.2,180.3l-10-1.1v-10.7H68v7.9l4.8,0.5c-0.5-0.9-0.8-2-0.8-3.1c0-1.9,0.6-3.4,1.8-4.4s2.8-1.6,4.9-1.6
		c2,0,3.6,0.6,4.8,1.8s1.8,2.8,1.8,4.8c0,1.8-0.5,3.3-1.6,4.5s-2.4,1.8-4.1,1.9v-3.2c1-0.1,1.7-0.5,2.2-1s0.8-1.3,0.8-2.2
		c0-1-0.4-1.8-1.1-2.4s-1.7-0.9-3-0.9c-1.2,0-2.2,0.3-2.9,0.9s-1.1,1.5-1.1,2.6c0,0.6,0.1,1.1,0.2,1.5s0.5,0.9,0.9,1.4L75.2,180.3z"
		/>
	<path fill="#0E0E0E" d="M75.2,164.4l-10-1.1v-10.7H68v7.9l4.8,0.5c-0.5-0.9-0.8-2-0.8-3.1c0-1.9,0.6-3.4,1.8-4.4s2.8-1.6,4.9-1.6
		c2,0,3.6,0.6,4.8,1.8s1.8,2.8,1.8,4.8c0,1.8-0.5,3.3-1.6,4.5s-2.4,1.8-4.1,1.9v-3.2c1-0.1,1.7-0.5,2.2-1s0.8-1.3,0.8-2.2
		c0-1-0.4-1.8-1.1-2.4s-1.7-0.9-3-0.9c-1.2,0-2.2,0.3-2.9,0.9s-1.1,1.5-1.1,2.6c0,0.6,0.1,1.1,0.2,1.5s0.5,0.9,0.9,1.4L75.2,164.4z"
		/>
	<path fill="#0E0E0E" d="M81,133.4l-10.7-4.4v-4.2h14.8v3.3h-9.8l9.8,4.1v2.3l-9.8,4.1h9.8v3.3H70.3v-4.2L81,133.4z"/>
	<path fill="#0E0E0E" d="M81,112.4L70.3,108v-4.2h14.8v3.3h-9.8l9.8,4.1v2.3l-9.8,4.1h9.8v3.3H70.3v-4.2L81,112.4z"/>
</g>
<path fill="#0E0E0E" d="M75.5,344.6"/>
<path fill="#0E0E0E" d="M75.5,107.5"/>
<path fill="#AE8469" d="M360.4,168.4H140.8v-57h219.7V168.4z M145.8,163.4h209.7v-47H145.8V163.4z"/>
<polygon fill="#0E0E0E" points="100.3,165.5 100.3,140.5 97.3,140.5 97.3,168.5 129.3,168.5 129.3,165.5 "/>
<polygon fill="#0E0E0E" points="97.3,110.5 97.3,151.5 100.3,151.5 100.3,113.5 129.3,113.5 129.3,110.5 "/>
</svg>
