<?xml version="1.0" encoding="utf-8"?>
<!-- Generator: Adobe Illustrator 18.0.0, SVG Export Plug-In . SVG Version: 6.00 Build 0)  -->
<!DOCTYPE svg PUBLIC "-//W3C//DTD SVG 1.1//EN" "http://www.w3.org/Graphics/SVG/1.1/DTD/svg11.dtd">
<svg version="1.1" id="Слой_1" xmlns="http://www.w3.org/2000/svg" xmlns:xlink="http://www.w3.org/1999/xlink" x="0px" y="0px"
	 viewBox="0 0 510.3 294.8" enable-background="new 0 0 510.3 294.8" xml:space="preserve">
<path fill="#AE8469" d="M389.7,260.1H118.9c17.5-61.7,35-123.4,52.4-185.1l0,0c58.1,0,151.8,0,166.5,0
	C354,128.2,373.5,195.6,389.7,260.1z"/>
<path fill="#AE8469" d="M259.6,47.5c15.2,0,27.5,12.3,27.5,27.5c7.3,0,14.1,0,20.3,0c0-26.4-21.4-47.8-47.8-47.8
	c-26.4,0-47.8,21.4-47.8,47.8c6.7,0,13.5,0,20.3,0C232.1,59.8,244.4,47.5,259.6,47.5z"/>
<g>
	<path fill="#FFFFFF" d="M203.4,179c0,6.8-1.3,12-3.8,15.5c-2.6,3.5-6.5,5.2-11.7,5.2c-5.1,0-9-1.7-11.6-5.1
		c-2.6-3.4-3.9-8.4-4-15.1v-8.2c0-6.8,1.3-12,3.8-15.4c2.6-3.4,6.5-5.1,11.7-5.1c5.2,0,9.1,1.7,11.7,5c2.6,3.3,3.9,8.3,3.9,15V179z
		 M195.4,170.1c0-4.5-0.6-7.7-1.8-9.8c-1.2-2.1-3.2-3.1-5.8-3.1c-2.6,0-4.5,1-5.7,3c-1.2,2-1.9,5.1-1.9,9.2v10.8
		c0,4.4,0.6,7.8,1.9,9.9c1.2,2.2,3.2,3.3,5.9,3.3c2.6,0,4.4-1,5.7-3c1.2-2,1.9-5.2,1.9-9.5V170.1z"/>
	<path fill="#FFFFFF" d="M212,209.8l-4.3-2.6c1.3-2,2.1-3.7,2.6-5.2c0.5-1.5,0.7-3,0.7-4.5v-6.2h7.2l0,5.7c0,2.3-0.6,4.6-1.8,7
		C215.3,206.4,213.8,208.3,212,209.8z"/>
	<path fill="#FFFFFF" d="M255.1,164c0,2.3-0.6,4.4-1.8,6.2s-2.8,3.3-4.9,4.3c2.5,1.2,4.4,2.7,5.7,4.7c1.3,2,2,4.3,2,6.8
		c0,4.2-1.4,7.5-4.3,10c-2.8,2.5-6.6,3.7-11.3,3.7c-4.7,0-8.5-1.2-11.4-3.7c-2.8-2.5-4.3-5.8-4.3-9.9c0-2.6,0.7-4.8,2-6.9
		c1.4-2,3.3-3.6,5.7-4.7c-2.1-1-3.7-2.5-4.9-4.3c-1.2-1.8-1.8-3.9-1.8-6.2c0-4.1,1.3-7.3,3.9-9.7c2.6-2.4,6.2-3.6,10.6-3.6
		c4.5,0,8,1.2,10.6,3.6C253.8,156.7,255.1,159.9,255.1,164z M248.2,185.7c0-2.4-0.7-4.3-2.1-5.7c-1.4-1.5-3.3-2.2-5.6-2.2
		c-2.3,0-4.2,0.7-5.5,2.2c-1.4,1.4-2.1,3.3-2.1,5.7c0,2.3,0.7,4.2,2,5.6c1.4,1.4,3.2,2.1,5.6,2.1c2.4,0,4.3-0.7,5.6-2
		C247.5,190,248.2,188.1,248.2,185.7z M247.2,164.3c0-2.1-0.6-3.8-1.8-5.1c-1.2-1.3-2.8-2-4.8-2c-2,0-3.6,0.6-4.8,1.9
		c-1.2,1.3-1.8,3-1.8,5.2c0,2.2,0.6,3.9,1.8,5.2c1.2,1.3,2.8,1.9,4.8,1.9s3.6-0.6,4.8-1.9C246.6,168.2,247.2,166.4,247.2,164.3z"/>
	<path fill="#FFFFFF" d="M293,185h-4v14h-8v-35.4h8v14.1h3.5l9.8-14.1h9.8l-12.8,16.9l13.9,18.5h-10.3L293,185z"/>
	<path fill="#FFFFFF" d="M341.1,170.1h-15.4v29h-7.9v-35.4h23.3V170.1z"/>
</g>
</svg>
