<?xml version="1.0" encoding="utf-8"?>
<!-- Generator: Adobe Illustrator 18.0.0, SVG Export Plug-In . SVG Version: 6.00 Build 0)  -->
<!DOCTYPE svg PUBLIC "-//W3C//DTD SVG 1.1//EN" "http://www.w3.org/Graphics/SVG/1.1/DTD/svg11.dtd">
<svg version="1.1" id="Слой_1" xmlns="http://www.w3.org/2000/svg" xmlns:xlink="http://www.w3.org/1999/xlink" x="0px" y="0px"
	 viewBox="0 0 510.3 294.8" enable-background="new 0 0 510.3 294.8" xml:space="preserve">
<rect x="0" y="0" fill="none" width="509.9" height="294.8"/>
<polygon fill="#0E0E0E" points="493.6,226 16.3,226 16.3,192.1 19.4,192.1 19.4,222.9 490.5,222.9 490.5,194 493.6,194 "/>
<path fill="none" stroke="#000000" stroke-width="6" stroke-miterlimit="10" d="M155.5,520.7"/>
<image overflow="visible" width="3456" height="4608" xlink:href="../../../../temp/cat/628.jpg"  transform="matrix(0.9965 8.384689e-002 -8.384689e-002 0.9965 1679.2681 66.2258)">
</image>
<g>
	<g id="Слой_x0020_1_1_">
		<path fill="#AE8469" d="M44.2,123.4c-0.1,0.1-0.4,0.2-0.8,0.4c-0.4,0.2-0.7,0.4-0.9,0.6c-0.3,0.3-0.5,0.6-0.6,1.1
			c-0.1,0.5-0.2,1-0.2,1.6c0,0.7,0.2,1.3,0.5,1.7c0.3,0.4,0.7,0.7,1.1,0.7c0.1,0,0.2,0,0.3-0.1c0.1,0,0.2,0,0.2-0.1
			c0.1,0,0.2,0.1,0.3,0.2c0.1,0.1,0.1,0.1,0.1,0.2c0,0,0,0.1,0,0.1c0,0,0,0.1-0.1,0.1c-0.2,0.1-0.3,0.2-0.4,0.3
			c-0.1,0.1-0.3,0.1-0.6,0.1c-0.8,0-1.5-0.3-2-0.9c-0.5-0.6-0.8-1.4-0.8-2.3c0-1.2,0.3-2.1,0.8-2.8c0.6-0.7,1.4-1.2,2.5-1.4
			c0.1,0,0.3,0.1,0.3,0.2C44.1,123.1,44.2,123.2,44.2,123.4L44.2,123.4L44.2,123.4z M44.9,130.2c0-0.4,0-0.8,0.1-1.1
			c0-0.3,0-0.6,0-0.9c0-0.6,0-1.1,0-1.6c0-0.5-0.1-1-0.2-1.5c0.1-0.1,0.3-0.1,0.4-0.2c0.1,0,0.3-0.1,0.5-0.1
			c0.2,0.1,0.3,0.2,0.3,0.3c0.1,0.1,0.1,0.4,0.1,0.7c0.3-0.2,0.6-0.4,0.9-0.5c0.2-0.1,0.4-0.2,0.6-0.3c0.2,0,0.3,0.1,0.4,0.2
			c0.1,0.1,0.2,0.2,0.2,0.4c-0.4,0.1-0.7,0.3-1,0.5c-0.3,0.2-0.7,0.4-1,0.6c0,0.3,0,0.6,0,0.9c0,0.3,0,0.6,0,0.9c0,0.2,0,0.4,0,0.7
			c0,0.3,0,0.6,0,0.9l-0.2,0.2c0,0-0.1,0-0.2,0c-0.1,0-0.2,0-0.2,0c-0.2,0-0.3,0-0.4,0C45.1,130.3,45,130.3,44.9,130.2L44.9,130.2z
			 M50.9,129.4c0-0.3,0-0.6,0-0.9c0-0.3,0-0.6,0-0.9c0,0-0.1,0-0.1,0c0,0-0.1,0-0.1,0c-0.3,0-0.5,0.1-0.7,0.2
			c-0.2,0.1-0.2,0.4-0.2,0.7c0,0.4,0.1,0.7,0.2,0.8c0.1,0.1,0.3,0.2,0.6,0.2c0,0,0.1,0,0.3,0C50.8,129.4,50.8,129.4,50.9,129.4z
			 M49.1,125.8L49.1,125.8c-0.2,0-0.3,0-0.5-0.1c-0.1-0.1-0.2-0.2-0.2-0.3c0,0,0,0,0,0c0,0,0,0,0.1-0.1c0.3-0.1,0.6-0.2,0.9-0.3
			c0.3-0.1,0.6-0.2,0.9-0.3c0.6,0.1,1.1,0.3,1.3,0.6c0.2,0.4,0.4,1.2,0.4,2.5c0,0.4,0,1.2-0.1,2.2c0,0.1,0,0.2,0,0.2
			c-0.1,0-0.2,0-0.3,0.1c-0.1,0-0.2,0-0.2,0c-0.1,0-0.2,0-0.2,0c-0.1,0-0.2,0-0.2-0.1l-0.1-0.2c-0.2,0.1-0.4,0.1-0.6,0.1
			c-0.2,0-0.4,0.1-0.5,0.1c-0.4,0-0.7-0.1-0.9-0.4c-0.2-0.3-0.3-0.7-0.3-1.2c0-0.6,0.2-1.1,0.5-1.4c0.3-0.3,0.8-0.4,1.5-0.4h0.2
			c0-0.4-0.1-0.7-0.2-1c-0.1-0.3-0.3-0.4-0.5-0.4c0,0-0.1,0-0.2,0c-0.1,0-0.1,0-0.2,0.1L49.1,125.8L49.1,125.8z M56.1,129.4
			c0.2,0.1,0.3,0.1,0.3,0.2c0.1,0.1,0.1,0.2,0.1,0.3c0,0,0,0.1-0.1,0.2c0,0,0,0,0,0c-0.3,0.1-0.5,0.1-0.7,0.1c-0.2,0-0.5,0-0.7,0
			c-0.3,0-0.6,0-0.9-0.1c-0.3,0-0.7-0.1-1.2-0.2c0-0.1-0.1-0.2-0.1-0.2c0-0.1,0-0.1,0-0.2c0,0,0-0.1,0-0.1c0,0,0,0,0-0.1l1.9-4
			c-0.1,0-0.1,0-0.2,0c-0.1,0-0.2,0-0.3,0c-0.2,0-0.3,0-0.5,0c-0.2,0-0.4,0-0.7-0.1c0-0.1-0.1-0.2-0.1-0.3c0-0.1,0-0.2,0-0.2
			c0,0,0-0.1,0.1-0.1c0,0,0.1-0.1,0.2-0.1c0.2,0,0.3,0.1,0.5,0.1c0.2,0,0.4,0,0.6,0c0.2,0,0.5,0,0.7,0c0.2,0,0.4,0,0.6-0.1
			c0.2,0,0.3,0.1,0.3,0.2c0.1,0.1,0.1,0.2,0.2,0.4c-0.5,0.9-0.8,1.7-1.1,2.4c-0.3,0.7-0.6,1.2-0.8,1.8c0.1,0,0.2,0,0.3,0.1
			c0.1,0,0.2,0,0.3,0c0.2,0,0.4,0,0.6,0C55.6,129.5,55.8,129.5,56.1,129.4L56.1,129.4z M58.1,130c-0.2-0.9-0.4-1.7-0.6-2.5
			c-0.2-0.8-0.5-1.6-0.8-2.4c0.1-0.1,0.2-0.1,0.4-0.1c0.1,0,0.3,0,0.5,0c0.1,0,0.2,0,0.2,0c0.1,0,0.1,0,0.2,0c0.1,0.5,0.3,1,0.4,1.6
			c0.1,0.6,0.2,1.2,0.4,1.9c0.2-0.6,0.3-1.1,0.5-1.8c0.1-0.6,0.3-1.2,0.4-1.9c0.1,0,0.2,0,0.3,0c0.1,0,0.1,0,0.1,0
			c0.1,0,0.2,0,0.4,0c0.1,0,0.3,0.1,0.5,0.1c-0.3,1.4-0.7,2.7-1.1,3.9c-0.5,1.2-1,2.4-1.6,3.5h-0.2c-0.2,0-0.4,0-0.6-0.1
			c-0.2-0.1-0.4-0.1-0.6-0.3c0.2-0.2,0.4-0.5,0.6-0.8C57.7,130.9,57.9,130.5,58.1,130L58.1,130z M67.7,123.4
			c-0.1,0.1-0.4,0.2-0.8,0.4c-0.4,0.2-0.7,0.4-0.9,0.6c-0.3,0.3-0.5,0.6-0.6,1.1c-0.1,0.5-0.2,1-0.2,1.6c0,0.7,0.2,1.3,0.5,1.7
			c0.3,0.4,0.7,0.7,1.1,0.7c0.1,0,0.2,0,0.3-0.1c0.1,0,0.2,0,0.2-0.1c0.1,0,0.2,0.1,0.3,0.2c0.1,0.1,0.1,0.1,0.1,0.2
			c0,0,0,0.1,0,0.1c0,0,0,0.1-0.1,0.1c-0.2,0.1-0.3,0.2-0.4,0.3c-0.1,0.1-0.3,0.1-0.6,0.1c-0.8,0-1.5-0.3-2-0.9
			c-0.5-0.6-0.8-1.4-0.8-2.3c0-1.2,0.3-2.1,0.8-2.8c0.6-0.7,1.4-1.2,2.5-1.4c0.1,0,0.3,0.1,0.3,0.2
			C67.6,123.1,67.7,123.2,67.7,123.4L67.7,123.4L67.7,123.4z M70.6,129.4c0-0.3,0-0.6,0-0.9c0-0.3,0-0.6,0-0.9c0,0-0.1,0-0.1,0
			c0,0-0.1,0-0.1,0c-0.3,0-0.5,0.1-0.7,0.2c-0.2,0.1-0.2,0.4-0.2,0.7c0,0.4,0.1,0.7,0.2,0.8c0.1,0.1,0.3,0.2,0.6,0.2
			c0,0,0.1,0,0.3,0C70.5,129.4,70.5,129.4,70.6,129.4z M68.8,125.8L68.8,125.8c-0.2,0-0.3,0-0.5-0.1c-0.1-0.1-0.2-0.2-0.2-0.3
			c0,0,0,0,0,0c0,0,0,0,0.1-0.1c0.3-0.1,0.6-0.2,0.9-0.3c0.3-0.1,0.6-0.2,0.9-0.3c0.6,0.1,1.1,0.3,1.3,0.6c0.2,0.4,0.4,1.2,0.4,2.5
			c0,0.4,0,1.2-0.1,2.2c0,0.1,0,0.2,0,0.2c-0.1,0-0.2,0-0.3,0.1c-0.1,0-0.2,0-0.2,0c-0.1,0-0.2,0-0.2,0c-0.1,0-0.2,0-0.2-0.1
			l-0.1-0.2c-0.2,0.1-0.4,0.1-0.6,0.1c-0.2,0-0.4,0.1-0.5,0.1c-0.4,0-0.7-0.1-0.9-0.4c-0.2-0.3-0.3-0.7-0.3-1.2
			c0-0.6,0.2-1.1,0.5-1.4c0.3-0.3,0.8-0.4,1.5-0.4h0.2c0-0.4-0.1-0.7-0.2-1c-0.1-0.3-0.3-0.4-0.5-0.4c0,0-0.1,0-0.2,0
			c-0.1,0-0.1,0-0.2,0.1L68.8,125.8L68.8,125.8z M74.3,124c0,0.1,0,0.1,0.1,0.2c0,0.1,0,0.2,0,0.2v0.4c0,0,0,0,0,0.1
			c0,0,0,0.1,0,0.1c0.2,0,0.4,0,0.6,0c0.2,0,0.5,0,0.8-0.1c0.1,0.1,0.2,0.2,0.3,0.3c0.1,0.1,0.1,0.2,0.1,0.3
			c-0.2,0.1-0.4,0.1-0.6,0.1c-0.2,0-0.6,0.1-1.2,0.1c-0.1,0.5-0.1,1-0.1,1.5c0,0.5,0,0.9,0,1.3c0,0.5,0,0.9,0.1,1
			c0.1,0.1,0.2,0.2,0.4,0.2c0.1,0,0.2,0,0.3,0c0.1,0,0.2,0,0.3-0.1c0.1,0,0.1,0.1,0.2,0.1c0,0,0,0.1,0,0.1c0,0.1,0,0.1-0.1,0.2
			c0,0.1-0.1,0.1-0.2,0.2c-0.3,0.1-0.5,0.1-0.7,0.2c-0.2,0-0.3,0-0.5,0c-0.4,0-0.7-0.1-0.9-0.3c-0.2-0.2-0.3-0.6-0.3-1.1
			c0-0.3,0-0.7,0.1-1.2c0.1-0.5,0.1-1,0.1-1.2c0-0.2,0-0.4,0-0.5c0-0.1,0-0.2,0-0.3c-0.1,0-0.2,0-0.4-0.1c-0.1,0-0.2-0.1-0.3-0.1v0
			c0-0.1,0-0.2,0.1-0.3c0-0.1,0.1-0.2,0.2-0.2l0.5,0l0.1-0.9c0.1-0.1,0.2-0.1,0.3-0.1c0.1,0,0.2,0,0.3,0c0.1,0,0.2,0,0.2,0
			C74.1,123.9,74.2,124,74.3,124L74.3,124z"/>
		<path fill-rule="evenodd" clip-rule="evenodd" fill="#AE8469" d="M58,100c0.9,0,1.2,0,2,0.3c0.4-1.7,0.6-3.6-0.1-4.9
			c-0.2-0.3-0.6-0.5-0.5-1c0-0.1-0.1-0.3,0-0.3c0,0,0.4,0.2,0.6,0c0.2-0.2,0-0.5,0.2-0.7c0.1-0.1,0.1-0.2,0.2-0.2
			c0-0.1,0.1,0.1,0.2,0.2c0.3,0,0.3,0.3,0.5,0.4c0.2,0.1,0.4-0.4,0.7-0.4c0.1,0,0.1,0,0.3-0.1c0.1-0.1,0.1,0.1,0.2,0.2
			c0.2,0.2,0,0.4,0.1,0.7c0.1,0.1,0.3,0,0.4,0c0.1,0,0.1,0,0.2,0c0,0.1,0,0.2,0,0.3c0.2,0.3-0.4,0.8-0.9,1.2
			c-0.9,0.8-0.8,4.1-0.6,5.3c0.3,0.1,0.2,0.1,0.5,0.3c1.5-0.4,2.9-1,4.4-1.5c0.7-0.3,0.6,0.4,0.2,0.5c-1.4,0.6-2.8,0.9-4.4,1.2
			c0.1,0.1,0.1,0.1,0.2,0.2c1,0,2.2-0.1,3.4-0.2c0.4-0.1,0.4,0.5,0.1,0.5c-1.2,0-2.4,0-3.3,0c0.1,0.1,0.2,0.2,0.3,0.4
			c1.5,0.2,3,0.3,4.4,0.5c0.4,0.1,0.4,0.6-0.1,0.5c-1.2-0.3-3-0.7-4.2-0.8c0.3,0.6,0.2,1.2,0.2,2.1c0,1.2,0.6,1.3,0.5,3.4
			c-1.3-0.1-1.3-0.2-2.2-0.5c0.2,2,1,4.3,1.6,6.3c0.4,1.3,2.3-1.4,2.4-2c0.1-0.5-1-1-0.9-1.6c0-0.1,0-0.5,0.1-0.5c0,0,0.4,0.2,0.6,0
			c0.2-0.3,0.1-0.7,0.4-1c0.1-0.1,0.1-0.2,0.2-0.3c0-0.1,0.1,0.2,0.2,0.2c0.3,0.1,0.3,0.1,0.5,0.4c0.2,0.2,0.2-0.2,0.7-0.2
			c0.1,0,0.1,0,0.3-0.1c0.1-0.1,0.1,0.2,0.2,0.4c0.2,0.3-0.1,1,0.3,1.1c0.1,0,0.1-0.1,0.2-0.2c0,0.1,0,0.1,0,0.2c0,0.2,0,0.3,0,0.5
			c-0.1,0.8-1.1,0.7-1.8,1.8c-2.4,4.1-3.9,7.2-8.1,7.9c0.2,0.1,0.6,0.2,1.3,0.1c2.9-0.1,8.1-5,9.4-1.5c0.1,0.2,0.1,0.6,0,0.8
			c-0.2,0.5-0.8,0.8-1.2-0.3c-0.2-0.6-1.5-0.6-2.2-0.4c-3.5,1.3-6.7,3.2-8.6,1.2c-5.4-1.2-5.2-3.9-8.1-7.6c-0.8-1-1.6-0.6-1.8-1.4
			c0-0.1,0-0.2,0-0.4c0-0.1,0-0.2,0-0.2c0.2,0.1,0.1,0.2,0.3,0.1c0.4-0.1,0.1-0.8,0.2-1.1c0.1-0.2,0-0.4,0.1-0.4
			c0.1,0.1,0.2,0.1,0.3,0.1c0.6,0,0.7,0.4,0.9,0.2c0.3-0.3,0.3-0.4,0.6-0.5c0.1,0,0.2-0.3,0.2-0.2c0,0.1,0.1,0.2,0.2,0.3
			c0.3,0.2,0.2,0.6,0.5,0.9c0.1,0.1,0.2,0.1,0.3,0.1c0,0,0,0,0,0l0,0c0.1-0.1,0.2-0.1,0.2-0.1c0.1,0,0,0.3,0,0.5
			c0.1,0.7-0.8,1.4-0.7,1.9c0.2,0.6,2,3.1,2.6,1.2c0.9-2.9,0.6-5.2,0.7-6.4c-0.9,0.2-1.1,0.3-2.5,0.5c-0.1-1.7,1.1-2.6,1.1-3.8
			c0-0.3,0.1-0.6,0.2-0.9c-1.2,0.1-2.9,0.2-4.2,0.3c-0.4,0.1-0.6-0.5-0.2-0.6c1.7,0,3.2,0,4.6,0c0.1-0.1,0.2-0.3,0.3-0.4
			c-1-0.1-2.1-0.2-3.1-0.3c-0.4-0.1-0.1-0.5,0.2-0.4c1.2,0.3,2,0.5,3,0.5c0,0,0.1-0.1,0.1-0.1c-1.3-0.5-2.7-0.7-4-1.2
			c-0.3-0.1-0.5-0.8,0.2-0.5c1.4,0.5,2.6,1.1,3.9,1.6c0.3-0.2,0.4-0.3,0.7-0.5c-0.1-0.3,0.3-4-0.7-5.1c-0.4-0.5-1-0.8-0.9-1.2
			c0-0.1,0-0.2,0-0.3c0.1,0,0.1,0,0.2,0c0.1,0,0.3,0.1,0.3,0c0.1-0.3-0.1-0.4,0.1-0.7c0.1-0.1,0-0.3,0.2-0.3
			c0.1,0.1,0.1,0.1,0.2,0.1c0.3,0,0.5,0.4,0.7,0.3c0.2-0.2,0.2-0.4,0.5-0.5c0.1,0,0.2-0.2,0.2-0.2c0,0.1,0.1,0.2,0.2,0.2
			c0.2,0.2,0.1,0.4,0.3,0.7c0.2,0.2,0.5-0.1,0.5,0c0.1,0,0,0.2,0,0.3c0.1,0.5-0.2,0.7-0.4,1.1c-0.8,1.3-0.3,3.6,0,4.8
			C56.5,100.1,57,100,58,100L58,100z M47.2,109.1c0.1,0.7-0.3,1.5-0.3-0.4c0-0.5,0.1-2.5,0.2-1.8C47.2,107.7,47.1,108.3,47.2,109.1
			L47.2,109.1z M49.8,105c-0.3-1.3,0,6.6,0.3,2C50.1,106.4,49.9,105.5,49.8,105z M50.8,109c-0.1,0.6,0.3,1.1,0.3-0.3
			c0-0.4-0.1-1.9-0.2-1.4C50.8,107.9,50.9,108.4,50.8,109z M48.5,107.1c-0.1,1.5-0.1,2.1-0.4,0.8c-0.1-0.5,0-3.1,0.2-2.9
			C48.4,105.1,48.6,105.5,48.5,107.1L48.5,107.1z M68.5,108.5c-0.1,0.7,0.3,1.5,0.3-0.4c0-0.5-0.1-2.5-0.2-1.8
			C68.6,107,68.6,107.7,68.5,108.5z M66.1,104.2c0.3-1.3,0,6.6-0.3,2C65.8,105.5,66,104.7,66.1,104.2z M65,108
			c0.1,0.8-0.3,1.6-0.3-0.4c0-0.5,0.1-2.7,0.2-2C64.9,106.4,64.9,107.1,65,108z M67.6,106.5c0.1,1.7,0.1,2.4,0.4,0.9
			c0.1-0.5,0-3.7-0.2-3.4C67.6,104.2,67.4,104.7,67.6,106.5z M63.2,92c-0.1,0.8,0.3,1.6,0.3-0.4c0-0.5-0.1-2.8-0.2-2.1
			C63.2,90.4,63.2,91.1,63.2,92z M58.7,89.2c-0.4-1.4,0.4,7.1,0.4,2.1C59.1,90.6,58.9,89.7,58.7,89.2z M60.5,90.9
			c0.1,0.9-0.3,1.8-0.3-0.5c0-0.6,0.1-3,0.2-2.2C60.5,89.1,60.4,89.9,60.5,90.9z M61.9,90.5c0.1,2.1,0,2.9,0.4,1
			c0.1-0.6,0.1-4.3-0.1-4C62,87.8,61.8,88.4,61.9,90.5z M56.4,92.5c-0.1,0.8,0.3,1.6,0.3-0.4c0-0.5-0.1-2.8-0.2-2.1
			C56.4,90.8,56.5,91.6,56.4,92.5L56.4,92.5z M53.3,89.3c-0.4-1.4,0.4,7.4,0.4,2.2C53.7,90.7,53.4,89.7,53.3,89.3z M55.3,101.9
			c-0.2,0-0.5,0.4-0.5,0.8c0,0.4,0.3,0.6,0.5,0.6c0.2,0,0.5-0.3,0.5-0.7C55.9,102.2,55.6,101.9,55.3,101.9z M52.4,91.5
			c0.1,0.9-0.3,1.8-0.3-0.5c0-0.6,0.1-3,0.2-2.2C52.4,89.8,52.4,90.6,52.4,91.5L52.4,91.5z M54.9,90.3c0.1,2.1,0,2.9,0.4,1
			c0.1-0.6,0.1-4.3-0.1-4C55.1,87.6,54.9,88.2,54.9,90.3L54.9,90.3z M60.7,101.9c-0.2,0-0.5,0.4-0.5,0.8c0,0.4,0.3,0.6,0.5,0.6
			s0.5-0.3,0.5-0.7C61.3,102.2,61,101.9,60.7,101.9z M58.6,100.7c-0.7-0.6-2.3,0.9-0.8,0.7C58.5,101.2,59.6,101.5,58.6,100.7z
			 M55.6,101.5c0.9,0,1.5,0.8,1.5,1.5c0,0.7-1,1.2-1.9,1.2c-0.9,0-1.6-0.6-1.6-1.2C53.6,102.3,54.7,101.5,55.6,101.5z M60.7,101.7
			c-0.9,0-1.5,0.6-1.6,1.3c-0.1,0.7,0.8,0.9,1.8,0.9c0.9,0,1.7-0.3,1.6-1C62.3,102.2,61.6,101.7,60.7,101.7L60.7,101.7z"/>
	</g>
	<path fill="#AE8469" d="M47.1,150.5h-0.7l-0.6-0.5c-1-0.5-24.5-12.5-30-32.5c-2.6-9.4-0.8-19,5.4-28.5C31.6,73,47.9,69.6,59.7,69.6
		c10.2,0,19.5,2.6,24.9,5c15,6.7,24.9,11.8,32.9,15.9c22.3,11.4,27.6,14.1,80.5,20c9.1,1,19.4,1.5,31.5,1.5c8.4,0,16.5-0.2,24.3-0.4
		c6-0.2,11.7-0.3,16.9-0.4c33.1-0.2,54.9-0.5,82.9-4.1c27.2-3.5,50.6-14.1,69.3-22.6c15.4-7,27.6-12.5,37.7-12.5
		c4.4,0,8.1,1,11.3,3.2c15.9,10.6,23.6,22.2,22.9,34.4c-1.3,23.3-32.9,39.7-34.2,40.4l-0.6,0.6L47.1,150.5z M59.7,75.5
		c-10.3,0-24.5,2.9-33.5,16.7c-5.2,8-6.7,15.9-4.6,23.5c4.3,15.8,22.7,26.4,26.3,28.3l410.6,0c4.3-2.3,29.3-16.8,30.3-35
		c0.6-10-6.2-19.7-20.2-29.1c-2.2-1.5-4.8-2.2-7.9-2.2c-8.8,0-21,5.6-35.2,12c-19.1,8.7-42.9,19.5-71.1,23.1
		c-28.4,3.6-50.2,3.9-83.6,4.1c-5.1,0-10.8,0.2-16.7,0.4c-7.9,0.2-16,0.5-24.5,0.5c-12.3,0-22.8-0.5-32.2-1.5
		c-54-6-60-9.1-82.6-20.6C106.8,91.7,97,86.6,82.1,80C77.3,77.8,68.9,75.5,59.7,75.5z"/>
</g>
<g>
	<path fill="#0E0E0E" d="M224,238.3v2.3h-0.5c-2.1,0-3.8,0.7-5,1.9s-2,2.9-2.2,5.1c1.1-1.3,2.7-1.9,4.6-1.9c1.9,0,3.3,0.7,4.4,2
		c1.1,1.3,1.7,3,1.7,5.1c0,2.2-0.6,4-1.8,5.3s-2.8,2-4.8,2c-2,0-3.7-0.8-5-2.4c-1.3-1.6-1.9-3.6-1.9-6.1v-1c0-3.9,0.8-6.9,2.5-9
		s4.2-3.1,7.5-3.2H224z M220.4,247.9c-0.9,0-1.8,0.3-2.6,0.8s-1.3,1.3-1.6,2.1v1c0,1.8,0.4,3.2,1.2,4.2c0.8,1.1,1.8,1.6,3,1.6
		c1.2,0,2.2-0.4,2.9-1.3c0.7-0.9,1-2.1,1-3.5c0-1.5-0.4-2.6-1.1-3.6C222.6,248.4,221.6,247.9,220.4,247.9z"/>
	<path fill="#0E0E0E" d="M240.6,250.3c-0.6,0.7-1.2,1.2-2,1.6s-1.6,0.6-2.6,0.6c-1.2,0-2.3-0.3-3.2-0.9s-1.6-1.5-2.1-2.6
		c-0.5-1.1-0.7-2.3-0.7-3.6c0-1.4,0.3-2.7,0.8-3.9c0.5-1.1,1.3-2,2.3-2.6s2.2-0.9,3.5-0.9c2.1,0,3.8,0.8,5,2.4
		c1.2,1.6,1.8,3.7,1.8,6.5v0.8c0,4.2-0.8,7.2-2.5,9.1c-1.6,1.9-4.1,2.9-7.4,2.9h-0.5v-2.3h0.6c2.2,0,4-0.6,5.2-1.7
		C239.8,254.5,240.5,252.7,240.6,250.3z M236.4,250.3c0.9,0,1.7-0.3,2.5-0.8c0.8-0.6,1.3-1.2,1.7-2.1v-1.1c0-1.8-0.4-3.2-1.2-4.3
		s-1.7-1.7-2.9-1.7c-1.2,0-2.1,0.5-2.9,1.4c-0.7,0.9-1.1,2.1-1.1,3.6c0,1.5,0.3,2.7,1,3.6C234.3,249.8,235.3,250.3,236.4,250.3z"/>
	<path fill="#0E0E0E" d="M260.4,250.6c0,3.2-0.5,5.5-1.6,7.1s-2.8,2.3-5.1,2.3c-2.3,0-4-0.8-5.1-2.3c-1.1-1.5-1.7-3.8-1.7-6.8v-3.6
		c0-3.1,0.5-5.5,1.6-7s2.8-2.3,5.1-2.3c2.3,0,4,0.7,5.1,2.2s1.6,3.7,1.7,6.8V250.6z M257.7,246.9c0-2.3-0.3-4-1-5
		c-0.6-1-1.7-1.6-3.1-1.6c-1.4,0-2.4,0.5-3,1.6s-1,2.7-1,4.8v4.3c0,2.3,0.3,4,1,5.1c0.7,1.1,1.7,1.6,3,1.6c1.3,0,2.3-0.5,3-1.6
		c0.6-1,1-2.7,1-4.9V246.9z"/>
	<path fill="#0E0E0E" d="M280.7,256.1l5.4-12.3h3.4v15.8h-2.7v-11.5l-5.1,11.5h-1.9l-5.2-11.8v11.8h-2.7v-15.8h3.5L280.7,256.1z"/>
	<path fill="#0E0E0E" d="M303,256.1l5.4-12.3h3.4v15.8h-2.7v-11.5l-5.1,11.5h-1.9l-5.2-11.8v11.8h-2.7v-15.8h3.5L303,256.1z"/>
</g>
</svg>
