<?xml version="1.0" encoding="utf-8"?>
<!-- Generator: Adobe Illustrator 18.0.0, SVG Export Plug-In . SVG Version: 6.00 Build 0)  -->
<!DOCTYPE svg PUBLIC "-//W3C//DTD SVG 1.1//EN" "http://www.w3.org/Graphics/SVG/1.1/DTD/svg11.dtd">
<svg version="1.1" id="Слой_1" xmlns="http://www.w3.org/2000/svg" xmlns:xlink="http://www.w3.org/1999/xlink" x="0px" y="0px"
	 viewBox="0 0 510.3 294.8" enable-background="new 0 0 510.3 294.8" xml:space="preserve">
<path fill="none" stroke="#000000" stroke-width="6" stroke-miterlimit="10" d="M155.5,520.7"/>
<image overflow="visible" width="3456" height="4608" xlink:href="../../../../temp/cat/628.jpg"  transform="matrix(0.9965 8.384689e-002 -8.384689e-002 0.9965 1679.2681 66.2258)">
</image>
<g>
	<g id="Слой_x0020_1_1_">
		<path fill="#AE8469" d="M44.2,215.4c-0.1,0.1-0.4,0.2-0.8,0.4c-0.4,0.2-0.7,0.4-0.9,0.6c-0.3,0.3-0.5,0.6-0.6,1.1
			c-0.1,0.5-0.2,1-0.2,1.6c0,0.7,0.2,1.3,0.5,1.7c0.3,0.4,0.7,0.7,1.1,0.7c0.1,0,0.2,0,0.3-0.1c0.1,0,0.2,0,0.2-0.1
			c0.1,0,0.2,0.1,0.3,0.2c0.1,0.1,0.1,0.1,0.1,0.2c0,0,0,0.1,0,0.1c0,0,0,0.1-0.1,0.1c-0.2,0.1-0.3,0.2-0.4,0.3
			c-0.1,0.1-0.3,0.1-0.6,0.1c-0.8,0-1.5-0.3-2-0.9c-0.5-0.6-0.8-1.4-0.8-2.3c0-1.2,0.3-2.1,0.8-2.8c0.6-0.7,1.4-1.2,2.5-1.4
			c0.1,0,0.3,0.1,0.3,0.2C44.2,215.1,44.2,215.2,44.2,215.4L44.2,215.4L44.2,215.4z M45,222.2c0-0.4,0-0.8,0.1-1.1
			c0-0.3,0-0.6,0-0.9c0-0.6,0-1.1,0-1.6c0-0.5-0.1-1-0.2-1.5c0.1-0.1,0.3-0.1,0.4-0.2c0.1,0,0.3-0.1,0.5-0.1
			c0.2,0.1,0.3,0.2,0.3,0.3c0.1,0.1,0.1,0.4,0.1,0.7c0.3-0.2,0.6-0.4,0.9-0.5c0.2-0.1,0.4-0.2,0.6-0.3c0.2,0,0.3,0.1,0.4,0.2
			c0.1,0.1,0.2,0.2,0.2,0.4c-0.4,0.1-0.7,0.3-1,0.5c-0.3,0.2-0.7,0.4-1,0.6c0,0.3,0,0.6,0,0.9c0,0.3,0,0.6,0,0.9c0,0.2,0,0.4,0,0.7
			c0,0.3,0,0.6,0,0.9l-0.2,0.2c0,0-0.1,0-0.2,0c-0.1,0-0.2,0-0.2,0c-0.2,0-0.3,0-0.4,0C45.2,222.3,45.1,222.3,45,222.2L45,222.2z
			 M50.9,221.4c0-0.3,0-0.6,0-0.9c0-0.3,0-0.6,0-0.9c0,0-0.1,0-0.1,0c0,0-0.1,0-0.1,0c-0.3,0-0.5,0.1-0.7,0.2
			c-0.2,0.1-0.2,0.4-0.2,0.7c0,0.4,0.1,0.7,0.2,0.8c0.1,0.1,0.3,0.2,0.6,0.2c0,0,0.1,0,0.3,0C50.8,221.4,50.9,221.4,50.9,221.4z
			 M49.2,217.8L49.2,217.8c-0.2,0-0.3,0-0.5-0.1c-0.1-0.1-0.2-0.2-0.2-0.3c0,0,0,0,0,0c0,0,0,0,0.1-0.1c0.3-0.1,0.6-0.2,0.9-0.3
			c0.3-0.1,0.6-0.2,0.9-0.3c0.6,0.1,1.1,0.3,1.3,0.6c0.2,0.4,0.4,1.2,0.4,2.5c0,0.4,0,1.2-0.1,2.2c0,0.1,0,0.2,0,0.2
			c-0.1,0-0.2,0-0.3,0.1c-0.1,0-0.2,0-0.2,0c-0.1,0-0.2,0-0.2,0c-0.1,0-0.2,0-0.2-0.1l-0.1-0.2c-0.2,0.1-0.4,0.1-0.6,0.1
			c-0.2,0-0.4,0.1-0.5,0.1c-0.4,0-0.7-0.1-0.9-0.4c-0.2-0.3-0.3-0.7-0.3-1.2c0-0.6,0.2-1.1,0.5-1.4c0.3-0.3,0.8-0.4,1.5-0.4h0.2
			c0-0.4-0.1-0.7-0.2-1c-0.1-0.3-0.3-0.4-0.5-0.4c0,0-0.1,0-0.2,0c-0.1,0-0.1,0-0.2,0.1L49.2,217.8L49.2,217.8z M56.1,221.4
			c0.2,0.1,0.3,0.1,0.3,0.2c0.1,0.1,0.1,0.2,0.1,0.3c0,0,0,0.1-0.1,0.2c0,0,0,0,0,0c-0.3,0.1-0.5,0.1-0.7,0.1c-0.2,0-0.5,0-0.7,0
			c-0.3,0-0.6,0-0.9-0.1c-0.3,0-0.7-0.1-1.2-0.2c0-0.1-0.1-0.2-0.1-0.2c0-0.1,0-0.1,0-0.2c0,0,0-0.1,0-0.1c0,0,0,0,0-0.1l1.9-4
			c-0.1,0-0.1,0-0.2,0c-0.1,0-0.2,0-0.3,0c-0.2,0-0.3,0-0.5,0c-0.2,0-0.4,0-0.7-0.1c0-0.1-0.1-0.2-0.1-0.3c0-0.1,0-0.2,0-0.2
			c0,0,0-0.1,0.1-0.1c0,0,0.1-0.1,0.2-0.1c0.2,0,0.3,0.1,0.5,0.1c0.2,0,0.4,0,0.6,0c0.2,0,0.5,0,0.7,0c0.2,0,0.4,0,0.6-0.1
			c0.2,0,0.3,0.1,0.3,0.2c0.1,0.1,0.1,0.2,0.2,0.4c-0.5,0.9-0.8,1.7-1.1,2.4c-0.3,0.7-0.6,1.2-0.8,1.8c0.1,0,0.2,0,0.3,0.1
			c0.1,0,0.2,0,0.3,0c0.2,0,0.4,0,0.6,0C55.7,221.5,55.9,221.5,56.1,221.4L56.1,221.4z M58.1,222c-0.2-0.9-0.4-1.7-0.6-2.5
			c-0.2-0.8-0.5-1.6-0.8-2.4c0.1-0.1,0.2-0.1,0.4-0.1c0.1,0,0.3,0,0.5,0c0.1,0,0.2,0,0.2,0c0.1,0,0.1,0,0.2,0c0.1,0.5,0.3,1,0.4,1.6
			c0.1,0.6,0.2,1.2,0.4,1.9c0.2-0.6,0.3-1.1,0.5-1.8c0.1-0.6,0.3-1.2,0.4-1.9c0.1,0,0.2,0,0.3,0c0.1,0,0.1,0,0.1,0
			c0.1,0,0.2,0,0.4,0c0.1,0,0.3,0.1,0.5,0.1c-0.3,1.4-0.7,2.7-1.1,3.9c-0.5,1.2-1,2.4-1.6,3.5h-0.2c-0.2,0-0.4,0-0.6-0.1
			c-0.2-0.1-0.4-0.1-0.6-0.3c0.2-0.2,0.4-0.5,0.6-0.8C57.7,222.9,57.9,222.5,58.1,222L58.1,222z M67.7,215.4
			c-0.1,0.1-0.4,0.2-0.8,0.4c-0.4,0.2-0.7,0.4-0.9,0.6c-0.3,0.3-0.5,0.6-0.6,1.1c-0.1,0.5-0.2,1-0.2,1.6c0,0.7,0.2,1.3,0.5,1.7
			c0.3,0.4,0.7,0.7,1.1,0.7c0.1,0,0.2,0,0.3-0.1c0.1,0,0.2,0,0.2-0.1c0.1,0,0.2,0.1,0.3,0.2c0.1,0.1,0.1,0.1,0.1,0.2
			c0,0,0,0.1,0,0.1c0,0,0,0.1-0.1,0.1c-0.2,0.1-0.3,0.2-0.4,0.3c-0.1,0.1-0.3,0.1-0.6,0.1c-0.8,0-1.5-0.3-2-0.9
			c-0.5-0.6-0.8-1.4-0.8-2.3c0-1.2,0.3-2.1,0.8-2.8c0.6-0.7,1.4-1.2,2.5-1.4c0.1,0,0.3,0.1,0.3,0.2
			C67.7,215.1,67.7,215.2,67.7,215.4L67.7,215.4L67.7,215.4z M70.6,221.4c0-0.3,0-0.6,0-0.9c0-0.3,0-0.6,0-0.9c0,0-0.1,0-0.1,0
			c0,0-0.1,0-0.1,0c-0.3,0-0.5,0.1-0.7,0.2c-0.2,0.1-0.2,0.4-0.2,0.7c0,0.4,0.1,0.7,0.2,0.8c0.1,0.1,0.3,0.2,0.6,0.2
			c0,0,0.1,0,0.3,0C70.5,221.4,70.6,221.4,70.6,221.4z M68.9,217.8L68.9,217.8c-0.2,0-0.3,0-0.5-0.1c-0.1-0.1-0.2-0.2-0.2-0.3
			c0,0,0,0,0,0c0,0,0,0,0.1-0.1c0.3-0.1,0.6-0.2,0.9-0.3c0.3-0.1,0.6-0.2,0.9-0.3c0.6,0.1,1.1,0.3,1.3,0.6c0.2,0.4,0.4,1.2,0.4,2.5
			c0,0.4,0,1.2-0.1,2.2c0,0.1,0,0.2,0,0.2c-0.1,0-0.2,0-0.3,0.1c-0.1,0-0.2,0-0.2,0c-0.1,0-0.2,0-0.2,0c-0.1,0-0.2,0-0.2-0.1
			l-0.1-0.2c-0.2,0.1-0.4,0.1-0.6,0.1c-0.2,0-0.4,0.1-0.5,0.1c-0.4,0-0.7-0.1-0.9-0.4c-0.2-0.3-0.3-0.7-0.3-1.2
			c0-0.6,0.2-1.1,0.5-1.4c0.3-0.3,0.8-0.4,1.5-0.4h0.2c0-0.4-0.1-0.7-0.2-1c-0.1-0.3-0.3-0.4-0.5-0.4c0,0-0.1,0-0.2,0
			c-0.1,0-0.1,0-0.2,0.1L68.9,217.8L68.9,217.8z M74.4,216c0,0.1,0,0.1,0.1,0.2c0,0.1,0,0.2,0,0.2v0.4c0,0,0,0,0,0.1
			c0,0,0,0.1,0,0.1c0.2,0,0.4,0,0.6,0c0.2,0,0.5,0,0.8-0.1c0.1,0.1,0.2,0.2,0.3,0.3c0.1,0.1,0.1,0.2,0.1,0.3
			c-0.2,0.1-0.4,0.1-0.6,0.1c-0.2,0-0.6,0.1-1.2,0.1c-0.1,0.5-0.1,1-0.1,1.5c0,0.5,0,0.9,0,1.3c0,0.5,0,0.9,0.1,1
			c0.1,0.1,0.2,0.2,0.4,0.2c0.1,0,0.2,0,0.3,0c0.1,0,0.2,0,0.3-0.1c0.1,0,0.1,0.1,0.2,0.1c0,0,0,0.1,0,0.1c0,0.1,0,0.1-0.1,0.2
			c0,0.1-0.1,0.1-0.2,0.2c-0.3,0.1-0.5,0.1-0.7,0.2c-0.2,0-0.3,0-0.5,0c-0.4,0-0.7-0.1-0.9-0.3c-0.2-0.2-0.3-0.6-0.3-1.1
			c0-0.3,0-0.7,0.1-1.2c0.1-0.5,0.1-1,0.1-1.2c0-0.2,0-0.4,0-0.5c0-0.1,0-0.2,0-0.3c-0.1,0-0.2,0-0.4-0.1c-0.1,0-0.2-0.1-0.3-0.1v0
			c0-0.1,0-0.2,0.1-0.3c0-0.1,0.1-0.2,0.2-0.2l0.5,0l0.1-0.9c0.1-0.1,0.2-0.1,0.3-0.1c0.1,0,0.2,0,0.3,0c0.1,0,0.2,0,0.2,0
			C74.2,215.9,74.3,216,74.4,216L74.4,216z"/>
		<path fill-rule="evenodd" clip-rule="evenodd" fill="#AE8469" d="M58,192c0.9,0,1.2,0,2,0.3c0.4-1.7,0.6-3.6-0.1-4.9
			c-0.2-0.3-0.6-0.5-0.5-1c0-0.1-0.1-0.3,0-0.3c0,0,0.4,0.2,0.6,0c0.2-0.2,0-0.5,0.2-0.7c0.1-0.1,0.1-0.2,0.2-0.2
			c0-0.1,0.1,0.1,0.2,0.2c0.3,0,0.3,0.3,0.5,0.4c0.2,0.1,0.4-0.4,0.7-0.4c0.1,0,0.1,0,0.3-0.1c0.1-0.1,0.1,0.1,0.2,0.2
			c0.2,0.2,0,0.4,0.1,0.7c0.1,0.1,0.3,0,0.4,0c0.1,0,0.1,0,0.2,0c0,0.1,0,0.2,0,0.3c0.2,0.3-0.4,0.8-0.9,1.2
			c-0.9,0.8-0.8,4.1-0.6,5.3c0.3,0.1,0.2,0.1,0.5,0.3c1.5-0.4,2.9-1,4.4-1.5c0.7-0.3,0.6,0.4,0.2,0.5c-1.4,0.6-2.8,0.9-4.4,1.2
			c0.1,0.1,0.1,0.1,0.2,0.2c1,0,2.2-0.1,3.4-0.2c0.4-0.1,0.4,0.5,0.1,0.5c-1.2,0-2.4,0-3.3,0c0.1,0.1,0.2,0.2,0.3,0.4
			c1.5,0.2,3,0.3,4.4,0.5c0.4,0.1,0.4,0.6-0.1,0.5c-1.2-0.3-3-0.7-4.2-0.8c0.3,0.6,0.2,1.2,0.2,2.1c0,1.2,0.6,1.3,0.5,3.4
			c-1.3-0.1-1.3-0.2-2.2-0.5c0.2,2,1,4.3,1.6,6.3c0.4,1.3,2.3-1.4,2.4-2c0.1-0.5-1-1-0.9-1.6c0-0.1,0-0.5,0.1-0.5c0,0,0.4,0.2,0.6,0
			c0.2-0.3,0.1-0.7,0.4-1c0.1-0.1,0.1-0.2,0.2-0.3c0-0.1,0.1,0.2,0.2,0.2c0.3,0.1,0.3,0.1,0.5,0.4c0.2,0.2,0.2-0.2,0.7-0.2
			c0.1,0,0.1,0,0.3-0.1c0.1-0.1,0.1,0.2,0.2,0.4c0.2,0.3-0.1,1,0.3,1.1c0.1,0,0.1-0.1,0.2-0.2c0,0.1,0,0.1,0,0.2c0,0.2,0,0.3,0,0.5
			c-0.1,0.8-1.1,0.7-1.8,1.8c-2.4,4.1-3.9,7.2-8.1,7.9c0.2,0.1,0.6,0.2,1.3,0.1c2.9-0.1,8.1-5,9.4-1.5c0.1,0.2,0.1,0.6,0,0.8
			c-0.2,0.5-0.8,0.8-1.2-0.3c-0.2-0.6-1.5-0.6-2.2-0.4c-3.5,1.3-6.7,3.2-8.6,1.2c-5.4-1.2-5.2-3.9-8.1-7.6c-0.8-1-1.6-0.6-1.8-1.4
			c0-0.1,0-0.2,0-0.4c0-0.1,0-0.2,0-0.2c0.2,0.1,0.1,0.2,0.3,0.1c0.4-0.1,0.1-0.8,0.2-1.1c0.1-0.2,0-0.4,0.1-0.4
			c0.1,0.1,0.2,0.1,0.3,0.1c0.6,0,0.7,0.4,0.9,0.2c0.3-0.3,0.3-0.4,0.6-0.5c0.1,0,0.2-0.3,0.2-0.2c0,0.1,0.1,0.2,0.2,0.3
			c0.3,0.2,0.2,0.6,0.5,0.9c0.1,0.1,0.2,0.1,0.3,0.1c0,0,0,0,0,0l0,0c0.1-0.1,0.2-0.1,0.2-0.1c0.1,0,0,0.3,0,0.5
			c0.1,0.7-0.8,1.4-0.7,1.9c0.2,0.6,2,3.1,2.6,1.2c0.9-2.9,0.6-5.2,0.7-6.4c-0.9,0.2-1.1,0.3-2.5,0.5c-0.1-1.7,1.1-2.6,1.1-3.8
			c0-0.3,0.1-0.6,0.2-0.9c-1.2,0.1-2.9,0.2-4.2,0.3c-0.4,0.1-0.6-0.5-0.2-0.6c1.7,0,3.2,0,4.6,0c0.1-0.1,0.2-0.3,0.3-0.4
			c-1-0.1-2.1-0.2-3.1-0.3c-0.4-0.1-0.1-0.5,0.2-0.4c1.2,0.3,2,0.5,3,0.5c0,0,0.1-0.1,0.1-0.1c-1.3-0.5-2.7-0.7-4-1.2
			c-0.3-0.1-0.5-0.8,0.2-0.5c1.4,0.5,2.6,1.1,3.9,1.6c0.3-0.2,0.4-0.3,0.7-0.5c-0.1-0.3,0.3-4-0.7-5.1c-0.4-0.5-1-0.8-0.9-1.2
			c0-0.1,0-0.2,0-0.3c0.1,0,0.1,0,0.2,0c0.1,0,0.3,0.1,0.3,0c0.1-0.3-0.1-0.4,0.1-0.7c0.1-0.1,0-0.3,0.2-0.3
			c0.1,0.1,0.1,0.1,0.2,0.1c0.3,0,0.5,0.4,0.7,0.3c0.2-0.2,0.2-0.4,0.5-0.5c0.1,0,0.2-0.2,0.2-0.2c0,0.1,0.1,0.2,0.2,0.2
			c0.2,0.2,0.1,0.4,0.3,0.7c0.2,0.2,0.5-0.1,0.5,0c0.1,0,0,0.2,0,0.3c0.1,0.5-0.2,0.7-0.4,1.1c-0.8,1.3-0.3,3.6,0,4.8
			C56.6,192.1,57,192,58,192L58,192z M47.2,201.1c0.1,0.7-0.3,1.5-0.3-0.4c0-0.5,0.1-2.5,0.2-1.8C47.2,199.7,47.2,200.3,47.2,201.1
			L47.2,201.1z M49.9,197c-0.3-1.3,0,6.6,0.3,2C50.2,198.4,50,197.5,49.9,197z M50.9,201c-0.1,0.6,0.3,1.1,0.3-0.3
			c0-0.4-0.1-1.9-0.2-1.4C50.9,199.9,50.9,200.4,50.9,201z M48.5,199.1c-0.1,1.5-0.1,2.1-0.4,0.8c-0.1-0.5,0-3.1,0.2-2.9
			C48.4,197.1,48.6,197.5,48.5,199.1L48.5,199.1z M68.6,200.5c-0.1,0.7,0.3,1.5,0.3-0.4c0-0.5-0.1-2.5-0.2-1.8
			C68.6,199,68.6,199.7,68.6,200.5z M66.1,196.2c0.3-1.3,0,6.6-0.3,2C65.8,197.5,66,196.7,66.1,196.2z M65,200
			c0.1,0.8-0.3,1.6-0.3-0.4c0-0.5,0.1-2.7,0.2-2C65,198.4,64.9,199.1,65,200z M67.6,198.5c0.1,1.7,0.1,2.4,0.4,0.9
			c0.1-0.5,0-3.7-0.2-3.4C67.7,196.2,67.5,196.7,67.6,198.5z M63.2,184c-0.1,0.8,0.3,1.6,0.3-0.4c0-0.5-0.1-2.8-0.2-2.1
			C63.2,182.4,63.3,183.1,63.2,184z M58.8,181.2c-0.4-1.4,0.4,7.1,0.4,2.1C59.2,182.6,58.9,181.7,58.8,181.2z M60.5,182.9
			c0.1,0.9-0.3,1.8-0.3-0.5c0-0.6,0.1-3,0.2-2.2C60.5,181.1,60.5,181.9,60.5,182.9z M62,182.5c0.1,2.1,0,2.9,0.4,1
			c0.1-0.6,0.1-4.3-0.1-4C62.1,179.8,61.9,180.4,62,182.5z M56.5,184.5c-0.1,0.8,0.3,1.6,0.3-0.4c0-0.5-0.1-2.8-0.2-2.1
			C56.5,182.8,56.5,183.6,56.5,184.5L56.5,184.5z M53.3,181.3c-0.4-1.4,0.4,7.4,0.4,2.2C53.7,182.7,53.5,181.7,53.3,181.3z
			 M55.4,193.9c-0.2,0-0.5,0.4-0.5,0.8c0,0.4,0.3,0.6,0.5,0.6c0.2,0,0.5-0.3,0.5-0.7C55.9,194.2,55.6,193.9,55.4,193.9z M52.5,183.5
			c0.1,0.9-0.3,1.8-0.3-0.5c0-0.6,0.1-3,0.2-2.2C52.5,181.8,52.4,182.6,52.5,183.5L52.5,183.5z M55,182.3c0.1,2.1,0,2.9,0.4,1
			c0.1-0.6,0.1-4.3-0.1-4C55.1,179.6,54.9,180.2,55,182.3L55,182.3z M60.8,193.9c-0.2,0-0.5,0.4-0.5,0.8c0,0.4,0.3,0.6,0.5,0.6
			s0.5-0.3,0.5-0.7C61.3,194.2,61,193.9,60.8,193.9z M58.7,192.7c-0.7-0.6-2.3,0.9-0.8,0.7C58.6,193.2,59.6,193.5,58.7,192.7z
			 M55.7,193.5c0.9,0,1.5,0.8,1.5,1.5c0,0.7-1,1.2-1.9,1.2c-0.9,0-1.6-0.6-1.6-1.2C53.6,194.3,54.7,193.5,55.7,193.5z M60.7,193.7
			c-0.9,0-1.5,0.6-1.6,1.3c-0.1,0.7,0.8,0.9,1.8,0.9c0.9,0,1.7-0.3,1.6-1C62.3,194.2,61.7,193.7,60.7,193.7L60.7,193.7z"/>
	</g>
	<path fill="#AE8469" d="M47.2,242.5h-0.7l-0.6-0.5c-1-0.5-24.5-12.5-30-32.5c-2.6-9.4-0.8-19,5.4-28.5
		C31.7,165,48,161.6,59.8,161.6c10.2,0,19.5,2.6,24.9,5c15,6.7,24.9,11.8,32.9,15.9c22.3,11.4,27.6,14.1,80.5,20
		c9.1,1,19.4,1.5,31.5,1.5c8.4,0,16.5-0.2,24.3-0.4c6-0.2,11.7-0.3,16.9-0.4c33.1-0.2,54.9-0.5,82.9-4.1
		c27.2-3.5,50.6-14.1,69.3-22.6c15.4-7,27.6-12.5,37.7-12.5c4.4,0,8.1,1,11.3,3.2c15.9,10.6,23.6,22.2,22.9,34.4
		c-1.3,23.3-32.9,39.7-34.2,40.4l-0.6,0.6L47.2,242.5z M59.8,167.5c-10.3,0-24.5,2.9-33.5,16.7c-5.2,8-6.7,15.9-4.6,23.5
		c4.3,15.8,22.7,26.4,26.3,28.3l410.6,0c4.3-2.3,29.3-16.8,30.3-35c0.6-10-6.2-19.7-20.2-29.1c-2.2-1.5-4.8-2.2-7.9-2.2
		c-8.8,0-21,5.6-35.2,12c-19.1,8.7-42.9,19.5-71.1,23.1c-28.4,3.6-50.2,3.9-83.6,4.1c-5.1,0-10.8,0.2-16.7,0.4
		c-7.9,0.2-16,0.5-24.5,0.5c-12.3,0-22.8-0.5-32.2-1.5c-54-6-60-9.1-82.6-20.6c-7.9-4.1-17.8-9.1-32.7-15.8
		C77.4,169.8,69,167.5,59.8,167.5z"/>
</g>
<g>
	<path fill="#FFFFFF" d="M231.1,121.7H228v-13.9c0-0.7,0-1.4,0-2c0-0.6,0-1.2,0.1-1.8c-0.3,0.3-0.5,0.5-0.8,0.8
		c-0.3,0.2-0.6,0.5-0.9,0.8l-2.3,1.9l-1.6-2l6-4.7h2.6V121.7z"/>
	<path fill="#FFFFFF" d="M245.2,108.6c2.1,0,3.7,0.5,5,1.6c1.3,1.1,1.9,2.6,1.9,4.6c0,2.2-0.7,4-2.1,5.2c-1.4,1.3-3.3,1.9-5.9,1.9
		c-1.1,0-2.1-0.1-3.1-0.3c-0.9-0.2-1.8-0.5-2.4-0.9V118c0.7,0.4,1.6,0.7,2.6,1c1,0.3,2,0.4,2.9,0.4c1.5,0,2.6-0.3,3.5-1
		c0.9-0.7,1.3-1.7,1.3-3.2c0-1.3-0.4-2.2-1.2-2.9c-0.8-0.7-2-1-3.7-1c-0.5,0-1.2,0.1-1.8,0.1c-0.7,0.1-1.2,0.2-1.6,0.3l-1.4-0.9
		l0.8-10.1h10.7v2.8h-8l-0.5,5.5c0.3-0.1,0.8-0.1,1.3-0.2C243.9,108.7,244.5,108.6,245.2,108.6z"/>
	<path fill="#FFFFFF" d="M273.3,105.8h3.4l-6.6,7.6l7.1,8.2h-3.6l-6.9-8v8h-3.1v-15.8h3.1v7.7L273.3,105.8z"/>
	<path fill="#FFFFFF" d="M289.9,105.8v2.5H283v13.3h-3.1v-15.8H289.9z"/>
</g>
<g>
	<path fill="#AE8469" d="M339.8,191.1h-170c11-38.7,21.9-77.5,32.9-116.2l0,0c36.5,0,95.3,0,104.5,0
		C317.4,108.3,329.6,150.6,339.8,191.1z"/>
	<path fill="#AE8469" d="M258.1,57.6c9.5,0,17.2,7.7,17.2,17.2c4.6,0,8.9,0,12.8,0c0-16.6-13.4-30-30-30c-16.6,0-30,13.4-30,30
		c4.2,0,8.5,0,12.8,0C240.9,65.3,248.6,57.6,258.1,57.6z"/>
	<g>
		<path fill="#FFFFFF" d="M209.3,154.3h-5v-24l-7.3,2.5v-4.2l11.7-4.3h0.6V154.3z"/>
		<path fill="#FFFFFF" d="M221,139.5l1.6-15.1h16.1v4.3h-11.9l-0.8,7.1c1.4-0.8,2.9-1.2,4.7-1.2c2.8,0,5.1,0.9,6.6,2.7
			c1.6,1.8,2.4,4.3,2.4,7.4c0,3-0.9,5.5-2.6,7.3c-1.8,1.8-4.2,2.7-7.2,2.7c-2.7,0-5-0.8-6.8-2.3c-1.8-1.6-2.8-3.6-2.9-6.2h4.8
			c0.2,1.5,0.7,2.6,1.6,3.3c0.8,0.8,2,1.2,3.3,1.2c1.5,0,2.7-0.5,3.6-1.6c0.9-1.1,1.3-2.6,1.3-4.5c0-1.8-0.5-3.3-1.4-4.3
			c-0.9-1.1-2.2-1.6-3.9-1.6c-0.9,0-1.7,0.1-2.3,0.4c-0.6,0.2-1.3,0.7-2.1,1.4L221,139.5z"/>
		<path fill="#FFFFFF" d="M263.1,141.7c0,4.3-0.8,7.5-2.4,9.7c-1.6,2.2-4.1,3.3-7.3,3.3c-3.2,0-5.7-1.1-7.3-3.2
			c-1.6-2.1-2.5-5.3-2.5-9.5v-5.2c0-4.3,0.8-7.5,2.4-9.7c1.6-2.1,4.1-3.2,7.4-3.2c3.3,0,5.7,1,7.3,3.1c1.6,2.1,2.4,5.2,2.5,9.4
			V141.7z M258.1,136.2c0-2.8-0.4-4.9-1.2-6.2s-2-2-3.7-2c-1.6,0-2.8,0.6-3.6,1.9c-0.8,1.2-1.2,3.2-1.2,5.8v6.8
			c0,2.8,0.4,4.9,1.2,6.2c0.8,1.4,2,2.1,3.7,2.1c1.6,0,2.8-0.6,3.6-1.9c0.8-1.3,1.2-3.2,1.2-5.9V136.2z"/>
		<path fill="#FFFFFF" d="M286.2,145.5h-2.5v8.8h-5v-22.2h5v8.9h2.2l6.1-8.9h6.2l-8,10.6l8.7,11.6h-6.5L286.2,145.5z"/>
		<path fill="#FFFFFF" d="M316.4,136.1h-9.7v18.2h-5v-22.2h14.6V136.1z"/>
	</g>
</g>
</svg>
