<?xml version="1.0" encoding="utf-8"?>
<!-- Generator: Adobe Illustrator 18.0.0, SVG Export Plug-In . SVG Version: 6.00 Build 0)  -->
<!DOCTYPE svg PUBLIC "-//W3C//DTD SVG 1.1//EN" "http://www.w3.org/Graphics/SVG/1.1/DTD/svg11.dtd">
<svg version="1.1" id="Слой_1" xmlns="http://www.w3.org/2000/svg" xmlns:xlink="http://www.w3.org/1999/xlink" x="0px" y="0px"
	 viewBox="0 0 510.3 294.8" enable-background="new 0 0 510.3 294.8" xml:space="preserve">
<rect x="0.7" y="0.2" fill="none" width="509.9" height="294.5"/>
<polygon fill="#0E0E0E" points="359.4,218.3 142.1,218.3 142.1,184.9 145.2,184.9 145.2,215.2 356.3,215.2 356.3,186.8 359.4,186.8 
	"/>
<g>
	<path fill="#0E0E0E" d="M223.1,247.9h-13.4v-2.3l6.6-7.2c1-1.1,1.6-2,2-2.7s0.6-1.4,0.6-2.2c0-0.9-0.3-1.7-0.8-2.3
		s-1.3-0.9-2.2-0.9c-1.1,0-1.9,0.3-2.5,1s-0.9,1.6-0.9,2.7h-3.3c0-1.2,0.3-2.3,0.8-3.3s1.3-1.7,2.4-2.3s2.2-0.8,3.5-0.8
		c1.9,0,3.5,0.5,4.6,1.5s1.7,2.3,1.7,4c0,1-0.3,2-0.8,3.1s-1.5,2.3-2.8,3.7l-4.9,5.2h9.2V247.9z"/>
	<path fill="#0E0E0E" d="M236.9,240.8h2.5v2.7h-2.5v4.4h-3.3v-4.4H225l-0.1-2l8.6-13.5h3.4V240.8z M228.4,240.8h5.2v-8.3l-0.2,0.4
		L228.4,240.8z"/>
	<path fill="#0E0E0E" d="M254.5,239.5c0,2.9-0.5,5-1.6,6.5s-2.7,2.2-4.9,2.2c-2.2,0-3.8-0.7-4.9-2.1s-1.6-3.5-1.7-6.3v-3.4
		c0-2.9,0.5-5,1.6-6.4s2.7-2.1,4.9-2.1c2.2,0,3.8,0.7,4.9,2.1s1.6,3.5,1.6,6.3V239.5z M251.2,235.8c0-1.9-0.3-3.2-0.8-4.1
		s-1.3-1.3-2.4-1.3c-1.1,0-1.9,0.4-2.4,1.2s-0.8,2.1-0.8,3.9v4.5c0,1.9,0.3,3.2,0.8,4.2s1.3,1.4,2.4,1.4c1.1,0,1.9-0.4,2.4-1.3
		s0.8-2.2,0.8-4V235.8z"/>
	<path fill="#0E0E0E" d="M273.5,243.8l4.4-10.7h4.2v14.8h-3.3v-9.8l-4.1,9.8h-2.3l-4.1-9.8v9.8h-3.3v-14.8h4.2L273.5,243.8z"/>
	<path fill="#0E0E0E" d="M294.5,243.8l4.4-10.7h4.2v14.8h-3.3v-9.8l-4.1,9.8h-2.3l-4.1-9.8v9.8H286v-14.8h4.2L294.5,243.8z"/>
</g>
<g>
	<path fill="#0E0E0E" d="M85.1,160.7v3.3h-16l1.7,4.9H68l-2.9-7.8v-0.4H85.1z"/>
	<path fill="#0E0E0E" d="M85.1,144.8v3.3h-16l1.7,4.9H68l-2.9-7.8v-0.4H85.1z"/>
	<path fill="#0E0E0E" d="M67,124.7l18.1,8v3.5l-17.2-7.9v10.3h-2.7v-13.8H67z"/>
	<path fill="#0E0E0E" d="M81,106l-10.7-4.4v-4.2h14.8v3.3h-9.8l9.8,4.1v2.3l-9.8,4.1h9.8v3.3H70.3v-4.2L81,106z"/>
	<path fill="#0E0E0E" d="M81,85l-10.7-4.4v-4.2h14.8v3.3h-9.8l9.8,4.1v2.3l-9.8,4.1h9.8v3.3H70.3v-4.2L81,85z"/>
</g>
<path fill="#AE8469" d="M360.1,170.6H141.4V80h218.7V170.6z M146.4,165.6h208.7V85H146.4V165.6z"/>
<path fill="#0E0E0E" d="M75.5,344.6"/>
<path fill="#0E0E0E" d="M75.5,107.5"/>
<polygon fill="#0E0E0E" points="100.3,170.5 97.3,170.5 97.3,79.5 129.3,79.5 129.3,82.5 100.3,82.5 "/>
<polygon fill="#0E0E0E" points="100.3,167.5 100.3,94.5 97.3,94.5 97.3,170.5 129.3,170.5 129.3,167.5 "/>
</svg>
