<svg xmlns="http://www.w3.org/2000/svg" width="1327.739" height="876.765" viewBox="0 0 1327.739 876.765">
  <path id="Path_38" data-name="Path 38" d="M118.543,825.977l11.853,3.258s4.1-2.986,5.925-2.443,9.576-.272,9.576-.272l6.381,1.086s-3.874-5.156-3.189-5.564,1.594-.543,2.05-1.086a11.716,11.716,0,0,1,2.28-1.492l-1.142-1.086a5.242,5.242,0,0,1,3.192-.135c1.368.543,2.506.543,3.418,1.763s1.6,1.086,1.368,2.307-.912,1.629-.456,2.306a7.3,7.3,0,0,0,2.054,1.494s3.418-.68,4.1-.68,3.418.543,3.418.543a14.645,14.645,0,0,0,4.1-.135c1.368-.408,3.648-.951,4.787-1.223s4.1-1.492,5.016-.949,3.875,1.221,4.33,2.035.912,1.223.912,1.763.226.815,1.138,1.357,7.523.68,7.523.68l2.966-2.443,5.013,2.714a52.688,52.688,0,0,0,6.384.678c1.138-.135,8.891-.543,8.891-.543s-.686-2.849-.686-3.256.912-.951.912-.951,1.368-.135,1.368-.543a2.872,2.872,0,0,1,.226-1.357,3.445,3.445,0,0,1,1.824-1.221,17.541,17.541,0,0,1,2.28-.135l-1.138,2.17c.682.814,1.138.543,1.594,1.223s1.142,1.627,1.142,1.627-.23.137.682.68a15.631,15.631,0,0,0,3.648,1.221c.682.137,3.874,1.086,4.331.543s.682-1.9,1.368-1.629a22.616,22.616,0,0,1,3.192,1.222c.909.543,5.7,1.492,6.837,1.221s2.506-1.221,3.192-1.357-1.142-1.492,2.28-.543,5.243,1.494,5.925,1.629,6.155.543,6.155.543l3.418-1.629a1.509,1.509,0,0,1,1.368-.949,52.811,52.811,0,0,1,6.611-.137c1.368.137,1.6.543,3.422.137a10.077,10.077,0,0,0,3.189-1.357,6.821,6.821,0,0,0,1.824-.814c.456-.406.686-1.357,1.368-1.221s2.962.678,2.962.678l2.054,1.357,4.1.949,2.28-.949s.23-.678,1.368-.543a32.488,32.488,0,0,1,5.016.815c1.138.406,5.7-.543,5.7-.543s.912-1.086,1.594-1.086,4.331.271,4.331.271,2.736,1.221,3.422,1.492a31.29,31.29,0,0,0,4.1.543l3.192-.406,2.736-.408,5.243.951,12.535,4.884,2.432,1.267s4.56-.724,6.688,0,3.645,1.086,4.253,1.81,3.04,1.448,3.04,1.448,7.6.543,9.421.181a22.585,22.585,0,0,1,4.864-.724c1.824,0,4.256-1.086,6.688.181A21.247,21.247,0,0,0,392.084,839a15.3,15.3,0,0,0,4.864-.181c1.821-.541,6.077-1.446,7.293-1.808s4.56-.724,5.776-1.267.912-1.448,4.861-.724,7.3,1.448,10.637,1.267,13.373-.724,14.285-1.267,3.648-1.81,3.648-1.81l4.864-1.629s5.773-.362,7.293.181a22.37,22.37,0,0,0,5.168,1.086c1.824.181,9.421-.724,10.941-.724s2.432-1.086,4.864-.362,5.773,1.991,5.773,1.991l3.648.724s6.685,0,8.509,1.086,1.216,2.715,2.432,3.618a9.363,9.363,0,0,0,3.648,1.81,44.832,44.832,0,0,0,5.469.905c2.128.362,3.344-.362,5.776,1.81a12.2,12.2,0,0,0,3.648,2.534c.912.541,7.9-2.172,7.9-2.172s3.344-.9,5.472-.362a52.235,52.235,0,0,0,5.165,1.086c2.128.362,5.472.9,5.472.9l2.736-2.534,6.989-1.267s4.256,1.267,4.864,1.81,2.125,1.991,2.125,1.991l3.648-.9-3.949,3.075s3.645,2.353,5.165,2.353,8.813-1.086,8.813-1.086,0-3.074,2.736-.724,3.04,2.534,4.864,2.9,4.56,1.267,6.685.362,6.384-4.524,7.3-5.067,14.893-1.446,16.109-1.265a51.965,51.965,0,0,1,7.6,1.989c2.432.9,3.344,1.086,4.56,1.629s4.557.543,5.773.543,6.384-.181,7.6-.362,3.949-1.086,6.989-.362a85.241,85.241,0,0,0,8.509,1.267s2.128-3.258,3.344-3.438a40.591,40.591,0,0,1,7.6-.722c2.429.181,7.293.722,7.293.722h4.56s9.725-5.427,13.677-5.065,6.989.724,6.989.724a12.312,12.312,0,0,0,5.776.9c3.645-.181,10.029-.181,11.245-1.267s.3-1.81,2.736-1.448a42.585,42.585,0,0,1,6.077,1.267c1.824.543,7.3,1.267,7.3,1.267a5.549,5.549,0,0,1,3.949-.9c2.736.181,7.3.362,7.3,1.448s-.608.905.608,1.991,2.432,1.265,4.557,1.808a38.3,38.3,0,0,0,8.512.9c3.037,0,6.685-.181,7.6,0a36.554,36.554,0,0,1,4.56,2.172l9.117,1.267s4.864-.181,6.688-1.086,4.557-2.172,5.165-1.086.3,1.629.912,2.353a6.894,6.894,0,0,0,1.52,1.267s4.256-.9,4.56-.362,1.216,3.256,1.216,3.256l1.213.543,2.128-3.8a10.049,10.049,0,0,1,4.56-1.267c2.432,0,5.168,1.267,5.472-.181s-.3-3.077,1.213-3.981,8.208-1.446,8.208-1.446,9.117.722,9.421.181,0-.181,1.216-1.267-.912-1.81,2.128-1.629,8.509.9,10.941,1.267,8.509.9,9.421.181a7.421,7.421,0,0,1,2.432-1.086,8.065,8.065,0,0,1,2.736-1.267c1.216-.181,2.432-.9,4.864-.181s5.773,1.267,6.685,1.086,1.216-.181,2.736-.543a7.47,7.47,0,0,1,4.861.181c1.52.724,1.824,1.267,3.952.9s9.421-.9,9.421-.9a32.727,32.727,0,0,1,5.472-2.353c3.648-1.267,5.776-2.17,6.989-2.713s3.344.181,3.952-.724-.912-2.715,2.128-3.258,11.245-.181,11.245-.181l6.688.905,1.52,1.448s3.341.543,4.557.181,5.472-1.629,7.6-1.448,12.157,1.267,13.981,1.448,5.469.181,6.989.724,6.08,1.448,6.08,1.448,5.773.9,6.989.362,4.256-1.448,5.168-1.81,1.821-.181,2.125-.724-.608-1.086,2.128-.9,6.992,1.086,8.512.9,3.645-1.086,5.165-1.267,6.384-.9,8.816-.181,4.861,1.267,4.861,1.267a4.531,4.531,0,0,0,2.736.362c1.216-.362,9.117-1.991,9.117-1.991l18.846-1.086,3.04.724,10.333-.543.912-1.086,15.805-1.989s4.1-1.086,6.381,0a57.867,57.867,0,0,0,5.928,2.713c2.277.814,9.573.543,10.941,0s4.1-2.441,7.293-2.713,15.045.271,16.869,1.084a37.571,37.571,0,0,0,8.2,2.172c2.28.272,14.589-3.255,14.589-3.255a3.231,3.231,0,0,0,2.28-1.086c.912-1.086,1.824-3.529,3.192-3.8s1.368-1.357,5.013-.814,3.648,1.086,5.928.543,6.381-2.441,8.661-2.441,5.472-.272,6.84.813.456-.541,1.368,1.086,1.368,1.629,1.368,2.986-1.824,1.357.456,2.443,2.733.814,5.013,1.355,5.928.543,7.752,1.086,2.277,2.172,3.645,2.715,1.824,1.357,4.1.814,7.749-2.172,9.117-2.443a34.079,34.079,0,0,0,5.928-1.9c1.824-.812.456-2.17,5.469-2.441s7.753-1.086,11.857-.272,8.661.814,10.029-.543l1.368-1.357s2.277-2.715,4.557-3.258,4.56-2.713,8.208-2.441,9.117,1.086,9.117,1.086-2.28-1.086,3.193-1.086,17.322.272,17.322.272,3.192,1.627,5.472,2.713,4.56,2.443,4.56,2.443l9.117,2.715a70.235,70.235,0,0,0,8.661.271c2.28-.271,6.84-2.172,9.12-2.986a80.725,80.725,0,0,1,8.2-1.9s9.117-21.168,6.381-23.34-5.469-1.629-6.381-4.884,0-2.715.912-7.056,1.824-4.886,1.824-7.6V740.759L1320.3,733.7a34.821,34.821,0,0,0,.912-6.513c0-2.715,1.824-2.172,3.648-10.857s2.736-11.94,2.736-11.94,7.293-26.055,1.824-32.025-13.677-9.228-13.677-16.827a146.175,146.175,0,0,1,.912-15.2s3.645-4.343,4.557-8.142,2.736-7.056,1.824-13.569-.912-7.056-1.824-9.228-11.549-29.31-9.117-35.1,3.648-15.2,3.648-15.2l4.861-20.263s-3.645-15.922-3.645-20.987-1.216-13.028,0-17.37,1.213-12.3,1.213-12.3l4.864-11.578,4.864-16.646-2.432-10.133a22.7,22.7,0,0,1-3.648-6.513c-1.216-3.618-1.216-3.618-1.216-6.513s1.216-.724,0-5.065-4.861-11.581-4.861-13.752V383.241c0-2.9,3.645-6.513,3.645-13.75V350.673s-7.293-5.789-7.293-9.409,2.432-18.816,2.432-18.816l4.861-17.37s-3.645-14.474-4.861-19.541a36.073,36.073,0,0,1-1.216-6.513l3.648-6.513a20.616,20.616,0,0,1,3.645-4.341l2.432-11.58v-3.62l10.941-45.232s-10.941-16.284-7.293-21.711a23.935,23.935,0,0,0,3.645-11.94l-7.293-8.685-1.824-9.771-7.293-4.341-7.3,1.084-7.293,2.172H1288.39l-10.941-5.427s-23.71,1.357-26.442,3.8-9.12,2.172-9.12,2.172-9.117-2.172-10.029-2.986a32.81,32.81,0,0,1-2.736-3.256s-1.824-2.172-5.469-.271,2.732.814-3.648,1.9-6.384,1.9-10.485,1.084-3.648-1.627-7.3-.812-6.837,1.627-6.837,1.627h-8.665l-4.1-1.9-5.472-4.343s-2.28-3.256-6.837-1.629-2.736,1.357-4.56,1.629-1.368,1.086-4.1-.814a20.4,20.4,0,0,1-3.645-2.984l-2.736-2.715c-1.368-1.357-1.368-5.156-1.368-5.156l1.368-3.529s1.824-1.629-1.824-2.715-3.648-2.17-5.472-1.627a6.01,6.01,0,0,0-2.733,1.627l-1.824,2.172-4.56,1.357-3.193-1.086-2.28.271-3.645,2.715-5.016-.814-2.736-.814-5.925-1.357-8.208,1.9-1.821.543s.912-.271-3.192-.814-6.384-.814-6.384-.814l-7.293.543-5.016-1.357-3.192.814-3.645,2.172-5.472-.543s1.368-4.343-6.381-.271l-7.752,4.07-5.013,2.715-6.384-.271-2.736-.543-5.925.543-4.1-1.086-5.925-1.629-3.192,1.357-8.208,1.629c-5.469,0-8.661-.271-8.661-.271l-8.661.543-1.824.814-7.3,1.086-11.4.271-.456,3.256s1.368,2.172-.456,2.715a24.252,24.252,0,0,1-5.925.271l-5.016-1.086L956.491,144.5s-1.824-1.627-3.648-.814l-1.824.814a8.874,8.874,0,0,1-5.013,1.357c-3.192,0-3.649-1.9-9.573-2.172s-9.12-2.17-11.856-.541,1.824-.814-2.733,1.627a20.339,20.339,0,0,1-9.576,2.172l-8.205-2.715s-6.384-1.355-9.573-2.17a37.321,37.321,0,0,0-5.928-1.357,21.969,21.969,0,0,0-4.557,0l-1.824,1.357s1.824.814,1.368,2.17a13.987,13.987,0,0,1-.912,2.172s-3.192.814-4.1,1.629-.912-1.629-1.368,1.629,5.472,2.441-.456,4.341-5.016.814-5.925,1.9-.456-1.086-.912,1.086,1.365.814-.456,2.172-4.1,2.984-4.1,2.984a10.617,10.617,0,0,1-2.736.271,52.47,52.47,0,0,1-5.469-.543s-1.368-.814,0-1.357a22.594,22.594,0,0,0,4.1-2.984v-1.9l-4.1-.271a13.382,13.382,0,0,1-2.736-1.629c-.912-.814-.456-.814.456-1.629s3.645-1.084.912-2.17a49.631,49.631,0,0,1-6.841-3.8c-2.28.814-2.736,2.172-2.736,2.172l-.912,1.357a22.449,22.449,0,0,0-4.1-2.715c-1.824-.814,1.368-.814-1.824-.814s-3.648,3.8-3.648,3.8l-3.192.543-6.381-1.629a5,5,0,0,1-1.824-2.172c-.456-.814,1.368.271-.456-.814s-4.56,1.086-5.925,1.357,0-1.086-1.368.271l-1.368,1.357s.456-1.086-.912,1.086-1.216,2.079-5.472,2.441-13.981-1.446-13.981-1.446l.608,1.808s-6.685.362-10.333-1.086,0,.362-3.648-1.446,5.472-3.982-5.469-2.534-7.9-.362-10.941,1.448-.608,3.979-3.04,1.81a14.251,14.251,0,0,0-4.864-2.9l-6.077-1.448-13.373-5.789-3.648,1.086-2.432,3.256v4.343l-18.842.724a26.449,26.449,0,0,1-1.216,4.341l-8.513,1.086-7.293-1.81s1.216-2.172-4.864-1.086.608,6.875-10.333,7.237-16.413.724-19.453-.724-1.821,0-4.861-2.532l-3.04-2.534h0c-6.077-.724-6.077-.362-7.293,1.086l-1.216,1.448s-6.688,2.894-10.333,1.086a42.535,42.535,0,0,1-7.9-5.067l-1.824-1.446a3.471,3.471,0,0,0-2.432-2.172c-1.821-.362-7.9-3.258-9.117-1.448s-1.824,2.9-1.824,2.9l-5.469,4.341s0,1.086-5.472.362-6.685-1.086-8.509-2.172,1.824-1.808-1.824-1.086-6.688,4.705-6.688,4.705,2.432.362-5.469-.362-7.9-.362-11.549-1.81-10.333-4.341-10.941-5.427.608-4.343-4.256-4.705,1.824-5.065-10.941.362-17.021,6.515-18.846,6.875-4.256.724-4.256.724l-5.469.724s-10.333-2.532-15.2-2.17-4.256-4.343-10.333,0-6.688,6.513-9.117,6.875-6.08,1.808-10.944-1.086-4.861-3.982-7.293-4.705,6.685-3.256-4.864-1.446l-11.549,1.808s0,3.982-8.509.724-4.256-4.341-13.373-5.065-9.725-2.9-13.373-1.448-6.08,2.172-6.08,2.172l-3.037.362-4.256,1.81-2.432,2.17L393,157.44l-3.648,1.448h-3.04l-2.429,3.256s-11.951-1.333-12.765-.362l-1.824,2.172-6.08-.362-2.432-2.9-4.253-2.532-3.648-.724,1.824-3.982s4.256-.724-3.04-1.448-9.725-.362-9.725-.362l-3.04,1.086s-3.04-2.17-3.648-.362.608,2.9-2.429,3.258l-3.04.362a56.193,56.193,0,0,0-9.12-1.448c-3.037,0-1.213-.724-5.469.362s3.648-.724-4.256,1.086-1.216,0-7.9,1.81-7.9,0-12.157,0,4.861-9.047-7.3,0-9.117,14.112-17.626,14.836-3.04,1.448-8.512.724-3.645,1.808-5.469-.724a16.676,16.676,0,0,1-2.432-4.705s-1.216-1.808,1.216-2.894,1.824-3.982-2.432-3.982-1.824-1.81-4.256,0,4.864,1.81-2.432,1.81,2.432,1.448-7.293,0-5.472-1.086-9.725-1.448,0,0-6.688,0-6.685,0-9.117-.362,2.432,0-4.864-1.086-4.253-1.446-9.117-1.808-.608-1.448-4.864-.362-6.077-8.685-8.509-7.961-4.256,0-5.472,2.532.608,1.086-1.213,2.534,1.821,1.448-1.824,1.448-2.432-4.343-3.648,0a31.016,31.016,0,0,1-1.824,5.427l-2.432.724-4.253-1.086-2.432-.362-6.688,1.448-4.861-.362s-3.04-1.086-3.04.362-2.432,3.258-2.432,3.258-.608,1.086-4.256.362l-3.645-.724s-1.216.362-2.432-2.172,0-6.151-3.648-5.065l-3.648,1.084s-7.293.362-7.9,1.448l-.608,1.086-4.408,5.789,1.368,1.9s2.736,0,2.28,2.172,6.384,1.357-.456,2.172l-6.837.814-4.1,8.954,2.28,3.258s1.824,1.9,1.824,2.986a28.8,28.8,0,0,1-.456,3.527l-.456,1.357a13.9,13.9,0,0,0-.456,3.529V203.4c0,2.443-.456,2.984,0,4.884s1.368,4.886,1.368,4.886v3.256l1.368,2.443-.456,2.443-.912,3.527s-3.648,3.258-4.1,4.615a4.737,4.737,0,0,0,0,2.713S92.1,253.332,93.925,260.931s3.645,9.771,5.469,17.37a81.141,81.141,0,0,1,1.824,16.284s-7.293,11.943-10.941,17.37-5.472,5.427-3.648,9.771,7.3,8.685,9.12,11.94,5.469,4.344,5.469,8.685-3.648,11.943-3.648,11.943S92.1,365.147,92.1,370.575s7.293,18.456,7.293,18.456l5.472,5.427v14.114s-3.648,7.6-5.472,10.855-5.469,9.771-9.117,13.028l-3.648,3.256s1.824,35.825,1.824,39.081,0,6.513,3.648,11.942S95.749,504.1,95.749,504.1a15.6,15.6,0,0,0-1.824,11.942c1.824,6.513,9.117,15.2,9.117,15.2l7.293,7.6s0,10.857-1.821,14.112-1.824,8.685-1.824,8.685-3.648,9.771-3.648,15.2,3.648,3.258,0,9.771S90.277,602.89,90.277,602.89l-1.824,10.855,5.472,8.685s7.293,5.427,9.117,14.112,5.472,8.685,5.472,14.114v9.769l10.941,26.055-9.12,6.513s-10.941,3.258-12.765,7.6,0,13.028,0,13.028,3.648,3.256,3.648,6.513,5.472-1.086,1.824,6.513-7.293,7.6-9.117,11.94-3.648,5.429-3.648,8.685,1.824,3.258,3.648,6.513,5.469-3.256,1.824,6.515-5.472,11.941-5.472,18.454,3.648,13.028,3.648,13.028,9.117,9.769,10.941,13.026,7.293,2.172,3.648,7.6l-3.648,5.427c-3.648,5.427-5.472,8.685-5.472,8.685v4.344Z" transform="translate(19.115 -135.975) rotate(7)" fill="#ece7e7"/>
</svg>
