<svg xmlns="http://www.w3.org/2000/svg" width="322.042" height="271.786" viewBox="0 0 322.042 271.786">
  <g id="dialog" transform="translate(66.645 -4.427) rotate(29)">
    <g id="Group_29" data-name="Group 29" transform="translate(0.021 -0.003)">
      <g id="Group_28" data-name="Group 28">
        <path id="Path_18" data-name="Path 18" d="M151.709,6.07l.9.008.9.008.9.008.9.016.9.016.9.016.9.024.9.024.9.024.9.032.9.032.9.032.9.04.9.04.89.04.89.048.89.048.89.048.89.056.89.056.89.056.909.072.89.064.89.072.89.072.89.072.88.072.88.08.88.08.88.08.88.088.88.088.88.088.88.088.871.1.871.1.871.1.871.1.871.1,1.514.184,1.514.192,1.524.192,1.533.2,1.533.2.767.1.776.1.776.1.776.112.776.112.776.112.776.112.776.12.776.12.776.12.776.12.776.128.776.128.776.128.776.136.776.136.776.136.776.144.776.144.776.152.776.152.776.152.776.16.776.16.767.168.776.168.767.176.767.176.767.184.767.184.767.192.767.192.757.2.757.2.757.208.757.208.757.216.748.224.748.224.748.232.738.24.379.12.369.12.369.12.369.128.369.128.369.128.369.128.369.128.369.136.36.136.369.136.36.136.36.136.36.136.36.136.057.024.3.12.36.144.36.144.36.144.36.152.36.152.36.152.35.152.35.152.35.152.35.16.776.352.776.352.776.36.776.36.786.368.776.376.786.376.786.384.786.392.786.392.786.4.786.4.786.408.786.408.786.416.786.416.776.424.776.432.776.432.776.44.776.44.767.448.767.448.767.456.767.456.757.464.757.464.757.472.748.472.748.48.738.48.738.488.729.488.729.5.719.5.36.256.36.256.36.256.36.256.35.256.35.256.35.256.35.256.35.256.35.256.35.264.341.264.341.264.341.264.341.264.341.264.341.264.331.272.331.272.331.272.331.272.331.272.322.272.322.272.322.272.322.272.322.28.322.28.312.28.312.28.312.28.312.28.3.28.3.288.3.288.3.288.293.288.293.288.293.288.293.288.293.288.284.288.284.288.284.3.284.3.275.3.274.3.274.3.275.3.265.3.265.3.265.3.265.3.256.3.256.3.256.3.246.3.246.3.3.384.293.384.293.384.284.384.284.384.274.384.275.384.265.384.265.384.256.384.246.384.246.384.237.384.237.384.227.384.227.384.218.384.218.384.208.392.208.384.2.384.189.392.189.384.18.392.18.392.17.384.17.392.161.392.161.392.151.392.151.384.142.392.142.392.133.392.133.392.123.392.114.392.114.384.1.392.1.392.1.384.076.312.019.072.085.392.085.392.076.384.076.392.066.384.066.384.057.392.047.384.047.384.047.384.038.384.038.384.028.384.028.384.019.384.019.384.009.384.009.384v1.153l-.009.384-.066.424-.019.376-.019.384-.028.376-.028.376-.028.376-.038.376-.038.376-.047.376-.047.376-.057.376-.057.376-.057.376-.066.376-.066.376-.076.376-.076.376-.085.376-.085.368-.085.376-.095.368-.095.368-.095.368-.1.368-.1.368-.114.368-.114.368-.114.368-.123.368-.123.368-.123.368-.133.36-.133.36-.133.36-.142.36-.142.36-.151.36-.151.36-.151.36-.161.36-.161.36-.161.36-.17.36-.17.352-.17.352-.18.352-.18.352-.18.352-.189.352-.189.352-.189.352-.2.352-.2.352-.2.344-.208.344-.208.344-.208.344-.208.344-.218.344-.218.344-.227.344-.227.344-.227.344-.227.336-.237.336-.237.336-.237.336-.237.336-.246.336-.246.336-.246.328-.246.336-.256.328-.256.328-.256.328-.256.328-.265.328-.265.328-.265.328-.274.328-.275.328-.274.32-.274.32-.284.32-.284.32-.284.32-.284.32-.284.32-.284.312-.293.32-.057.064-.237.248-.293.312-.3.312-.3.312-.3.312-.3.3-.312.3-.312.3-.312.3-.312.3-.312.3-.322.3-.322.3-.322.3-.322.3-.322.3-.322.3-.331.3-.331.3-.331.3-.331.288-.331.288-.331.288-.341.288-.341.288-.341.288-.341.288-.341.288-.341.288-.35.28-.35.28-.35.28-.35.28-.35.28-.35.28-.36.272-.36.272-.36.272-.36.272-.36.272-.36.272-.36.272-.369.264-.369.264-.369.264-.369.264-.369.264-.369.264-.369.264-.369.256-.379.256-.379.256-.379.256-.379.256-.379.256-.379.256-.379.248-.379.248-.388.248-.388.248-.388.248-.388.24-.388.24-.388.24-.388.24-.388.24-.388.24-.388.24-.388.24-.4.232-.388.232-.4.232-.4.232-.4.224-.4.224-.4.224-.795.448-.795.44-.8.432-.8.432-.8.424-.8.416-.8.416-.8.408-.8.4-.587.288-.256.064-.937.232-.928.24-.918.232-3.18-.432.88-2.37.663-.521.644-.529.634-.545.17-.152.558-.288.767-.4.757-.4.757-.408.757-.416.757-.416.757-.424.748-.432.748-.432.748-.44.369-.224.369-.224.369-.224.369-.224.369-.224.369-.224.369-.232.369-.232.369-.232.369-.232.36-.232.36-.232.36-.24.36-.24.36-.24.36-.24.36-.24.36-.24.36-.248.36-.248.35-.248.35-.248.35-.248.35-.248.35-.248.35-.256.35-.256.35-.256.35-.256.341-.256.341-.256.341-.256.341-.256.341-.264.341-.264.331-.264.331-.264.331-.264.331-.264.331-.264.331-.264.331-.272.322-.272.322-.272.322-.272.322-.272.322-.272.322-.272.312-.272.312-.272.312-.28.312-.28.312-.28.3-.28.3-.28.3-.28.3-.28.3-.28.3-.288.293-.288.293-.288.293-.288.293-.288.293-.288.284-.288.284-.288.284-.288.284-.288.284-.288.284-.3.274-.3.275-.3.274-.3.274-.3.275-.3.208-.24.057-.056.265-.3.265-.3.265-.3.265-.3.256-.3.256-.3.256-.3.246-.3.246-.3.246-.3.246-.3.246-.3.237-.3.237-.3.237-.3.227-.3.227-.3.227-.312.227-.3.218-.312.218-.312.218-.312.208-.312.208-.312.208-.312.208-.312.2-.312.2-.312.2-.312.2-.312.189-.312.189-.32.189-.312.18-.32.18-.32.18-.32.18-.32.17-.32.17-.32.17-.32.161-.32.161-.32.161-.32.151-.32.151-.32.151-.32.142-.32.142-.32.142-.32.142-.328.133-.32.133-.328.123-.328.123-.328.123-.328.114-.328.114-.328.114-.328.114-.328.1-.328.1-.328.095-.328.095-.328.095-.328.085-.328.085-.328.085-.328.076-.328.076-.328.076-.328.066-.328.066-.328.066-.328.057-.328.057-.328.047-.328.047-.328.047-.328.038-.328.038-.328.038-.328.028-.328.028-.328.019-.328.019-.328.019-.328.009-.328.009-.328.009-.328v-.985l-.009-.328-.009-.336-.019-.328-.019-.336-.019-.328-.028-.336-.028-.328-.038-.336-.038-.336-.038-.336-.047-.328-.047-.336-.057-.336-.057-.336-.066-.336-.066-.336-.066-.336-.076-.336-.076-.336-.085-.336-.019-.064-.066-.272-.085-.336-.085-.336-.095-.336-.095-.336-.1-.336-.1-.336-.114-.336-.114-.336-.123-.336-.123-.336-.133-.336-.133-.336-.133-.336-.161-.3-.142-.336-.151-.336-.151-.336-.161-.336-.161-.336-.17-.336-.17-.336-.18-.336-.18-.336-.189-.336-.189-.336-.2-.336-.2-.336-.208-.336-.208-.336-.218-.336-.218-.344-.227-.336L275,56.473l-.237-.344-.237-.336-.246-.344-.246-.344-.256-.336-.265-.344-.256-.36-.274-.344-.218-.272-.227-.272-.227-.272-.227-.272-.237-.272-.237-.272-.237-.272-.237-.272-.246-.272L270.648,51l-.246-.272-.246-.272-.256-.264-.255-.272-.256-.264-.256-.264-.265-.264-.265-.264-.265-.264-.265-.264-.274-.264-.274-.264-.274-.264-.274-.264-.284-.264-.284-.256-.284-.256-.284-.256-.284-.256-.284-.256-.293-.256-.293-.256-.293-.256L264.1,44.7l-.3-.256-.3-.256-.3-.256-.3-.248-.312-.256-.312-.248-.312-.248-.312-.248-.312-.248-.312-.248-.322-.248-.322-.248-.322-.248-.322-.24-.322-.24-.322-.24-.331-.24-.331-.24-.331-.24-.331-.24-.331-.24-.331-.24-.331-.24-.331-.232-.681-.472-.681-.464-.691-.464-.7-.464-.7-.456-.71-.456-.71-.448-.71-.448-.719-.44-.719-.44-.719-.432-.729-.432-.729-.424-.729-.424-.738-.424-.738-.416-.738-.408-.738-.408-.738-.4-.748-.4-.748-.392-.748-.392-.748-.384-.748-.384-.748-.376-.748-.376-.748-.368-.748-.368-.748-.36-.748-.36-.748-.352-.748-.352-.748-.344-.738-.344-.738-.336-.312-.144-.312-.136-.312-.136-.312-.136-.312-.136-.322-.136-.322-.136-.322-.128-.322-.128-.322-.128-.274-.1-.047-.024-.322-.128-.322-.128-.322-.12-.331-.12-.331-.12-.331-.12-.331-.12-.331-.12-.331-.12-.331-.12-.331-.112-.331-.112-.331-.112-.36-.128-.331-.112-.681-.224-.681-.216-.681-.208-.691-.208-.691-.2-.7-.2-.7-.192-.7-.192-.7-.184-.71-.184-.71-.176-.71-.176-.71-.168-.719-.168-.719-.168-.719-.16-.719-.16-.729-.152-.729-.152-.729-.152-.729-.144-.738-.144-.738-.136-.738-.136-.738-.136-.738-.136-.738-.128-.738-.128-.748-.128-.748-.12-.748-.12-.748-.12-.748-.12-.748-.112-.748-.112-.748-.112-.748-.112-.748-.1-.748-.1-.748-.1-.748-.1-1.5-.2-1.5-.2-1.5-.192-1.5-.192-1.5-.184-.842-.1-.842-.1-.842-.1-.842-.1-.842-.1-.842-.088-.852-.088-.852-.088-.852-.088-.852-.08-.852-.08-.852-.08-.852-.072-.852-.072-.852-.072-.861-.064-.861-.064-.861-.064-.861-.056-.861-.056-.861-.056-.861-.048-.861-.048-.861-.048-.861-.048-.861-.04-.861-.04-.861-.032-.861-.032-.861-.032-.871-.024-.861-.024-.861-.024-.871-.016L155.182,12l-.871-.016-.861-.008-.871-.008-.871-.008H149.1l-.871.008-.871.008-.871.008-.861.016-.871.016-.871.016-.871.024-.871.024-.861.032-.861.032-.871.032-.861.04-.861.04-.861.048-.861.048-.861.048-.861.056-.861.056-.861.064-.861.064-.861.072-.861.072-.861.072-.861.08-.861.08-.852.08-.861.088-.852.088-.852.1-.852.1-.852.1-.852.1-.852.1-.852.112-.1.016-.8.112-.842.12-.842.12-.842.12-.842.128-.842.128-.842.136-.842.136-.842.144-.842.144-.833.152-.833.152-.833.152-.833.16-.833.16-.842.16-.833.168-.823.168-.823.176-.823.184-.823.184-.823.192-.814.192-.814.192-.814.2-.814.2-.814.208-.8.208-.8.216-.8.216-.8.224-.8.224-.8.232-.795.232-.8.24-.8.24-.795.24-.786.248-.786.248-.786.256-.786.256-.776.264-.776.264-.776.272-.776.272-.767.28-.767.28-.767.288L80,23.7l-.757.3-.757.3-.757.3-.71.288-.71.288-.71.3-.71.3-.7.3-.7.3-.7.3-.7.3-.7.3-.691.3L70,27.892l-.691.312-.691.312-.691.32-.681.32-.681.32-.681.328-.681.328-.672.328-.672.328-.672.336-.663.336-.663.344-.663.344-.663.344-.653.344-.653.352-.653.352-.644.352-.644.36-.644.36-.634.36-.634.368-.634.368-.625.376-.625.376-.625.376-.615.376-.615.384-.615.384-.606.392-.606.392-.6.392-.6.4-.587.4-.587.408-.577.408-.577.408-.577.416-.568.416-.568.424-.558.424-.558.424-.549.432-.549.432-.539.44-.539.44-.539.448-.53.448-.53.456-.256.224-.256.224-.256.232-.256.232-.256.232-.256.232-.256.232-.256.232-.388.36-.388.368-.379.368-.379.368-.379.368-.388.36-.369.368-.369.368-.369.368-.369.368-.36.368-.36.368-.36.376-.35.376-.35.376-.341.368-.341.376-.341.376-.341.376-.331.376-.331.376-.331.376-.35.384-.322.384-.322.384-.322.384-.322.384-.322.384-.312.384-.312.384-.312.392-.3.392-.3.392-.3.392-.293.392-.293.392-.293.392-.284.4-.284.4-.284.4-.284.4-.284.4-.274.4-.274.408-.274.408-.274.408-.265.408L22,66.668l-.265.408-.265.408-.256.416-.256.416-.256.416-.256.416-.246.424L19.955,70l-.246.424-.237.424-.218.44-.237.432-.237.432-.227.432-.227.432-.227.432-.17.336-.17.336-.161.336-.161.336-.151.336-.151.328-.151.328-.151.328-.142.328-.142.328-.133.336-.132.328-.133.328-.123.328-.123.328-.123.328-.114.328-.114.328-.114.328-.114.328-.1.328-.1.328-.1.328-.095.328-.095.328-.095.32-.085.328-.085.32-.085.32-.076.32-.076.32-.076.32-.066.32-.066.32-.066.32-.066.32-.057.32-.057.32-.057.32-.047.32-.047.32-.047.312-.038.32-.038.312-.038.312-.028.312-.028.312-.028.312-.019.312-.019.312-.019.312-.009.312L13.4,90.6l-.009.312-.009.312v1.241l.009.3.009.3.009.3.009.3.019.3.019.3.019.3.028.3.028.3.028.3.028.3.028.3.038.3.038.3.038.3.047.3.047.3.047.3.057.3.057.3.057.3.057.3.057.3.066.3.066.3.066.3.076.3.076.3.076.3.076.3.085.3.085.3.085.3.085.288.095.288.095.288.095.288.095.288.1.288.1.288.1.288.1.288.114.288.114.288.114.288.114.288.123.288.123.288.123.288.123.288.133.288.132.28.133.28.132.28.142.28.142.28.142.28.142.28.151.28.151.28.151.28.151.28.161.28.161.272.161.28.161.272.17.272.17.272.17.272.17.272.17.272.18.272.18.272.18.272.18.272.18.272.189.272.189.272.189.272.2.272.2.272.2.264.2.264.2.264.208.264.208.264.208.264.208.264.208.264.066.08.151.184.218.264.218.256.227.256.227.256.227.256.227.256.227.256.237.256.237.256.237.256.237.256.237.256.237.256.246.256.246.248.246.248.246.248.246.248.256.248.256.248.256.248.256.248.256.248.265.248.265.248.265.24.265.24.265.24.265.24.274.24.274.24.274.24.274.24.274.24.284.24.284.24.284.24.284.232.284.24.284.232.284.232.293.232.293.232.293.232.293.232.293.232.293.232.3.224.3.224.3.224.3.224.3.224.312.224.3.224.312.224.312.224.312.224.312.224.312.224.322.216.322.216.322.216.322.216.322.216.322.216.322.216.331.216.331.208.331.208.331.208.331.208.672.416.681.416.681.408.691.408.691.4.7.4.7.4.71.392.71.392.719.384.719.384.729.376.729.376.738.376.738.368.748.36.748.36.748.36.473.216.473.216.473.208.483.208.483.2.492.2.492.192.492.192.5.192.5.184.5.184.511.176.511.176.521.168.521.168.521.168.521.16.53.16.53.16.53.152.539.152.539.152.539.144.539.144.549.136.549.136.549.136.549.136.558.136.558.128.558.128.558.128.558.12.558.12.558.12.568.12.568.112.568.112.568.112.568.112.568.1.568.1.577.1.445.08.123.024.577.1.577.1.577.1.577.1,1.155.192,1.155.184,1.155.184,1.155.184,1.155.176,1.155.176,2.3.344,1.268.192,1.268.184,1.268.176,1.278.176.634.088.644.08.644.08.644.08.644.08.644.08.644.08.644.072.644.072.644.072.644.072.644.072.644.072.644.064.644.064.644.064.644.064.644.056.644.056.653.056.653.056.644.056.653.048.653.048.653.048.653.048.653.048.653.04.653.04.653.04.653.04.653.032.653.032.653.032.653.032.653.032.653.024.653.024.653.024.653.016.653.016.653.016.653.016.653.016.653.008.653.008.644.008h2.593l.644-.008.644-.008.644-.008.644-.016.644-.016.644-.016.644-.016.644-.024.644-.024.644-.024.644-.032.644-.032.644-.032.644-.04.644-.04.634-.04.634-.048.634-.048.634-.048h.009l.625-.032.634-.04.634-.04.634-.048.634-.048.634-.048.634-.048.634-.056.634-.056.634-.064.634-.064.634-.064.634-.072.625-.072.634-.072.625-.08.625-.08.625-.088.625-.088.625-.088.625-.1.625-.1.625-.1.625-.1.615-.1.615-.112.369-.072.265.008.663.008h.663l.663-.008.663-.016.662-.016.663-.024.662-.032.663-.04.663-.048.663-.056.663-.064.653-.072.653-.08.653-.088.653-.1.653-.1.653-.112.653-.112.644-.12.644-.128.644-.136.644-.144.644-.152.937.264-.35.713-.577.272-.577.272-.577.272-.577.272-.587.272-.587.272-.587.272-.587.272-.587.272-.587.272-.587.272-.587.272-.6.272-.6.272-.6.272-.6.272-.6.272-.606.272-.606.272-.606.272-.606.272-.615.272-.615.272-.246.112-.4.088-.663.144-.663.144-.663.136-.663.136-.662.128-.672.128-.672.12-.672.12-.672.12-.672.112-.672.112-.672.112-.672.1-.672.1-.672.1-.681.1-.672.1-.681.088-.681.088-.681.088-.681.08-.681.08-.681.072-.681.072-.681.072-.672.064H142.5l-.681.048-.681.04-.691.04-.681.04-.681.032-.691.032-.691.032-.681.024-.691.024-.691.024-.691.016-.691.016-.691.016-.691.016-.691.008-.691.008-.691.008h-2.754l-.691-.008-.691-.008-.681-.016-.691-.016-.681-.016-.691-.016-.681-.024-.681-.024-.681-.024-.681-.024-.681-.032-.681-.032-.681-.032-.681-.032-.681-.04-.681-.04-.681-.04-.681-.04-.681-.048-.681-.048-.681-.048-.681-.048-.681-.056-.681-.056-.681-.056-.681-.056-.672-.064-.681-.064-.672-.064-.672-.064-.672-.072-.672-.072-.672-.072-.672-.072-.672-.072-.672-.072-.672-.08-.672-.08-.672-.08-.662-.08-.663-.08-.663-.088-.662-.088-.663-.088-.663-.088-.662-.088-.663-.088-.663-.088-.663-.1-1.316-.192-1.306-.192-1.306-.2-1.3-.208-2.319-.368-1.164-.184-1.174-.192-1.174-.192-1.183-.2-1.183-.2L80.309,155l-.6-.1-.6-.1-.6-.1-.6-.112-.132-.024-.473-.088-.6-.112-.6-.12-.625-.064-.6-.12-.6-.12-.6-.128-.6-.128-.6-.128-.6-.128-.6-.136-.6-.136-.6-.136-.6-.144-.6-.144-.6-.144-.6-.152-.6-.152-.6-.152-.6-.16-.6-.16-.587-.168-.587-.168-.587-.168-.587-.176-.587-.176-.587-.184-.577-.184-.577-.192-.577-.192-.577-.2-.577-.2-.568-.208-.568-.208-.568-.216-.568-.216-.558-.224-.558-.232-.558-.232-.558-.24-.549-.24-.549-.248-.549-.248-.539-.256-.833-.384-.8-.384-.786-.392-.786-.392-.776-.4-.776-.408-.767-.408-.767-.408-.757-.416L44.468,143l-.748-.424-.748-.424-.738-.432-.738-.432-.729-.44-.691-.464-.719-.448-.71-.448-.36-.232-.35-.224-.35-.224-.35-.24-.35-.232-.35-.232-.341-.232-.341-.232-.341-.232-.341-.232-.341-.24-.341-.24-.341-.24-.331-.24-.331-.24-.331-.24-.331-.24-.331-.24-.331-.24-.322-.24-.322-.248-.322-.248-.322-.248-.322-.248-.312-.248-.312-.248-.312-.248-.312-.248-.312-.256-.312-.256-.3-.256-.3-.256-.3-.256-.3-.256-.3-.256-.3-.256-.293-.256-.293-.256-.293-.256-.293-.264-.293-.264-.284-.264-.284-.264-.284-.264-.284-.264-.284-.264-.284-.264-.284-.272-.274-.272-.274-.272-.274-.272-.274-.272-.274-.272-.265-.272-.265-.272-.265-.272-.265-.272-.256-.28-.256-.28-.256-.28-.256-.28-.274-.272-.246-.28-.246-.28-.246-.28-.246-.28-.246-.288-.246-.28-.237-.288-.237-.288-.237-.288-.161-.2-.066-.088-.227-.288-.227-.288-.227-.288-.227-.288-.227-.288-.218-.288-.218-.288-.218-.3-.218-.3-.208-.3-.208-.3-.208-.3-.208-.3-.2-.3-.2-.3-.2-.3-.2-.3-.2-.3-.189-.3-.189-.3-.189-.3-.189-.3-.18-.3-.18-.3-.18-.3-.18-.3-.18-.3-.17-.3-.17-.3-.17-.312-.161-.312-.161-.312L10.784,111l-.161-.312-.151-.312-.151-.312-.151-.312-.142-.312-.142-.312-.142-.32-.142-.32-.133-.32-.133-.32-.132-.32-.133-.32-.123-.32-.123-.32-.123-.32-.123-.32-.114-.32-.114-.328-.114-.328-.1-.328-.1-.328-.1-.328-.1-.328-.095-.328-.095-.328-.095-.328-.085-.328-.085-.328-.085-.328-.085-.328-.076-.328-.076-.336-.076-.336L6.9,100l-.066-.336-.066-.336L6.7,98.989l-.057-.336-.057-.336-.047-.336L6.5,97.644l-.066-.336-.047-.336-.038-.336-.038-.344-.038-.344L6.231,95.6,6.2,95.257l-.028-.344-.019-.344-.019-.344-.019-.344-.009-.344L6.1,93.191l-.009-.344L6.08,92.5V91.125l.009-.344.009-.352.009-.344.019-.352.019-.352.019-.352.028-.352.028-.352.028-.352.038-.352.038-.352.038-.352.047-.352.047-.352.047-.352.057-.352.057-.352.057-.352.066-.352.066-.36.076-.36.076-.36L7.036,83l.085-.36.085-.36.085-.36.095-.36.095-.36.095-.36.1-.36.1-.36.114-.336.114-.36.114-.36.114-.36.123-.36.123-.36.123-.36.133-.36.133-.36L9,76.542l.142-.36.142-.36.142-.36.151-.368.151-.36.161-.36L10.055,74l.161-.36.17-.368.17-.368.17-.368.18-.368.18-.368.189-.368.237-.464.246-.464L12,70.047l.246-.456.246-.456.256-.456.256-.456.256-.448.265-.448.265-.448.265-.448.265-.448.274-.44.274-.44.274-.44.284-.44.284-.432L16,63.353l.284-.432.284-.432.293-.432.293-.424.293-.424.293-.424.3-.424.3-.424.3-.424.312-.424.312-.416.312-.416.322-.416.322-.416L20.551,57l.322-.408.331-.408.331-.408.331-.408.331-.408.341-.408.341-.408.341-.408.35-.408.35-.4.35-.4.36-.4.36-.4.36-.4.369-.4.369-.392.369-.392.369-.392.379-.392.379-.392.379-.392.379-.392.388-.392.388-.392L29.5,47l.4-.384.4-.384.4-.384.4-.384.407-.384.407-.384.274-.256.274-.248.274-.256.274-.248.274-.248.284-.248.284-.248.284-.248.558-.488.568-.48.577-.48.577-.48L37,40.289l.587-.472.587-.464.6-.464.6-.456.606-.456.606-.448.615-.448.615-.44.625-.44.625-.432.625-.432.634-.424.634-.424.644-.416.644-.416.644-.408.653-.408.653-.408.663-.4.663-.4.663-.392.672-.392.672-.392.672-.384.672-.384.681-.376.681-.376.681-.376.691-.368.691-.368.691-.36.691-.36.7-.36.7-.352.7-.352.7-.344.71-.344.71-.344.71-.344.71-.336.71-.336.748-.344.719-.328.719-.328.719-.328.719-.32.729-.32.729-.32.729-.312.729-.312.729-.312.729-.3.729-.3.729-.3.738-.3.795-.32.8-.32.8-.312.8-.312.814-.3.814-.3.814-.3.814-.3.823-.288.823-.288.823-.28.823-.28.833-.272.833-.264.814-.272.833-.256.842-.256.842-.256.842-.248.842-.24.842-.24.842-.232.852-.232.852-.224.852-.224.852-.216.852-.216.852-.208.861-.208.861-.2.861-.2.861-.192.861-.192.871-.184.871-.184.871-.176.871-.176.871-.168.871-.168.871-.168.88-.16.88-.16.88-.152.88-.152.88-.144.88-.144.88-.136.88-.136.9-.144.89-.128.89-.12.776-.1.114-.016.89-.12.89-.112.89-.112.89-.1.89-.1.89-.1.89-.1.89-.088.9-.088.9-.088.9-.08.9-.08.9-.072.9-.072.909-.072.9-.064.9-.064.9-.056.9-.056.9-.048.9-.048.9-.048.9-.04.9-.04.9-.032.9-.032.9-.032.9-.024.9-.024.9-.024.9-.016.9-.016.9-.008.9-.008.9-.008h1.846Z" transform="translate(3.034 -6.07)" fill="#f6f6f6" fill-rule="evenodd"/>
        <path id="Path_19" data-name="Path 19" d="M181.452,180.528l.274.136.265.136.265.136.265.136.265.136.256.144.256.144.256.144.256.144.256.144.246.152.246.152.246.152.246.152.246.152.237.152.237.152.237.16.237.16.227.16.227.16.227.16.227.168.218.168.218.168.218.168.218.168.218.168.208.168.208.176.208.176.208.176.208.176.2.176.142.128.047.056.17.192.17.192.17.192.17.2.161.2.161.2.161.2.161.2.151.2.151.2.151.2.142.208.142.208.142.208.142.208.132.208.132.208.133.208.133.208.123.208.123.208.123.208.114.208.114.216.114.216.114.216.1.216.1.216.1.216.095.216.095.216.095.216.095.216.085.224.085.224.085.224.085.224.076.224.076.224.076.224.066.224.066.224.066.224.066.224.057.224.057.224.057.224.057.224.047.224.047.224.047.224.038.232.038.232.038.232.038.232.028.232.028.232.028.232.028.232.019.168.009.064.019.232.019.232.019.232.009.232.009.232.009.232v1.169l-.009.24-.009.24-.009.24-.009.24-.019.24-.019.24-.019.24-.019.24-.028.24-.028.24-.028.24-.028.24-.038.24-.038.24-.038.24-.047.24-.047.24-.047.248-.028.152-.038.16-.038.152-.047.152-.047.152-.047.152-.047.152-.057.144-.057.144-.057.144-.066.144-.066.144-.028.072-.095.208-.133.272-.142.272-.142.264-.142.264-.142.264-.284.5-.284.5-.132.24-.133.232-.123.224-.085.152.237-.024.312-.032.3-.032.3-.04.284-.032.549-.072.473-.072.379-.056.246-.04.047-.008h0l.322-.072.341-.08.331-.08.331-.08.331-.088.331-.088.331-.088.331-.088.331-.1.331-.1.331-.1.331-.1.331-.1.331-.1.331-.1.331-.1.331-.112.331-.112.331-.112.331-.112.322-.12.322-.12.322-.12.322-.12.322-.12.322-.128.322-.128.322-.128.322-.128.322-.136.322-.136.322-.136.322-.136.322-.136.312-.136.312-.144.312-.144.312-.144.312-.144.312-.144.312-.144.312-.152.312-.152.3-.152.625-.3.615-.312.615-.312.606-.32.606-.32.606-.32.6-.328.6-.328.587-.336.587-.336.426-.248.426-.248.416-.248.416-.248.407-.248.407-.248.407-.248.4-.256.4-.248.388-.256.388-.256.388-.256.379-.256.379-.256.369-.256.369-.256.369-.256.36-.256.36-.256.36-.264.35-.264.35-.264.341-.264.114-.088.227-.184.331-.264.331-.264.331-.272.322-.272.322-.272.312-.272.312-.272.312-.272.3-.272.3-.272.293-.272.293-.272.284-.28.284-.28.284-.28.284-.28.274-.28.274-.28.265-.28.265-.28.265-.288.256-.288.256-.288.246-.288.246-.288L232.8,189l.237-.288.237-.288.237-.288.227-.288.227-.3.218-.3.218-.3.218-.3.208-.3.208-.3.208-.3.2-.3.2-.3.2-.3.189-.3.189-.3.18-.3.18-.3.18-.312.17-.312.17-.312.17-.312.161-.312.161-.312.151-.32.151-.32.151-.32.142-.32.142-.32.142-.32.133-.32.133-.328.132-.328.123-.328.123-.328.114-.328.114-.328.114-.328.1-.336.1-.336.1-.336.095-.336.095-.344.085-.344.085-.344.085-.344.076-.344.076-.344.076-.344.066-.352.066-.352.057-.352.057-.352.057-.352.057-.36.047-.36.047-.36.038-.36.019-.216-.009-.152-.028-.368-.028-.368-.038-.368-.038-.368-.047-.376-.057-.376-.057-.376-.057-.376-.066-.376-.066-.376-.076-.376-.076-.376-.085-.376-.085-.376-.095-.376-.095-.384-.076-.288.189-.1.719-.408.653-.424,6.777-.2.7.4.748.416.2.1-.038.3-.076.432-.076.432-.085.424-.085.424-.085.424-.085.424-.095.416-.095.416-.095.416-.1.416-.1.408-.1.408-.114.408-.114.408-.114.4-.114.4-.047.16-.038.24-.057.4-.066.4-.066.4-.076.4-.076.392-.076.392-.085.392-.085.392-.095.392-.095.392-.095.384-.1.384-.1.384-.114.384-.114.384-.123.376-.123.376-.123.376-.133.376-.132.376-.142.376-.142.368-.142.368-.151.368-.151.368-.161.368-.161.368-.161.36-.17.36-.17.36-.18.36-.18.36-.189.352-.189.352-.189.352-.2.352-.2.352-.208.352-.208.344-.208.344-.218.344-.218.344-.227.344-.227.336-.227.336-.237.336-.237.336-.237.336-.246.336-.246.328-.256.328-.256.328-.265.328-.265.328-.265.328-.274.32-.274.32-.274.32-.284.32-.284.32-.293.312-.293.312-.293.312-.3.312-.3.312-.3.3-.312.3-.312.3-.322.3-.322.3-.331.3-.331.3-.331.3-.341.3-.341.3-.341.3-.35.3-.35.288-.36.288-.36.288-.36.288-.369.288-.369.288-.369.288-.256.192-.123.088-.379.288-.379.28-.388.28-.388.28-.4.28-.4.28-.4.272-.407.272-.407.272-.416.272-.416.272-.416.272-.426.272-.426.264-.435.264-.435.264-.435.264-.445.264-.445.264-.445.256-.454.264-.454.256-.454.256-.615.344-.625.344-.634.344-.634.344-.644.336-.644.336-.653.328-.653.328-.663.328-.663.32-.341.16-.331.16-.341.16-.341.152-.341.152-.341.152-.341.152-.341.152-.35.152-.35.152-.35.152-.35.144-.35.144-.35.144-.35.144-.35.144-.36.136-.36.136-.36.136-.36.136-.36.136-.36.128-.36.128-.36.128-.369.128-.369.12-.369.12-.369.12-.369.12-.369.112-.369.112-.369.112-.379.112-.379.1-.379.1-.379.1-.379.1-.379.1-.379.1-.379.088-.388.088-.388.088-.388.088-.416.088-.142.032-.17.032-.36.056-.454.064-.54.072-.606.072-.331.04-.341.04-.35.04-.35.04-.36.032-.36.032-.36.032-.36.032-.36.024-.36.024-.36.016-.341.008h-.71l-.18-.008-.18-.008-.18-.008-.189-.016-.2-.024-.208-.032-.218-.04-.237-.048-.265-.072-.293-.1-.293-.128-.208-.112-.189-.112-.189-.136-.189-.16-.18-.192-.161-.216-.133-.24-.1-.248-.066-.256-.019-.216v-.384l.009-.168.009-.16.019-.16.019-.16.028-.16.028-.152.038-.152.038-.152.038-.152.047-.152.047-.152.047-.144.047-.144.057-.144.057-.144.057-.144.114-.272.123-.272.133-.272.132-.272.132-.264.133-.264.133-.256.265-.5.256-.489.114-.232.114-.232.1-.224.1-.216.095-.208.066-.168.019-.056-.009.032.038-.112.028-.1.038-.1-.009.032.038-.1.028-.1-.009.032.028-.1.028-.1-.009.04.019-.1.019-.1-.009.04.019-.1.009-.088-.009.048.009-.1.028-.2.019-.208.019-.208.019-.208.019-.208.019-.208.009-.208.009-.208.009-.2.009-.2V202l-.009-.2-.009-.2-.009-.2-.009-.2-.009-.192-.019-.192-.019-.192-.019-.192-.019-.192-.028-.192-.028-.192-.028-.192-.028-.192-.009-.048-.019-.136-.038-.192-.038-.192-.038-.192-.038-.184-.038-.184-.047-.184-.047-.184-.047-.184-.047-.184-.047-.184-.057-.184-.057-.184-.057-.184-.057-.176-.057-.184-.066-.176-.066-.176-.066-.176-.066-.176-.076-.176-.076-.176-.076-.176-.076-.176-.076-.168-.085-.168-.085-.168-.085-.168-.085-.168-.085-.168-.095-.168-.095-.168-.095-.168-.095-.168-.1-.168-.1-.16-.1-.168-.1-.16-.1-.16-.1-.16-.114-.16-.114-.16-.114-.16-.114-.16-.114-.16-.123-.152-.123-.152-.123-.152-.123-.152-.123-.152-.132-.152-.132-.152-.133-.152-.133-.152-.142-.152-.142-.152-.142-.144-.142-.144-.142-.144-.142-.144-.038-.04-.095-.112-.123-.152-.133-.152-.132-.152-.133-.152-.142-.152-.142-.152-.142-.152-.142-.152-.151-.152-.151-.152-.151-.152-.151-.152-.151-.152-.161-.152-.161-.144-.161-.152-.17-.144-.17-.144-.17-.144-.17-.144-.18-.144-.18-.144L180,185.8l-.18-.144-.18-.144-.189-.136-.189-.144-.189-.136-.189-.136-.2-.136-.2-.136-.2-.136-.208-.136-.208-.136-.208-.136-.076-.048.265-.521.293-.7.151-.561.8-.889.634-.3.776-.432.577-.352.095.048Z" transform="translate(-6.152 -37.222)" fill="#f6f6f6" fill-rule="evenodd"/>
        <path id="Path_20" data-name="Path 20" d="M2.271,89.922l1.145.416-.066.36-.1.6-.095.593-.085.593-.085.593-.076.585-.066.585-.009.072-.066.513-.076.585-.066.577-.066.569-.057.577-.047.569-.047.569-.038.569-.028.569-.028.561v.136l-.019.424-.019.561-.019.561-.009.553v1.658l.009.545.019.545.019.545.028.545.028.521v.024l.028.537.038.537.038.537.047.537.057.537.057.529.066.529.066.529.076.529.085.529.085.529.019.088.066.432.085.521.095.521.095.521.1.521.114.513.114.513.123.513.123.513.133.513.133.513.142.513.142.5.151.5.161.5.161.5.17.5.17.5.18.5.18.5.189.5.2.5.2.5.208.5.208.5.218.5.227.488.227.489.237.489.237.488.246.488.246.489.256.488.123.232.133.256.256.488.265.48.265.48.274.48.284.48.284.48.284.48.293.48.293.481.3.48.312.472.312.48.322.472.322.472.331.472.331.472.2.28.133.192.341.472.341.472.35.472.35.472.36.472.369.472.369.472.379.464.379.473.388.464.388.464.4.464.4.464.009.008.369.472.379.48.388.48.4.481.4.48.407.48.161.184.246.3.4.488.407.488.416.48.426.481.426.48.435.481.435.48.18.192.265.288.445.48.454.48.464.48.473.48.473.48.483.48.492.48.492.472.5.472v1.177l-1.533-.072-.6-.416-.6-.416-.587-.416-.587-.36-.587-.416-.577-.416-.577-.416-.568-.424-.568-.424-.341-.256-.227-.168-.558-.424-.558-.432-.549-.424-.549-.432-.539-.432-.539-.432-.539-.432L17.593,149l-.2-.168-.511-.448-.511-.448-.5-.448-.5-.448-.492-.448-.483-.44-.009-.008-.454-.472-.454-.481-.445-.472-.435-.472-.435-.48-.426-.48-.426-.481-.416-.48-.416-.48-.407-.48-.4-.488-.4-.48-.388-.488-.161-.2-.227-.288-.369-.5-.369-.5-.36-.5-.36-.5-.35-.5-.35-.5-.341-.5-.331-.5-.331-.5-.322-.5-.322-.5-.312-.5-.3-.513-.3-.513-.293-.513-.293-.513-.161-.264-.133-.248-.274-.521-.265-.521-.265-.521-.256-.521-.256-.529-.246-.529-.237-.529-.237-.529-.227-.529-.227-.529-.218-.529-.208-.537-.208-.537-.2-.537-.2-.537-.189-.537-.18-.537-.18-.545-.17-.545-.17-.545-.161-.545-.151-.545-.151-.545-.142-.553-.133-.553-.133-.553-.1-.561L-2.6,115.8l-.114-.553-.1-.561-.1-.561-.095-.561L-3.1,113.1l-.009-.1-.066-.569-.066-.569-.057-.569-.057-.569-.047-.569-.038-.569-.038-.569-.028-.577-.019-.577-.019-.577-.009-.577v-.577l.009-.585.009-.585.019-.585.028-.585.028-.585.038-.585.047-.585.047-.585.057-.593.066-.593.057-.448.019-.144.085-.593.085-.593.095-.593.1-.593.1-.6.114-.6.123-.6.123-.6.133-.6.123-.529.019-.072.161-.6.161-.6.17-.6.18-.609.18-.609.189-.609.114-.36L.4,89.65Z" transform="translate(3.55 -22.718)" fill="#f6f6f6" fill-rule="evenodd"/>
        <path id="Path_21" data-name="Path 21" d="M290.015,145.964l-.1.1-.227.216-.331.32-.341.32-.341.32-.341.312-.35.312-.35.312-.36.312-.36.312-.36.312-.369.312-.369.312-.369.3-.369.3-.379.3-.379.3-.379.3-.388.3-.388.3-.142.1-.246.192-.4.3-.4.3-.4.288-.407.288-.407.288-.407.288-.407.288-.416.288-.416.288-.416.28-.416.28-.416.28-.426.28-.426.28-.284.184-.151.1-.435.272-.435.272-.435.264-.435.264-.435.264-.445.264-.114.072-.331.184-.454.248-.454.248-.454.248-.454.248-.123.064-.35.16-.483.216-.227.1-.265.1-.5.192-.483.184-.019.008-.511.168-.511.168-.511.168-.511.168-.511.168-.123.04-.4.112-.521.144-.511.152-.511.144-.511.144-.511.144-.5.144-.369.1-.133.032-.956-.224.293-.729.114-.064.322-.168.435-.24.435-.24.426-.248.426-.248.426-.256.416-.256.322-.2.1-.056.426-.248.426-.256.426-.256.416-.256.416-.264.009-.008.417-.24.426-.248.227-.128.218-.112.445-.232.322-.168.123-.056.464-.208.464-.208.464-.216.464-.216.341-.16.123-.056.464-.216.464-.216.464-.216.464-.216.454-.224.454-.224.161-.08.3-.144.454-.224.454-.224.454-.224.454-.232.445-.232.445-.24.445-.24.445-.24.445-.24.435-.24.435-.248.435-.248.426-.248.426-.256.275-.16.151-.088.426-.256.426-.256.416-.256.416-.264.416-.264.407-.264.407-.272.4-.272.4-.272.4-.272.388-.272.388-.28.388-.28.379-.28.379-.288.369-.288.369-.288.36-.288.256-.2.114-.1.625-.04Z" transform="translate(-10.654 -33.842)" fill="#f6f6f6" fill-rule="evenodd"/>
      </g>
    </g>
    <g id="Group_30" data-name="Group 30" transform="translate(38.367 45.566)">
      <path id="Path_22" data-name="Path 22" d="M87.586,78.021a2.331,2.331,0,0,1-1.959-1.041A8.934,8.934,0,0,1,84.435,74l-.795-3.2q-.909-2.979-2.858-13.149l-4.4,11.235-1.3,3.54a18.927,18.927,0,0,1-1.647,3.444,2.842,2.842,0,0,1-2.489,1.417A2.3,2.3,0,0,1,68.9,76.091a9.373,9.373,0,0,1-.88-1.994l-.634-2.066a139.087,139.087,0,0,1-3.918-14.078l-.8,3.331-2.839,9.834a34.6,34.6,0,0,1-1.1,5.125,2.243,2.243,0,0,1-2.177,1.449,2.291,2.291,0,0,1-1.713-.649,1.885,1.885,0,0,1-.549-1.377,25.122,25.122,0,0,1,1.514-7.64l2.423-7.5,1.278-5.87q.965-4.12,2.044-5.382a2.708,2.708,0,0,1,2.177-1.081,2.276,2.276,0,0,1,2.139,1.377,29.585,29.585,0,0,1,1.846,6.759,95.116,95.116,0,0,0,3.634,13.262,123.649,123.649,0,0,0,5.631-14.935l.662-2.723a8.806,8.806,0,0,1,1.032-2.643,2.637,2.637,0,0,1,2.357-1.377q1.888,0,2.887,3.091a32.936,32.936,0,0,1,.861,4.4A91.874,91.874,0,0,0,88.022,69.78l1.079,3.2a15.711,15.711,0,0,1,.833,3.163,1.605,1.605,0,0,1-.719,1.337A2.643,2.643,0,0,1,87.586,78.021Z" transform="translate(-52.549 -46.573)" fill="#f6f6f6"/>
      <path id="Path_23" data-name="Path 23" d="M113.895,77.555a1.592,1.592,0,0,1-.691,1.313,2.636,2.636,0,0,1-1.637.529,2.606,2.606,0,0,1-1.647-.529,1.607,1.607,0,0,1-.681-1.313c0-.521-.019-1.225-.047-2.106-.047-1.217-.076-2.034-.085-2.442a23.524,23.524,0,0,0-5.792,2.515c-.994.609-2.6,1.722-4.8,3.331a2.647,2.647,0,0,1-1.628.561,2.568,2.568,0,0,1-1.647-.553,1.609,1.609,0,0,1-.7-1.313q0-1.754,7.288-5.309-5.636-2.09-5.631-5.045,0-4.168,6.71-6.871A21.967,21.967,0,0,1,110.79,59.2a2.811,2.811,0,0,1,1.931.7,2.225,2.225,0,0,1,.786,1.722q0,2.643.208,7.952C113.828,73.118,113.895,75.777,113.895,77.555Zm-4.865-7.64q-.241-7-.265-7.247c-.738.04-1.211.072-1.429.1a9.636,9.636,0,0,0-4,1.417c-1.647.953-2.47,1.986-2.489,3.091a5.211,5.211,0,0,0,3.568,2.386A23.953,23.953,0,0,0,109.03,69.915Z" transform="translate(-54.704 -48.821)" fill="#f6f6f6"/>
      <path id="Path_24" data-name="Path 24" d="M140.054,62.145l-7.619,13.934q-2.811,5.081-4.316,8.513L126.662,88.2a2,2,0,0,1-1.978,1.337,2.564,2.564,0,0,1-1.6-.513,1.562,1.562,0,0,1-.672-1.273q0-1.862,4.751-10.787L119.28,64.131l-.994-1.361a2.7,2.7,0,0,1-.6-1.433A1.689,1.689,0,0,1,118.381,60a2.378,2.378,0,0,1,1.552-.577,1.941,1.941,0,0,1,1.562.649,70.273,70.273,0,0,1,8.035,12.517l3.256-6.423a60.278,60.278,0,0,1,3.388-5.734,2.143,2.143,0,0,1,1.846-1.041,2.573,2.573,0,0,1,1.6.537,1.579,1.579,0,0,1,.691,1.281A1.651,1.651,0,0,1,140.054,62.145Z" transform="translate(-55.944 -48.859)" fill="#f6f6f6"/>
      <path id="Path_25" data-name="Path 25" d="M150.056,75.718a1.444,1.444,0,0,1-.625,1.161,2.235,2.235,0,0,1-1.42.5,2.446,2.446,0,0,1-1.76-.969,2.621,2.621,0,0,1-.861-1.674,1.419,1.419,0,0,1,.625-1.153,2.3,2.3,0,0,1,1.439-.48,2.5,2.5,0,0,1,1.76.969A2.534,2.534,0,0,1,150.056,75.718Zm-.019-27.812V68.639q0,1.658-1.959,1.658t-1.959-1.658c0-.513-.019-1.265-.057-2.282s-.057-1.77-.057-2.266q0-2.7.057-8.1t.057-8.1q0-1.658,1.959-1.658C149.384,46.248,150.037,46.8,150.037,47.906Z" transform="translate(-57.428 -46.24)" fill="#f6f6f6"/>
      <path id="Path_26" data-name="Path 26" d="M198.607,51.405q-2.953,3.015-4.533,4.973l-2.754,3.427a35.022,35.022,0,0,1-3.019,3.259l4.846,6q2.882,3.556,5.13,5.814a1.842,1.842,0,0,1,.6,1.281,1.757,1.757,0,0,1-.672,1.361,2.359,2.359,0,0,1-1.6.577,2.459,2.459,0,0,1-1.562-.577,21.874,21.874,0,0,1-3.388-3.54L188.7,70.144l-3.454-4.188-7.572,7.416-4.051,3.836a2.441,2.441,0,0,1-1.609.617,2.362,2.362,0,0,1-1.581-.577,1.739,1.739,0,0,1-.681-1.361,1.8,1.8,0,0,1,.568-1.265l3.966-3.74,8.253-8.1q-2.428-2.739-5.149-5.494l-2.555-2.923a17.365,17.365,0,0,0-2.858-2.683,1.851,1.851,0,0,1-.928-1.506,1.814,1.814,0,0,1,.634-1.361,2.218,2.218,0,0,1,1.581-.593q1.874,0,4.78,3.371c.606.761,1.514,1.834,2.754,3.219q2.513,2.535,4.78,5.085l5.016-5.926q4.884-5.754,6.341-5.758a2.362,2.362,0,0,1,1.581.577,1.739,1.739,0,0,1,.681,1.361A1.768,1.768,0,0,1,198.607,51.405Z" transform="translate(-58.733 -46.632)" fill="#f6f6f6"/>
      <path id="Path_27" data-name="Path 27" d="M227.9,67.015a12.923,12.923,0,0,1-3.038,8.345,11.379,11.379,0,0,1-9.247,4.34,13.239,13.239,0,0,1-7.922-2.33,7.517,7.517,0,0,1-3.455-6.375,12.469,12.469,0,0,1,3.322-8.4,11.933,11.933,0,0,1,9.427-4.284Q227.906,58.322,227.9,67.015Zm-4.571,0q0-2.835-1.42-3.892c-.946-.7-2.584-1.065-4.921-1.065a7.486,7.486,0,0,0-5.858,2.883,9.159,9.159,0,0,0-2.309,6.054,4.271,4.271,0,0,0,2.006,3.636,8.259,8.259,0,0,0,4.8,1.321,6.875,6.875,0,0,0,5.612-2.891A9.5,9.5,0,0,0,223.33,67.015Z" transform="translate(-60.58 -48.644)" fill="#f6f6f6"/>
      <path id="Path_28" data-name="Path 28" d="M252.51,77.656a1.651,1.651,0,0,1-.615,1.329,2.664,2.664,0,0,1-3.142,0,1.662,1.662,0,0,1-.615-1.329q0-1.514-.133-6.375A12.614,12.614,0,0,1,241.38,72.9c-3.114,0-5.357-.9-6.748-2.723s-2.082-4.765-2.082-8.849c0-2.034.776-3.051,2.338-3.051a2.332,2.332,0,0,1,1.562.513,1.662,1.662,0,0,1,.615,1.329,3.755,3.755,0,0,1-.066.609,3.674,3.674,0,0,0-.066.609q0,4.937,1.1,6.559c.672,1.009,2.006,1.506,4,1.506a8.8,8.8,0,0,0,3.237-.785A6.151,6.151,0,0,0,248,66.749c0-.344.009-1.113.047-2.29s.047-1.922.047-2.234c0-.248-.028-.625-.076-1.121s-.076-.865-.076-1.1a1.54,1.54,0,0,1,.653-1.281,2.487,2.487,0,0,1,1.571-.5c1.552,0,2.338,1.137,2.338,3.411,0,.336-.019.785-.057,1.337s-.057.929-.057,1.1q0,2.138.066,6.791C252.5,73.956,252.51,76.222,252.51,77.656Z" transform="translate(-62.096 -48.626)" fill="#f6f6f6"/>
      <path id="Path_29" data-name="Path 29" d="M278.474,62.145l-7.619,13.934c-1.883,3.387-3.313,6.23-4.316,8.513L265.082,88.2a2,2,0,0,1-1.978,1.337,2.564,2.564,0,0,1-1.6-.513,1.562,1.562,0,0,1-.672-1.273q0-1.862,4.751-10.787L257.7,64.131l-.994-1.361a2.7,2.7,0,0,1-.6-1.433A1.689,1.689,0,0,1,256.8,60a2.378,2.378,0,0,1,1.552-.577,1.941,1.941,0,0,1,1.562.649,70.267,70.267,0,0,1,8.035,12.517l3.256-6.423a60.275,60.275,0,0,1,3.388-5.734,2.143,2.143,0,0,1,1.846-1.041,2.573,2.573,0,0,1,1.6.537,1.579,1.579,0,0,1,.691,1.281A1.651,1.651,0,0,1,278.474,62.145Z" transform="translate(-63.358 -48.859)" fill="#f6f6f6"/>
      <path id="Path_30" data-name="Path 30" d="M77.408,138.559a1.658,1.658,0,0,1-.615,1.321,2.336,2.336,0,0,1-1.562.521q-2.271,0-2.271-3.051c0-.176.009-.472.019-.9v-.8H60.769c-.454,0-1.1.04-1.94.112-.909.072-1.562.12-1.959.128q-.028.541,0,1.393c.028.7.047,1.177.047,1.393a1.651,1.651,0,0,1-.615,1.329,2.332,2.332,0,0,1-1.562.513c-1.524,0-2.29-.921-2.29-2.755,0-.472.019-1.177.047-2.106s.047-1.634.047-2.106a1.643,1.643,0,0,1,.738-1.425,2.572,2.572,0,0,1,1.8-.4,14.492,14.492,0,0,0,3.038-6.07,28.974,28.974,0,0,0,.6-6.575,2.975,2.975,0,0,1,.88-2.443,4.769,4.769,0,0,1,2.953-.7c.369,0,1.051.024,2.054.072s1.8.072,2.385.072c.558,0,1.391-.04,2.489-.12s1.893-.12,2.376-.12a2.136,2.136,0,0,1,2.224,1.233,7.459,7.459,0,0,1,.265,2.459c0,.569-.038,1.417-.123,2.547S74.1,124.04,74.1,124.6c0,.969.019,2.226.047,3.764.047,2.074.066,3.331.066,3.764q3.123,0,3.123,1.866c0,.513.019,1.273.047,2.282S77.408,138.047,77.408,138.559Zm-7.439-18.835q-5.508.072-6.937,0a22.13,22.13,0,0,1-3.568,12.261c.369-.024.8-.04,1.3-.04h9.067c0-.537-.028-1.754-.085-3.668-.028-1.514-.047-2.739-.047-3.668,0-.537.047-1.345.132-2.434S69.969,120.277,69.969,119.724Z" transform="translate(-52.45 -60.103)" fill="#f6f6f6"/>
      <path id="Path_31" data-name="Path 31" d="M92.475,136.15a22.454,22.454,0,0,1-4.846-.593l-.047,8.905a1.67,1.67,0,0,1-.606,1.337,2.574,2.574,0,0,1-3.1,0,1.67,1.67,0,0,1-.606-1.337l.066-7.448v-7.432c-.047-2.723-.151-5.2-.331-7.432l-.331-3.78a4.151,4.151,0,0,1,.568-2.234,2.117,2.117,0,0,1,1.912-1.1,2.091,2.091,0,0,1,1.439.513,1.62,1.62,0,0,1,.587,1.257,4.447,4.447,0,0,1-.066.617,9.89,9.89,0,0,0-.151,1.065,18.278,18.278,0,0,1,3.653-1.65,11.26,11.26,0,0,1,3.369-.553,7.2,7.2,0,0,1,6.606,3.387,13.441,13.441,0,0,1,1.647,7.1,9.079,9.079,0,0,1-2.555,6.631A9.618,9.618,0,0,1,92.475,136.15ZM94,120a8.566,8.566,0,0,0-3.653.761,15.483,15.483,0,0,0-2.953,1.978q.284,4.228.284,8.889a15.435,15.435,0,0,0,4.8.785,5.17,5.17,0,0,0,4.2-1.73,5.932,5.932,0,0,0,1.259-3.908,10.37,10.37,0,0,0-.984-5.077A3.2,3.2,0,0,0,94,120Z" transform="translate(-54.069 -59.944)" fill="#f6f6f6"/>
      <path id="Path_32" data-name="Path 32" d="M125.545,134.555a1.592,1.592,0,0,1-.691,1.313,2.636,2.636,0,0,1-1.637.529,2.606,2.606,0,0,1-1.647-.529,1.607,1.607,0,0,1-.681-1.313c0-.521-.019-1.225-.047-2.106-.047-1.217-.076-2.034-.085-2.442a23.525,23.525,0,0,0-5.792,2.515c-.994.609-2.6,1.722-4.8,3.331a2.647,2.647,0,0,1-1.628.561,2.568,2.568,0,0,1-1.647-.553,1.609,1.609,0,0,1-.7-1.313q0-1.754,7.288-5.309-5.636-2.09-5.631-5.045,0-4.168,6.71-6.871a21.967,21.967,0,0,1,7.884-1.121,2.811,2.811,0,0,1,1.931.7,2.225,2.225,0,0,1,.786,1.722q0,2.643.208,7.952C125.478,130.118,125.545,132.777,125.545,134.555Zm-4.865-7.64q-.241-7-.265-7.247c-.738.04-1.211.072-1.429.1a9.636,9.636,0,0,0-4,1.417c-1.647.953-2.47,1.986-2.489,3.091a5.211,5.211,0,0,0,3.568,2.386A24.01,24.01,0,0,0,120.68,126.915Z" transform="translate(-55.328 -60.175)" fill="#f6f6f6"/>
      <path id="Path_33" data-name="Path 33" d="M155.857,134.569a1.658,1.658,0,0,1-.615,1.321,2.371,2.371,0,0,1-1.581.521,2.336,2.336,0,0,1-1.562-.521,1.658,1.658,0,0,1-.615-1.321c0-1.009-.095-2.5-.284-4.493s-.284-3.484-.284-4.493q0-.408.18-5.55c-.568,0-2.1-.016-4.581-.04-1.874-.024-3.417-.04-4.6-.04q-.767,0-3.123.264.043,1.285.312,4.565c.142,1.914.218,3.428.218,4.549a26.71,26.71,0,0,1-.2,2.683,26.649,26.649,0,0,0-.2,2.7,1.658,1.658,0,0,1-.615,1.321,2.371,2.371,0,0,1-1.581.521,2.336,2.336,0,0,1-1.562-.521,1.658,1.658,0,0,1-.615-1.321,24.623,24.623,0,0,1,.208-2.7,24.68,24.68,0,0,0,.208-2.683c0-1.153-.095-2.875-.274-5.165s-.274-4.012-.274-5.165a2.143,2.143,0,0,1,.757-1.682,2.9,2.9,0,0,1,1.969-.665,21.491,21.491,0,0,0,2.376-.192,21.719,21.719,0,0,1,2.4-.192q1.888,0,5.7.048t5.7.048a2.3,2.3,0,0,1,1.533.553,1.656,1.656,0,0,1,.653,1.3c0,.809-.038,2.018-.114,3.636s-.114,2.827-.114,3.636c0,1.017.095,2.531.293,4.549C155.753,132.014,155.857,133.536,155.857,134.569Z" transform="translate(-56.84 -60.189)" fill="#f6f6f6"/>
      <path id="Path_34" data-name="Path 34" d="M180.6,136.979a3.493,3.493,0,0,1-1.514-.817,8.946,8.946,0,0,1-1.476-1.361,31.984,31.984,0,0,1-3.719,1.465,9.537,9.537,0,0,1-2.688.5q-5.153,0-7.505-2.459-2.229-2.306-2.224-7.079a9.908,9.908,0,0,1,3.663-7.712,12.834,12.834,0,0,1,8.755-3.2,13.064,13.064,0,0,1,4.3.841c2,.7,2.991,1.538,2.991,2.515a1.186,1.186,0,0,1-.445.9,11.639,11.639,0,0,0-.341,2.33q-.128,1.622-.142,4.156a12.761,12.761,0,0,0,.379,3.652,23.606,23.606,0,0,0,1.391,3.275q.156.336.511.985l.132.32a1.523,1.523,0,0,1-.615,1.233A2.514,2.514,0,0,1,180.6,136.979Zm-4.581-12.949a12.842,12.842,0,0,1,.123-1.738,19.788,19.788,0,0,1,.36-2,12.346,12.346,0,0,0-1.4-.521,3.565,3.565,0,0,0-.937-.168,8.249,8.249,0,0,0-5.887,2.354,7.308,7.308,0,0,0-2.48,5.43,7.006,7.006,0,0,0,1.278,4.581,4.718,4.718,0,0,0,3.833,1.53,8.886,8.886,0,0,0,3.587-.649,12.78,12.78,0,0,0,2.224-1.417A58.447,58.447,0,0,1,176.017,124.03Z" transform="translate(-58.289 -60.197)" fill="#f6f6f6"/>
      <path id="Path_35" data-name="Path 35" d="M204.682,117.928a1.724,1.724,0,0,1-.606,1.353,2.275,2.275,0,0,1-1.552.529c-.4,0-.984-.016-1.77-.048s-1.372-.048-1.77-.048a15.113,15.113,0,0,0-1.628.112q.483,9.814.483,13.318,0,3.724-2.338,3.724a2.517,2.517,0,0,1-1.533-.48,1.456,1.456,0,0,1-.653-1.209c0-.472.019-1.177.066-2.122s.066-1.65.066-2.122q0-2.463-.445-11.067c-.483-.024-1.42-.04-2.792-.04a10.445,10.445,0,0,1-2.659-.224,1.683,1.683,0,0,1-1.391-1.714,1.785,1.785,0,0,1,.587-1.337,2.14,2.14,0,0,1,1.533-.561h12.985a7.182,7.182,0,0,1,2.357.28A1.627,1.627,0,0,1,204.682,117.928Z" transform="translate(-59.611 -60.133)" fill="#f6f6f6"/>
      <path id="Path_36" data-name="Path 36" d="M232.409,130.635q0,.721-.085,2.162t-.085,2.162a1.656,1.656,0,0,1-.625,1.313,2.571,2.571,0,0,1-3.123,0,1.656,1.656,0,0,1-.625-1.313c0-.809.038-2.01.133-3.612s.133-2.8.133-3.612a22.233,22.233,0,0,0-.416-4.356q-2.683,3.351-3.9,4.677a30.644,30.644,0,0,1-4.6,4.172c-2,1.425-3.473,2.571-4.448,3.427a3.672,3.672,0,0,1-2.442,1.025,3.228,3.228,0,0,1-1.675-.424,1.463,1.463,0,0,1-.767-1.281q0-5.309-.218-11.067c-.161-3.988-.246-5.926-.246-5.83,0-1.265.738-1.9,2.205-1.9a1.961,1.961,0,0,1,2.177,1.786c.028.184.076,1.409.151,3.668l.265,9.257a56.464,56.464,0,0,0,6.937-6.262q1.122-1.177,6.142-6.815a3.7,3.7,0,0,1,2.773-1.474,2.363,2.363,0,0,1,1.552.521,1.639,1.639,0,0,1,.625,1.321q0,2.066.085,6.23T232.409,130.635Z" transform="translate(-60.857 -60.171)" fill="#f6f6f6"/>
      <path id="Path_37" data-name="Path 37" d="M244.886,132.718a1.444,1.444,0,0,1-.625,1.161,2.235,2.235,0,0,1-1.42.5,2.446,2.446,0,0,1-1.76-.969,2.621,2.621,0,0,1-.861-1.674,1.419,1.419,0,0,1,.625-1.153,2.3,2.3,0,0,1,1.439-.48,3.291,3.291,0,0,1,2.6,2.619Zm-.019-27.812v20.733q0,1.658-1.959,1.658t-1.959-1.658c0-.513-.019-1.265-.057-2.282s-.057-1.77-.057-2.266q0-2.7.057-8.1t.057-8.1q0-1.658,1.959-1.658C244.214,103.24,244.867,103.8,244.867,104.906Z" transform="translate(-62.507 -57.593)" fill="#f6f6f6"/>
    </g>
  </g>
</svg>
