<svg xmlns="http://www.w3.org/2000/svg" width="150" height="188.41" viewBox="0 0 150 188.41">
  <g id="logo-3" transform="translate(0.01 -0.006)">
    <path id="Path_16" data-name="Path 16" d="M15.921,16783.656c-.394.24-1.471.811-3.22,1.7a16.856,16.856,0,0,0-3.807,2.467,9.974,9.974,0,0,0-2.516,4.344,21.879,21.879,0,0,0-.885,6.5,11.52,11.52,0,0,0,1.909,6.889,5.671,5.671,0,0,0,4.745,2.643,6.135,6.135,0,0,0,1.43-.285c.394-.117.7-.2.906-.246a2.719,2.719,0,0,1,1.066.682,1.345,1.345,0,0,1,.373.908.878.878,0,0,1-.075.344,2.322,2.322,0,0,1-.234.416,5.63,5.63,0,0,1-1.844,1.2,6.855,6.855,0,0,1-2.314.332,10.635,10.635,0,0,1-8.233-3.564,13.442,13.442,0,0,1-3.231-9.369q0-7.081,3.5-11.312t10.652-5.791a3,3,0,0,1,1.344.715,1.57,1.57,0,0,1,.437,1.123v.3Zm3.135,27.168c.1-1.742.182-3.254.235-4.539s.074-2.455.074-3.494c0-2.291-.065-4.48-.2-6.545s-.352-4.059-.64-5.973a6.624,6.624,0,0,1,1.674-.793,10.187,10.187,0,0,1,2.164-.408,2.853,2.853,0,0,1,1.44,1.221,7.764,7.764,0,0,1,.554,2.908q2.128-1.274,3.615-2.084t2.463-1.227a3.9,3.9,0,0,1,1.674.771,3.786,3.786,0,0,1,1.013,1.6,35.171,35.171,0,0,0-4.351,1.916,33.806,33.806,0,0,0-4.095,2.52c-.064,1.207-.117,2.422-.149,3.654s-.042,2.475-.042,3.748c0,.8.021,1.758.063,2.889s.107,2.357.182,3.7l-.96.746c-.192,0-.469-.006-.842-.02s-.65-.02-.811-.02a10.082,10.082,0,0,1-1.845-.137,3.515,3.515,0,0,1-1.215-.434Zm24.877-3.125c0-1.182-.021-2.363-.054-3.551s-.075-2.4-.138-3.623c-.107-.014-.224-.025-.341-.033s-.309-.006-.533-.006a3.908,3.908,0,0,0-2.794.9,3.462,3.462,0,0,0-.938,2.643c0,1.57.235,2.6.693,3.09a3.375,3.375,0,0,0,2.506.734c.181,0,.554-.033,1.1-.1.2-.025.373-.045.5-.053Zm-7.23-14.311h-.192a3.04,3.04,0,0,1-1.738-.494,1.362,1.362,0,0,1-.757-1.064.338.338,0,0,1,.1-.193,3.343,3.343,0,0,1,.341-.307c1.195-.428,2.42-.85,3.689-1.252s2.56-.793,3.871-1.162q3.919.457,5.406,2.578,1.5,2.121,1.5,10.076,0,2.64-.224,8.732c-.011.416-.02.729-.02.93-.438.109-.833.2-1.163.246a7.176,7.176,0,0,1-.97.072,6.723,6.723,0,0,1-1.045-.092,6.9,6.9,0,0,1-1.045-.266l-.245-.891a22.106,22.106,0,0,1-2.645.6,13.929,13.929,0,0,1-2.292.221,4.623,4.623,0,0,1-3.817-1.551,7.585,7.585,0,0,1-1.247-4.8q0-3.779,1.983-5.434t6.483-1.656h1a7.93,7.93,0,0,0-.906-3.889,2.5,2.5,0,0,0-2.1-1.527,3.655,3.655,0,0,0-.736.1,7.733,7.733,0,0,0-.927.248l-2.3.777Zm29.111,14.357a4.346,4.346,0,0,1,1.461.883,1.412,1.412,0,0,1,.458,1.02,2.741,2.741,0,0,1-.224.869.413.413,0,0,0-.031.1,23.3,23.3,0,0,1-3.1.6,24.718,24.718,0,0,1-3.049.182,38.1,38.1,0,0,1-3.807-.221c-1.461-.143-3.1-.371-4.936-.676a4.275,4.275,0,0,1-.438-.908,2.963,2.963,0,0,1-.149-.877,3.058,3.058,0,0,1,.022-.377,1.078,1.078,0,0,1,.043-.227l8.136-15.8c-.31.027-.619.047-.918.059s-.661.02-1.077.02c-.65,0-1.376-.031-2.186-.1s-1.727-.162-2.751-.3a7.9,7.9,0,0,1-.374-1.117,3.62,3.62,0,0,1-.128-.863.633.633,0,0,1,.213-.455,2.349,2.349,0,0,1,.694-.4,15.609,15.609,0,0,0,2.111.3c.735.059,1.6.092,2.6.092,1.044,0,2-.033,2.889-.1a23.22,23.22,0,0,0,2.42-.293,3.356,3.356,0,0,1,1.439.793,3.23,3.23,0,0,1,.747,1.434c-1.92,3.773-3.509,6.961-4.8,9.586s-2.388,4.965-3.315,7.051c.458.09.917.154,1.4.2s.949.064,1.407.064c.693,0,1.482-.047,2.378-.137s1.855-.221,2.868-.395Zm8.264,2.441q-1.008-5.191-2.4-10.123c-.917-3.285-1.984-6.48-3.167-9.59a6.738,6.738,0,0,1,1.546-.539,10.46,10.46,0,0,1,2.111-.164c.394,0,.746,0,1.045.008s.608.02.927.033q.864,3.009,1.653,6.484t1.5,7.5q1.119-3.372,1.994-7.014t1.5-7.6c.576-.07.992-.123,1.227-.148a5.436,5.436,0,0,1,.587-.039,8.723,8.723,0,0,1,1.514.143q.832.146,1.919.428a115.458,115.458,0,0,1-4.723,15.713,98.575,98.575,0,0,1-6.59,14.025h-.65a8.944,8.944,0,0,1-2.485-.33,9.037,9.037,0,0,1-2.3-1.078,20.538,20.538,0,0,0,2.442-3.2,40.829,40.829,0,0,0,2.346-4.512Zm40.221-26.531c-.394.24-1.471.811-3.22,1.7a16.862,16.862,0,0,0-3.807,2.467,9.976,9.976,0,0,0-2.516,4.344,21.879,21.879,0,0,0-.885,6.5,11.525,11.525,0,0,0,1.909,6.889,5.67,5.67,0,0,0,4.745,2.643,6.132,6.132,0,0,0,1.43-.285c.394-.117.7-.2.906-.246a2.719,2.719,0,0,1,1.066.682,1.345,1.345,0,0,1,.373.908.886.886,0,0,1-.074.344,2.348,2.348,0,0,1-.235.416,5.628,5.628,0,0,1-1.845,1.2,6.85,6.85,0,0,1-2.314.332,10.631,10.631,0,0,1-8.232-3.564,13.439,13.439,0,0,1-3.232-9.369q0-7.081,3.5-11.312t10.652-5.791a3,3,0,0,1,1.344.715,1.57,1.57,0,0,1,.437,1.123v.3Zm12.082,24.043c0-1.182-.022-2.363-.054-3.551s-.074-2.4-.139-3.623c-.106-.014-.223-.025-.341-.033s-.309-.006-.532-.006a3.907,3.907,0,0,0-2.794.9,3.46,3.46,0,0,0-.939,2.643c0,1.57.235,2.6.693,3.09a3.375,3.375,0,0,0,2.506.734c.181,0,.554-.033,1.1-.1.2-.025.374-.045.5-.053Zm-7.23-14.311h-.192a3.042,3.042,0,0,1-1.739-.494,1.363,1.363,0,0,1-.757-1.064.342.342,0,0,1,.1-.193,3.264,3.264,0,0,1,.341-.307c1.194-.428,2.42-.85,3.69-1.252s2.559-.793,3.871-1.162q3.919.457,5.406,2.578,1.5,2.121,1.5,10.076,0,2.64-.223,8.732c-.011.416-.021.729-.021.93-.438.109-.832.2-1.163.246a7.185,7.185,0,0,1-.97.072,6.719,6.719,0,0,1-1.045-.092,6.863,6.863,0,0,1-1.045-.266l-.246-.891a22.129,22.129,0,0,1-2.644.6,13.939,13.939,0,0,1-2.292.221,4.623,4.623,0,0,1-3.818-1.551,7.585,7.585,0,0,1-1.247-4.8q0-3.779,1.984-5.434t6.483-1.656h1a7.921,7.921,0,0,0-.906-3.889,2.5,2.5,0,0,0-2.1-1.527,3.65,3.65,0,0,0-.736.1,7.719,7.719,0,0,0-.927.248l-2.3.777Zm23.023-7.291a3.073,3.073,0,0,1,.234.793,5.249,5.249,0,0,1,.085.961v1.641c0,.014-.011.078-.032.2a1.182,1.182,0,0,0,0,.389q1.056-.018,2.463-.123c.938-.07,2.036-.168,3.284-.3a3.751,3.751,0,0,1,1.332,1.025,2.439,2.439,0,0,1,.449,1.371,15.309,15.309,0,0,1-2.5.52c-.981.137-2.634.279-4.969.428-.213,2.047-.362,4-.458,5.869s-.139,3.643-.139,5.307c0,2.129.16,3.428.47,3.9a1.992,1.992,0,0,0,1.78.7,8.743,8.743,0,0,0,1.28-.086,7,7,0,0,0,1.13-.26,2.242,2.242,0,0,1,.639.475.871.871,0,0,1,.2.533,1.292,1.292,0,0,1-.266.727,5,5,0,0,1-.96.869c-1.1.293-2.037.5-2.794.631a12.906,12.906,0,0,1-2.047.188,4.729,4.729,0,0,1-3.8-1.344c-.756-.889-1.141-2.389-1.141-4.5,0-1.039.107-2.643.309-4.811s.32-3.812.32-4.928c0-.863-.011-1.52-.022-1.967s-.021-.865-.042-1.229c-.544-.09-1.046-.193-1.515-.318a13.049,13.049,0,0,1-1.365-.422v-.2a2.407,2.407,0,0,1,.235-1,4.412,4.412,0,0,1,.672-.986l2.154-.117.223-3.752a6.926,6.926,0,0,1,1.322-.52,5.218,5.218,0,0,1,1.3-.17,4.577,4.577,0,0,1,.97.105,7.2,7.2,0,0,1,1.184.389Z" transform="translate(0 -16630.887)" fill="#fff"/>
    <path id="Path_17" data-name="Path 17" d="M3102.049,50.724c3.64,0,4.99.117,7.822,1.1,1.438-6.911,2.461-14.6-.557-19.77-.8-1.372-2.343-2.107-2.067-4.171.061-.456-.336-1.206.012-1.38.072-.036,1.588.827,2.236.1.74-.833.085-1.917.993-2.645a2.331,2.331,0,0,0,.639-.989c.138-.32.535.587.958.626,1.038.094,1.071,1.056,2.176,1.759.7.446,1.632-1.5,2.866-1.437.442.023.559-.123,1-.385s.3.576.713.992c.932.943-.056,1.612.544,2.662.265.464,1.006-.017,1.464-.02a1.293,1.293,0,0,0,.8-.144c.13.279-.121.852.106,1.271.729,1.347-1.588,3.013-3.443,4.75-3.408,3.19-3.047,16.208-2.4,21.119,1.29.545.8.431,2.059,1.284a166.442,166.442,0,0,0,17.658-6.114c2.973-1.149,2.342,1.548.764,1.911-5.494,2.321-11.309,3.483-17.458,4.9a9.088,9.088,0,0,1,.824.676,102.926,102.926,0,0,0,13.613-.992c1.632-.2,1.465,1.823.588,1.819-4.9-.026-9.579.01-13.2.134a12.949,12.949,0,0,1,1.248,1.522c5.856.627,11.809,1.031,17.678,2.2,1.718.327,1.429,2.4-.218,2.084-4.778-1.078-11.917-2.837-16.89-3.378,1.282,2.265.8,4.914.866,8.311.089,4.666,2.546,5.371,1.951,13.479-5.063-.393-5.11-.8-8.7-2.038.993,7.815,3.849,17.365,6.4,25.278,1.728,5.37,9.093-5.583,9.623-8.2.392-1.935-4.141-3.858-3.717-6.573.093-.6-.092-1.931.276-2.121.1-.05,1.575.754,2.285-.137.816-1.024.492-2.986,1.474-3.849a3.1,3.1,0,0,0,.724-1.243c.164-.41.509.844.938.944,1.057.244,1.054.545,2.136,1.606.688.674.614-.749,2.864-.919a1.787,1.787,0,0,0,1.053-.4c.471-.3.271.8.662,1.4.838,1.283-.506,4.079,1.2,4.5.3-.165.4-.571.928-.821a1.161,1.161,0,0,1,.159.906c-.066.76-.012,1.4-.076,1.85-.462,3.244-4.447,2.841-7.021,7.2-9.63,16.3-15.612,28.705-32.4,31.41.877.508,2.325.764,5.155.508,11.729-.511,32.52-20.01,37.683-5.969a5.359,5.359,0,0,1-.116,3.23c-.908,2.065-3.194,3.108-4.8-1.193-.93-2.5-6.164-2.475-8.685-1.525-14,5.278-26.887,12.9-34.528,4.942-21.527-4.8-20.745-15.69-32.5-30.264-3.211-3.982-6.435-2.342-7.05-5.565a10.951,10.951,0,0,1,.085-1.52c0-.387-.065-.682.117-.911.7.293.385.617,1.369.575,1.687-.49.213-3.228.99-4.544.363-.615.11-1.707.595-1.428a1.8,1.8,0,0,0,1.07.353c2.256.079,2.812,1.669,3.468.968,1.031-1.1,1.165-1.574,2.209-2.076.393-.189.71-1.384.892-.98a3.135,3.135,0,0,0,.783,1.212c1.021.822,1,2.533,1.86,3.523.34.389.61.587,1.038.4.081-.058.134-.094.147-.088l.018.009c.451-.232.817-.557.855-.539.378.175.073,1.234.2,1.828.553,2.7-3.261,5.723-2.778,7.641.654,2.59,8.161,12.255,10.412,4.684,3.466-11.657,2.406-20.879,2.782-25.768a52.867,52.867,0,0,1-9.9,1.905c-.5-6.912,4.317-10.215,4.317-15.354a7.64,7.64,0,0,1,.913-3.731c-4.727.265-11.592.6-16.873,1.265-1.751.22-2.39-2.173-.8-2.28,6.729.131,12.657.031,18.35-.144a12.723,12.723,0,0,1,1.242-1.568c-3.941-.458-8.384-.8-12.23-1.285-1.757-.219-.537-1.938.851-1.608a69.213,69.213,0,0,0,12.141,2.124c.174-.164.352-.325.536-.484-5.262-2.006-10.735-2.858-15.876-4.827-1.393-.451-1.907-3.078.826-2.047,5.479,2.066,10.459,4.269,15.581,6.433a14.11,14.11,0,0,1,2.8-1.9c-.247-1.065,1.1-15.938-2.627-20.228-1.592-1.834-4.025-3.233-3.419-4.607.189-.428-.073-.989.033-1.274a1.129,1.129,0,0,0,.751.112c.423-.016,1.132.436,1.353-.039.5-1.073-.445-1.7.368-2.68.358-.431.188-1.263.609-1.019s.536.385.943.344c1.138-.114,2.095,1.8,2.721,1.321.986-.745.967-1.707,1.921-1.844.389-.054.709-.977.853-.663a2.4,2.4,0,0,0,.641.962c.876.69.326,1.8,1.052,2.6.635.7,1.991-.22,2.06-.187.331.16,0,.924.081,1.378.359,2.05-.934,2.91-1.7,4.249-3.066,5.37-1.268,14.229,0,19.228a21.336,21.336,0,0,1,9.053-1.726ZM3058.9,87.16c.213,2.85-1.258,5.835-1.347-1.527-.023-1.936.508-9.918.859-7.332.412,3.038.254,5.733.488,8.859ZM3069.415,70.9c-1.258-5.246-.007,26.6,1.049,7.85A30.59,30.59,0,0,0,3069.415,70.9Zm3.943,15.767c-.213,2.206,1.256,4.515,1.346-1.182.023-1.5-.507-7.675-.858-5.674C3073.434,82.159,3073.592,84.245,3073.358,86.664Zm-9.335-7.636c-.417,5.947-.32,8.379-1.485,3.013-.4-1.85.049-12.544.61-11.691s1.306,2.541.875,8.679Zm80.283,5.7c-.213,2.85,1.257,5.834,1.346-1.527.023-1.936-.507-9.917-.858-7.332C3144.382,78.905,3144.54,81.6,3144.307,84.727Zm-9.824-17.186c1.258-5.246.006,26.6-1.049,7.851a30.568,30.568,0,0,1,1.049-7.851ZM3129.966,82.7c.213,3.112-1.256,6.371-1.345-1.668-.024-2.115.507-10.831.858-8.008.413,3.318.254,6.262.488,9.676Zm10.412-6.193c.417,6.922.319,9.753,1.485,3.507.4-2.154-.05-14.6-.61-13.61S3139.948,69.367,3140.378,76.511Zm-17.575-57.7c-.213,3.2,1.257,6.543,1.346-1.713.023-2.172-.507-11.122-.858-8.223C3122.878,12.28,3123.036,15.3,3122.8,18.809ZM3105.083,7.631c-1.551-5.561,1.489,28.585,1.489,8.373A35.16,35.16,0,0,0,3105.083,7.631Zm7.026,6.676c.213,3.491-1.256,7.146-1.345-1.87-.024-2.371.507-12.146.858-8.98C3112.033,7.177,3111.875,10.478,3112.109,14.306Zm5.746-1.482c.287,8.228.137,11.588,1.42,4.194.442-2.549.224-17.341-.354-16.173S3117.558,4.332,3117.855,12.824Zm-22.088,7.76c-.213,3.2,1.258,6.543,1.347-1.713.024-2.172-.508-11.122-.859-8.223-.412,3.407-.254,6.43-.488,9.936ZM3083.319,7.729c-1.55-5.795,1.489,29.782,1.489,8.723A37.975,37.975,0,0,0,3083.319,7.729Zm8.2,50.464c-.861,0-2.067,1.734-2.067,3.266a2.183,2.183,0,0,0,2.067,2.28,2.742,2.742,0,0,0,2.151-2.729c0-1.532-1.29-2.817-2.151-2.817ZM3079.86,16.875c.213,3.49-1.256,7.145-1.345-1.87-.023-2.372.507-12.146.857-8.98.413,3.72.255,7.022.488,10.85Zm10.034-4.824c.287,8.228.137,11.587,1.419,4.194.443-2.55.225-17.341-.354-16.173s-1.361,3.488-1.065,11.979Zm23.212,46.142c-.861,0-2.068,1.734-2.068,3.266a2.184,2.184,0,0,0,2.068,2.28,2.742,2.742,0,0,0,2.151-2.729c0-1.532-1.29-2.817-2.151-2.817Zm-8.346-4.847c-2.974-2.511-9.308,3.423-3.135,2.6C3104.189,55.607,3108.539,56.538,3104.759,53.347Zm-12.1,3.558a6.056,6.056,0,0,1,6.008,5.978c0,2.725-3.979,4.89-7.756,4.89s-6.455-2.257-6.455-4.983,4.426-5.885,8.2-5.885Zm20.174.58a6.4,6.4,0,0,0-6.583,5.281c-.448,2.725,3.339,3.5,7.115,3.5s6.711-1.213,6.264-3.938-3.02-4.841-6.8-4.841Z" transform="translate(-3028.416 0)" fill="#fff" fill-rule="evenodd"/>
  </g>
</svg>
