<svg xmlns="http://www.w3.org/2000/svg" width="133.511" height="168.021" viewBox="0 0 133.511 168.021">
  <g id="logo-3" transform="translate(0 79)">
    <path id="Path_16" data-name="Path 16" d="M14.169,16783.445c-.351.217-1.31.732-2.866,1.537a15.071,15.071,0,0,0-3.388,2.225,9.043,9.043,0,0,0-2.24,3.922,20.032,20.032,0,0,0-.788,5.869,10.5,10.5,0,0,0,1.7,6.217,5.029,5.029,0,0,0,4.223,2.387,5.468,5.468,0,0,0,1.272-.258c.351-.105.626-.178.806-.221a2.39,2.39,0,0,1,.949.615,1.221,1.221,0,0,1,.332.818.8.8,0,0,1-.067.311,2.134,2.134,0,0,1-.209.375,5.009,5.009,0,0,1-1.641,1.084,6.021,6.021,0,0,1-2.06.3,9.4,9.4,0,0,1-7.328-3.219,12.24,12.24,0,0,1-2.876-8.457q0-6.393,3.114-10.211t9.481-5.229a2.694,2.694,0,0,1,1.2.645,1.439,1.439,0,0,1,.389,1.016v.273Zm2.791,24.523c.085-1.57.162-2.936.209-4.1s.066-2.219.066-3.154c0-2.068-.057-4.043-.18-5.908s-.313-3.662-.57-5.391a5.8,5.8,0,0,1,1.49-.715,8.952,8.952,0,0,1,1.926-.371,2.546,2.546,0,0,1,1.282,1.1,7.1,7.1,0,0,1,.493,2.627c1.263-.77,2.335-1.395,3.218-1.885s1.614-.857,2.193-1.1a2.938,2.938,0,0,1,2.391,2.141,31.277,31.277,0,0,0-3.872,1.73,30.407,30.407,0,0,0-3.645,2.273c-.057,1.09-.1,2.189-.133,3.3s-.037,2.236-.037,3.383q0,1.081.056,2.609c.038,1.018.095,2.125.162,3.336l-.854.674c-.171,0-.417-.006-.75-.02s-.579-.018-.722-.018a8.952,8.952,0,0,1-1.642-.121,3.112,3.112,0,0,1-1.082-.395Zm22.143-2.82c0-1.064-.019-2.131-.048-3.2s-.067-2.164-.123-3.271c-.095-.012-.2-.023-.3-.027s-.275-.006-.475-.006a3.449,3.449,0,0,0-2.487.807,3.155,3.155,0,0,0-.835,2.387,4.361,4.361,0,0,0,.617,2.789,2.974,2.974,0,0,0,2.231.662c.161,0,.493-.031.977-.09.18-.02.332-.039.446-.047Zm-6.435-12.916H32.5a2.685,2.685,0,0,1-1.547-.447,1.229,1.229,0,0,1-.674-.961.323.323,0,0,1,.085-.176,3.038,3.038,0,0,1,.3-.273c1.063-.389,2.154-.768,3.284-1.131s2.278-.717,3.445-1.051q3.488.416,4.812,2.328t1.339,9.1q0,2.379-.2,7.881c-.009.373-.018.658-.018.84-.39.1-.741.176-1.035.221a6.548,6.548,0,0,1-.864.066,5.9,5.9,0,0,1-1.861-.322l-.218-.8a19.609,19.609,0,0,1-2.354.539,12.31,12.31,0,0,1-2.04.2,4.085,4.085,0,0,1-3.4-1.4,6.915,6.915,0,0,1-1.11-4.33q0-3.413,1.765-4.9t5.771-1.5h.892a7.247,7.247,0,0,0-.806-3.512,2.232,2.232,0,0,0-1.87-1.379,3.2,3.2,0,0,0-.655.09,7.038,7.038,0,0,0-.825.223l-2.05.7Zm25.91,12.959a3.839,3.839,0,0,1,1.3.8,1.279,1.279,0,0,1,.408.92,2.518,2.518,0,0,1-.2.785.372.372,0,0,0-.028.086,19.861,19.861,0,0,1-2.762.539,21.648,21.648,0,0,1-2.714.164,32.664,32.664,0,0,1-3.389-.2c-1.3-.127-2.762-.332-4.394-.609a3.829,3.829,0,0,1-.39-.82,2.7,2.7,0,0,1-.133-.791,2.769,2.769,0,0,1,.019-.34.978.978,0,0,1,.038-.205l7.242-14.266c-.276.025-.551.041-.817.053s-.588.016-.958.016c-.579,0-1.224-.027-1.946-.088s-1.537-.145-2.449-.27a7.22,7.22,0,0,1-.333-1.006,3.322,3.322,0,0,1-.114-.781.575.575,0,0,1,.19-.41,2.1,2.1,0,0,1,.617-.363,13.926,13.926,0,0,0,1.879.271c.655.053,1.424.082,2.316.082.929,0,1.784-.029,2.572-.088a19.726,19.726,0,0,0,2.154-.266,2.524,2.524,0,0,1,1.946,2.01c-1.709,3.406-3.123,6.285-4.272,8.652s-2.126,4.482-2.951,6.367c.408.078.816.137,1.243.178a12.488,12.488,0,0,0,1.253.061c.617,0,1.319-.045,2.117-.123s1.651-.2,2.553-.357Zm7.355,2.2q-.9-4.687-2.135-9.139c-.816-2.961-1.766-5.848-2.819-8.654a5.922,5.922,0,0,1,1.376-.486,9.22,9.22,0,0,1,1.879-.15c.351,0,.664,0,.93.01s.541.016.825.027q.769,2.719,1.471,5.855t1.338,6.771q1-3.047,1.775-6.33t1.338-6.865c.513-.062.883-.111,1.092-.131a4.247,4.247,0,0,1,.523-.037,7.685,7.685,0,0,1,1.347.129c.494.086,1.063.219,1.708.387a105.427,105.427,0,0,1-4.2,14.184,89.657,89.657,0,0,1-5.866,12.658h-.579a7.865,7.865,0,0,1-2.211-.3,8.093,8.093,0,0,1-2.05-.973,18.638,18.638,0,0,0,2.173-2.887,36.72,36.72,0,0,0,2.088-4.072Zm35.8-23.949c-.351.217-1.309.732-2.866,1.537a15.077,15.077,0,0,0-3.388,2.225,9.045,9.045,0,0,0-2.24,3.922,20.032,20.032,0,0,0-.788,5.869,10.507,10.507,0,0,0,1.7,6.217,5.029,5.029,0,0,0,4.223,2.387,5.466,5.466,0,0,0,1.272-.258c.351-.105.626-.178.806-.221a2.39,2.39,0,0,1,.949.615,1.221,1.221,0,0,1,.332.818.811.811,0,0,1-.066.311,2.157,2.157,0,0,1-.209.375,5.007,5.007,0,0,1-1.642,1.084,6.016,6.016,0,0,1-2.059.3,9.4,9.4,0,0,1-7.327-3.219,12.237,12.237,0,0,1-2.876-8.457q0-6.393,3.113-10.211t9.481-5.229a2.692,2.692,0,0,1,1.2.645,1.439,1.439,0,0,1,.389,1.016v.273Zm10.754,21.7c0-1.064-.019-2.131-.048-3.2s-.066-2.164-.123-3.271c-.095-.012-.2-.023-.3-.027s-.275-.006-.474-.006a3.447,3.447,0,0,0-2.487.807,3.153,3.153,0,0,0-.836,2.387,4.36,4.36,0,0,0,.617,2.789,2.974,2.974,0,0,0,2.231.662c.161,0,.493-.031.977-.09.181-.02.333-.039.446-.047Zm-6.435-12.916h-.17a2.687,2.687,0,0,1-1.548-.447,1.23,1.23,0,0,1-.674-.961.327.327,0,0,1,.085-.176,2.962,2.962,0,0,1,.3-.273c1.063-.389,2.154-.768,3.284-1.131s2.278-.717,3.445-1.051q3.488.416,4.811,2.328,1.339,1.916,1.338,9.1,0,2.379-.2,7.881c-.009.373-.019.658-.019.84-.39.1-.741.176-1.035.221a6.556,6.556,0,0,1-.864.066,5.893,5.893,0,0,1-1.86-.322l-.219-.8a19.63,19.63,0,0,1-2.353.539,12.319,12.319,0,0,1-2.04.2,4.085,4.085,0,0,1-3.4-1.4,6.915,6.915,0,0,1-1.11-4.33q0-3.413,1.765-4.9t5.771-1.5h.892a7.239,7.239,0,0,0-.807-3.512,2.232,2.232,0,0,0-1.87-1.379,3.2,3.2,0,0,0-.655.09,7.026,7.026,0,0,0-.825.223l-2.05.7Zm20.492-6.582a2.789,2.789,0,0,1,.208.715,4.819,4.819,0,0,1,.076.869v1.48c0,.014-.009.07-.028.182a1.086,1.086,0,0,0,0,.352q.94-.015,2.193-.109c.835-.062,1.812-.152,2.923-.271a3.4,3.4,0,0,1,1.186.926,2.224,2.224,0,0,1,.4,1.24,13.646,13.646,0,0,1-2.221.467c-.873.121-2.344.254-4.423.385-.189,1.85-.322,3.611-.408,5.3s-.123,3.287-.123,4.793a8.534,8.534,0,0,0,.418,3.52,1.765,1.765,0,0,0,1.585.633,7.7,7.7,0,0,0,1.139-.076,6.175,6.175,0,0,0,1.006-.236,2.027,2.027,0,0,1,.569.432.785.785,0,0,1,.181.479,1.186,1.186,0,0,1-.237.658,4.554,4.554,0,0,1-.854.783c-.977.264-1.813.453-2.487.568a11.289,11.289,0,0,1-1.822.168,4.184,4.184,0,0,1-3.379-1.209,6.369,6.369,0,0,1-1.015-4.062c0-.939.095-2.389.275-4.346s.285-3.441.285-4.445c0-.779-.009-1.373-.019-1.775s-.019-.781-.037-1.107c-.485-.084-.931-.176-1.348-.289a11.848,11.848,0,0,1-1.215-.379v-.18a2.2,2.2,0,0,1,.209-.9,4.033,4.033,0,0,1,.6-.893l1.917-.1.2-3.387a6.008,6.008,0,0,1,1.177-.469,4.537,4.537,0,0,1,1.158-.154,4.2,4.2,0,0,1,.864.094,6.807,6.807,0,0,1,1.054.354Z" transform="translate(0.01 -16726.602)" fill="#0e0e0e"/>
    <path id="Path_17" data-name="Path 17" d="M3097.9,45.789a17.569,17.569,0,0,1,7.092.992c1.3-6.239,2.232-13.177-.5-17.846-.727-1.238-2.125-1.9-1.875-3.765.055-.411-.305-1.089.011-1.245.065-.033,1.44.747,2.027.088.671-.752.077-1.731.9-2.387a2.1,2.1,0,0,0,.58-.892c.125-.289.486.53.868.565.942.085.971.954,1.973,1.588.637.4,1.48-1.356,2.6-1.3.4.021.507-.111.908-.347s.274.52.646.9c.845.851-.051,1.455.493,2.4.241.419.912-.015,1.328-.018a1.175,1.175,0,0,0,.729-.13c.119.252-.11.769.1,1.147.661,1.216-1.439,2.72-3.122,4.287-3.091,2.879-2.763,14.63-2.175,19.063,1.169.492.723.389,1.867,1.159a151.37,151.37,0,0,0,16.012-5.519c2.7-1.037,2.124,1.4.692,1.725-4.982,2.1-10.254,3.144-15.831,4.423a8.235,8.235,0,0,1,.748.61,93.741,93.741,0,0,0,12.343-.9c1.48-.182,1.328,1.646.533,1.642-4.447-.024-8.686.009-11.969.121A11.7,11.7,0,0,1,3116,53.527c5.31.566,10.708.931,16.03,1.986,1.557.295,1.3,2.165-.2,1.881-4.333-.973-10.806-2.561-15.316-3.049,1.164,2.045.728,4.436.786,7.5.081,4.212,2.308,4.849,1.769,12.167-4.59-.355-4.634-.72-7.888-1.839.9,7.055,3.49,15.675,5.8,22.818,1.567,4.848,8.245-5.04,8.725-7.4.355-1.747-3.755-3.483-3.37-5.933.084-.539-.084-1.743.25-1.915.089-.045,1.428.68,2.072-.124.74-.924.446-2.7,1.337-3.474a2.8,2.8,0,0,0,.657-1.122c.148-.37.461.762.851.852.958.22.956.492,1.937,1.449.624.609.557-.676,2.6-.83a1.625,1.625,0,0,0,.955-.357c.428-.269.246.724.6,1.266.76,1.158-.458,3.682,1.091,4.062.274-.149.358-.516.842-.741a1.044,1.044,0,0,1,.145.818c-.06.686-.011,1.263-.069,1.67-.418,2.928-4.032,2.564-6.366,6.5-8.732,14.718-14.156,25.912-29.383,28.353.8.458,2.109.689,4.674.459,10.635-.461,29.488-18.062,34.169-5.388a4.817,4.817,0,0,1-.1,2.916c-.824,1.864-2.9,2.805-4.35-1.077-.843-2.253-5.589-2.234-7.875-1.376-12.7,4.765-24.38,11.642-31.308,4.461-19.52-4.336-18.811-14.163-29.467-27.319-2.912-3.594-5.835-2.114-6.393-5.023a9.709,9.709,0,0,1,.077-1.372c0-.349-.059-.615.106-.822.635.264.349.557,1.242.519,1.53-.443.193-2.914.9-4.1.329-.555.1-1.54.54-1.289a1.638,1.638,0,0,0,.971.319c2.045.072,2.55,1.507,3.144.874.935-1,1.056-1.421,2-1.874.356-.171.644-1.249.809-.885a2.834,2.834,0,0,0,.71,1.094c.926.742.9,2.286,1.687,3.18.308.352.553.53.941.362.073-.052.121-.085.133-.079l.016.008c.409-.21.74-.5.775-.487.343.158.067,1.114.177,1.65.5,2.433-2.957,5.166-2.519,6.9.593,2.338,7.4,11.063,9.441,4.228,3.143-10.523,2.182-18.847,2.522-23.26a48.128,48.128,0,0,1-8.98,1.72c-.454-6.24,3.915-9.221,3.915-13.86a6.874,6.874,0,0,1,.827-3.368c-4.285.239-10.511.543-15.3,1.142-1.588.2-2.167-1.962-.727-2.058,6.1.118,11.476.028,16.638-.13a11.488,11.488,0,0,1,1.127-1.415c-3.573-.414-7.6-.726-11.09-1.16-1.593-.2-.487-1.749.771-1.451a63.011,63.011,0,0,0,11.009,1.918c.158-.148.319-.293.486-.437-4.771-1.811-9.734-2.58-14.4-4.358-1.263-.407-1.729-2.778.748-1.847,4.968,1.865,9.484,3.854,14.128,5.807a12.811,12.811,0,0,1,2.539-1.719c-.224-.962,1-14.387-2.382-18.26-1.444-1.655-3.65-2.918-3.1-4.159.171-.386-.066-.893.031-1.15a1.027,1.027,0,0,0,.681.1c.384-.014,1.027.393,1.227-.035.455-.968-.4-1.536.334-2.419.325-.389.17-1.14.552-.92s.487.348.855.31c1.032-.1,1.9,1.62,2.467,1.192.894-.672.876-1.541,1.742-1.664.353-.049.643-.882.773-.6a2.17,2.17,0,0,0,.581.869c.794.623.3,1.624.953,2.349.576.635,1.806-.2,1.868-.169.3.144,0,.834.073,1.244.326,1.851-.847,2.627-1.54,3.836-2.78,4.847-1.15,12.845,0,17.357a19.423,19.423,0,0,1,8.209-1.558Zm-39.128,32.89c.193,2.573-1.14,5.267-1.221-1.378-.021-1.748.461-8.953.779-6.619.374,2.742.23,5.175.442,8ZM3068.309,64c-1.14-4.736-.006,24.01.951,7.086A27.49,27.49,0,0,0,3068.309,64Zm3.576,14.232c-.193,1.991,1.139,4.076,1.22-1.067.021-1.353-.46-6.928-.778-5.122C3071.953,74.164,3072.1,76.047,3071.885,78.231Zm-8.464-6.893c-.378,5.368-.291,7.564-1.347,2.72-.365-1.67.044-11.324.553-10.553s1.184,2.294.794,7.834Zm72.8,5.144c-.193,2.573,1.14,5.266,1.22-1.379.021-1.748-.46-8.952-.778-6.619C3136.286,71.227,3136.429,73.66,3136.217,76.482Zm-8.908-15.513c1.14-4.736.005,24.01-.951,7.087a27.468,27.468,0,0,1,.951-7.087Zm-4.095,13.687c.193,2.809-1.139,5.751-1.22-1.506-.021-1.909.46-9.777.778-7.229C3123.146,68.916,3123,71.574,3123.214,74.656Zm9.441-5.59c.378,6.249.29,8.8,1.347,3.166.364-1.944-.045-13.182-.553-12.286S3132.265,62.617,3132.655,69.066Zm-15.936-52.087c-.193,2.885,1.14,5.906,1.22-1.546.021-1.96-.46-10.039-.779-7.423C3116.787,11.086,3116.93,13.815,3116.719,16.979ZM3100.652,6.889c-1.406-5.02,1.35,25.8,1.35,7.558A31.607,31.607,0,0,0,3100.652,6.889Zm6.37,6.026c.193,3.151-1.139,6.45-1.22-1.688-.022-2.14.459-10.964.777-8.106C3106.953,6.479,3106.81,9.459,3107.022,12.915Zm5.21-1.338c.26,7.428.124,10.46,1.287,3.786.4-2.3.2-15.654-.321-14.6S3111.963,3.911,3112.232,11.577Zm-20.029,7c-.193,2.885,1.14,5.906,1.221-1.546.021-1.96-.46-10.039-.779-7.423-.373,3.075-.23,5.8-.442,8.969Zm-11.287-11.6c-1.406-5.231,1.35,26.884,1.35,7.874A34.135,34.135,0,0,0,3080.916,6.978Zm7.432,45.553c-.78,0-1.874,1.565-1.874,2.948a1.974,1.974,0,0,0,1.874,2.058,2.478,2.478,0,0,0,1.95-2.463,2.578,2.578,0,0,0-1.95-2.543Zm-10.569-37.3c.193,3.15-1.139,6.45-1.22-1.688-.021-2.141.459-10.964.777-8.106.374,3.358.231,6.339.442,9.795Zm9.1-4.355c.26,7.427.124,10.459,1.287,3.786.4-2.3.2-15.654-.321-14.6S3086.609,3.214,3086.878,10.879Zm21.047,41.651c-.781,0-1.875,1.565-1.875,2.948a1.975,1.975,0,0,0,1.875,2.058,2.478,2.478,0,0,0,1.95-2.463,2.578,2.578,0,0,0-1.95-2.543Zm-7.568-4.375c-2.7-2.266-8.44,3.09-2.842,2.348C3099.84,50.2,3103.785,51.036,3100.357,48.155Zm-10.976,3.212a5.479,5.479,0,0,1,5.448,5.4c0,2.46-3.608,4.414-7.032,4.414s-5.854-2.038-5.854-4.5,4.014-5.312,7.438-5.312Zm18.293.524a5.8,5.8,0,0,0-5.97,4.767c-.406,2.46,3.028,3.157,6.452,3.157s6.085-1.1,5.68-3.555S3111.1,51.891,3107.675,51.891Z" transform="translate(-3031.332 -79.006)" fill="#0e0e0e" fill-rule="evenodd"/>
  </g>
</svg>
