<svg xmlns="http://www.w3.org/2000/svg" width="30" height="31.244" viewBox="0 0 30 31.244">
  <g id="paw" transform="translate(4.288 2.068)">
    <g id="Group_1" data-name="Group 1" transform="translate(-2.182 2.995)">
      <path id="Path_6" data-name="Path 6" d="M64.349,182.474c3.981.445,3.077-1.3,6.9-1.473,3.918-.176,6.025,3.1,8.61.368,1.761-1.862-3.852-11.894-8.885-11.256-2.482.314-3.181.265-5.787,3.043-.533.569-2.6,3.871-2.782,6.11A2.85,2.85,0,0,0,64.349,182.474Z" transform="translate(-57.326 -156.365)" fill="#fed700"/>
      <path id="Path_7" data-name="Path 7" d="M73.355,49.618c.542,2.526-.56,5.244-2.437,5.621s-3.829-1.529-4.359-4.256.534-5.3,2.434-5.527C70.794,45.242,72.739,46.738,73.355,49.618Z" transform="translate(-60.921 -45.319)" fill="#fed700"/>
      <path id="Path_8" data-name="Path 8" d="M154.276,50.555c-.688,2.758-2.966,4.167-4.825,3.565s-2.246-3.694-1.909-5.749c.46-2.807,3.116-4.6,4.91-3.816C154.071,45.263,154.93,47.931,154.276,50.555Z" transform="translate(-133.225 -44.372)" fill="#fed700"/>
      <path id="Path_9" data-name="Path 9" d="M201.337,125.624c2.058,1.589,3.778.236,5.272-1.832.341-.472,1.58-3.424.15-5.374-1.073-1.463-3.364-1.253-4.583.085C199.2,121.766,200.809,125.216,201.337,125.624Z" transform="translate(-180.528 -109.437)" fill="#fed700"/>
      <path id="Path_10" data-name="Path 10" d="M21.448,124.91c1.357,2.219,1.226,4.794-.292,5.752s-3.85-.063-5.207-2.282c-.394-.645-1.66-4.547.484-5.633C18.96,121.466,20.805,123.86,21.448,124.91Z" transform="translate(-15.218 -113.867)" fill="#fed700"/>
    </g>
    <path id="Path_11" data-name="Path 11" d="M.784,0c.426,0,.765.866.758,1.942S1.184,3.891.758,3.894-.007,3.027,0,1.952.358,0,.784,0Z" transform="matrix(0.866, -0.5, 0.5, 0.866, -4.288, 8.423)" fill="#fed700"/>
    <path id="Path_12" data-name="Path 12" d="M2.008,0c1.106-.007,2,.323,2,.736S3.1,1.489,2,1.5,0,1.173,0,.76.9.007,2.008,0Z" transform="matrix(0.434, -0.901, 0.901, 0.434, 22.624, 10.149)" fill="#fed700"/>
    <path id="Path_13" data-name="Path 13" d="M2.214,0C3.435-.005,4.424.332,4.422.753s-.993.767-2.214.773S0,1.194,0,.773.993.006,2.214,0Z" transform="translate(16.077 2.136) rotate(-71.911)" fill="#fed700"/>
    <path id="Path_14" data-name="Path 14" d="M.775,0c.422,0,.758.985.752,2.206S1.174,4.417.752,4.419-.006,3.434,0,2.214.353,0,.775,0Z" transform="translate(2.436 -0.862) rotate(-21.464)" fill="#fed700"/>
  </g>
</svg>
