<?xml version="1.0" encoding="utf-8"?>
<!-- Generator: Adobe Illustrator 23.0.2, SVG Export Plug-In . SVG Version: 6.00 Build 0)  -->
<svg version="1.1" id="Layer_1" xmlns="http://www.w3.org/2000/svg" xmlns:xlink="http://www.w3.org/1999/xlink" x="0px" y="0px"
	 viewBox="0 0 1859.3 680.4" style="enable-background:new 0 0 1859.3 680.4;" xml:space="preserve">
<style type="text/css">
	.st0{fill:#F6F6F6;}
</style>
<path id="Path_89" class="st0" d="M36,552.6l16.8,3.9c0,0,6.3-2,8.8-1.4c2.6,0.6,13.9,0.8,13.9,0.8l9.1,1.6c0,0-5.1-4.7-4-4.9
	c1-0.3,2.4-0.3,3.1-0.7c1.1-0.4,2.3-0.8,3.5-1l-1.5-1c1.5-0.2,3.1-0.1,4.6,0.2c1.9,0.6,3.6,0.7,4.8,1.8c1.2,1.1,2.2,1.1,1.7,2.1
	c-0.5,1-1.5,1.3-0.9,1.9c0.8,0.6,1.8,1.1,2.8,1.5c0,0,5-0.2,6-0.1c1,0.1,4.9,0.8,4.9,0.8c2,0.3,4,0.4,6,0.3c2-0.2,5.4-0.4,7.1-0.5
	c1.7-0.1,6.1-0.8,7.4-0.3s5.5,1.4,6.1,2.1c0.6,0.7,1.2,1.1,1.1,1.6c-0.1,0.4,0.2,0.7,1.5,1.2s10.8,1.4,10.8,1.4l4.5-1.7l7,2.8
	c0,0,7.5,1.2,9.2,1.2c1.7,0,12.9,0.5,12.9,0.5c-0.3-0.9-0.5-1.8-0.7-2.8c0-0.3,1.4-0.7,1.4-0.7s2,0,2-0.3c0-0.4,0.2-0.8,0.5-1.1
	c0.8-0.5,1.8-0.8,2.8-0.8c1,0,3.3,0.1,3.3,0.1l-1.9,1.7c0.9,0.7,1.6,0.6,2.2,1.2s1.5,1.5,1.5,1.5s-0.3,0.1,0.9,0.6
	c1.7,0.6,3.4,1.1,5.1,1.4c1,0.2,5.5,1.3,6.2,0.9c0.7-0.4,1.2-1.5,2.1-1.2c1.5,0.4,3,0.8,4.5,1.3c1.3,0.5,8.1,1.8,9.8,1.7
	c1.7-0.1,3.8-0.7,4.8-0.8c1,0-1.5-1.4,3.4-0.2c4.9,1.1,7.4,1.8,8.4,2c1,0.2,8.8,1.1,8.8,1.1l5.1-1c0,0,0.4-0.6,2.1-0.6
	c1.7,0,7.6,0.3,9.6,0.6c2,0.3,2.3,0.6,4.9,0.5c1.6-0.1,3.2-0.4,4.8-0.8c0.9-0.1,1.8-0.2,2.7-0.5c0.7-0.3,1.1-1.1,2.1-0.9
	c1,0.2,4.2,0.9,4.2,0.9l2.8,1.3l5.8,1.2l3.4-0.5c0,0,0.4-0.5,2-0.3c2.4,0.3,4.8,0.7,7.2,1.2c1.6,0.5,8.3,0.1,8.3,0.1
	c0.7-0.4,1.5-0.7,2.4-0.7c1,0.1,6.2,0.7,6.2,0.7s3.8,1.3,4.8,1.6c1,0.3,5.9,0.9,5.9,0.9l4.7,0l4-0.1l7.5,1.3l17.6,5.4l3.4,1.3
	c0,0,6.7-0.1,9.7,0.7c3,0.8,5.2,1.3,6,1.9c0.8,0.7,4.2,1.5,4.2,1.5s10.9,1.2,13.6,1.1c2.4-0.2,4.7-0.2,7.1-0.1
	c2.6,0.2,6.3-0.5,9.7,0.9c3.3,1.1,6.8,1.9,10.4,2.3c2.3,0.3,4.7,0.5,7.1,0.4c2.7-0.3,8.9-0.6,10.7-0.7c1.8-0.2,6.7-0.1,8.5-0.4
	c1.8-0.3,1.5-1.1,7.1-0.1c5.6,1,10.4,2,15.3,2.2c4.9,0.2,19.4,0.8,20.8,0.4c1.4-0.4,5.5-1.1,5.5-1.1l7.2-0.8c0,0,8.4,0.3,10.5,0.9
	c2.4,0.6,4.9,1.1,7.4,1.4c2.6,0.3,13.7,0.4,15.9,0.5s3.6-0.6,7.1,0.2s8.1,2.3,8.1,2.3l5.2,1c0,0,9.7,0.7,12.2,1.8
	c2.5,1.1,1.5,2.4,3.1,3.2c1.5,0.9,3.3,1.5,5.1,1.9c2.6,0.6,4.8,0.8,7.8,1.3s4.9,0.1,8.2,2.1c1.5,1,3.2,1.9,5,2.5
	c1.3,0.5,11.7-1,11.7-1s4.9-0.4,8,0.3s4.3,0.9,7.4,1.4s7.8,1.3,7.8,1.3l4.2-1.8l10.2-0.3c0,0,6,1.5,6.8,2c0.8,0.5,2.9,1.9,2.9,1.9
	l5.4-0.4l-6,2.1c0,0,5,2.3,7.2,2.5s12.9,0,12.9,0s0.3-2.5,4-0.3c3.7,2.2,4.1,2.4,6.7,2.9c2.6,0.5,6.5,1.5,9.6,1
	c3.2-0.5,9.7-3.1,11.1-3.4c1.4-0.4,21.7,0.4,23.4,0.6c3.7,0.7,7.3,1.5,10.8,2.4c3.4,1,4.7,1.2,6.4,1.8s6.5,0.9,8.3,1.1
	c1.8,0.1,9.3,0.5,11,0.5c1.8,0,5.8-0.5,10.1,0.4c4.3,0.9,12.2,1.9,12.2,1.9s3.4-2.5,5.2-2.5c3.7-0.1,7.4-0.1,11.1,0.2
	c3.5,0.4,10.5,1.4,10.5,1.4l6.6,0.5c0,0,14.6-3.5,20.3-2.8c5.7,0.7,10,1.3,10,1.3c2.6,0.8,5.4,1.3,8.3,1.4
	c5.3,0.2,14.5,0.9,16.4,0.1c1.9-0.8,0.6-1.5,4.1-0.9c2.9,0.4,5.8,1,8.7,1.7c2.6,0.6,10.4,1.8,10.4,1.8s1.9-0.8,5.8-0.3
	c3.9,0.4,10.5,1.1,10.4,2c-0.1,0.9-1,0.7,0.7,1.7c1.6,1,3.4,1.3,6.4,2c4,0.8,8.1,1.4,12.2,1.6c4.4,0.3,9.7,0.6,11,0.8
	c2.2,0.7,4.3,1.4,6.4,2.3l13.1,2c0,0,7.1,0.4,9.8-0.2c2.7-0.6,6.8-1.3,7.6-0.4c0.8,1,0.3,1.4,1.1,2c0.6,0.5,1.3,0.9,2.1,1.2
	c0,0,6.3-0.3,6.6,0.2c0.5,0.9,1,1.9,1.4,2.8l1.7,0.6l3.5-2.9c2.2-0.5,4.5-0.7,6.7-0.6c3.5,0.3,7.3,1.6,7.9,0.4s-0.1-2.6,2.2-3.2
	c2.3-0.6,12-0.3,12-0.3s13.1,1.6,13.6,1.1c0.5-0.4,0-0.1,1.9-0.9c1.9-0.8-1.1-1.6,3.2-1.1s12.2,1.6,15.7,2.2
	c3.5,0.6,12.2,1.6,13.6,1.1c1.2-0.3,2.4-0.6,3.6-0.6c1.3-0.4,2.7-0.7,4.1-0.8c1.8,0,3.6-0.5,7.1,0.4c3.4,0.9,8.2,1.7,9.6,1.6
	c1.3-0.1,1.8,0,4-0.2c2.4-0.2,4.8,0,7,0.7c2.1,0.8,2.5,1.2,5.6,1.2c3.1-0.1,13.7,0.2,13.7,0.2c2.7-0.6,5.4-1.1,8.2-1.4
	c5.4-0.7,8.6-1.2,10.4-1.5s4.8,0.5,5.8-0.2c1-0.7-1-2.3,3.4-2.5c4.5-0.1,16.3,1,16.3,1l9.6,1.5l2,1.4c0,0,4.8,0.8,6.6,0.6
	c1.8-0.2,8.1-0.8,11.1-0.4c3.1,0.4,17.5,2.3,20.1,2.7s7.9,0.7,10,1.3c2.1,0.6,8.6,1.8,8.6,1.8s8.3,1.4,10.1,1c1.8-0.3,6.3-0.8,7.7-1
	c1.4-0.2,2.7,0,3.2-0.4c0.5-0.4-0.8-1,3.2-0.5c3.9,0.4,10,1.6,12.2,1.6s5.4-0.5,7.6-0.5c2.2,0,9.3-0.1,12.8,0.8
	c3.4,0.9,6.9,1.6,6.9,1.6c1.2,0.4,2.6,0.6,3.9,0.6c1.8-0.2,13.4-0.7,13.4-0.7l27.4,1.1l4.3,0.9l15,0.6l1.4-0.8l23.1,0
	c0,0,6-0.5,9.2,0.7c3.2,1.1,5.1,2,8.3,2.9c3.2,0.9,13.8,1.5,15.8,1.1c2-0.3,6.2-1.6,10.8-1.5c4.6,0.1,21.7,1.8,24.3,2.7
	c3.8,1.1,7.7,2,11.6,2.7c3.3,0.5,21.4-1.2,21.4-1.2c1.2,0.1,2.4-0.2,3.4-0.7c1.4-0.8,3-2.7,5-2.8s2.1-1,7.3-0.1
	c5.2,0.8,5.2,1.3,8.5,1.1c3.4-0.2,9.5-1.3,12.8-1.1c3.3,0.2,7.9,0.3,9.8,1.4c1.9,1,0.7-0.4,1.9,1c1.1,1.4,1.8,1.5,1.7,2.6
	c-0.1,1.1-2.8,0.9,0.4,2.1s3.9,1,7.1,1.6s8.5,1.1,11.1,1.7c2.6,0.6,3.1,2,5,2.6s2.5,1.3,5.9,1.1c3.4-0.2,11.4-1,13.4-1.1
	c2.9-0.2,5.9-0.5,8.8-1c2.7-0.5,0.9-1.7,8.2-1.4s11.3-0.1,17.2,1c5.9,1.1,12.4,1.6,14.6,0.6l2.1-1c0,0,3.6-2,6.9-2.2
	c3.4-0.2,6.9-1.8,12.1-1.2c5.2,0.6,13.1,1.9,13.1,1.9s-3.2-1.1,4.7-0.6c7.9,0.6,25,2,25,2s4.4,1.7,7.6,2.8c3.2,1.1,6.3,2.5,6.3,2.5
	l12.9,3.2c0,0,9.2,1.1,12.5,1.1c3.3,0,10.1-1.1,13.5-1.5c3.4-0.4,12.1-0.7,12.1-0.7s15.4-16.6,11.7-18.6c-3.7-2.1-7.7-1.9-8.7-4.7
	c-1-2.8,0.3-2.2,2.1-5.7c1.8-3.5,3.2-3.9,3.4-6.1l4.3-34.1l-8.5-6.5c0.9-1.7,1.6-3.5,2-5.3c0.3-2.2,2.9-1.6,6.4-8.6s5.2-9.6,5.2-9.6
	s13.3-20.8,6-26.3c-7.3-5.5-18.8-9.1-18-15.4c0.6-4.2,1.6-8.4,2.9-12.5c0,0,5.7-3.2,7.5-6.3c1.7-3,4.7-5.5,4.1-11
	c-0.6-5.5-0.6-5.9-1.7-7.8s-13.6-25.5-9.5-30c4.1-4.5,6.9-12.2,6.9-12.2l9.2-16.2c0,0-3.6-13.6-3.1-17.7s-0.4-10.9,1.8-14.4
	s3-10,3-10l8.3-9.1l8.8-13.3l-2.5-8.6c-2-1.7-3.5-3.6-4.6-5.8c-1.4-3.1-1.4-3.1-1.1-5.5c0.3-2.4,1.8-0.5,0.5-4.2
	c-1.3-3.7-5.8-10.1-5.6-11.9l3.6-28.7c0.3-2.4,6-5,6.7-11l2-15.6c0,0-9.9-5.6-9.6-8.5s5.5-15.3,5.5-15.3l8.9-13.9
	c0,0-3.8-12.4-5-16.7c-1.2-4.3-1.1-5.5-1.1-5.5l6-5c1.7-1.3,3.6-2.4,5.7-3.2l4.7-9.3l0.4-3l20.6-36.3c0,0-14.1-14.6-8.3-18.7
	c3.5-2.5,5.8-5.8,6.5-9.5l-9.6-7.9l-1.6-8.3l-10.1-4.4l-10.7,0.1l-10.8,1l-15.8-1.1l-15.3-5.6c0,0-34.4-1.4-38.7,0.4
	c-4.2,1.7-13.4,0.8-13.4,0.8s-13-2.8-14.2-3.5c-1.3-0.9-2.5-1.9-3.6-3c0,0-2.4-2-7.9-0.8c-5.5,1.2,3.9,1-5.5,1.2
	c-9.3,0.2-9.4,0.9-15.3-0.2c-5.8-1.1-5.1-1.7-10.5-1.4c-5.4,0.3-10.1,0.6-10.1,0.6l-12.5-0.9l-5.7-2l-7.5-4.2c0,0-3-2.9-9.7-2.1
	c-6.8,0.9-4.1,0.8-6.8,0.9c-2.7,0-2.1,0.8-5.9-1.1c-1.8-0.8-3.4-1.8-5-2.9l-3.7-2.5c-1.8-1.3-1.4-4.4-1.4-4.4l2.3-2.8
	c0,0,2.8-1.2-2.4-2.4c-5.2-1.3-5-2.2-7.7-1.9c-1.5,0.1-2.9,0.5-4.1,1.1l-2.9,1.6l-6.7,0.6l-4.5-1.2l-3.3,0l-5.6,1.9l-7.2-1.2l-3.9-1
	l-8.4-1.7l-12.1,0.7l-2.7,0.3c0,0,1.3-0.1-4.5-1c-5.9-0.9-9.1-1.3-9.1-1.3l-10.6-0.3l-7.1-1.6l-4.7,0.3l-5.5,1.4l-7.9-1
	c0,0,2.4-3.4-9.2-0.9l-11.6,2.6l-7.5,1.7l-9.2-0.9l-3.9-0.7l-8.6-0.2l-5.8-1.3l-8.4-2l-4.8,0.8l-12,0.5c-7.9-0.6-12.5-1.1-12.5-1.1
	l-12.6-0.5l-2.7,0.5l-10.7,0.1l-16.5-1l-1,2.6c0,0,1.8,1.9-0.9,2.2c-2.7,0.3-8.6-0.4-8.6-0.4l-7.1-1.4l-14.2-3.3
	c-1.5-0.9-3.3-1.3-5.2-1.1l-2.7,0.5c-2.4,0.6-4.9,0.8-7.4,0.6c-4.6-0.3-5.1-2-13.6-2.8c-8.5-0.8-13-2.8-17.1-1.7
	c-4.1,1.1,2.7-0.5-4.1,1.1c-4.6,0.9-9.4,1.2-14.1,0.8l-11.6-3.1c0,0-9.1-1.8-13.6-2.8c-2.8-0.7-5.6-1.3-8.4-1.7
	c-2.2-0.3-4.4-0.4-6.6-0.5l-2.8,0.9c0,0,2.6,0.9,1.8,1.9c-0.4,0.6-1,1.2-1.5,1.7c0,0-4.7,0.3-6.1,0.9c-1.4,0.6-1.1-1.4-2.2,1.2
	c-1,2.6,7.7,2.6-1.1,3.5c-8.8,1-7.3,0.1-8.8,1c-1.4,0.8-0.5-0.9-1.4,0.8c-0.9,1.7,1.9,0.8-0.9,1.7c-2.8,0.9-6.3,2-6.3,2
	c-1.3,0.1-2.7,0.1-4-0.1c-2.6-0.2-7.9-1-7.9-1s-1.9-0.8,0.1-1.1c2.2-0.5,4.2-1.2,6.2-2l0.2-1.6l-5.9-0.7c-1.3-0.4-2.6-1-3.8-1.6
	c-1.2-0.8-0.6-0.7,0.8-1.3c1.4-0.6,5.4-0.5,1.5-1.7c-3.3-1.1-6.4-2.4-9.5-3.9c-3.4,0.4-4.2,1.5-4.2,1.5l-1.5,1
	c-1.8-1-3.7-1.9-5.6-2.7c-2.6-0.9,2.1-0.5-2.6-0.9c-2.5-0.3-4.9,0.8-5.7,2.8l-4.7,0.1l-9.1-2c-1-0.5-1.9-1.1-2.4-2
	c-0.6-0.7,2,0.4-0.6-0.7c-2.5-1.1-6.7,0.4-8.7,0.5c-2,0.1,0.1-0.9-2,0.1l-2.1,1c0,0,0.8-0.9-1.4,0.8c-2.2,1.7-2,1.6-8.2,1.4
	c-6.2-0.1-20.1-2.7-20.1-2.7l0.7,1.6c0,0-9.7-0.4-14.8-2c-5.1-1.6,0,0.3-5.1-1.6c-5.1-1.9,8.3-2.7-7.6-2.7s-11.4-1.1-16,0
	c-4.6,1.2-1.3,3.2-4.6,1.2c-2-1.3-4.3-2.2-6.7-2.9l-8.6-1.8l-18.7-6.2l-5.4,0.5l-3.9,2.4l-0.5,3.6L966.6,56
	c-0.6,1.2-1.3,2.4-2.2,3.5l-12.4,0l-10.3-2.3c0,0,2-1.7-6.9-1.4s0.2,5.7-15.7,4.9s-23.8-1.1-28.1-2.6c-4.2-1.5-2.6-0.2-6.8-2.6
	l-4.1-2.4l0,0c-8.7-1.2-8.8-0.9-10.7,0.1l-1.9,1.1c0,0-10,1.7-15.1-0.2c-3.8-1.4-7.5-3.1-10.9-5l-2.5-1.4c-0.6-1.1-1.8-1.8-3.3-2.1
	c-2.6-0.5-11.1-3.5-13-2.2c-2,1.4-2.9,2.2-2.9,2.2l-8.4,3c0,0-0.1,0.9-8-0.3c-7.8-1.2-9.6-1.6-12.1-2.7c-2.5-1.1,2.8-1.3-2.5-1.1
	s-10.2,3.2-10.2,3.2s3.5,0.6-7.9-0.9c-11.4-1.4-11.4-1.1-16.5-2.7c-5.1-1.6-14.5-4.7-15.3-5.6c-0.8-1,1.3-3.5-5.7-4.3
	c-7-0.8,3.2-4-15.9-0.8s-25.3,3.6-28,3.7c-2.7,0.1-6.2,0.2-6.2,0.2l-8,0c0,0-14.7-3.2-21.8-3.4s-5.7-4-14.9-1.1
	c-9.2,3-10.4,4.7-13.9,4.7c-3.6,0-9,0.9-15.7-2c-6.7-2.9-6.6-3.8-10.1-4.7s10-2-6.9-1.7L575,29.5c0,0-0.4,3.3-12.4-0.3
	s-5.7-4-18.8-5.6c-13.1-1.6-13.8-3.4-19.2-2.6s-9,1.2-9,1.2l-4.4,0l-6.3,1.1l-3.7,1.5l2.2,3.8l-5.4,0.8l-4.4-0.3l-3.9,2.4
	c0,0-17.1-2.4-18.4-1.6l-2.9,1.6l-8.8-0.9l-3.2-2.7l-5.9-2.5l-5.2-1l3.1-3.1c0,0,6.2-0.2-4.2-1.5c-10.5-1.4-14-1.3-14-1.3l-4.5,0.6
	c0,0-4.2-2.1-5.2-0.7s0.6,2.5-3.9,2.4l-4.4,0c-4.3-0.9-8.6-1.6-13-2.2c-4.4-0.3-1.7-0.7-7.9-0.3c-6.3,0.5,5.4-0.2-6.3,0.5
	s-1.8-0.1-11.6,0.7c-9.9,0.8-11.4-0.8-17.6-1.3c-6.2-0.4,8-7-10.6-0.8c-18.5,6.2-14.7,10.7-27.1,10.4s-4.5,0.9-12.4-0.3
	c-7.8-1.2-5.5,1.1-7.8-1.2c-1.3-1.2-2.4-2.6-3-4.1c0,0-1.6-1.6,2.1-2.3c3.6-0.6,3.1-3.1-3.1-3.5s-2.4-1.7-6.2-0.4s6.8,2-3.7,1.2
	c-10.6-0.8,3.4,1.5-10.5-0.8c-13.9-2.2-7.8-1.5-13.9-2.2c-6.1-0.7,0,0-9.7-0.7c-9.7-0.7-9.7-0.7-13.2-1.3s3.5,0.3-6.9-1.4
	s-6-1.6-13-2.5c-7-0.8-0.7-1.3-7-0.8S201.6-0.3,198,0c-3.6,0.3-6.2-0.4-8.2,1.5s0.8,1-2,2c-2.8,1,2.5,1.4-2.8,1
	c-5.3-0.4-3.1-3.8-5.3-0.4s-3.2,4.3-3.2,4.3L173,8.8l-6-1.3l-3.5-0.6l-9.8,0.5l-7-0.8c0,0-4.3-1.2-4.4,0S138.3,9,138.3,9
	s-1,0.8-6.2-0.1l-5.2-1c0,0-1.8,0.2-3.3-2.1s0.6-5.1-4.7-4.6l-5.4,0.5c0,0-10.6-0.5-11.6,0.4l-1,0.8l-7,4.3L95.7,9c0,0,4,0.3,3.1,2
	c-0.9,1.7,9.1,1.8-0.9,1.7l-10,0l-6.9,7l3,2.9c0,0,2.4,1.8,2.3,2.7c-0.2,1-0.6,1.9-1,2.9l-0.8,1.1c-0.6,0.9-0.9,1.9-1,2.9l-0.5,4.3
	c-0.3,2-1,2.4-0.5,4c0.5,1.6,1.5,4.2,1.5,4.2l-0.3,2.7l1.7,2.2l-0.9,2l-1.7,2.8c0,0-5.6,2.3-6.4,3.4c-0.5,0.7-0.6,1.5-0.3,2.2
	c0,0-18,16.4-16.2,22.8s4.2,8.5,6.1,14.9c1.1,4.5,1.4,9.1,0.9,13.7c0,0-11.8,9.1-17.7,13.2s-8.5,3.9-6.3,7.7
	c2.2,3.8,9.6,7.9,11.9,10.8c2.3,2.9,7.5,4.2,7,7.8c-0.5,3.6-6.5,9.5-6.5,9.5s-9.1,8.4-9.6,12.9s8.6,16,8.6,16l7.3,5.1L60.1,206
	c0,0-6.1,5.9-9.1,8.4c-3,2.5-8.9,7.5-14.6,9.8l-5.6,2.3c0,0-1.1,29.8-1.5,32.5c-0.3,2.7-0.7,5.4,4,10.3s3.5,14.7,3.5,14.7
	s-5.8,4.1-3.9,9.7s11.6,13.5,11.6,13.5l9.8,7c0,0-1.1,9-4.1,11.5c-3,2.5-3.6,7-3.6,7s-6.3,7.7-6.9,12.2c-0.6,4.5,4.9,3.1-1,8.1
	c-6,5-20.2,12.1-20.2,12.1l-3.8,8.8l7,7.8c0,0,10,5.3,11.7,12.6c1.7,7.4,7,7.8,6.4,12.2l-1,8.1L52,437.4l-13.9,4.4
	c0,0-16.2,1.5-19.3,4.9s-1.4,10.8-1.4,10.8s4.9,3.1,4.6,5.8c-0.3,2.7,8-0.3,2,5.6c-6.1,5.9-11.3,5.5-14.4,8.9
	c-3.1,3.4-5.8,4.1-6.2,6.8c-0.3,2.7,2.3,2.9,4.6,5.8s8.3-2.1,2,5.6c-6.3,7.7-9.2,9.3-9.9,14.7C-0.6,516,4,521.8,4,521.8
	s12.2,9,14.5,11.9s10.3,2.6,4.5,6.7l-5.8,4.1c-5.8,4.1-8.8,6.6-8.8,6.6l-0.5,3.6L36,552.6z"/>
</svg>
