<svg aria-hidden="true" style="position: absolute; width: 0; height: 0; overflow: hidden;" version="1.1" xmlns="http://www.w3.org/2000/svg" xmlns:xlink="http://www.w3.org/1999/xlink">
<defs>
<symbol id="icon-paw" viewBox="0 0 31 32">
<path d="M9.35 31.926c4.077 0.456 3.151-1.331 7.067-1.509 4.013-0.18 6.171 3.175 8.818 0.377 1.804-1.907-3.945-12.182-9.1-11.528-2.542 0.322-3.258 0.271-5.927 3.117-0.546 0.583-2.663 3.965-2.849 6.258-0.028 0.151-0.044 0.326-0.044 0.504 0 1.296 0.845 2.395 2.014 2.776l0.021 0.006z"></path>
<path d="M14.892 9.589c0.555 2.587-0.574 5.371-2.496 5.757s-3.922-1.566-4.464-4.359 0.547-5.428 2.493-5.661c1.845-0.219 3.837 1.313 4.468 4.263z"></path>
<path d="M23.717 11.518c-0.705 2.825-3.038 4.268-4.942 3.651s-2.3-3.783-1.955-5.888c0.471-2.875 3.191-4.711 5.029-3.908 1.658 0.725 2.538 3.458 1.868 6.145z"></path>
<path d="M23.469 21.764c2.108 1.627 3.869 0.242 5.4-1.876 0.349-0.483 1.618-3.507 0.154-5.504-1.099-1.498-3.445-1.283-4.694 0.087-3.048 3.342-1.4 6.875-0.859 7.293z"></path>
<path d="M8.538 16.496c1.39 2.273 1.256 4.91-0.299 5.891s-3.943-0.065-5.333-2.337c-0.404-0.661-1.7-4.657 0.496-5.769 2.588-1.312 4.478 1.14 5.136 2.215z"></path>
<path d="M0.695 10.343c0.378-0.218 1.122 0.376 1.667 1.334s0.681 1.912 0.304 2.133-1.123-0.377-1.667-1.334-0.682-1.915-0.304-2.133z"></path>
<path d="M28.456 10.66c0.485-1.024 1.187-1.702 1.568-1.518s0.291 1.173-0.188 2.193-1.191 1.7-1.572 1.517-0.295-1.165 0.191-2.191z"></path>
<path d="M21.562 2.15c0.383-1.19 1.026-2.046 1.435-1.91s0.431 1.211 0.049 2.401-1.025 2.044-1.435 1.91-0.431-1.211-0.049-2.401z"></path>
<path d="M7.625 0.945c0.402-0.158 1.092 0.655 1.544 1.821s0.492 2.24 0.091 2.4-1.092-0.655-1.543-1.82-0.493-2.243-0.091-2.401z"></path>
</symbol>
<symbol id="icon-arrow-left" viewBox="0 0 20 32">
<path d="M2.158 14.939l12.147-12.146c0.586-0.586 1.536-0.586 2.121 0l1.417 1.417c0.585 0.585 0.586 1.532 0.003 2.119l-9.627 9.671 9.626 9.672c0.584 0.586 0.582 1.534-0.003 2.119l-1.417 1.417c-0.586 0.586-1.536 0.586-2.121 0l-12.146-12.147c-0.586-0.586-0.586-1.536 0-2.121z"></path>
</symbol>
<symbol id="icon-arrow-right" viewBox="0 0 20 32">
<path d="M17.842 17.061l-12.146 12.146c-0.586 0.586-1.536 0.586-2.121 0l-1.417-1.417c-0.585-0.585-0.586-1.533-0.002-2.119l9.626-9.672-9.626-9.672c-0.583-0.586-0.582-1.534 0.002-2.119l1.417-1.417c0.586-0.586 1.536-0.586 2.121 0l12.146 12.146c0.586 0.586 0.586 1.536 0 2.121z"></path>
</symbol>
<symbol id="icon-security" viewBox="0 0 32 32">
<path d="M28.747 3.826l-12.521-3.754c-0.175-0.053-0.363-0.053-0.539 0l-12.521 3.757c-0.395 0.119-0.667 0.482-0.667 0.896v13.774c0 1.791 0.726 3.626 2.154 5.451 1.093 1.393 2.605 2.793 4.493 4.161 3.172 2.295 6.294 3.704 6.425 3.764 0.122 0.053 0.251 0.081 0.382 0.081s0.26-0.028 0.382-0.081c0.131-0.059 3.253-1.468 6.425-3.764 1.888-1.365 3.4-2.768 4.49-4.161 1.431-1.825 2.154-3.66 2.154-5.451v-13.777c0.006-0.413-0.263-0.777-0.658-0.896zM27.541 18.495c0 3.169-3.181 6.143-5.849 8.078-2.392 1.735-4.819 2.965-5.736 3.41-0.917-0.442-3.344-1.672-5.736-3.41-2.668-1.935-5.849-4.91-5.849-8.078v-13.079l11.585-3.476 11.585 3.476v13.079z"></path>
<path d="M13.799 16.135c-0.063-0.135-0.222-0.191-0.357-0.128s-0.191 0.222-0.128 0.357c0.047 0.1 0.072 0.207 0.072 0.316v0.576c0 0.407-0.332 0.739-0.739 0.739s-0.739-0.332-0.739-0.739v-0.576c0-0.407 0.332-0.739 0.739-0.739 0.147 0 0.269-0.119 0.269-0.269 0-0.147-0.119-0.269-0.269-0.269-0.704 0-1.274 0.573-1.274 1.274v0.576c0 0.704 0.573 1.274 1.274 1.274s1.274-0.573 1.274-1.274v-0.576c0.003-0.185-0.041-0.369-0.122-0.542z"></path>
<path d="M20.418 16.135c-0.063-0.135-0.222-0.191-0.357-0.128s-0.191 0.222-0.128 0.357c0.047 0.1 0.072 0.207 0.072 0.316v0.576c0 0.407-0.332 0.739-0.739 0.739s-0.739-0.332-0.739-0.739v-0.576c0-0.407 0.332-0.739 0.739-0.739 0.147 0 0.269-0.119 0.269-0.269 0-0.147-0.119-0.269-0.269-0.269-0.704 0-1.274 0.573-1.274 1.274v0.576c0 0.704 0.573 1.274 1.274 1.274 0.704 0 1.274-0.573 1.274-1.274v-0.576c0-0.185-0.041-0.369-0.122-0.542z"></path>
<path d="M18.746 21.382c-0.1-0.11-0.269-0.119-0.379-0.022-0.269 0.241-0.614 0.373-0.971 0.373-0.294 0-0.579-0.088-0.82-0.254-0.369-0.254-0.867-0.254-1.237 0-0.241 0.166-0.526 0.254-0.82 0.254-0.357 0-0.704-0.131-0.971-0.373-0.11-0.1-0.279-0.091-0.379 0.022-0.1 0.11-0.091 0.279 0.022 0.379 0.366 0.329 0.839 0.51 1.331 0.51 0.006 0 0.013 0 0.019 0v0.307c0 0.783 0.636 1.418 1.418 1.418s1.418-0.636 1.418-1.418v-0.307c0.006 0 0.013 0 0.019 0 0.492 0 0.961-0.182 1.331-0.51 0.11-0.097 0.119-0.266 0.019-0.379zM16.839 22.578c0 0.485-0.395 0.883-0.883 0.883-0.485 0-0.883-0.395-0.883-0.883v-0.385c0.2-0.059 0.391-0.147 0.567-0.266 0.016-0.009 0.031-0.019 0.047-0.028v0.395c0 0.147 0.119 0.269 0.269 0.269 0.147 0 0.269-0.119 0.269-0.269v-0.395c0.016 0.009 0.031 0.019 0.047 0.028 0.175 0.119 0.366 0.21 0.567 0.266v0.385z"></path>
<path d="M17.127 19.112c-0.1-0.21-0.307-0.338-0.535-0.338h-1.271c-0.232 0-0.438 0.128-0.535 0.338-0.1 0.21-0.072 0.451 0.075 0.629l0.636 0.786c0.113 0.141 0.282 0.222 0.463 0.222s0.348-0.081 0.463-0.222l0.636-0.786c0.141-0.178 0.169-0.42 0.069-0.629zM16.636 19.404l-0.636 0.786c-0.016 0.019-0.031 0.022-0.044 0.022s-0.031-0.003-0.044-0.022l-0.636-0.786c-0.016-0.019-0.019-0.041-0.006-0.063 0.009-0.022 0.028-0.034 0.053-0.034h1.271c0.025 0 0.041 0.013 0.053 0.034 0.006 0.025 0.003 0.044-0.013 0.063z"></path>
<path d="M24.369 19.732c-0.147-0.041-0.304-0.075-0.47-0.106 0.25-0.755 0.379-1.553 0.379-2.367 0-1.008-0.197-1.985-0.576-2.893v-6.688c0-0.329-0.185-0.62-0.482-0.761s-0.639-0.1-0.895 0.106l-3.482 2.831c-0.914-0.319-1.888-0.488-2.89-0.488s-1.979 0.166-2.89 0.488l-3.482-2.831c-0.254-0.207-0.598-0.247-0.896-0.106s-0.482 0.432-0.482 0.761v6.685c-0.379 0.908-0.576 1.888-0.576 2.893 0 0.814 0.128 1.613 0.379 2.367-0.163 0.031-0.319 0.069-0.47 0.106-0.144 0.038-0.229 0.185-0.191 0.329 0.031 0.119 0.141 0.197 0.26 0.197 0.022 0 0.047-0.003 0.069-0.009 0.16-0.044 0.335-0.081 0.517-0.116 0.182 0.438 0.404 0.861 0.664 1.262-0.279 0.116-0.548 0.238-0.802 0.369-0.131 0.069-0.182 0.232-0.113 0.363 0.047 0.091 0.141 0.144 0.238 0.144 0.041 0 0.085-0.009 0.122-0.031 0.272-0.141 0.567-0.272 0.87-0.395 0.266 0.351 0.564 0.686 0.892 0.996 1.572 1.487 3.66 2.308 5.88 2.308s4.308-0.82 5.88-2.308c0.329-0.313 0.626-0.645 0.892-0.996 0.304 0.122 0.598 0.254 0.87 0.395 0.041 0.022 0.081 0.031 0.122 0.031 0.097 0 0.191-0.053 0.238-0.144 0.069-0.131 0.016-0.294-0.113-0.363-0.254-0.131-0.523-0.254-0.802-0.369 0.263-0.401 0.485-0.823 0.664-1.262 0.182 0.034 0.357 0.072 0.517 0.116 0.022 0.006 0.047 0.009 0.069 0.009 0.119 0 0.225-0.078 0.26-0.197 0.056-0.141-0.028-0.288-0.172-0.326zM22.669 7.44c0.094-0.075 0.216-0.091 0.326-0.038s0.175 0.153 0.175 0.276l-0.52 0.586c-0.097 0.11-0.088 0.282 0.022 0.379 0.050 0.044 0.116 0.069 0.178 0.069 0.075 0 0.147-0.031 0.2-0.091l0.116-0.132v4.828c-0.363-0.592-0.808-1.143-1.331-1.638-0.272-0.26-0.56-0.495-0.864-0.714l1.318-1.484c0.097-0.11 0.088-0.282-0.022-0.379s-0.282-0.088-0.379 0.022l-1.365 1.54c-0.354-0.219-0.72-0.413-1.102-0.579l3.247-2.646zM8.921 7.399c0.11-0.053 0.232-0.038 0.326 0.038l3.247 2.64c-0.382 0.166-0.751 0.36-1.102 0.579l-2.646-2.981c0-0.122 0.066-0.222 0.175-0.276zM8.745 8.482l2.195 2.474c-0.301 0.216-0.592 0.454-0.864 0.714-0.523 0.495-0.971 1.046-1.331 1.638 0 0.003 0-4.825 0-4.825zM23.361 19.535c-1.644-0.232-3.626-0.175-3.726-0.172-0.147 0.003-0.266 0.128-0.26 0.276 0.003 0.147 0.128 0.263 0.276 0.26 0.025 0 1.926-0.053 3.51 0.15-0.175 0.401-0.385 0.783-0.629 1.146-1.581-0.586-3.234-0.911-3.322-0.927-0.144-0.028-0.285 0.066-0.316 0.213s0.066 0.285 0.213 0.316c0.022 0.003 1.581 0.313 3.097 0.855-1.422 1.8-3.692 2.965-6.247 2.965s-4.825-1.168-6.247-2.965c1.512-0.542 3.075-0.849 3.097-0.855 0.144-0.028 0.241-0.169 0.213-0.316-0.028-0.144-0.169-0.241-0.313-0.213-0.088 0.019-1.741 0.344-3.322 0.927-0.244-0.36-0.454-0.745-0.629-1.146 1.584-0.204 3.485-0.15 3.51-0.15 0.147 0.006 0.272-0.113 0.276-0.26s-0.113-0.272-0.26-0.276c-0.1-0.003-2.085-0.059-3.726 0.172-0.247-0.717-0.382-1.484-0.382-2.276 0-4.055 3.494-7.355 7.787-7.355s7.787 3.3 7.787 7.355c-0.003 0.792-0.138 1.559-0.385 2.276z"></path>
</symbol>
<symbol id="icon-standard" viewBox="0 0 32 32">
<path d="M16.219 13.454c-0.063-0.132-0.219-0.188-0.351-0.125s-0.188 0.219-0.125 0.351c0.047 0.097 0.069 0.2 0.069 0.31v0.564c0 0.398-0.326 0.723-0.723 0.723s-0.723-0.326-0.723-0.723v-0.564c0-0.398 0.326-0.723 0.723-0.723 0.144 0 0.263-0.119 0.263-0.263s-0.119-0.263-0.263-0.263c-0.689 0-1.246 0.56-1.246 1.246v0.564c0 0.689 0.56 1.246 1.246 1.246 0.689 0 1.246-0.56 1.246-1.246v-0.564c0.003-0.185-0.038-0.363-0.116-0.532z"></path>
<path d="M22.691 13.454c-0.063-0.132-0.219-0.188-0.351-0.125s-0.188 0.219-0.125 0.351c0.047 0.097 0.069 0.2 0.069 0.31v0.564c0 0.398-0.326 0.723-0.723 0.723s-0.723-0.326-0.723-0.723v-0.564c0-0.398 0.326-0.723 0.723-0.723 0.144 0 0.263-0.119 0.263-0.263s-0.119-0.263-0.263-0.263c-0.689 0-1.246 0.56-1.246 1.246v0.564c0 0.689 0.56 1.246 1.246 1.246 0.689 0 1.246-0.56 1.246-1.246v-0.564c0.006-0.185-0.034-0.363-0.116-0.532z"></path>
<path d="M21.057 18.589c-0.097-0.106-0.263-0.116-0.369-0.019-0.263 0.235-0.601 0.366-0.952 0.366-0.288 0-0.567-0.085-0.802-0.247-0.363-0.247-0.849-0.247-1.209 0-0.238 0.163-0.514 0.247-0.802 0.247-0.351 0-0.689-0.128-0.952-0.366-0.106-0.097-0.272-0.088-0.369 0.019s-0.088 0.272 0.019 0.369c0.36 0.323 0.82 0.501 1.303 0.501 0.006 0 0.013 0 0.019 0v0.301c0 0.764 0.623 1.387 1.387 1.387s1.387-0.623 1.387-1.387v-0.301c0.006 0 0.013 0 0.019 0 0.479 0 0.942-0.178 1.303-0.501 0.106-0.097 0.116-0.263 0.019-0.369zM19.191 19.76c0 0.476-0.388 0.864-0.864 0.864s-0.864-0.388-0.864-0.864v-0.379c0.197-0.056 0.382-0.144 0.554-0.263 0.016-0.009 0.031-0.019 0.047-0.028v0.385c0 0.144 0.119 0.263 0.263 0.263s0.263-0.119 0.263-0.263v-0.385c0.016 0.009 0.031 0.019 0.047 0.028 0.172 0.116 0.357 0.204 0.554 0.263v0.379z"></path>
<path d="M19.476 16.366c-0.097-0.204-0.297-0.332-0.526-0.332h-1.243c-0.225 0-0.429 0.128-0.526 0.332s-0.069 0.442 0.072 0.617l0.623 0.77c0.11 0.138 0.276 0.216 0.451 0.216s0.341-0.078 0.451-0.216l0.623-0.77c0.144-0.175 0.172-0.41 0.075-0.617zM18.993 16.654l-0.623 0.77c-0.013 0.019-0.031 0.022-0.044 0.022s-0.031-0.003-0.044-0.022l-0.623-0.77c-0.016-0.019-0.016-0.038-0.006-0.059s0.028-0.031 0.050-0.031h1.243c0.025 0 0.041 0.009 0.050 0.031 0.016 0.019 0.013 0.041-0.003 0.059z"></path>
<path d="M26.558 16.974c-0.144-0.038-0.297-0.072-0.457-0.103 0.244-0.739 0.373-1.519 0.373-2.317 0-0.986-0.194-1.941-0.564-2.831v-6.541c0-0.322-0.182-0.607-0.47-0.745-0.291-0.138-0.626-0.097-0.877 0.103l-3.407 2.768c-0.892-0.313-1.847-0.476-2.827-0.476s-1.935 0.163-2.827 0.476l-3.41-2.768c-0.251-0.204-0.586-0.244-0.877-0.103-0.291 0.138-0.47 0.423-0.47 0.745v6.541c-0.369 0.889-0.564 1.847-0.564 2.831 0 0.798 0.128 1.575 0.373 2.317-0.16 0.031-0.313 0.066-0.457 0.103-0.141 0.038-0.222 0.182-0.185 0.323 0.031 0.116 0.138 0.194 0.254 0.194 0.022 0 0.047-0.003 0.069-0.009 0.157-0.044 0.329-0.078 0.507-0.113 0.175 0.429 0.395 0.842 0.651 1.234-0.272 0.113-0.535 0.235-0.783 0.363-0.128 0.066-0.178 0.225-0.113 0.354 0.047 0.091 0.138 0.141 0.232 0.141 0.041 0 0.081-0.009 0.122-0.028 0.266-0.138 0.554-0.266 0.852-0.388 0.26 0.344 0.551 0.67 0.874 0.974 1.537 1.456 3.582 2.258 5.752 2.258s4.214-0.802 5.752-2.258c0.323-0.304 0.614-0.633 0.874-0.974 0.297 0.119 0.586 0.25 0.852 0.388 0.038 0.019 0.081 0.028 0.122 0.028 0.094 0 0.188-0.050 0.232-0.141 0.066-0.128 0.016-0.288-0.113-0.354-0.247-0.128-0.51-0.25-0.783-0.363 0.257-0.395 0.473-0.805 0.651-1.234 0.178 0.031 0.351 0.069 0.507 0.113 0.022 0.006 0.047 0.009 0.069 0.009 0.116 0 0.222-0.078 0.254-0.194 0.034-0.141-0.047-0.285-0.188-0.323zM24.892 4.947c0.091-0.075 0.21-0.088 0.319-0.038 0.106 0.050 0.169 0.15 0.172 0.269l-0.507 0.573c-0.097 0.11-0.088 0.276 0.022 0.369 0.050 0.044 0.113 0.066 0.175 0.066 0.072 0 0.144-0.031 0.197-0.088l0.116-0.128v4.722c-0.354-0.579-0.789-1.118-1.303-1.603-0.266-0.254-0.551-0.485-0.845-0.698l1.29-1.453c0.097-0.11 0.088-0.276-0.022-0.369-0.11-0.097-0.276-0.088-0.369 0.022l-1.343 1.503c-0.344-0.216-0.704-0.404-1.080-0.567l3.178-2.58zM11.444 4.91c0.106-0.050 0.225-0.038 0.319 0.038l3.175 2.58c-0.373 0.163-0.733 0.351-1.080 0.567l-2.586-2.915c0-0.119 0.066-0.219 0.172-0.269zM11.272 5.968l2.148 2.42c-0.294 0.213-0.579 0.445-0.845 0.698-0.514 0.485-0.949 1.024-1.303 1.603v-4.722zM25.572 16.78c-1.606-0.225-3.548-0.172-3.645-0.169-0.144 0.003-0.26 0.125-0.254 0.269s0.125 0.26 0.269 0.254c0.022 0 1.885-0.053 3.435 0.147-0.172 0.391-0.376 0.767-0.617 1.121-1.547-0.573-3.162-0.892-3.25-0.908-0.141-0.028-0.279 0.066-0.307 0.207s0.066 0.279 0.207 0.307c0.019 0.003 1.547 0.304 3.028 0.836-1.39 1.76-3.61 2.903-6.109 2.903s-4.719-1.143-6.109-2.903c1.481-0.529 3.009-0.83 3.028-0.836 0.141-0.028 0.235-0.166 0.207-0.307s-0.166-0.235-0.307-0.207c-0.088 0.016-1.703 0.335-3.25 0.908-0.238-0.354-0.445-0.73-0.617-1.121 1.55-0.2 3.41-0.147 3.435-0.147 0.144 0.006 0.266-0.11 0.269-0.254s-0.11-0.266-0.254-0.269c-0.1-0.003-2.038-0.056-3.645 0.169-0.241-0.701-0.376-1.45-0.376-2.229 0-3.967 3.416-7.195 7.618-7.195s7.618 3.228 7.618 7.198c0 0.777-0.135 1.525-0.376 2.226z"></path>
<path d="M7.796 16.946c-4.164 0-7.537 3.375-7.537 7.537s3.372 7.537 7.537 7.537 7.537-3.372 7.537-7.537-3.375-7.537-7.537-7.537zM11.56 30.278l-3.764-1.979-3.767 1.979 0.72-4.193-3.047-2.971 4.211-0.611 1.882-3.817 1.882 3.817 4.211 0.611-3.047 2.971 0.717 4.193z"></path>
<path d="M27.732 3.914c-2.511-2.511-5.855-3.895-9.406-3.895-3.554 0-6.888 1.381-9.4 3.892s-3.895 5.855-3.895 9.403c0 1.625 0.291 3.203 0.845 4.681 0.204-0.063 0.413-0.116 0.623-0.16-0.539-1.406-0.836-2.928-0.836-4.521 0-6.982 5.68-12.662 12.662-12.662s12.662 5.68 12.662 12.662-5.68 12.662-12.662 12.662c-1.459 0-2.859-0.247-4.164-0.704-0.038 0.213-0.085 0.423-0.141 0.626 1.368 0.467 2.818 0.711 4.305 0.711 3.551 0 6.888-1.381 9.4-3.892s3.898-5.849 3.898-9.403-1.381-6.888-3.892-9.4z"></path>
</symbol>
<symbol id="icon-versalify" viewBox="0 0 32 32">
<path d="M14.256 16.651c-0.047-0.097-0.163-0.138-0.26-0.091s-0.138 0.163-0.091 0.26c0.034 0.072 0.050 0.15 0.050 0.229v0.416c0 0.294-0.241 0.535-0.535 0.535s-0.535-0.241-0.535-0.535v-0.416c0-0.294 0.241-0.535 0.535-0.535 0.106 0 0.194-0.088 0.194-0.194s-0.088-0.194-0.194-0.194c-0.51 0-0.927 0.416-0.927 0.927v0.416c0 0.51 0.416 0.927 0.927 0.927s0.927-0.416 0.927-0.927v-0.416c-0.003-0.144-0.034-0.279-0.091-0.401z"></path>
<path d="M19.056 16.651c-0.047-0.097-0.163-0.138-0.26-0.091s-0.138 0.163-0.091 0.26c0.034 0.072 0.050 0.15 0.050 0.229v0.416c0 0.294-0.241 0.535-0.535 0.535s-0.535-0.241-0.535-0.535v-0.416c0-0.294 0.241-0.535 0.535-0.535 0.106 0 0.194-0.088 0.194-0.194s-0.088-0.194-0.194-0.194c-0.51 0-0.927 0.416-0.927 0.927v0.416c0 0.51 0.416 0.927 0.927 0.927s0.927-0.416 0.927-0.927v-0.416c0-0.144-0.031-0.279-0.091-0.401z"></path>
<path d="M17.844 20.459c-0.072-0.081-0.194-0.088-0.276-0.016-0.194 0.175-0.445 0.272-0.704 0.272-0.213 0-0.42-0.063-0.595-0.185-0.269-0.185-0.629-0.185-0.899 0-0.175 0.119-0.382 0.185-0.595 0.185-0.26 0-0.51-0.097-0.704-0.272-0.081-0.072-0.204-0.066-0.276 0.016s-0.066 0.204 0.016 0.276c0.266 0.238 0.611 0.369 0.964 0.369 0.006 0 0.009 0 0.013 0v0.222c0 0.567 0.463 1.030 1.030 1.030s1.030-0.463 1.030-1.030v-0.222c0.006 0 0.009 0 0.013 0 0.357 0 0.698-0.131 0.964-0.369 0.085-0.072 0.091-0.194 0.019-0.276zM16.46 21.326c0 0.354-0.288 0.642-0.642 0.642s-0.642-0.288-0.642-0.642v-0.279c0.147-0.041 0.285-0.106 0.41-0.194 0.013-0.006 0.022-0.016 0.034-0.022v0.285c0 0.106 0.088 0.194 0.194 0.194s0.194-0.088 0.194-0.194v-0.285c0.013 0.006 0.022 0.013 0.034 0.022 0.128 0.088 0.266 0.153 0.41 0.194v0.279h0.006z"></path>
<path d="M16.67 18.812c-0.072-0.15-0.222-0.244-0.388-0.244h-0.924c-0.169 0-0.316 0.094-0.388 0.244s-0.053 0.326 0.053 0.457l0.46 0.57c0.081 0.103 0.204 0.16 0.335 0.16s0.254-0.059 0.335-0.16l0.46-0.57c0.106-0.131 0.128-0.307 0.056-0.457zM16.313 19.025l-0.46 0.57c-0.009 0.013-0.025 0.016-0.031 0.016s-0.022-0.003-0.031-0.016l-0.46-0.57c-0.013-0.013-0.013-0.028-0.006-0.044s0.022-0.025 0.038-0.025h0.921c0.019 0 0.031 0.009 0.038 0.025 0.006 0.013 0.006 0.028-0.006 0.044z"></path>
<path d="M21.924 19.259c-0.106-0.028-0.222-0.053-0.341-0.078 0.182-0.548 0.276-1.127 0.276-1.719 0-0.73-0.144-1.44-0.416-2.101v-4.853c0-0.238-0.135-0.451-0.351-0.554s-0.463-0.072-0.648 0.078l-2.527 2.054c-0.664-0.232-1.371-0.354-2.098-0.354s-1.434 0.122-2.098 0.354l-2.527-2.054c-0.185-0.15-0.435-0.182-0.648-0.078-0.216 0.103-0.351 0.313-0.351 0.554v4.853c-0.272 0.661-0.416 1.368-0.416 2.101 0 0.592 0.094 1.168 0.276 1.719-0.119 0.022-0.232 0.050-0.341 0.078-0.103 0.028-0.166 0.135-0.138 0.238 0.022 0.088 0.103 0.144 0.188 0.144 0.016 0 0.034-0.003 0.050-0.006 0.116-0.031 0.244-0.059 0.376-0.085 0.132 0.316 0.291 0.623 0.482 0.914-0.2 0.085-0.398 0.172-0.582 0.269-0.094 0.050-0.132 0.166-0.081 0.263 0.034 0.066 0.103 0.106 0.172 0.106 0.031 0 0.059-0.006 0.091-0.022 0.197-0.103 0.41-0.197 0.633-0.288 0.194 0.254 0.41 0.498 0.648 0.723 1.14 1.080 2.655 1.675 4.268 1.675s3.128-0.595 4.268-1.675c0.238-0.225 0.454-0.467 0.648-0.723 0.222 0.088 0.435 0.185 0.633 0.288 0.028 0.016 0.059 0.022 0.091 0.022 0.069 0 0.138-0.038 0.172-0.106 0.050-0.094 0.013-0.213-0.081-0.263-0.185-0.094-0.379-0.185-0.582-0.269 0.191-0.291 0.351-0.598 0.482-0.914 0.131 0.025 0.26 0.053 0.376 0.085 0.016 0.003 0.034 0.006 0.050 0.006 0.085 0 0.166-0.056 0.188-0.144 0.028-0.103-0.034-0.21-0.138-0.238zM20.69 10.339c0.069-0.056 0.157-0.066 0.235-0.028s0.125 0.113 0.128 0.2l-0.376 0.423c-0.072 0.081-0.063 0.204 0.016 0.276 0.038 0.034 0.085 0.050 0.128 0.050 0.053 0 0.106-0.022 0.147-0.066l0.085-0.097v3.504c-0.263-0.429-0.586-0.83-0.968-1.19-0.197-0.188-0.407-0.36-0.626-0.517l0.955-1.077c0.072-0.081 0.063-0.204-0.016-0.276-0.081-0.072-0.204-0.063-0.276 0.016l-0.989 1.118c-0.257-0.16-0.523-0.301-0.802-0.42l2.358-1.916zM10.712 10.311c0.078-0.038 0.169-0.028 0.235 0.028l2.358 1.913c-0.276 0.119-0.545 0.26-0.802 0.42l-1.919-2.164c0.003-0.085 0.050-0.16 0.128-0.197zM10.586 11.097l1.594 1.797c-0.219 0.157-0.429 0.329-0.626 0.517-0.382 0.36-0.704 0.761-0.967 1.19v-3.504zM21.195 19.119c-1.193-0.169-2.63-0.128-2.705-0.125-0.106 0.003-0.191 0.094-0.188 0.2s0.094 0.191 0.2 0.188c0.016 0 1.396-0.041 2.549 0.11-0.125 0.291-0.279 0.57-0.457 0.83-1.149-0.426-2.348-0.661-2.411-0.673-0.106-0.022-0.207 0.047-0.229 0.153s0.047 0.207 0.153 0.229c0.016 0.003 1.149 0.225 2.248 0.62-1.030 1.306-2.68 2.154-4.534 2.154s-3.501-0.849-4.531-2.154c1.099-0.391 2.232-0.617 2.248-0.62 0.106-0.022 0.175-0.122 0.153-0.229s-0.122-0.175-0.229-0.153c-0.066 0.013-1.262 0.25-2.411 0.673-0.175-0.263-0.329-0.542-0.457-0.83 1.149-0.147 2.53-0.11 2.549-0.11 0.106 0.003 0.197-0.081 0.2-0.188s-0.081-0.197-0.188-0.2c-0.072-0.003-1.512-0.044-2.705 0.125-0.178-0.52-0.279-1.077-0.279-1.653 0-2.943 2.536-5.339 5.652-5.339s5.652 2.395 5.652 5.339c-0.006 0.576-0.103 1.13-0.282 1.653z"></path>
<path d="M16 25.863c-2.633 0-5.113-1.027-6.976-2.89s-2.887-4.34-2.887-6.973 1.027-5.113 2.89-6.976 4.337-2.887 6.973-2.887c2.633 0 5.113 1.027 6.976 2.89s2.887 4.337 2.887 6.973-1.027 5.113-2.89 6.976-4.34 2.887-6.973 2.887zM16 6.607c-5.179 0-9.393 4.214-9.393 9.393s4.214 9.393 9.393 9.393 9.393-4.214 9.393-9.393-4.214-9.393-9.393-9.393z"></path>
<path d="M17.478 2.135h-3.319c-0.213 0-0.319-0.257-0.169-0.407l1.659-1.659c0.094-0.094 0.244-0.094 0.338 0l1.66 1.659c0.15 0.15 0.044 0.407-0.169 0.407z"></path>
<path d="M15.941 1.879h-0.244c-0.132 0-0.238 0.106-0.238 0.238v4.881c0 0.131 0.106 0.238 0.238 0.238h0.244c0.131 0 0.238-0.106 0.238-0.238v-4.881c0-0.131-0.106-0.238-0.238-0.238z"></path>
<path d="M17.478 29.861h-3.319c-0.213 0-0.319 0.257-0.169 0.407l1.659 1.66c0.094 0.094 0.244 0.094 0.338 0l1.66-1.66c0.15-0.15 0.044-0.407-0.169-0.407z"></path>
<path d="M15.941 30.118h-0.244c-0.132 0-0.238-0.106-0.238-0.238v-4.881c0-0.131 0.106-0.238 0.238-0.238h0.244c0.131 0 0.238 0.106 0.238 0.238v4.881c0 0.131-0.106 0.238-0.238 0.238z"></path>
<path d="M29.861 17.844v-3.319c0-0.213 0.257-0.319 0.407-0.169l1.66 1.659c0.094 0.094 0.094 0.244 0 0.338l-1.66 1.66c-0.15 0.15-0.407 0.044-0.407-0.169z"></path>
<path d="M30.118 16.307v-0.244c0-0.132-0.106-0.238-0.238-0.238h-4.881c-0.131 0-0.238 0.106-0.238 0.238v0.244c0 0.131 0.106 0.238 0.238 0.238h4.881c0.131 0 0.238-0.106 0.238-0.238z"></path>
<path d="M2.135 17.844v-3.319c0-0.213-0.257-0.319-0.407-0.169l-1.659 1.659c-0.094 0.094-0.094 0.244 0 0.338l1.659 1.66c0.15 0.15 0.407 0.044 0.407-0.169z"></path>
<path d="M1.879 16.307v-0.244c0-0.132 0.106-0.238 0.238-0.238h4.881c0.131 0 0.238 0.106 0.238 0.238v0.244c0 0.131-0.106 0.238-0.238 0.238h-4.881c-0.131 0-0.238-0.106-0.238-0.238z"></path>
<path d="M26.436 6.917l-2.348-2.348c-0.15-0.15-0.044-0.407 0.169-0.407h2.348c0.131 0 0.238 0.106 0.238 0.238v2.348c0 0.213-0.257 0.319-0.407 0.169z"></path>
<path d="M25.528 5.649l-0.172-0.172c-0.094-0.094-0.244-0.094-0.338 0l-3.447 3.451c-0.094 0.094-0.094 0.244 0 0.338l0.172 0.172c0.094 0.094 0.244 0.094 0.338 0l3.451-3.45c0.091-0.094 0.091-0.244-0.003-0.338z"></path>
<path d="M6.829 26.524l-2.348-2.348c-0.15-0.15-0.407-0.044-0.407 0.169v2.348c0 0.131 0.106 0.238 0.238 0.238h2.348c0.213 0 0.319-0.257 0.169-0.407z"></path>
<path d="M5.561 25.616l-0.172-0.172c-0.094-0.094-0.094-0.244 0-0.338l3.45-3.451c0.094-0.094 0.244-0.094 0.338 0l0.172 0.172c0.094 0.094 0.094 0.244 0 0.338l-3.45 3.451c-0.094 0.094-0.244 0.094-0.338 0z"></path>
<path d="M7.549 4.85l-2.348 2.348c-0.15 0.15-0.407 0.044-0.407-0.169v-2.348c0-0.131 0.106-0.238 0.238-0.238h2.348c0.213 0 0.319 0.257 0.169 0.407z"></path>
<path d="M6.281 5.755l-0.172 0.172c-0.094 0.094-0.094 0.244 0 0.338l3.451 3.451c0.094 0.094 0.244 0.094 0.338 0l0.172-0.172c0.094-0.094 0.094-0.244 0-0.338l-3.45-3.45c-0.094-0.094-0.244-0.094-0.338 0z"></path>
<path d="M27.156 24.454l-2.348 2.348c-0.15 0.15-0.044 0.407 0.169 0.407h2.348c0.131 0 0.238-0.106 0.238-0.238v-2.348c0-0.213-0.257-0.319-0.407-0.169z"></path>
<path d="M26.251 25.725l-0.172 0.172c-0.094 0.094-0.244 0.094-0.338 0l-3.45-3.454c-0.094-0.094-0.094-0.244 0-0.338l0.172-0.172c0.094-0.094 0.244-0.094 0.338 0l3.451 3.451c0.091 0.094 0.091 0.247 0 0.341z"></path>
</symbol>
<symbol id="icon-phone" viewBox="0 0 24 32">
<path d="M6.083 31.685c-8.117-8.117-8.105-21.266 0-29.371 0.356-0.356 0.908-0.414 1.329-0.151l4.051 2.532c0.305 0.193 0.505 0.529 0.505 0.911 0 0.144-0.028 0.281-0.079 0.406l0.003-0.007-2.025 5.064c-0.163 0.399-0.548 0.675-0.997 0.675-0.038 0-0.075-0.002-0.111-0.006l0.005 0-3.488-0.349c-1.316 3.641-1.288 7.654 0 11.22l3.488-0.349c0.032-0.003 0.069-0.005 0.107-0.005 0.45 0 0.835 0.276 0.995 0.668l0.003 0.007 2.025 5.064c0.049 0.118 0.077 0.255 0.077 0.399 0 0.382-0.2 0.718-0.5 0.908l-0.004 0.003-4.051 2.532c-0.162 0.102-0.358 0.163-0.569 0.163-0.297 0-0.565-0.12-0.76-0.315v0zM15.445 5.967c0.74 1.253 0.74 2.813 0 4.066-0.247 0.418-0.819 0.497-1.17 0.161l-0.373-0.358c-0.244-0.234-0.3-0.601-0.141-0.901 0.146-0.271 0.232-0.593 0.232-0.936s-0.086-0.665-0.237-0.946l0.005 0.011c-0.158-0.299-0.103-0.666 0.141-0.901l0.373-0.358c0.351-0.336 0.923-0.257 1.17 0.161zM21.182 0.268c3.759 4.475 3.756 10.993 0 15.464-0.28 0.333-0.783 0.359-1.097 0.058l-0.362-0.347c-0.285-0.273-0.311-0.721-0.058-1.024 3.105-3.721 3.103-9.121 0-12.839-0.253-0.303-0.227-0.75 0.058-1.024l0.362-0.347c0.314-0.301 0.817-0.275 1.097 0.058zM18.309 3.077c2.253 2.895 2.257 6.947 0 9.847-0.274 0.353-0.794 0.391-1.116 0.082l-0.364-0.349c-0.275-0.264-0.312-0.693-0.080-0.996 1.659-2.16 1.658-5.161 0-7.321-0.232-0.302-0.195-0.732 0.080-0.996l0.364-0.349c0.322-0.309 0.842-0.271 1.116 0.082z"></path>
</symbol>
<symbol id="icon-info" viewBox="0 0 32 32">
<path d="M16.247 4.733c0 1.684 1.271 2.825 2.84 2.825s2.842-1.142 2.842-2.825c0-1.685-1.272-2.826-2.842-2.826-1.568 0-2.84 1.141-2.84 2.826zM10.096 14.375c0 0.334-0.061 1.163 0.008 1.662l2.479-2.983c0.513-0.562 1.106-0.955 1.409-0.849s0.47 0.463 0.371 0.795l-4.103 13.59c-0.473 1.588 0.421 3.148 2.599 3.504 3.189 0 5.084-2.158 6.948-4.955 0-0.334 0.111-1.213 0.044-1.713l-2.479 2.982c-0.514 0.562-1.151 0.955-1.455 0.85-0.28-0.098-0.444-0.41-0.389-0.721l4.132-13.653c0.344-1.734-0.59-3.312-2.564-3.514-2.076 0.001-5.136 2.209-7 5.005z"></path>
</symbol>
<symbol id="icon-close" viewBox="0 0 32 32">
<path d="M30.721 6.774l-9.197 9.253 9.197 9.198c0.385 0.384 0.385 1.007 0 1.392l-4.176 4.175c-0.383 0.385-1.006 0.385-1.391 0l-9.182-9.182-9.127 9.182c-0.384 0.385-1.007 0.385-1.392 0l-4.175-4.175c-0.384-0.385-0.384-1.008 0-1.392l9.127-9.182-9.126-9.126c-0.384-0.384-0.384-1.007 0-1.392l4.175-4.175c0.384-0.385 1.007-0.385 1.392 0l9.11 9.11 9.199-9.253c0.385-0.385 1.008-0.385 1.391 0l4.176 4.175c0.383 0.385 0.383 1.008-0.001 1.392z"></path>
</symbol>
<symbol id="icon-nav" viewBox="0 0 24 28">
<path d="M24 21v2c0 0.547-0.453 1-1 1h-22c-0.547 0-1-0.453-1-1v-2c0-0.547 0.453-1 1-1h22c0.547 0 1 0.453 1 1zM24 13v2c0 0.547-0.453 1-1 1h-22c-0.547 0-1-0.453-1-1v-2c0-0.547 0.453-1 1-1h22c0.547 0 1 0.453 1 1zM24 5v2c0 0.547-0.453 1-1 1h-22c-0.547 0-1-0.453-1-1v-2c0-0.547 0.453-1 1-1h22c0.547 0 1 0.453 1 1z"></path>
</symbol>
</defs>
</svg>
