<?xml version="1.0" encoding="utf-8"?>
<!-- Generator: Adobe Illustrator 23.0.2, SVG Export Plug-In . SVG Version: 6.00 Build 0)  -->
<svg version="1.1" id="Layer_1" xmlns="http://www.w3.org/2000/svg" xmlns:xlink="http://www.w3.org/1999/xlink" x="0px" y="0px"
	 viewBox="0 0 1848.2 617.6" style="enable-background:new 0 0 1848.2 617.6;" xml:space="preserve">
<style type="text/css">
	.st0{fill:#545455;}
</style>
<path id="Path_40" class="st0" d="M71.1,612.6l17.5,1.7c0,0,5.9-2.6,8.6-2.3s14-0.9,14-0.9l9.4,0.4c0,0-5.9-3.7-4.9-4.1
	c1-0.2,2-0.6,3-1c1-0.5,2.1-1,3.3-1.3l-1.7-0.8c1.5-0.4,3.1-0.5,4.7-0.3c2,0.3,3.7,0.2,5.1,1.1s2.4,0.7,2.1,1.7
	c-0.3,1-1.3,1.3-0.6,1.8c1,0.5,2,0.8,3.1,1c0,0,5-0.8,6-0.8s5,0.2,5,0.2c2,0,4-0.1,6-0.4c2-0.4,5.3-1,7-1.3c1.7-0.3,6-1.4,7.3-1.1
	c1.4,0.4,5.7,0.7,6.4,1.3c0.7,0.6,1.4,0.9,1.4,1.3c0,0.4,0.4,0.6,1.7,1c1.4,0.4,11.1,0,11.1,0l4.2-2.1l7.5,1.8c0,0,7.7,0.3,9.4,0.1
	c1.7-0.2,13-1,13-1c-0.4-0.8-0.8-1.6-1.2-2.5c0-0.3,1.3-0.8,1.3-0.8s2-0.2,2-0.5c-0.1-0.4,0-0.8,0.3-1.1c0.8-0.5,1.7-0.9,2.6-1.1
	c1-0.2,3.3-0.3,3.3-0.3l-1.6,1.8c1,0.6,1.7,0.3,2.4,0.8c0.7,0.5,1.7,1.2,1.7,1.2s-0.3,0.1,1,0.5c1.8,0.4,3.6,0.6,5.4,0.7
	c1,0.1,5.7,0.6,6.4,0.1c0.6-0.5,0.9-1.5,1.9-1.4s3.4,0.4,4.7,0.7c3.3,0.5,6.7,0.7,10.1,0.5c1.7-0.3,3.6-1.1,4.6-1.3
	s-1.7-1.1,3.3-0.6c5.1,0.5,7.8,0.8,8.8,0.9c1,0.1,9.1,0,9.1,0l4.9-1.5c0,0,0.3-0.6,2-0.8c1.7-0.2,7.7-0.6,9.7-0.6c2,0,2.4,0.3,5-0.1
	c1.6-0.3,3.1-0.7,4.6-1.3c0.9-0.2,1.8-0.4,2.6-0.8c0.7-0.3,0.9-1.1,2-1s4.4,0.3,4.4,0.3l3.1,0.9l6.1,0.5l3.3-0.9c0,0,0.3-0.5,2-0.5
	c1.7,0,5.7,0.1,7.4,0.3c1.7,0.2,8.3-0.8,8.3-0.8c0.7-0.5,1.5-0.8,2.3-1c1,0,6.4-0.1,6.4-0.1s4.1,0.8,5.1,0.9c1,0.2,6,0.1,6,0.1
	l4.7-0.5l4-0.5l7.7,0.4l18.6,2.9l3.6,0.8c0,0,6.7-0.9,9.8-0.5s5.4,0.6,6.3,1.1s4.5,0.9,4.5,0.9s11.2-0.1,13.8-0.5
	c2.3-0.4,4.7-0.7,7.1-0.9c2.7-0.1,6.2-1.1,9.8-0.3c3.5,0.7,7.2,1,10.8,0.9c2.4,0,4.8-0.1,7.1-0.5c2.6-0.5,8.8-1.5,10.6-1.9
	c1.8-0.4,6.7-0.9,8.4-1.4c1.8-0.5,1.3-1.2,7.1-0.9s10.8,0.6,15.7,0.3c4.9-0.4,19.6-1.5,20.9-2c1.3-0.5,5.3-1.7,5.3-1.7l7.1-1.6
	c0,0,8.5-0.7,10.7-0.4c2.5,0.3,5.1,0.5,7.6,0.5c2.7,0,13.8-1.2,16-1.3c2.2-0.1,3.5-1,7.1-0.6c3.6,0.4,8.6,1.1,8.6,1.1l5.4,0.3
	c0,0,9.8-0.5,12.5,0.3c2.7,0.7,1.9,2,3.7,2.6c1.7,0.6,3.6,1,5.4,1.2c2.7,0.3,4.9,0.2,8.1,0.3s4.9-0.5,8.6,1c1.7,0.8,3.6,1.4,5.5,1.7
	c1.4,0.4,11.5-2.2,11.5-2.2c2.6-0.5,5.3-0.7,8-0.7c3.1,0.3,4.5,0.4,7.6,0.5s8.1,0.3,8.1,0.3l3.9-2.2l10.2-1.5c0,0,6.3,0.7,7.2,1.1
	c0.9,0.4,3.2,1.4,3.2,1.4l5.3-1l-5.7,2.7c0,0,5.5,1.6,7.7,1.5c2.2-0.1,12.9-1.4,12.9-1.4s-0.1-2.4,4-0.7c4.1,1.6,4.6,1.8,7.3,1.9
	c2.7,0.2,6.7,0.7,9.8-0.2c3.1-0.8,9.2-3.9,10.5-4.4c1.3-0.5,21.8-2.1,23.6-2.1c1.8,0.1,7.6,0.5,11.2,1c3.6,0.5,5,0.6,6.8,1
	c1.8,0.3,6.7,0.1,8.5,0c1.8-0.1,9.4-0.6,11.1-0.8c3.4-0.7,6.8-0.9,10.2-0.8c4.5,0.4,12.5,0.4,12.5,0.4s3-2.7,4.7-2.9
	c3.7-0.5,7.4-0.9,11.1-1.1c3.6,0,10.7,0.1,10.7,0.1l6.7-0.3c0,0,14-4.9,19.8-4.9c5.8,0,10.3,0.1,10.3,0.1c2.8,0.5,5.7,0.6,8.5,0.3
	c5.3-0.4,14.7-0.8,16.4-1.7c1.7-0.9,0.4-1.4,3.9-1.3c3.6,0.1,6.3,0.3,9,0.6s10.8,0.5,10.8,0.5s1.7-0.9,5.8-1c4,0,10.7-0.2,10.8,0.6
	s-0.9,0.7,1,1.5c1.8,0.8,3.6,0.8,6.8,1.1c4.2,0.3,8.4,0.3,12.5,0.1c4.5-0.2,9.8-0.6,11.1-0.5c1.3,0.1,6.8,1.4,6.8,1.4l13.4,0.4
	c0,0,7.1-0.5,9.8-1.3c2.6-0.8,6.6-2,7.5-1.2c0.9,0.8,0.5,1.2,1.4,1.8c0.7,0.4,1.5,0.7,2.3,0.9c0,0,6.2-1,6.7-0.6
	c0.7,0.8,1.3,1.6,1.9,2.4l1.8,0.3l2.9-3.1c2.1-0.7,4.4-1.2,6.6-1.3c3.6-0.2,7.6,0.6,8-0.5c0.4-1.1-0.6-2.4,1.6-3.2
	c2.2-0.8,12-1.7,12-1.7s13.4-0.1,13.8-0.5s0-0.1,1.7-1.1c1.7-0.9-1.4-1.3,3-1.4c4.5-0.1,12.5,0.1,16.1,0.2
	c3.6,0.1,12.5,0.1,13.8-0.5c1.1-0.5,2.3-0.8,3.5-1c1.3-0.5,2.6-0.9,4-1.2c1.8-0.2,3.5-0.9,7.1-0.5c3.3,0.4,6.6,0.5,9.9,0.4
	c1.3-0.2,1.8-0.2,4-0.6c2.3-0.5,4.8-0.5,7.1-0.2c2.3,0.5,2.7,0.9,5.8,0.4s13.8-1.3,13.8-1.3c2.6-0.9,5.2-1.6,7.9-2.2
	c5.3-1.2,8.4-2.1,10.1-2.6s4.9-0.1,5.8-0.8c0.8-0.7-1.5-2,3-2.7c4.4-0.6,16.5-0.9,16.5-0.9l9.9,0.2l2.3,1c2.2,0.1,4.5,0.1,6.7-0.2
	c1.8-0.4,8-1.6,11.1-1.6c3.1,0,17.9,0.2,20.6,0.2c2.7,0,8-0.2,10.3,0.1c2.3,0.3,9,0.7,9,0.7s8.5,0.3,10.3-0.2s6.2-1.4,7.5-1.8
	s2.7-0.3,3.1-0.7c0.4-0.4-0.9-0.8,3.1-0.8c4,0,10.3,0.4,12.5,0.1c2.2-0.2,5.3-1.1,7.5-1.3c2.2-0.2,9.3-1.1,12.9-0.7s7.2,0.7,7.2,0.7
	c1.3,0.3,2.7,0.3,4,0.1c1.8-0.4,13.3-2.2,13.3-2.2l27.6-2.1l4.5,0.4l15.1-1.1l1.3-0.9l23.1-2.6c0,0,6-1.1,9.4-0.4s5.4,1.2,8.8,1.7
	s14.1-0.2,16-0.7c2-0.5,5.9-2.2,10.6-2.6c4.7-0.4,22.1-0.8,24.8-0.3c4,0.6,8.1,1,12.1,1.1c3.4,0.1,21.2-3.5,21.2-3.5
	c1.2-0.1,2.3-0.4,3.3-1c1.3-0.9,2.5-2.9,4.5-3.2c2-0.3,1.9-1.1,7.3-1c5.4,0.2,5.4,0.6,8.7,0s9.2-2.3,12.6-2.5
	c3.3-0.2,8-0.6,10.1,0.2s0.6-0.5,2.1,0.7s2.1,1.2,2.1,2.2c0.1,1.1-2.6,1.2,0.8,1.9c3.4,0.7,4,0.4,7.4,0.7c3.4,0.3,8.7,0,11.4,0.3
	s3.4,1.5,5.5,1.9c2,0.3,2.7,0.9,6.1,0.4c3.3-0.6,11.3-2.2,13.3-2.5c2.9-0.5,5.8-1.1,8.6-1.9c2.6-0.8,0.6-1.7,7.9-2.3
	s11.3-1.4,17.4-1c6.1,0.4,12.7,0,14.7-1.1l1.9-1.1c1.9-1.3,4.2-2.3,6.5-2.8c3.3-0.6,6.6-2.4,11.9-2.5s13.4,0.2,13.4,0.2
	s-3.4-0.7,4.6-1.1s25.4-1,25.4-1s4.8,1,8.2,1.7c3.4,0.7,6.8,1.6,6.8,1.6l13.5,1.5c0,0,9.4,0,12.7-0.4s9.9-2.1,13.2-2.9
	s11.9-2,11.9-2s12.4-17,8.3-18.5c-4.1-1.5-8.1-0.9-9.6-3.4c-1.5-2.5-0.1-2.1,1-5.5s2.5-3.9,2.3-6l-1.9-32l-9.7-5
	c0.6-1.6,1-3.4,1-5.1c-0.1-2.1,2.6-1.8,4.9-8.7c2.3-6.9,3.5-9.4,3.5-9.4s9.5-20.7,1.2-25c-8.3-4.3-20.5-6.2-20.8-12.1
	c-0.2-4,0-7.9,0.6-11.8c0,0,5.1-3.6,6.3-6.6c1.2-3,3.7-5.7,2.1-10.6c-1.6-5-1.7-5.4-3.1-7s-18.3-21.9-15-26.6c3.3-4.7,4.7-12,4.7-12
	l6.2-16c0,0-6.1-12.1-6.3-16c-0.2-3.9-2.4-10-0.8-13.5c1.6-3.4,1.2-9.6,1.2-9.6l6.6-9.3l6.4-13.2l-4-7.7c-2.2-1.3-4.1-2.9-5.6-4.8
	c-1.9-2.7-1.9-2.7-2.1-5c-0.1-2.2,1.8-0.6-0.2-3.9c-2-3.3-7.7-8.6-7.8-10.3l-1.6-26.9c-0.1-2.2,5-5.3,4.7-10.9l-0.9-14.6
	c0,0-11-4-11.1-6.8s2.7-14.8,2.7-14.8l6.3-13.8c0,0-6-11-8-14.8c-2-3.8-2.1-5-2.1-5l5.1-5.3c1.5-1.4,3.3-2.6,5.1-3.6l3-9.1l-0.2-2.8
	l14-35.8c0,0-16.8-11.9-11.7-16.3c3-2.5,4.7-5.9,4.8-9.5l-11.1-6.2l-3.1-7.5L1793.5,8l-10.7,1.3l-10.6,2.2l-16,0.7l-16.3-3.5
	c0,0-34.7,2.7-38.6,4.7s-13.3,2.3-13.3,2.3s-13.5-1.1-14.8-1.6c-1.4-0.7-2.8-1.5-4.2-2.3c0,0-2.8-1.6-8,0.2c-5.3,1.7,4,0.4-5.3,1.7
	c-9.3,1.3-9.3,1.9-15.3,1.6c-6.1-0.4-5.4-1-10.7-0.1c-5.3,0.9-10,1.7-10,1.7l-12.7,0.6l-6.1-1.2l-8.2-3c0,0-3.5-2.4-10.1-0.8
	c-6.6,1.6-4,1.2-6.6,1.6c-2.7,0.3-2,0.9-6.1-0.4c-1.9-0.5-3.7-1.2-5.5-2.1l-4.1-1.9c-2.1-1-2.2-3.9-2.2-3.9l1.8-2.8
	c0,0,2.6-1.4-2.8-2c-5.4-0.6-5.5-1.4-8.1-0.9c-1.4,0.2-2.7,0.7-3.9,1.4l-2.6,1.8l-6.6,1.4l-4.7-0.6l-3.3,0.4l-5.2,2.4l-7.4-0.3
	l-4.1-0.4l-8.8-0.6l-12,2l-2.6,0.5c0,0,1.3-0.3-4.7-0.4c-6-0.1-9.4-0.2-9.4-0.2l-10.7,0.9l-7.4-0.7l-4.6,0.8l-5.2,1.9l-8.1,0
	c0,0,1.8-3.5-9.4,0.2l-11.2,3.7l-7.2,2.4l-9.4,0.2l-4-0.2l-8.7,0.8l-6.1-0.6l-8.8-0.9l-4.6,1.3l-12,1.8c-8,0.4-12.7,0.4-12.7,0.4
	l-12.7,1l-2.6,0.8l-10.7,1.3l-16.7,1l-0.5,2.6c0,0,2.1,1.6-0.5,2.1c-2.9,0.4-5.8,0.6-8.7,0.6l-7.4-0.5l-14.8-1.4
	c-1.7-0.7-3.6-0.8-5.4-0.4l-2.6,0.8c-2.3,0.9-4.8,1.3-7.3,1.4c-4.7,0.2-5.4-1.2-14.1-1c-8.7,0.2-13.5-1.1-17.4,0.4
	c-3.9,1.5,2.6-0.8-3.9,1.4c-4.5,1.4-9.2,2.2-13.9,2.3l-12.2-1.5c0,0-9.4-0.6-14.1-1c-2.9-0.3-5.8-0.6-8.8-0.6
	c-2.2,0-4.5,0.1-6.7,0.3l-2.6,1.2c0,0,2.7,0.5,2.1,1.6c-0.3,0.6-0.8,1.2-1.2,1.7c0,0-4.6,0.8-5.9,1.5s-1.4-1.2-1.9,1.4
	c-0.5,2.6,8.1,1.5-0.5,3.4c-8.6,1.9-7.3,1-8.6,1.9c-1.3,0.9-0.7-0.8-1.3,0.9c-0.6,1.7,2,0.5-0.6,1.7c-2.6,1.2-5.9,2.6-5.9,2.6
	c-1.3,0.2-2.7,0.4-4,0.4c-2.7,0.1-8,0-8,0s-2-0.5-0.1-1.1c2-0.7,4-1.6,5.9-2.6l-0.1-1.5l-6,0.1c-1.4-0.3-2.8-0.6-4.1-1.1
	c-1.4-0.6-0.7-0.6,0.6-1.3c1.3-0.7,5.3-1.1,1.2-1.7c-3.5-0.7-6.9-1.5-10.2-2.5c-3.3,0.8-3.9,1.9-3.9,1.9l-1.3,1.1
	c-2-0.8-4-1.4-6.1-1.8c-2.7-0.5,2-0.7-2.7-0.5c-4.7,0.2-5.2,3.2-5.2,3.2l-4.7,0.6l-9.4-0.8c-1.1-0.3-2-0.8-2.8-1.6
	c-0.7-0.6,2,0.1-0.7-0.6c-2.7-0.7-6.6,1.2-8.6,1.5c-2,0.3,0-0.8-2,0.3l-1.9,1.1c0,0,0.6-0.9-1.3,0.9c-1.9,1.8-1.7,1.7-7.9,2.3
	c-6.2,0.6-20.6-0.2-20.6-0.2l1,1.4c0,0-9.8,0.7-15.2-0.1c-5.4-0.9,0,0.3-5.4-0.9c-5.4-1.2,7.8-3.5-8.1-1.6c-16,1.9-11.6,0.3-16,1.9
	c-4.4,1.6-0.7,3.1-4.4,1.6c-2.3-0.9-4.8-1.6-7.3-1.9l-9-0.7l-19.9-3.6l-5.3,1.1l-3.4,2.7l0.2,3.4l-27.6,1.8
	c-0.4,1.2-0.9,2.4-1.6,3.4L897.7,53l-10.8-0.9c0,0,1.7-1.8-7.2-0.5s1.2,5.3-14.8,6.3s-24,1.7-28.6,0.8c-4.5-0.9-2.7,0.1-7.2-1.6
	l-4.6-1.8l0,0c-8.9-0.1-8.9,0.1-10.6,1.3l-1.7,1.2c0,0-9.7,2.7-15.1,1.5c-4-0.8-8-2-11.8-3.4l-2.7-1c-0.9-1-2.2-1.5-3.7-1.5
	c-2.7-0.2-11.7-2-13.4-0.5c-1.7,1.5-2.5,2.4-2.5,2.4l-7.8,3.7c0,0,0,0.8-8,0.7c-8.1-0.2-9.9-0.4-12.6-1.1c-2.7-0.7,2.6-1.5-2.7-0.7
	c-3.5,0.7-6.8,2.1-9.6,4.1c0,0,3.6,0.1-8,0.1s-11.6,0.3-17-0.6c-5.4-0.9-15.4-2.7-16.3-3.5c-0.9-0.8,0.7-3.4-6.5-3.4
	c-7.2,0,2.4-4.1-16,1s-24.7,6.2-27.3,6.6s-6.2,0.9-6.2,0.9l-8,0.9c0,0-15.3-1.3-22.4-0.6c-7.1,0.6-6.4-3.1-15.2,0.7s-9.5,5.5-13.1,6
	s-8.8,1.8-16.1-0.1c-7.3-1.9-7.3-2.8-10.9-3.2c-3.6-0.4,9.7-3-7.2-0.8L515,68.3c0,0,0.2,3.1-12.4,1.1s-6.4-3.1-19.8-3
	c-13.4,0.1-14.4-1.6-19.7-0.2c-5.3,1.4-8.8,2.1-8.8,2.1l-4.4,0.5l-6.2,1.7l-3.5,1.8l2.9,3.2l-5.3,1.4l-4.5,0.2l-3.4,2.7
	c0,0-17.6-0.2-18.7,0.6l-2.6,1.8l-8.9,0.1l-3.7-2.1l-6.4-1.7l-5.4-0.3l2.5-3.2c0,0,6.2-0.9-4.5-0.9c-10.7-0.1-14.3,0.4-14.3,0.4
	l-4.4,1c0,0-4.6-1.5-5.4,0s1,2.2-3.4,2.7l-4.4,0.5c0,0-9-0.7-13.4-0.5c-4.5,0.2-1.8-0.5-8,0.7c-6.2,1.1,5.3-0.8-6.2,1.1
	s-1.8,0.1-11.5,1.9s-11.6,0.5-17.8,0.8c-6.2,0.3,6.7-7.3-10.7,0.5S269.8,94.9,257.4,96c-12.4,1.1-4.4,1.3-12.4,1.1
	c-8.1-0.2-5.3,1.6-8.1-0.2c-1.5-0.9-2.8-2.1-3.8-3.5c0,0-1.9-1.3,1.7-2.3c3.5-1,2.5-3.2-3.7-2.9c-6.2,0.3-2.8-1.3-6.2,0.3
	s7.2,1.1-3.5,1.6c-10.7,0.5,3.6,1-10.7,0.5c-14.3-0.5-8.1-0.5-14.3-0.5c-6.3,0,0,0-9.8,0.5c-9.8,0.5-9.8,0.5-13.4,0.3
	s3.6-0.2-7.2-0.5s-6.3-0.8-13.5-0.8c-7.2,0.1-1-1.1-7.2,0.1s-9.3-6.3-12.8-5.6s-6.2,0.3-7.9,2.3s0.9,0.8-1.7,2s2.7,1-2.6,1.2
	c-5.3,0.2-3.8-3.2-5.4,0.2c-0.6,1.5-1.4,3-2.4,4.3l-3.5,0.7l-6.3-0.6L99,94.4l-9.7,1.6L82.1,96c0,0-4.5-0.6-4.4,0.5
	c0.1,1.1-3.4,2.7-3.4,2.7s-0.8,0.9-6.2,0.6l-5.4-0.3c0,0-1.8,0.4-3.7-1.5c-1.9-1.9-0.3-4.8-5.6-3.7l-5.3,1.1c0,0-10.7,0.8-11.5,1.7
	l-0.8,0.9l-6.2,4.8l2.1,1.4c0,0,4-0.2,3.4,1.5s9.4,0.6-0.6,1.7l-10,1.1l-5.6,7.2l3.5,2.4c0,0,2.8,1.3,2.8,2.2
	c-0.1,0.9-0.2,1.9-0.5,2.8l-0.6,1.1c-0.4,0.9-0.6,1.8-0.5,2.8l0.2,4c0.1,1.9-0.5,2.3,0.2,3.8c0.8,1.4,2.2,3.7,2.2,3.7l0.1,2.5
	l2.1,1.8l-0.6,1.9l-1.2,2.8c0,0-5.2,2.8-5.8,3.9c-0.3,0.7-0.3,1.5,0.1,2.1c0,0-15.1,17.2-12.1,22.9s5.8,7.3,8.8,13.1
	c1.9,4,3.1,8.2,3.4,12.5c0,0-10.2,9.8-15.3,14.2c-5.1,4.5-7.8,4.6-4.9,7.8c2.9,3.2,11.1,6.2,13.9,8.6s8.2,3,8.4,6.4
	c0.2,3.4-4.8,9.5-4.8,9.5s-7.5,8.8-7.3,13c0.2,4.2,11.5,13.8,11.5,13.8l8.3,3.8l0.6,10.9c0,0-5,6.1-7.5,8.8s-7.6,7.9-12.8,10.7
	l-5.2,2.8c0,0,4.3,27.6,4.5,30.2c0.1,2.5,0.3,5,5.9,9c5.6,4,6.1,13.2,6.1,13.2s-5.1,4.5-2.1,9.4s14.1,11.2,14.1,11.2l11,5.4
	c0,0,0.5,8.4-2,11.1c-2.5,2.6-2.3,6.9-2.3,6.9s-4.9,7.8-4.7,12c0.2,4.2,5.5,2.3,0.4,7.6s-18,13.5-18,13.5l-2.2,8.5l8.4,6.4
	c0,0,10.9,3.7,14,10.3s8.4,6.4,8.7,10.6l0.4,7.6L66,504.3L52.9,510c0,0-15.9,3.3-18.4,6.8c-2.5,3.5,0.6,10.1,0.6,10.1
	s5.5,2.3,5.6,4.8c0.1,2.5,8-1.2,3,4.9c-5,6.1-10.3,6.4-12.8,9.9s-5.1,4.5-5,7c0.1,2.5,2.8,2.4,5.6,4.8c2.8,2.4,7.9-2.9,3,4.9
	c-4.9,7.8-7.5,9.6-7.2,14.7c0.3,5,5.9,9.8,5.9,9.8s13.8,7,16.6,9.4s10.8,1.2,5.7,5.6l-5.1,4.5c-5.1,4.5-7.6,7.1-7.6,7.1l0.2,3.4
	L71.1,612.6z"/>
</svg>
